<?xml version="1.0" encoding="UTF-8"?>
<svg width="187px" height="36px" viewBox="0 0 187 36" version="1.1" xmlns="http://www.w3.org/2000/svg" xmlns:xlink="http://www.w3.org/1999/xlink">
    <!-- Generator: Sketch 55.2 (78181) - https://sketchapp.com -->
    <title>k-logo</title>
    <desc>Created with Sketch.</desc>
    <g id="k-logo" stroke="none" stroke-width="1" fill="none" fill-rule="evenodd">
        <path d="M70.5097322,8.37565548 C71.0392423,7.88331706 71.307482,7.17132261 71.2344638,6.45198517 C71.3082,5.55618202 70.9286708,4.68292901 70.2234185,4.12568619 C69.8896941,3.91320164 69.5005469,3.80424043 69.1050055,3.81253056 C68.8468973,3.81346308 68.5925838,3.87474345 68.3623793,3.99147664 C67.725606,4.45425077 67.3844476,5.22185714 67.4676489,6.00461998 C67.4069993,6.9398668 67.8289488,7.84115102 68.5860619,8.39355009 C68.9017969,8.58215867 69.2653615,8.67538037 69.6328965,8.6619692 C69.9549561,8.67059752 70.2704075,8.56965307 70.5276268,8.37565548 L70.5097322,8.37565548 Z M67.2439663,8.37565548 C66.7146023,7.78864469 66.4353058,7.0181717 66.4655509,6.22830258 C66.4483093,5.5922297 66.6575943,4.97071648 67.056073,4.47463104 C67.6464301,3.77232955 68.5186011,3.36903245 69.4360558,3.37411268 C70.1758502,3.33502461 70.8974573,3.61184671 71.4213007,4.13569004 C71.945144,4.65953338 72.2219661,5.3811405 72.182878,6.12093493 C72.2171961,6.79212721 72.0215074,7.45494397 71.6281452,7.99986872 C71.0604468,8.72659808 70.1882273,9.14949239 69.266057,9.14512361 C68.5051327,9.18409474 67.7634991,8.8978502 67.2260717,8.35776088 L67.2439663,8.37565548 Z M73.6860251,3.51726954 C73.8560238,3.51726954 74.2765471,3.51726954 74.8760165,3.51726954 C75.4754858,3.51726954 75.8602199,3.51726954 76.1017971,3.51726954 C76.147067,3.62917971 76.147067,3.75430421 76.1017971,3.86621438 L75.6186427,3.96463473 C75.4486439,3.96463473 75.3949601,4.09884428 75.3860128,4.35831609 C75.3770655,4.6177879 75.3860128,4.96673275 75.3860128,5.85251582 C75.3880594,5.89639852 75.4114529,5.93650162 75.4486439,5.95988347 L76.8712652,5.95988347 L78.2670446,5.95988347 C78.303047,5.95534872 78.3299602,5.92459083 78.3296757,5.88830504 C78.3296757,5.43199254 78.3296757,4.59094599 78.3296757,4.25989575 C78.3296757,4.12568619 78.2759919,4.02726585 78.1507296,3.99147664 C77.9629497,3.92685502 77.7673446,3.887734 77.5691549,3.87516169 C77.5065238,3.87516169 77.5691549,3.57095336 77.5691549,3.52621684 C77.7928375,3.52621684 78.2849392,3.52621684 78.7591463,3.52621684 C79.2333534,3.52621684 79.8238754,3.52621684 79.9491377,3.52621684 C80.0035016,3.63617958 80.0035016,3.76519895 79.9491377,3.87516169 C79.7793,3.89147227 79.6114768,3.92443754 79.4480887,3.97358203 C79.2423007,4.03621316 79.2244061,4.16147541 79.2154588,4.44778913 C79.2065115,4.73410285 79.2154588,5.15462613 79.2154588,6.16567145 C79.2154588,6.95303418 79.2154588,7.88355378 79.2154588,8.19670941 C79.2154588,8.50986504 79.3049318,8.52775965 79.4838779,8.58144347 C79.6892694,8.63472653 79.8987781,8.6706423 80.1101892,8.68881111 C80.1101892,8.74249494 80.1101892,9.01091405 80.0565053,9.03775596 C79.8417701,9.03775596 79.2154588,9.03775596 78.7233571,9.03775596 C78.2312554,9.03775596 77.8286267,9.03775596 77.5333657,9.03775596 C77.4880958,8.92584578 77.4880958,8.80072129 77.5333657,8.68881111 C77.7242873,8.67666977 77.9133064,8.64366645 78.0970458,8.59039077 C78.24915,8.53670695 78.3028338,8.43828661 78.3207284,8.22355132 C78.338623,8.00881603 78.3207284,7.10513835 78.3207284,6.55040551 C78.3130636,6.51616281 78.2841071,6.49082592 78.24915,6.48777439 L76.8265287,6.48777439 C76.1465336,6.48777439 75.4665385,6.48777439 75.3860128,6.48777439 C75.3860128,6.9888234 75.3860128,7.89250108 75.3860128,8.07144715 C75.3860128,8.25039323 75.4665385,8.45618122 75.6991684,8.51881234 C75.8903612,8.56988956 76.0846125,8.60873982 76.2807432,8.63512729 C76.3093888,8.75397791 76.2901042,8.87932775 76.2270593,8.98407214 C76.1375863,8.98407214 75.6633792,8.98407214 74.9565422,8.98407214 C74.2497052,8.98407214 73.8560238,8.98407214 73.6949724,8.98407214 C73.6546941,8.87124413 73.6546941,8.7479553 73.6949724,8.63512729 C73.918655,8.63512729 74.0707591,8.58144347 74.2049687,8.54565425 C74.3391782,8.50986504 74.5002297,8.33986627 74.5181243,7.9372376 C74.5360189,7.53460893 74.5181243,6.9798761 74.5181243,6.21040797 C74.5181243,5.44093985 74.5181243,4.49252565 74.5181243,4.33147418 C74.5181243,4.17042271 74.4644405,3.98252933 74.2675998,3.92884551 C74.0766147,3.87894199 73.8822392,3.84305728 73.6860251,3.82147787 C73.6426005,3.7195009 73.636269,3.60553445 73.6681305,3.49937493 L73.6860251,3.51726954 Z M83.8770041,4.74305015 C83.7427945,5.10988961 82.7138546,7.9372376 82.5706977,8.37565548 C82.5634745,8.42176817 82.5896338,8.4666127 82.6333288,8.48302313 C83.0180629,8.48302313 84.8343656,8.48302313 85.2459415,8.48302313 C85.2459415,8.48302313 85.2459415,8.4114447 85.2459415,8.37565548 C85.2459415,8.19670941 84.0470028,5.11883691 83.8859514,4.73410285 L83.8770041,4.74305015 Z M82.0249122,8.23249862 C82.1770163,7.92829029 83.0538521,5.67356975 83.5549011,4.33147418 C83.6641368,4.06785313 83.7509352,3.79548555 83.8143729,3.51726954 L84.4138423,3.51726954 C84.4441116,3.65876423 84.4890927,3.79670617 84.5480518,3.92884551 C84.9506805,5.00252196 86.024357,7.80302804 86.3375126,8.40249739 C86.3375126,8.40249739 86.4180383,8.50986504 86.4627748,8.50986504 L87.0532969,8.50986504 C87.0597767,8.53328456 87.0597767,8.55802395 87.0532969,8.58144347 C86.8525624,9.23808361 86.6971109,9.90772098 86.5880371,10.5856395 C86.4538824,10.6264658 86.3106158,10.6264658 86.1764611,10.5856395 C86.1677117,10.0929205 86.0986004,9.60313154 85.9706731,9.127229 C85.9316301,9.05928574 85.8610039,9.01556472 85.7827798,9.01091405 L82.4633301,9.01091405 C82.3999348,9.01829304 82.3420356,9.05045929 82.3022786,9.10038709 C82.1443101,9.56991955 82.0422037,10.0564265 81.9980703,10.5498503 C81.9980703,10.6035341 81.6133362,10.6124814 81.5864943,10.5945868 C81.5309895,9.90611002 81.4323757,9.22179025 81.2912333,8.54565425 C81.462547,8.53234917 81.632872,8.5084439 81.8012296,8.47407582 C81.8996499,8.47407582 81.989123,8.30407705 82.0249122,8.23249862 Z M89.1111768,7.97302681 C89.1290714,7.57039814 89.1111768,7.07829644 89.1111768,6.2819864 C89.1111768,5.48567637 89.1111768,4.49252565 89.1111768,4.34936879 C89.1111768,4.20621193 89.1111768,4.01831855 88.8606522,3.96463473 C88.66531,3.90722931 88.4643062,3.87122864 88.2611829,3.85726708 C88.2253019,3.74066767 88.2253019,3.61597434 88.2611829,3.49937493 C88.6011804,3.49937493 88.8785469,3.49937493 89.4690689,3.49937493 C90.059591,3.49937493 90.444325,3.49937493 90.6859022,3.49937493 C90.6859022,3.55305875 90.6859022,3.82147787 90.6859022,3.85726708 C90.5258233,3.87522504 90.3673119,3.90513284 90.2116951,3.94674012 C90.032749,3.94674012 89.9880125,4.08094967 89.9790652,4.34042148 C89.9701179,4.59989329 89.9790652,6.42514326 89.9790652,7.32882094 C90.1848532,7.13198026 92.2964169,5.0830477 92.8243078,4.44778913 C92.8509509,4.41708671 92.8694156,4.38015743 92.8779916,4.34042148 C92.8824326,4.29878549 92.8824326,4.25679523 92.8779916,4.21515923 C92.8835656,4.0934043 92.8064067,3.98317733 92.6900983,3.94674012 C92.5047709,3.88593921 92.3122359,3.8498389 92.1174708,3.83937247 C92.1174708,3.78568865 92.1174708,3.51726954 92.1174708,3.48148032 C92.1174708,3.44569111 92.8064132,3.48148032 93.2806203,3.48148032 C93.7548274,3.48148032 94.3006129,3.48148032 94.4974536,3.48148032 C94.5376793,3.5973868 94.5376793,3.72346599 94.4974536,3.83937247 C94.3250566,3.85338357 94.1543283,3.88333591 93.9874573,3.92884551 C93.7816693,4.00937124 93.7637747,4.11673889 93.7458801,4.40305261 C93.7279855,4.68936633 93.7458801,5.10988961 93.7458801,6.12093493 C93.7458801,6.90829766 93.7458801,7.84776456 93.7458801,8.15197289 C93.7458801,8.45618122 93.8443004,8.49197043 94.0142992,8.53670695 C94.222763,8.58979206 94.4352272,8.62570149 94.6495578,8.6440746 C94.6495578,8.68881111 94.6495578,8.96617753 94.595874,8.99301944 C94.5421901,9.01986135 94.094825,8.99301944 93.2806203,8.99301944 C92.7885186,8.99301944 92.3053642,8.99301944 92.0727343,8.99301944 C92.0183704,8.88305671 92.0183704,8.75403733 92.0727343,8.6440746 C92.2599442,8.6258958 92.4454297,8.59298707 92.6274671,8.54565425 C92.7795713,8.49197043 92.8422024,8.36670818 92.860097,8.15197289 C92.860097,7.78513343 92.860097,5.63778053 92.860097,5.0830477 C92.860097,5.0830477 92.860097,5.00252196 92.7974659,5.0830477 L89.9790652,7.91934299 C89.9312011,7.97356124 89.9056289,8.04388471 89.9074868,8.11618367 C89.9074868,8.35776088 89.9074868,8.50091774 90.1848532,8.56354886 L90.7932699,8.68881111 C90.8380144,8.79772725 90.8380144,8.91989252 90.7932699,9.02880866 C90.3995885,9.02880866 89.9611706,9.02880866 89.5138054,9.02880866 L88.234341,9.02880866 C88.1986239,8.91523564 88.1986239,8.79343683 88.234341,8.67986381 C88.4224334,8.66311331 88.6083148,8.62713626 88.7890738,8.57249617 C89.0395983,8.50091774 89.0932821,8.37565548 89.1111768,7.97302681 Z M98.3537415,9.01091405 C97.6469045,9.01091405 97.1637501,9.01091405 96.9490149,9.01091405 C96.9087366,8.89808605 96.9087366,8.77479721 96.9490149,8.6619692 C97.2263813,8.6619692 97.4679585,8.59933808 97.6200626,8.56354886 C97.9153237,8.50091774 97.9600602,8.32197166 97.9779548,7.91934299 C97.9779548,6.96198149 97.9779548,5.5751494 97.9779548,4.06305507 C97.9779548,4.06305507 97.9779548,3.98252933 97.9153237,3.98252933 L96.9042783,3.98252933 C96.7348512,3.98158533 96.582157,4.08456518 96.5195443,4.24200114 C96.3711599,4.52886223 96.248403,4.8282691 96.1527048,5.13673152 C96.0047398,5.14734003 95.8580965,5.10270946 95.7411288,5.01146927 C95.8127073,4.6177879 95.9111276,3.86621438 95.9379695,3.44569111 C95.9379695,3.44569111 96.0453372,3.39200728 96.0721791,3.40095459 C96.3021433,3.50430243 96.5546307,3.54741003 96.805858,3.52621684 L100.080571,3.52621684 C100.385274,3.55430375 100.692249,3.50825749 100.975302,3.39200728 C100.975302,3.39200728 101.091616,3.39200728 101.109511,3.39200728 C101.007331,3.93935466 100.935642,4.49195677 100.894776,5.04725848 C100.768118,5.09623436 100.627752,5.09623436 100.501094,5.04725848 C100.491475,4.7441544 100.443371,4.44350192 100.357938,4.1525281 C100.312896,3.99883771 100.169017,3.89553953 100.008993,3.9020036 L98.8458433,3.9020036 C98.8212732,3.91394133 98.8044305,3.93752112 98.8011067,3.96463473 C98.8011067,5.29778299 98.8011067,7.65092388 98.8011067,8.09828907 C98.8032446,8.26614787 98.9164568,8.41222825 99.0784732,8.45618122 C99.3205355,8.50933195 99.5655198,8.54817093 99.8121521,8.57249617 C99.8981885,8.70240984 99.914912,8.86630039 99.8568886,9.01091405 C99.6153114,9.01091405 99.0605785,9.01091405 98.3537415,9.01091405 Z M102.54108,3.49937493 C102.77371,3.49937493 103.355284,3.49937493 103.865281,3.49937493 L105.654741,3.49937493 C105.994739,3.49937493 106.459999,3.49937493 106.674734,3.49937493 C106.674734,3.49937493 106.674734,3.49937493 106.674734,3.55305875 C106.590049,3.96878475 106.539181,4.39068791 106.52263,4.81462858 C106.395972,4.86360446 106.255606,4.86360446 106.128949,4.81462858 C106.12309,4.63760803 106.089891,4.46255817 106.030528,4.29568496 C105.99876,4.10096324 105.824845,3.96183113 105.6279,3.97358203 L104.258962,3.97358203 C104.187384,3.97358203 104.1337,4.11673889 104.1337,4.17042271 C104.1337,4.77883937 104.1337,5.29778299 104.1337,5.88830504 C104.1337,5.88830504 104.1337,5.95093616 104.187384,5.95093616 C104.643696,5.95093616 105.153692,5.95093616 105.511585,5.95093616 C105.632439,5.93739736 105.73038,5.84671148 105.753162,5.72725357 C105.794397,5.59827862 105.827272,5.46677861 105.851582,5.3335722 C105.981648,5.28640624 106.124145,5.28640624 106.254211,5.3335722 C106.254211,5.53936019 106.200527,5.87041043 106.200527,6.22830258 C106.200527,6.58619473 106.200527,6.81882463 106.200527,7.12303296 C106.064672,7.17224456 105.915859,7.17224456 105.780004,7.12303296 C105.780004,6.91724497 105.780004,6.83671923 105.699478,6.72040429 C105.672254,6.60153635 105.570587,6.51439258 105.448953,6.505669 C105.153692,6.505669 104.554223,6.505669 104.169489,6.505669 C104.169489,6.505669 104.115805,6.505669 104.115805,6.57724743 C104.115805,7.14987487 104.115805,7.83881726 104.115805,8.19670941 C104.116629,8.34157613 104.195216,8.47483172 104.321593,8.54565425 C104.816307,8.57272647 105.312132,8.57272647 105.806846,8.54565425 C106.041075,8.55519405 106.258768,8.4252801 106.361578,8.21460401 C106.519583,7.97292535 106.657248,7.71854453 106.773154,7.45408319 C106.905928,7.46197959 107.033472,7.5086417 107.139994,7.58829275 C107.05757,8.02144772 106.928576,8.44442673 106.75526,8.84986258 C106.75526,8.95723023 106.638945,9.02880866 106.19158,9.02880866 C105.252113,9.02880866 104.402119,9.02880866 103.757913,9.02880866 C103.113707,9.02880866 102.567922,9.02880866 102.192135,9.02880866 C102.146865,8.91689848 102.146865,8.79177399 102.192135,8.67986381 C102.447488,8.65866273 102.701413,8.6228145 102.952656,8.57249617 C103.167391,8.51881234 103.230022,8.40249739 103.238969,8.12513098 C103.247917,7.84776456 103.238969,7.04250722 103.238969,6.06725111 C103.238969,5.28883568 103.238969,4.54620947 103.238969,4.385158 C103.238969,4.08989698 103.238969,4.00937124 102.988445,3.95568742 C102.814465,3.91301042 102.638224,3.88015176 102.460554,3.85726708 C102.43225,3.73053494 102.465414,3.59787786 102.550027,3.49937493 L102.54108,3.49937493 Z M110.441549,6.56830012 C110.427872,6.53073457 110.427872,6.48955073 110.441549,6.45198517 C110.548735,6.46082487 110.656466,6.46082487 110.763652,6.45198517 C110.976188,6.45658783 111.187081,6.4137979 111.381016,6.32672292 C111.76437,6.09912664 111.980805,5.66974767 111.935749,5.22620456 C111.975045,4.85149108 111.839834,4.47952295 111.569087,4.21751019 C111.298341,3.95549743 110.922141,3.83255175 110.548917,3.88410899 C110.415555,3.87874404 110.282291,3.89691639 110.155235,3.93779281 C110.115304,3.96402754 110.089082,4.00663808 110.083657,4.05410776 C110.083657,4.25989575 110.083657,4.51936756 110.083657,6.16567145 C110.083657,7.54355623 110.083657,7.89250108 110.083657,8.1698675 C110.072793,8.35805182 110.209754,8.52240539 110.396812,8.54565425 C110.59737,8.58915281 110.800639,8.61904529 111.005229,8.63512729 C111.04958,8.74721455 111.04958,8.87198488 111.005229,8.98407214 L109.681028,8.98407214 C109.269452,8.98407214 108.652088,8.98407214 108.455247,8.98407214 C108.414853,8.87433905 108.414853,8.75380768 108.455247,8.6440746 C108.626861,8.6287096 108.797245,8.60180685 108.965244,8.56354886 C109.197874,8.50091774 109.206821,8.32197166 109.224716,8.07144715 C109.24261,7.82092265 109.224716,6.88145575 109.224716,6.17461876 C109.224716,4.83252319 109.224716,4.6177879 109.224716,4.33147418 C109.224716,4.04516046 109.14419,3.94674012 108.857876,3.8930563 C108.713575,3.85905146 108.567082,3.83513416 108.419458,3.82147787 C108.37918,3.70864986 108.37918,3.58536102 108.419458,3.47253302 C108.535773,3.47253302 109.081559,3.47253302 109.502082,3.47253302 L111.06786,3.47253302 C111.500364,3.45561685 111.926883,3.57792737 112.284694,3.82147787 C112.655987,4.12175457 112.864714,4.578966 112.848374,5.05620579 C112.853574,5.720612 112.473206,6.3278058 111.873118,6.61303664 C111.573945,6.76492573 111.242293,6.84169712 110.906809,6.83671923 C110.777004,6.84229094 110.647138,6.82719029 110.522075,6.79198272 C110.485076,6.72228305 110.460836,6.6465307 110.450496,6.56830012 L110.441549,6.56830012 Z M118.422544,3.96463473 C118.080629,3.83228471 117.715225,3.77138403 117.348867,3.78568865 C116.096245,3.78568865 115.434144,4.68041903 115.434144,6.15672415 C115.376214,6.80137418 115.592654,7.44058754 116.030324,7.91742598 C116.467993,8.39426443 117.086359,8.66456685 117.733602,8.6619692 C118.04998,8.66817439 118.361177,8.58103934 118.628332,8.4114447 C118.911468,8.15173774 119.152895,7.84995339 119.344116,7.51671432 C119.462516,7.53445215 119.568866,7.59890669 119.639377,7.6956604 C119.519447,8.13758615 119.302421,8.54718387 119.004119,8.8945991 C118.548841,9.05131359 118.07185,9.1358436 117.590445,9.14512361 C115.568354,9.14512361 114.476783,8.04460524 114.476783,6.23724988 C114.452758,5.21537504 115.001812,4.2657539 115.899404,3.77674135 C116.450789,3.48936554 117.06753,3.35059872 117.688865,3.37411268 C118.306112,3.39920838 118.921463,3.45895114 119.53201,3.55305875 C119.462193,4.02756382 119.417395,4.50541404 119.3978,4.98462735 C119.353063,5.03831118 119.048855,5.07410039 119.039908,4.98462735 C118.905698,4.29568496 118.798331,4.1346335 118.431491,3.96463473 L118.422544,3.96463473 Z M121.35726,8.59039077 C121.697257,8.52775965 121.759888,8.48302313 121.777783,8.02671064 C121.795677,7.57039814 121.777783,6.55935282 121.777783,6.12093493 C121.777783,5.68251705 121.777783,4.70726094 121.777783,4.33147418 C121.777783,3.95568742 121.733046,3.96463473 121.473574,3.9109509 L120.999367,3.83042517 C120.94209,3.7211615 120.94209,3.590744 120.999367,3.48148032 C121.178313,3.48148032 121.670415,3.48148032 122.126728,3.48148032 C122.58304,3.48148032 123.209351,3.48148032 123.370403,3.48148032 C123.531454,3.48148032 123.424087,3.79463595 123.370403,3.83937247 L123.012511,3.9109509 C122.735144,3.96463473 122.627777,4.07200237 122.618829,4.39410531 C122.609882,4.71620824 122.618829,5.44988715 122.618829,5.95988347 C122.945118,5.98983813 123.269186,5.88289555 123.51356,5.66462244 C123.789724,5.33513812 124.026908,4.97485862 124.220397,4.59094599 C124.810919,3.55305875 125.115127,3.32042885 125.678807,3.32042885 C125.785463,3.3205425 125.890271,3.34828568 125.983016,3.40095459 C126.073917,3.41788432 126.145032,3.48899964 126.161962,3.57990066 C126.139539,3.83495831 126.079228,4.08524988 125.983016,4.32252688 C125.983016,4.32252688 125.911437,4.3762107 125.893543,4.3762107 C125.716967,4.28719152 125.526213,4.22966268 125.329862,4.20621193 C125.168811,4.20621193 125.016707,4.28673766 124.667762,4.88620701 C124.454697,5.3286376 124.167182,5.73115996 123.817768,6.07619841 C123.804328,6.09491237 123.804328,6.12011559 123.817768,6.13882954 C124.129101,6.38513641 124.390308,6.68886545 124.587236,7.03355992 C124.77513,7.26618982 125.168811,7.78513343 125.401441,8.06249985 C125.699124,8.4987331 126.208267,8.74134491 126.734589,8.69775842 C126.734589,8.69775842 126.734589,9.03775596 126.734589,9.04670327 C126.329592,9.07827278 125.922753,9.07827278 125.517756,9.04670327 C125.303123,9.03014512 125.099378,8.94551247 124.936181,8.80512606 C124.369126,8.23278044 123.878881,7.58914614 123.477771,6.89040306 C123.318308,6.58047797 123.00301,6.38170324 122.654619,6.37145944 C122.654619,6.81882463 122.654619,7.7046077 122.654619,8.08934176 C122.654619,8.47407582 122.708302,8.47407582 122.94988,8.53670695 L123.468823,8.62617999 C123.522507,8.62617999 123.468823,8.93933562 123.468823,8.97512484 C123.271983,8.97512484 122.708302,8.97512484 122.260937,8.97512484 L121.017262,8.97512484 C120.971992,8.86321466 120.971992,8.73809017 121.017262,8.62617999 L121.35726,8.59039077 Z M128.201947,8.59039077 C128.461419,8.51881234 128.515103,8.39355009 128.532997,7.99092142 C128.550892,7.58829275 128.532997,7.09619104 128.532997,6.29988101 C128.532997,5.50357097 128.532997,4.51042026 128.532997,4.36726339 C128.532997,4.22410653 128.488261,4.03621316 128.282473,3.98252933 C128.086929,3.92598401 127.886017,3.88999991 127.683003,3.87516169 C127.647122,3.75856228 127.647122,3.63386895 127.683003,3.51726954 C128.014054,3.51726954 128.300367,3.51726954 128.890889,3.51726954 C129.481411,3.51726954 129.866145,3.51726954 130.107723,3.51726954 C130.107723,3.57095336 130.107723,3.83937247 130.107723,3.87516169 C129.947511,3.89223063 129.788932,3.92215135 129.633516,3.96463473 C129.454569,3.96463473 129.400886,4.09884428 129.391938,4.35831609 C129.382991,4.6177879 129.391938,6.44303787 129.391938,7.34671555 C129.391938,7.34671555 129.436675,7.34671555 129.454569,7.34671555 C129.65141,7.15882217 131.754027,5.1009423 132.290865,4.47463104 C132.290865,4.47463104 132.290865,4.40305261 132.335601,4.36726339 C132.340042,4.3256274 132.340042,4.28363714 132.335601,4.24200114 C132.335601,4.10779159 132.281917,4.00937124 132.156655,3.97358203 C131.97108,3.9137527 131.778672,3.87767623 131.584028,3.86621438 C131.539291,3.81253056 131.539291,3.54411145 131.584028,3.50832223 C131.628764,3.47253302 132.27297,3.50832223 132.747177,3.50832223 C133.221384,3.50832223 133.76717,3.50832223 133.964011,3.50832223 C134.004236,3.62422871 134.004236,3.75030791 133.964011,3.86621438 C133.791526,3.8795342 133.620732,3.90949791 133.454014,3.95568742 C133.248226,4.03621316 133.230332,4.1435808 133.212437,4.42989452 C133.194542,4.71620824 133.212437,5.13673152 133.212437,6.14777684 C133.212437,6.93513958 133.212437,7.87460647 133.212437,8.1788148 C133.212437,8.48302313 133.310857,8.51881234 133.480856,8.56354886 C133.686248,8.61683192 133.895756,8.65274769 134.107167,8.67091651 C134.107167,8.71565303 134.107167,8.99301944 134.062431,9.01986135 C134.017694,9.04670327 133.552435,9.01986135 132.747177,9.01986135 C132.255076,9.01986135 131.762974,9.01986135 131.539291,9.01986135 C131.484927,8.90989862 131.484927,8.78087924 131.539291,8.67091651 C131.7264,8.65200352 131.911829,8.61910474 132.094024,8.57249617 C132.246128,8.51881234 132.299812,8.39355009 132.317707,8.1788148 C132.317707,7.81197535 132.317707,5.66462244 132.317707,5.10988961 C132.317707,5.10988961 132.317707,5.02936387 132.264023,5.10988961 L129.445622,7.9461849 C129.391888,7.99727879 129.36258,8.06892024 129.365096,8.14302558 C129.365096,8.38460279 129.365096,8.52775965 129.65141,8.59039077 C129.937724,8.6530219 129.991408,8.67091651 130.259827,8.71565303 C130.304571,8.82456916 130.304571,8.94673443 130.259827,9.05565057 C129.866145,9.05565057 129.41878,9.05565057 128.980362,9.05565057 L127.700898,9.05565057 C127.665181,8.94207755 127.665181,8.82027874 127.700898,8.70670572 C127.87489,8.67881787 128.045713,8.63386445 128.210894,8.57249617 L128.201947,8.59039077 Z M138.688187,2.53306612 C139.04601,2.53964869 139.382806,2.36451456 139.582917,2.06780633 C139.693871,1.9950252 139.814293,1.93782466 139.940809,1.89780756 C139.981937,1.90242885 140.016746,1.93027647 140.030282,1.96938599 C139.798983,2.67605121 139.126973,3.14353631 138.383979,3.11464087 C137.802404,3.11464087 137.229776,2.84622175 137.229776,2.35412005 C137.229776,2.20201588 137.444512,1.98728059 137.596616,1.89780756 C137.656481,1.85025309 137.743148,1.85813192 137.793457,1.91570216 C137.897493,2.31478554 138.278161,2.57744624 138.688187,2.53306612 Z M135.92347,8.57249617 C136.173995,8.50091774 136.227678,8.37565548 136.245573,7.97302681 C136.263468,7.57039814 136.245573,7.07829644 136.245573,6.2819864 C136.245573,5.48567637 136.245573,4.49252565 136.245573,4.34936879 C136.245573,4.20621193 136.200836,4.01831855 135.995048,3.96463473 C135.799706,3.90722931 135.598702,3.87122864 135.395579,3.85726708 C135.359698,3.74066767 135.359698,3.61597434 135.395579,3.49937493 C135.735577,3.49937493 136.012943,3.49937493 136.603465,3.49937493 C137.193987,3.49937493 137.578721,3.49937493 137.820298,3.49937493 C137.820298,3.55305875 137.820298,3.82147787 137.820298,3.85726708 C137.66022,3.87522504 137.501708,3.90513284 137.346091,3.94674012 C137.167145,3.94674012 137.122409,4.08094967 137.113461,4.34042148 C137.104514,4.59989329 137.113461,6.42514326 137.113461,7.32882094 C137.113461,7.32882094 137.158198,7.32882094 137.176093,7.32882094 C137.372933,7.13198026 139.484497,5.0830477 140.012388,4.44778913 C140.039031,4.41708671 140.057496,4.38015743 140.066072,4.34042148 C140.070513,4.29878549 140.070513,4.25679523 140.066072,4.21515923 C140.071646,4.0934043 139.994487,3.98317733 139.878178,3.94674012 C139.692851,3.88593921 139.500316,3.8498389 139.305551,3.83937247 C139.260814,3.78568865 139.260814,3.51726954 139.305551,3.48148032 C139.493444,3.48148032 139.994493,3.48148032 140.4687,3.48148032 C140.942907,3.48148032 141.488693,3.48148032 141.685534,3.48148032 C141.725759,3.5973868 141.725759,3.72346599 141.685534,3.83937247 C141.513137,3.85338357 141.342408,3.88333591 141.175537,3.92884551 C140.969749,4.00937124 140.951855,4.11673889 140.93396,4.40305261 C140.916066,4.68936633 140.93396,5.10988961 140.93396,6.12093493 C140.93396,6.90829766 140.93396,7.84776456 140.93396,8.15197289 C140.93396,8.45618122 141.032381,8.49197043 141.202379,8.53670695 C141.410843,8.58979206 141.623307,8.62570149 141.837638,8.6440746 C141.837638,8.68881111 141.837638,8.96617753 141.783954,8.99301944 C141.73027,9.01986135 141.282905,8.99301944 140.4687,8.99301944 C139.976599,8.99301944 139.493444,8.99301944 139.260814,8.99301944 C139.206451,8.88305671 139.206451,8.75403733 139.260814,8.6440746 C139.448024,8.6258958 139.63351,8.59298707 139.815547,8.54565425 C139.967651,8.49197043 140.030282,8.36670818 140.048177,8.15197289 C140.048177,7.78513343 140.048177,5.63778053 140.048177,5.0830477 C140.048177,5.0830477 140.048177,5.00252196 139.985546,5.0830477 L137.176093,7.91934299 C137.122359,7.97043687 137.093051,8.04207832 137.095567,8.11618367 C137.095567,8.35776088 137.140303,8.50091774 137.372933,8.56354886 L137.98135,8.68881111 C138.026095,8.79772725 138.026095,8.91989252 137.98135,9.02880866 C137.587669,9.02880866 137.149251,9.02880866 136.701885,9.02880866 L135.422421,9.02880866 C135.386704,8.91523564 135.386704,8.79343683 135.422421,8.67986381 C135.577291,8.65705746 135.729943,8.62113917 135.878734,8.57249617 L135.92347,8.57249617 Z M148.091803,4.74305015 C147.966541,5.10988961 146.928654,7.9372376 146.785497,8.37565548 C146.785497,8.420392 146.785497,8.48302313 146.848128,8.48302313 C147.241809,8.48302313 149.058112,8.48302313 149.469688,8.48302313 C149.469688,8.48302313 149.469688,8.4114447 149.469688,8.37565548 C149.469688,8.19670941 148.270749,5.11883691 148.10075,4.73410285 L148.091803,4.74305015 Z M146.239711,8.23249862 C146.400763,7.92829029 147.277599,5.67356975 147.778648,4.33147418 C147.888989,4.06906615 147.972911,3.79631759 148.029172,3.51726954 L148.637589,3.51726954 C148.65927,3.65978571 148.701462,3.79841428 148.762851,3.92884551 C149.174427,5.00252196 150.248103,7.80302804 150.552312,8.40249739 C150.552312,8.40249739 150.632837,8.50986504 150.686521,8.50986504 L151.268096,8.50986504 C151.274576,8.53328456 151.274576,8.55802395 151.268096,8.58144347 C151.063149,9.23694492 150.907626,9.90688724 150.802836,10.5856395 C150.668682,10.6264658 150.525415,10.6264658 150.39126,10.5856395 C150.382511,10.0929205 150.3134,9.60313154 150.185472,9.127229 C150.144753,9.05666386 150.070086,9.01254239 149.988632,9.01091405 L146.696024,9.01091405 C146.632629,9.01829304 146.574729,9.05045929 146.534972,9.10038709 C146.369447,9.56827963 146.264215,10.0553562 146.221817,10.5498503 C146.221817,10.6035341 145.84603,10.6124814 145.819188,10.5945868 C145.819188,10.039854 145.604453,8.93038832 145.523927,8.54565425 C145.692196,8.53158373 145.859498,8.50768344 146.024976,8.47407582 C146.123396,8.47407582 146.203922,8.30407705 146.239711,8.23249862 Z M156.305428,8.37565548 C156.834938,7.88331706 157.103178,7.17132261 157.03016,6.45198517 C157.103896,5.55618202 156.724367,4.68292901 156.019114,4.12568619 C155.68539,3.91320164 155.296243,3.80424043 154.900701,3.81253056 C154.642593,3.81346308 154.38828,3.87474345 154.158075,3.99147664 C153.521302,4.45425077 153.180143,5.22185714 153.263345,6.00461998 C153.202695,6.9398668 153.624645,7.84115102 154.381758,8.39355009 C154.696887,8.58360851 155.060891,8.67694284 155.428592,8.6619692 C155.744558,8.66656333 156.05306,8.56582798 156.305428,8.37565548 Z M153.021768,8.37565548 C152.492403,7.78864469 152.213107,7.0181717 152.243352,6.22830258 C152.232484,5.59171299 152.444543,4.97135926 152.842821,4.47463104 C153.439948,3.77728423 154.313695,3.37804381 155.231752,3.38305998 C155.971546,3.34397192 156.693153,3.62079401 157.216996,4.14463735 C157.74084,4.66848069 158.017662,5.3900878 157.978574,6.12988224 C158.012892,6.80107451 157.817203,7.46389127 157.423841,8.00881603 C156.856143,8.73554539 155.983923,9.15843969 155.061753,9.15407091 C154.293359,9.19589278 153.543972,8.9059125 153.003873,8.35776088 L153.021768,8.37565548 Z M159.580141,3.51726954 C159.964875,3.51726954 160.41224,3.51726954 161.369602,3.51726954 C161.395664,3.70050288 161.449994,3.87858409 161.530653,4.04516046 C161.951177,4.93989084 163.024853,7.18566408 163.176957,7.4630305 C163.320114,7.18566408 164.456422,4.8504178 164.841156,3.97358203 C164.903175,3.8302005 164.948217,3.68005951 164.975365,3.52621684 C165.870096,3.52621684 166.290619,3.52621684 166.711142,3.52621684 C166.755493,3.6383041 166.755493,3.76307443 166.711142,3.87516169 C166.424829,3.87516169 166.210093,3.94674012 166.075884,3.98252933 C165.941674,4.01831855 165.843254,4.08989698 165.843254,4.32252688 C165.843254,4.87725971 165.896938,7.53460893 165.950622,8.10723637 C165.950622,8.420392 166.040095,8.53670695 166.308514,8.60828538 L166.827457,8.68881111 C166.872727,8.80072129 166.872727,8.92584578 166.827457,9.03775596 C166.576933,9.03775596 166.174304,9.03775596 165.574835,9.03775596 C164.975365,9.03775596 164.545895,9.03775596 164.304318,9.03775596 C164.259967,8.9256687 164.259967,8.80089837 164.304318,8.68881111 C164.501158,8.68881111 164.697999,8.61723268 164.823261,8.58144347 C164.970421,8.53196878 165.06343,8.38687434 165.046944,8.23249862 C165.046944,7.63302927 165.046944,5.54830749 165.046944,4.72515555 C165.046944,4.72515555 165.046944,4.72515555 164.99326,4.72515555 C164.769577,5.27094108 163.391693,8.10723637 163.078537,8.98407214 C162.962927,9.00218236 162.845202,9.00218236 162.729592,8.98407214 C162.514857,8.26828784 161.369602,5.74514818 160.940131,4.75199746 C160.940131,4.75199746 160.940131,4.75199746 160.886448,4.75199746 C160.832764,5.5662021 160.734343,7.13198026 160.716449,8.01776333 C160.716449,8.28618245 160.716449,8.42933931 161.01171,8.51881234 C161.216217,8.57779064 161.425974,8.61674555 161.638021,8.63512729 C161.682758,8.67986381 161.638021,8.94828292 161.638021,8.98407214 C161.638021,9.01986135 160.949079,8.98407214 160.456977,8.98407214 C159.964875,8.98407214 159.490668,8.98407214 159.329617,8.98407214 C159.285266,8.87198488 159.285266,8.74721455 159.329617,8.63512729 C159.498363,8.61597134 159.665718,8.5860865 159.830666,8.54565425 C160.099085,8.45618122 160.143821,8.34881357 160.188558,7.99092142 C160.295926,7.2304006 160.44803,5.19041534 160.519608,4.32252688 C160.536744,4.15621404 160.436448,4.00019747 160.278031,3.94674012 C160.143821,3.94674012 159.946981,3.87516169 159.624878,3.82147787 C159.51751,3.81253056 159.535405,3.52621684 159.580141,3.49937493 L159.580141,3.51726954 Z M110.441549,31.5312776 C110.441549,32.542323 110.978387,32.9717935 111.551015,32.9717935 C111.714137,32.96961 111.874105,32.9265416 112.016274,32.8465313 C112.066714,32.8059212 112.106613,32.7537444 112.132589,32.6944271 C112.175815,32.5066619 112.196836,32.3144694 112.19522,32.1217997 C112.19522,31.2270693 111.873118,30.3949701 111.20207,30.3949701 C110.790494,30.421812 110.441549,30.8154933 110.441549,31.5312776 Z M112.034169,33.2133707 C111.677967,33.4438701 111.274185,33.5907 110.853125,33.6428413 C110.458747,33.6131728 110.092489,33.4274394 109.835521,33.1268042 C109.578554,32.8261689 109.452101,32.4354621 109.484187,32.0412739 C109.475319,31.3508693 109.851233,30.712851 110.459444,30.3860228 C110.771743,30.2028567 111.12636,30.1041805 111.488383,30.099709 C112.013062,30.1233264 112.504187,30.3644441 112.843746,30.7651244 C113.183306,31.1658046 113.340604,31.6898261 113.277844,32.2112727 C113.277844,33.8754712 111.944696,35.3159871 109.913658,35.843878 C109.823893,35.758662 109.780607,35.6354634 109.797343,35.5128278 C110.836884,35.1005975 111.650796,34.263896 112.034169,33.2133707 Z M116.158876,32.9717935 C116.319011,32.9685023 116.475816,32.9254577 116.615189,32.8465313 C116.670688,32.8089165 116.714176,32.7561094 116.740451,32.6944271 C116.783676,32.5066619 116.804697,32.3144694 116.803082,32.1217997 C116.803082,31.2270693 116.472032,30.3949701 115.800984,30.3949701 C115.425197,30.421812 115.040463,30.8154933 115.040463,31.5312776 C115.040463,32.542323 115.586249,32.9717935 116.158876,32.9717935 Z M116.633083,33.2133707 C116.279951,33.4434464 115.879168,33.5902981 115.460986,33.6428413 C115.065007,33.6154424 114.69647,33.4306851 114.4376,33.1297914 C114.178731,32.8288978 114.05107,32.4369055 114.083102,32.0412739 C114.076251,31.3514071 114.451595,30.714355 115.058358,30.3860228 C115.373446,30.2017413 115.731239,30.1030398 116.096245,30.099709 C116.620923,30.1233264 117.112048,30.3644441 117.451608,30.7651244 C117.791167,31.1658046 117.948466,31.6898261 117.885706,32.2112727 C117.885706,33.8754712 116.54361,35.3159871 114.512572,35.843878 C114.424761,35.7577493 114.384659,35.6340993 114.405205,35.5128278 C115.440698,35.0975294 116.250727,34.2614749 116.633083,33.2133707 Z M120.587791,35.3696709 C120.050953,35.3696709 119.585693,35.3696709 119.272538,35.3696709 C119.237169,35.2805981 119.237169,35.1813774 119.272538,35.0923045 C119.505168,35.0923045 119.63043,35.0923045 119.791481,35.0207261 C119.952533,34.9491477 120.09569,34.7612543 120.104637,34.4928352 C120.113584,34.2244161 120.104637,33.4907372 120.104637,32.7481109 C120.104637,32.0054847 120.104637,31.334437 120.104637,31.1197017 C120.104637,30.9049664 120.033059,30.8512825 119.880954,30.8333879 C119.724304,30.8046367 119.565861,30.7866998 119.406747,30.7797041 C119.374706,30.6869556 119.374706,30.586139 119.406747,30.4933904 C119.986741,30.4351048 120.554184,30.2872073 121.08884,30.0549725 C121.13999,30.0473094 121.191296,30.0678317 121.22305,30.1086563 C121.177241,30.6501703 121.162305,31.1938534 121.178313,31.7370656 C121.178313,32.3723242 121.178313,33.8665239 121.178313,34.4212567 C121.178313,34.7344124 121.240945,34.9312531 121.464627,34.9849369 C121.632846,35.0201075 121.803222,35.0440201 121.974623,35.0565153 C121.974623,35.0565153 122.01936,35.342829 121.974623,35.3696709 C121.625679,35.3696709 121.12463,35.3696709 120.587791,35.3696709 Z M98.6579499,31.8533806 C97.8974291,31.8533806 97.2263813,31.334437 97.1548028,31.5670668 C97.2604739,32.264371 97.6926119,32.8693643 98.3179523,33.1954761 C99.3826815,33.7770509 100.733724,32.9360043 100.366885,32.1486416 C100.000045,31.3612789 99.4184707,31.7996967 98.6579499,31.8533806 Z M128.184052,31.8533806 C128.944573,31.8533806 129.615621,31.334437 129.696147,31.5670668 C129.586394,32.2627083 129.155441,32.8660427 128.532997,33.1954761 C127.468268,33.7770509 126.108278,32.9360043 126.484065,32.1486416 C126.859851,31.3612789 127.378795,31.7996967 128.139316,31.8533806 L128.184052,31.8533806 Z M108.21367,35.3696709 C107.855778,35.3696709 107.31894,35.3696709 106.826838,35.3696709 C106.334737,35.3696709 105.82474,35.3696709 105.511585,35.3696709 C105.476216,35.2805981 105.476216,35.1813774 105.511585,35.0923045 C105.744214,35.0923045 105.869477,35.0923045 106.021581,35.0207261 C106.173685,34.9491477 106.334737,34.7612543 106.343684,34.4928352 C106.352631,34.2244161 106.343684,33.4907372 106.343684,32.7481109 C106.343684,32.0054847 106.343684,31.334437 106.343684,31.1197017 C106.343684,30.9049664 106.272105,30.8512825 106.120001,30.8333879 C105.963351,30.8046367 105.804907,30.7866998 105.645794,30.7797041 C105.613753,30.6869556 105.613753,30.586139 105.645794,30.4933904 C106.225788,30.4351048 106.793231,30.2872073 107.327887,30.0549725 C107.379037,30.0473094 107.430342,30.0678317 107.462097,30.1086563 C107.4312,30.6510198 107.4312,31.1947022 107.462097,31.7370656 C107.462097,32.3723242 107.462097,33.8665239 107.462097,34.4212567 C107.462097,34.7344124 107.524728,34.9312531 107.748411,34.9849369 C107.916629,35.0201075 108.087006,35.0440201 108.258407,35.0565153 C108.258407,35.0565153 108.21367,35.342829 108.168934,35.3696709 L108.21367,35.3696709 Z M57.6435094,24.1586993 C58.2206148,24.1960079 58.7442545,23.8219796 58.8961319,23.263969 C58.9309048,23.1138522 58.9309048,22.9577732 58.8961319,22.8076565 C58.6366601,22.1634506 56.7398317,18.3340046 55.7287864,16.401387 C54.9056345,14.8087669 54.7177411,14.8266615 53.5098551,14.6119262 C53.424308,14.4119194 53.424308,14.1856218 53.5098551,13.9856149 C53.8587999,13.9856149 54.9593183,14.0392988 56.1940462,14.0392988 C57.4287741,14.0392988 58.7440278,14.0392988 58.9677104,13.9856149 C59.0571834,14.0571934 59.075078,14.576137 58.9677104,14.6298208 C58.7074934,14.668055 58.4503469,14.7248664 58.1982422,14.7998196 C58.135725,14.8246821 58.0870336,14.8753935 58.0647313,14.9388692 C58.042429,15.0023448 58.0487004,15.0723675 58.0819273,15.1308698 C58.5113979,16.195599 60.2203329,19.6492582 60.4798047,20.1503072 C60.4798047,20.1503072 60.5871723,20.2039911 60.605067,20.1503072 C61.3302782,18.6520667 61.9288532,17.0957716 62.3945277,15.4977093 C62.4750534,15.166659 62.3945277,14.9250818 62.1350559,14.8535034 C61.7709587,14.7405897 61.396161,14.6656302 61.0166429,14.6298208 C60.8913807,14.5582424 60.9450645,14.0392988 61.0166429,13.9856149 C61.7324272,13.9856149 62.3229493,14.0392988 63.2087323,14.0392988 C64.0945154,14.0392988 64.6045117,14.0392988 65.1950338,13.9856149 C65.3024014,14.0571934 65.3024014,14.5940316 65.1950338,14.6298208 C63.8887274,14.8535034 63.6829394,15.2203429 63.3339946,16.0613894 C62.356018,18.5121492 61.2326248,20.9023474 59.9698084,23.2192324 C59.2182349,24.471855 58.1803476,25.9034236 56.9366724,25.9034236 C56.6229248,25.9322546 56.3084292,25.8567757 56.041942,25.6886883 C55.7028789,25.2733304 55.5278045,24.7481074 55.5498403,24.2123832 C55.5615575,23.9700271 55.62244,23.7325856 55.7287864,23.5144935 C56.3132295,23.8645205 56.9663451,24.0842604 57.6435094,24.1586993 Z M65.6960828,23.1834432 C66.7250227,20.7676712 68.2192225,16.6877007 68.6755349,15.3634997 C68.8319865,14.9445019 68.9546578,14.5136562 69.0423744,14.075088 C69.3197408,14.075088 69.6507911,14.075088 69.9371048,14.075088 C70.2234185,14.075088 70.5813107,14.075088 70.8318352,14.075088 L71.1449908,15.1487644 C71.7802494,16.9382252 73.2565545,21.1255634 73.8828657,22.7539726 C74.509177,24.3823819 74.5807554,24.4092238 75.9586402,24.6329064 C76.0115515,24.8434472 75.9861118,25.0660439 75.8870618,25.2592177 C75.421802,25.2592177 74.6165447,25.2055339 73.2028707,25.2055339 C71.6549871,25.2055339 71.0644651,25.2592177 70.38447,25.2592177 C70.3128915,25.1697447 70.2771023,24.7044849 70.38447,24.6329064 C70.6923824,24.5841357 70.9929684,24.4969658 71.2792003,24.3734346 C71.4074562,24.3081571 71.4768481,24.1657209 71.4491991,24.0244898 C71.2613057,23.2192324 69.8118425,18.8976847 69.0692163,16.7950683 C69.0692163,16.7950683 68.9976379,16.7950683 68.9976379,16.7950683 C68.5413254,18.1282166 67.1276514,22.1634506 66.7787066,23.3444947 C66.5908132,24.0423844 66.6623916,24.3376454 67.2171244,24.4539604 C67.5123855,24.5255388 67.7450154,24.561328 68.1118548,24.6329064 C68.1828,24.8399408 68.1633141,25.0672766 68.058171,25.2592177 C67.5302801,25.2592177 66.8144958,25.2055339 65.7408193,25.2055339 C65.0608242,25.2055339 64.3092507,25.2592177 63.6650448,25.2592177 C63.5844123,25.0582329 63.5844123,24.8338913 63.6650448,24.6329064 C64.9266147,24.4360657 65.2218757,24.2571197 65.6602936,23.2102851 L65.6960828,23.1834432 Z M77.9807309,24.471855 C78.4728326,24.35554 78.5712529,24.1229101 78.6249367,23.3444947 C78.6249367,23.0671283 78.6249367,21.6355597 78.6249367,19.9982031 C78.6249367,18.2087423 78.6249367,16.2492828 78.6249367,15.7124446 C78.6249367,15.1756063 78.4907272,14.9608711 78.1596769,14.8177142 C77.817772,14.7239749 77.4668406,14.666986 77.1128424,14.6477154 C77.0233694,14.576137 77.0591586,14.075088 77.1128424,14.0214042 C77.8286267,14.0214042 78.3833595,14.075088 79.9133485,14.075088 C81.4433374,14.075088 82.1859636,14.0214042 82.5975396,14.0214042 C82.6874938,14.2204848 82.6874938,14.4486348 82.5975396,14.6477154 C82.315855,14.6806875 82.0374853,14.7375587 81.7654404,14.8177142 C81.4164955,14.9429764 81.3449171,15.166659 81.3270225,15.7124446 C81.3270225,16.6071749 81.3270225,20.6424089 81.3270225,21.6355597 C81.3270225,21.7071381 81.3986009,21.6355597 81.4343901,21.6355597 C81.872808,21.0360903 84.905944,17.3766431 85.7738324,16.1061259 C85.8287895,16.0093281 85.8652018,15.9031254 85.8812001,15.7929703 L85.8812001,15.4440255 C85.8931043,15.1622443 85.7342366,14.9009951 85.4785714,14.781925 C85.1943774,14.6649439 84.8910847,14.6012525 84.583841,14.5940316 C84.4764734,14.486664 84.494368,14.0214042 84.583841,13.9677203 C85.1564685,13.9677203 85.7827798,14.0214042 87.2680322,14.0214042 C88.7532846,14.0214042 89.2543336,13.9677203 89.9522233,13.9677203 C90.0328559,14.1687052 90.0328559,14.3930468 89.9522233,14.5940316 C89.6489948,14.6299862 89.3495694,14.6928656 89.0574929,14.781925 C88.7264427,14.9071872 88.6101277,15.0592914 88.5922331,15.6229715 C88.5385493,16.9113833 88.5922331,17.2245389 88.5922331,19.5061014 C88.5922331,20.7229347 88.5922331,22.5750266 88.5922331,23.3892312 C88.5922331,23.8813329 88.7085481,24.1944885 89.0038091,24.2839616 C89.3835428,24.4106937 89.7770078,24.4917895 90.1759059,24.5255388 C90.2474843,24.5971172 90.1759059,25.1160608 90.0864329,25.1697447 C89.5674892,25.1697447 88.9053888,25.0981662 87.3485579,25.0981662 C85.7917271,25.0981662 84.9327859,25.15185 84.5659464,25.15185 C84.4585788,25.0802716 84.4585788,24.5792226 84.5659464,24.5255388 C84.9775224,24.471855 85.2101523,24.4181711 85.4606768,24.3644873 C85.7112013,24.3108035 85.8812001,24.0692263 85.8990947,23.4697569 C85.8990947,22.5750266 85.9617258,18.5934764 85.8990947,17.403485 C85.8990947,17.3498012 85.8275163,17.3498012 85.8096217,17.403485 C85.2817307,18.1550585 81.7654404,22.4587116 81.5059686,22.8255511 C81.3893468,22.9698577 81.3261356,23.1500097 81.3270225,23.3355474 C81.3270225,23.9260694 81.3986009,24.1676466 81.783335,24.2929089 C82.1040689,24.4111124 82.4372934,24.492167 82.7764857,24.5344861 C82.8301695,24.6239591 82.7764857,25.0892189 82.7049073,25.1607974 C82.0070176,25.1607974 81.3449171,25.1071135 79.8865066,25.1071135 C78.4280961,25.1071135 77.5870495,25.1607974 77.1486316,25.1607974 C77.0679991,24.9598125 77.0679991,24.7354709 77.1486316,24.5344861 L77.9807309,24.471855 Z M92.6185198,24.471855 C93.2806203,24.3376454 93.387988,24.1229101 93.4237772,23.1834432 C93.4595664,22.2439763 93.4237772,20.5708305 93.4237772,19.1213673 C93.4237772,17.9403232 93.4237772,16.3745451 93.4237772,15.69455 C93.4237772,15.2203429 93.2985149,14.9071872 92.7795713,14.7998196 C92.5200995,14.7371885 92.3411534,14.7192939 91.974314,14.66561 C91.857999,14.5940316 91.8937882,14.075088 91.974314,14.0214042 C92.3411534,14.0214042 93.477461,14.075088 94.7121889,14.075088 C96.2421779,14.075088 96.9937514,14.0035096 97.306907,14.0214042 C97.39638,14.0214042 97.4142747,14.5940316 97.306907,14.6477154 C97.0951041,14.6768973 96.8857588,14.721757 96.6805957,14.781925 C96.1258629,14.871398 96.0363899,15.1487644 96.0184953,15.7929703 C96.0006007,16.4371762 96.0184953,18.0119016 96.0184953,19.0587362 C96.0183148,19.1196373 96.065142,19.1703667 96.1258629,19.1750511 C96.8484474,19.2354308 97.5630318,18.9885743 98.0942697,18.495056 C98.4578245,18.0521379 98.7588765,17.5614232 98.9890001,17.0366455 C100.107413,14.6477154 100.697935,13.7887743 101.950558,13.7887743 C102.217892,13.7946039 102.478249,13.8751908 102.702131,14.0214042 C102.773137,14.0904459 102.817496,14.1823335 102.827393,14.280876 C102.789698,14.8602212 102.62798,15.4247074 102.353186,15.9361272 C102.353186,16.0256002 102.201082,16.0613894 102.183188,16.0434948 C101.837285,15.8416609 101.447061,15.7279737 101.04688,15.7124446 C100.71583,15.7124446 100.402674,15.989811 99.8479413,17.0724347 C99.5786035,17.7922078 99.1747565,18.4541526 98.6579499,19.022947 C98.6579499,19.022947 98.6579499,19.0855781 98.6579499,19.1034727 C99.10848,19.3588083 99.4918301,19.7176241 99.7763628,20.1503072 C100.277412,20.8660915 100.733724,21.6355597 101.503192,22.8344984 C102.532132,24.3913292 102.77371,24.4897496 104.097911,24.6239591 C104.187384,24.6239591 104.169489,25.2323758 104.097911,25.2502704 C103.070536,25.3305241 102.038466,25.3305241 101.011091,25.2502704 C100.539634,25.1915124 100.096853,24.9919492 99.7405736,24.6776429 C98.8273799,23.5364179 98.0441361,22.2970322 97.4053273,20.9824065 C97.0384879,20.320306 96.7969107,20.0071504 96.1169156,19.8460989 C96.0872668,19.8460989 96.0632318,19.870134 96.0632318,19.8997827 C96.0632318,20.7945131 96.0632318,22.6734469 96.0632318,23.4787042 C96.0632318,24.1050155 96.188494,24.3018562 96.6716484,24.4360657 C96.9666212,24.5065555 97.2653405,24.560325 97.5663788,24.5971172 C97.7005884,24.6686956 97.6469045,25.1697447 97.5663788,25.2234285 C97.1995394,25.2234285 96.2600725,25.1697447 94.7927146,25.1697447 C93.1732527,25.1697447 92.3858899,25.1697447 91.947472,25.2234285 C91.8132625,25.1697447 91.7953679,24.6865903 91.947472,24.5971172 C92.2337858,24.6060645 92.3769426,24.5702753 92.5827306,24.5344861 L92.6185198,24.471855 Z M112.839426,24.0871209 C113.734157,23.2729163 113.957839,21.6355597 113.957839,20.0697815 C113.957839,18.2176896 113.483632,16.2134936 112.347325,15.2024483 C111.860497,14.7560273 111.218021,14.5183113 110.557864,14.5403478 C110.059566,14.527362 109.570275,14.6747768 109.162084,14.9608711 C108.133145,15.7124446 107.7842,17.2782227 107.7842,19.022947 C107.7842,20.7676712 108.240512,22.852393 109.57366,23.9708059 C110.097472,24.4187594 110.763367,24.666092 111.452594,24.6686964 C111.950061,24.6691147 112.430537,24.487743 112.803637,24.1586993 L112.839426,24.0871209 Z M106.406315,23.8276491 C105.383534,22.6906056 104.819199,21.2144055 104.822642,19.6850474 C104.747369,18.1294513 105.351361,16.6178386 106.477893,15.5424458 C107.692752,14.3794777 109.324278,13.753952 111.005229,13.8066689 C112.561132,13.694997 114.090462,14.2544122 115.207077,15.3436674 C116.323692,16.4329227 116.920866,17.9479069 116.847818,19.5061014 C116.902546,20.840194 116.52949,22.1568629 115.783089,23.263969 C114.637251,24.6230156 112.990034,25.4603022 111.21679,25.5850361 C109.443546,25.70977 107.695336,25.1113252 106.370526,23.9260694 L106.406315,23.8276491 Z M123.558296,14.8803453 C123.504612,14.8803453 123.450929,15.0235022 123.433034,15.1129752 C123.433034,15.6498134 123.433034,17.4750634 123.433034,18.6918967 C123.436499,18.7414514 123.473506,18.7821588 123.522507,18.7903171 C123.683559,18.7903171 123.97882,18.7903171 124.417237,18.7903171 C124.83601,18.8159886 125.255711,18.7582037 125.651965,18.6203183 C126.147497,18.2892976 126.416769,17.7093277 126.349855,17.1171713 C126.418626,16.4839767 126.196675,15.8537383 125.746305,15.4033692 C125.295936,14.9530001 124.665698,14.731049 124.032503,14.7998196 C123.855761,14.8131933 123.682938,14.8586733 123.522507,14.9340291 L123.558296,14.8803453 Z M126.761431,22.1008195 C126.761431,20.5439886 125.80407,19.5687325 124.07724,19.5687325 C123.889476,19.5588613 123.701323,19.5588613 123.51356,19.5687325 C123.487414,19.5710005 123.463257,19.5836165 123.446457,19.6037775 C123.429656,19.6239384 123.421603,19.6499743 123.424087,19.6761001 C123.424087,21.0003011 123.424087,22.6734469 123.424087,23.5234408 C123.448009,23.7422228 123.538588,23.9483682 123.683559,24.1139628 C124.011609,24.4078692 124.433269,24.5758989 124.87355,24.5881699 C125.965121,24.6597483 126.725642,23.7739653 126.725642,22.1545033 L126.761431,22.1008195 Z M119.308327,14.0482461 C119.755692,14.0482461 120.543055,14.1019299 121.938834,14.1019299 C123.334614,14.1019299 124.676709,14.0482461 125.177758,14.0482461 C126.904588,14.0482461 128.75668,14.4777167 128.75668,16.5713857 C128.688354,17.7166075 127.845615,18.6665378 126.716694,18.8708428 C126.69785,18.8821667 126.686323,18.9025418 126.686323,18.9245266 C126.686323,18.9465114 126.69785,18.9668865 126.716694,18.9782104 C128.371946,19.3092607 129.544042,20.0966234 129.544042,21.7160854 C129.560361,23.1192323 128.666411,24.3714854 127.334058,24.8118525 C126.330394,25.1862071 125.264455,25.365382 124.193555,25.3397434 C123.388297,25.3397434 120.32832,25.2502704 119.084644,25.2502704 C119.022013,25.1429027 119.004119,24.6776429 119.084644,24.6239591 C119.483653,24.5909787 119.87721,24.509864 120.256741,24.3823819 C120.534108,24.2929089 120.65937,24.0692263 120.722001,23.55923 C120.784632,23.0492337 120.722001,21.6624016 120.722001,19.6045217 C120.722001,17.7255879 120.722001,16.6429642 120.722001,15.6498134 C120.722001,15.1577117 120.552002,14.9698184 120.220952,14.8624507 C119.913336,14.7511658 119.59045,14.6877957 119.26359,14.6745573 C119.210829,14.4808111 119.21393,14.2760941 119.272538,14.0840353 L119.308327,14.0482461 Z M140.638699,14.9429764 C139.977206,14.5984504 139.236411,14.4348583 138.491346,14.4687693 C136.540834,14.4687693 135.198738,15.9719164 135.198738,19.3003134 C135.198738,21.8055584 136.299257,24.4897496 139.260814,24.4897496 C139.908554,24.5345048 140.548853,24.3296089 141.050275,23.9171221 C141.606667,23.3752147 142.080012,22.754138 142.455002,22.0739776 C142.671747,22.1485599 142.861624,22.2855203 143.000787,22.4676589 C142.706583,23.4250619 142.198719,24.3031165 141.515535,25.0355351 C140.625484,25.3382932 139.690929,25.4895156 138.750818,25.4829003 C134.635058,25.4829003 132.192444,23.4787042 132.192444,19.4882068 C132.130586,17.3787305 133.310405,15.428703 135.207686,14.5045586 C136.37204,13.9529017 137.650906,13.686088 138.938711,13.7261431 C140.37028,13.7261431 141.846585,13.9856149 142.669737,14.0214042 C142.498456,15.0390622 142.399787,16.0676157 142.374476,17.0992767 C142.302898,17.2066443 141.73027,17.2424335 141.694481,17.1529605 C141.470798,16.1687571 141.372378,15.4619201 140.60291,15.0235022 L140.638699,14.9429764 Z M145.604453,24.4539604 C146.266553,24.3197508 146.373921,24.1050155 146.40971,23.1655486 C146.445499,22.2260817 146.40971,20.5529359 146.40971,19.1034727 C146.40971,17.9224286 146.40971,16.3566504 146.40971,15.6766554 C146.40971,15.2024483 146.284448,14.8892926 145.765504,14.781925 C145.49959,14.7232781 145.230808,14.6784812 144.960247,14.6477154 C144.852879,14.576137 144.888668,14.0571934 144.960247,14.0035096 C145.327086,14.0035096 146.472341,14.0571934 147.698122,14.0571934 C149.228111,14.0571934 149.979684,13.9856149 150.29284,14.0035096 C150.382313,14.0035096 150.400208,14.576137 150.29284,14.6298208 C150.081037,14.6590027 149.871692,14.7038624 149.666529,14.7640304 C149.120743,14.8535034 149.022323,15.1308698 149.004428,15.7750757 C148.986534,16.4192816 149.004428,17.994007 149.004428,19.0408416 C149.004428,19.1050805 149.056504,19.1571565 149.120743,19.1571565 C149.84074,19.2183576 150.552897,18.9712163 151.080203,18.4771614 C151.447356,18.0368164 151.748734,17.5455709 151.974933,17.0187509 C153.093346,14.6298208 153.683868,13.7708797 154.936491,13.7708797 C155.20398,13.7757441 155.464599,13.8564118 155.688064,14.0035096 C155.760575,14.0725457 155.807832,14.1639096 155.822274,14.2629814 C155.78611,14.8437597 155.621064,15.4091957 155.339119,15.9182326 C155.339119,16.0077056 155.195962,16.0434948 155.178068,16.0256002 C154.828937,15.8237126 154.435814,15.7100753 154.032813,15.69455 C153.701763,15.69455 153.388607,15.9719164 152.842821,17.0545401 C152.567719,17.7734984 152.161143,18.4349431 151.643883,19.0050524 C151.643883,19.0050524 151.643883,19.0676835 151.643883,19.0855781 C152.094413,19.3409137 152.477763,19.6997294 152.762296,20.1324126 C153.263345,20.8481969 153.719657,21.6176651 154.498073,22.8166038 C155.527013,24.3734346 155.759643,24.471855 157.083843,24.6060645 C157.182264,24.6060645 157.164369,25.2144812 157.083843,25.2323758 C156.056468,25.3126295 155.024399,25.3126295 153.997024,25.2323758 C153.525567,25.1736178 153.082786,24.9740546 152.726507,24.6597483 C151.790594,23.5332679 150.983322,22.3058555 150.319682,21.0003011 C149.952842,20.3382006 149.711265,20.025045 149.03127,19.8639935 C149.017032,19.8639935 149.003378,19.8696495 148.99331,19.8797171 C148.983242,19.8897848 148.977586,19.9034395 148.977586,19.9176773 C148.977586,20.8124077 148.977586,22.6913415 148.977586,23.4965988 C148.977586,24.1229101 149.111796,24.3197508 149.586003,24.4539604 C149.881261,24.5230795 150.179906,24.5768356 150.480733,24.6150118 C150.605996,24.6865903 150.552312,25.1876393 150.480733,25.2413231 C150.113894,25.2413231 149.174427,25.1876393 147.698122,25.1876393 C146.087607,25.1876393 145.291297,25.1876393 144.852879,25.2413231 C144.71867,25.1876393 144.700775,24.7044849 144.852879,24.6150118 C145.219719,24.6060645 145.362876,24.5702753 145.568664,24.5344861 L145.604453,24.4539604 Z M159.114881,24.4539604 C159.61593,24.3376454 159.705403,24.1050155 159.759087,23.3266001 C159.759087,23.0492337 159.759087,21.6176651 159.759087,19.9803085 C159.759087,18.1908477 159.759087,16.2313882 159.759087,15.69455 C159.759087,15.1577117 159.633825,14.9429764 159.302775,14.7998196 C158.9607,14.7068631 158.609852,14.6498878 158.25594,14.6298208 C158.15752,14.5582424 158.193309,14.0571934 158.25594,14.0035096 C158.971725,14.0035096 159.526457,14.0571934 161.047499,14.0571934 C162.568541,14.0571934 163.329062,14.0035096 163.73169,14.0035096 C163.821644,14.2025902 163.821644,14.4307402 163.73169,14.6298208 C163.45277,14.6617277 163.177279,14.7186226 162.908538,14.7998196 C162.550646,14.9250818 162.479068,15.1487644 162.461173,15.69455 C162.461173,16.5892803 162.461173,20.6245143 162.461173,21.6176651 C162.461173,21.6892435 162.532751,21.6176651 162.568541,21.6176651 C163.015906,21.0181957 166.049042,17.3587485 166.907983,16.0882313 C166.969756,15.9938936 167.00951,15.8868649 167.024298,15.7750757 L167.024298,15.4261309 C167.033803,15.1449728 166.875678,14.8849436 166.621669,14.7640304 C166.33718,14.6480094 166.034066,14.5843554 165.726939,14.576137 C165.619571,14.4687693 165.637466,14.0035096 165.726939,13.9498257 C166.299566,13.9498257 166.91693,14.0035096 168.41113,14.0035096 C169.90533,14.0035096 170.397431,13.9498257 171.095321,13.9498257 C171.175954,14.1508106 171.175954,14.3751522 171.095321,14.576137 C170.792277,14.6132122 170.492949,14.6760713 170.200591,14.7640304 C169.869541,14.8892926 169.762173,15.0413968 169.744278,15.6050769 C169.690594,16.8934887 169.744278,17.2066443 169.744278,19.4882068 C169.744278,20.7050401 169.744278,22.557132 169.744278,23.3713366 C169.744278,23.8634383 169.851646,24.1765939 170.146907,24.266067 C170.530052,24.3915029 170.926325,24.4725588 171.327951,24.5076442 C171.39953,24.5792226 171.327951,25.0981662 171.229531,25.15185 C170.719534,25.15185 170.057434,25.0802716 168.491656,25.0802716 C166.925878,25.0802716 166.084831,25.1339554 165.717992,25.1339554 C165.601677,25.062377 165.601677,24.561328 165.717992,24.5076442 C166.12062,24.4539604 166.362197,24.4002765 166.612722,24.3465927 C166.863246,24.2929089 167.042193,24.0513317 167.060087,23.4518623 C167.060087,22.557132 167.113771,18.5755818 167.060087,17.3855904 C167.060087,17.3319066 166.988509,17.3319066 166.970614,17.3855904 C166.433776,18.1371639 162.917486,22.440817 162.666961,22.8076565 C162.543649,22.9487083 162.476742,23.1303136 162.479068,23.3176528 C162.479068,23.9081748 162.550646,24.149752 162.944327,24.2750143 C163.264297,24.3957076 163.597821,24.4768349 163.937478,24.5165915 C163.991162,24.6060645 163.937478,25.0713243 163.856952,25.1429027 C163.159063,25.1429027 162.496962,25.0892189 161.047499,25.0892189 C159.598036,25.0892189 158.748042,25.1429027 158.309624,25.1429027 C158.229098,25.0892189 158.193309,24.5881699 158.309624,24.5165915 L159.114881,24.4539604 Z M173.940564,24.4539604 C174.432665,24.3376454 174.522139,24.1050155 174.58477,23.3266001 C174.58477,23.0492337 174.58477,21.6176651 174.58477,19.9803085 C174.58477,18.1908477 174.58477,16.2313882 174.58477,15.69455 C174.58477,15.1577117 174.45056,14.9429764 174.11951,14.7998196 C173.777435,14.7068631 173.426587,14.6498878 173.072675,14.6298208 C172.983202,14.5582424 173.018991,14.0571934 173.072675,14.0035096 C173.78846,14.0035096 174.343192,14.0571934 175.864234,14.0571934 C177.385276,14.0571934 178.145797,14.0035096 178.548425,14.0035096 C178.647364,14.2005579 178.647364,14.4327725 178.548425,14.6298208 C178.269505,14.6617277 177.994014,14.7186226 177.725273,14.7998196 C177.376328,14.9250818 177.30475,15.1487644 177.277908,15.69455 C177.277908,16.5892803 177.277908,20.6245143 177.277908,21.6176651 C177.277908,21.6892435 177.358434,21.6176651 177.394223,21.6176651 C177.832641,21.0181957 180.865777,17.3587485 181.733665,16.0882313 C181.788622,15.9914335 181.825035,15.8852308 181.841033,15.7750757 L181.841033,15.4261309 C181.852937,15.1443496 181.694069,14.8831005 181.438404,14.7640304 C181.153916,14.6480094 180.850801,14.5843554 180.543674,14.576137 C180.436306,14.4687693 180.454201,14.0035096 180.543674,13.9498257 C181.116301,13.9498257 181.742613,14.0035096 183.227865,14.0035096 C184.713118,14.0035096 185.214167,13.9498257 185.912056,13.9498257 C186.000865,14.1491516 186.000865,14.3768111 185.912056,14.576137 C185.608718,14.61142 185.309233,14.6743119 185.017326,14.7640304 C184.686276,14.8892926 184.569961,15.0413968 184.552066,15.6050769 C184.498382,16.8934887 184.552066,17.2066443 184.552066,19.4882068 C184.552066,20.7050401 184.552066,22.557132 184.552066,23.3713366 C184.552066,23.8634383 184.659434,24.1765939 184.954695,24.266067 C185.33784,24.3915029 185.734113,24.4725588 186.135739,24.5076442 C186.207317,24.5792226 186.135739,25.0981662 186.046266,25.15185 C185.527322,25.15185 184.865222,25.0802716 183.299444,25.0802716 C181.733665,25.0802716 180.892619,25.1339554 180.525779,25.1339554 C180.418412,25.062377 180.418412,24.561328 180.525779,24.5076442 C180.928408,24.4539604 181.169985,24.4002765 181.42051,24.3465927 C181.671034,24.2929089 181.841033,24.0513317 181.858928,23.4518623 C181.858928,22.557132 181.912611,18.5755818 181.858928,17.3855904 C181.858928,17.3319066 181.787349,17.3319066 181.769455,17.3855904 C181.232616,18.1371639 177.725273,22.440817 177.465801,22.8076565 C177.345959,22.9507429 177.279543,23.1310161 177.277908,23.3176528 C177.277908,23.9081748 177.358434,24.149752 177.743168,24.2750143 C178.063496,24.3945435 178.396878,24.4756362 178.736319,24.5165915 C178.790002,24.6060645 178.736319,25.0713243 178.66474,25.1429027 C177.957903,25.1429027 177.295803,25.0892189 175.846339,25.0892189 C174.396876,25.0892189 173.546882,25.1429027 173.108465,25.1429027 C173.027832,24.9419179 173.027832,24.7175763 173.108465,24.5165915 L173.940564,24.4539604 Z M180.498937,11.158267 C181.88577,11.3014238 182.377871,10.4066934 182.458397,10.746691 C182.208566,11.7140415 181.509709,12.5027511 180.579463,12.867202 C178.977896,13.5024605 177.000542,11.9187878 177.814746,11.0151101 C178.628951,10.1114324 179.380524,11.0866885 180.463148,11.2030035 L180.498937,11.158267 Z M41.5562572,24.5344861 C42.2183577,24.4002765 42.3257254,24.1855412 42.3615146,23.2460743 C42.3973038,22.3066074 42.3615146,20.6334616 42.3615146,19.1839984 C42.3615146,18.0029543 42.3615146,16.4371762 42.3615146,15.7571811 C42.3615146,15.282974 42.2362523,14.9698184 41.726256,14.8624507 C41.4667842,14.7998196 41.2788908,14.781925 40.9120514,14.7282412 C40.8046837,14.6566627 40.8404729,14.1377191 40.9120514,14.0840353 C41.2788908,14.0840353 42.4241457,14.1377191 43.6588736,14.1377191 C45.1799153,14.1377191 45.9314888,14.0661407 46.2446444,14.0840353 C46.3430647,14.0840353 46.3609594,14.6566627 46.2446444,14.7103466 C46.0328415,14.7395284 45.8234962,14.7843882 45.6183331,14.8445561 C45.0725476,14.9340291 44.9741273,15.2113956 44.9562327,15.8556014 C44.9383381,16.4998073 44.9562327,18.0745328 44.9562327,19.1213673 C44.9605487,19.1837311 45.0101838,19.2333662 45.0725476,19.2376823 C45.7949909,19.2969386 46.5091342,19.0502345 47.0409544,18.5576872 C47.3863969,18.1121104 47.6693609,17.6214388 47.882001,17.0992767 C49.0093613,14.7103466 49.590936,13.8514054 50.8435585,13.8514054 C51.1112868,13.8547714 51.3723166,13.9355664 51.5951321,14.0840353 C51.670774,14.1506745 51.7186656,14.2432648 51.7293416,14.3435071 C51.693178,14.9242854 51.5281318,15.4897214 51.2461872,15.9987583 C51.2461872,16.0882313 51.1030304,16.1240205 51.0851357,16.1061259 C50.7360054,15.9042384 50.3428816,15.790601 49.9398809,15.7750757 C49.6088306,15.7750757 49.295675,16.0524421 48.7498895,17.1350659 C48.4747868,17.8540241 48.0682107,18.5154689 47.5509508,19.0855781 C47.5509508,19.0855781 47.5509508,19.1482092 47.5509508,19.1661038 C48.0043317,19.4208527 48.3907224,19.779644 48.678311,20.2129384 C49.1704127,20.9287227 49.6356725,21.6981908 50.4051407,22.8971295 C51.4340806,24.4539604 51.6756578,24.5523807 52.9998587,24.6865903 C53.0893318,24.6865903 53.0714372,25.2950069 52.9998587,25.3129015 C51.9724837,25.3931553 50.940414,25.3931553 49.9130389,25.3129015 C49.4415824,25.2541435 48.9988016,25.0545804 48.6425218,24.7402741 C47.7324619,23.5968186 46.9494439,22.3577902 46.3072755,21.0450376 C45.9404361,20.3829371 45.7078062,20.0697815 45.0278111,19.90873 C44.9964336,19.9084084 44.969661,19.9313563 44.96518,19.9624139 C44.96518,20.8571442 44.96518,22.736078 44.96518,23.5413354 C44.96518,24.1676466 45.0993895,24.3644873 45.5735966,24.4986969 C45.8688546,24.567816 46.1674993,24.6215721 46.468327,24.6597483 C46.5935893,24.7313268 46.5399054,25.2323758 46.468327,25.2860596 C46.1014875,25.2860596 45.1620206,25.2323758 43.6946628,25.2323758 C42.0752008,25.2323758 41.2788908,25.2323758 40.8404729,25.2860596 C40.7152107,25.2323758 40.6973161,24.7492214 40.8404729,24.6597483 C41.2073124,24.6060645 41.3594165,24.5702753 41.5562572,24.5344861 Z M60.3545424,8.59039077 C60.69454,8.52775965 60.7571711,8.48302313 60.7750657,8.02671064 C60.7929603,7.57039814 60.7750657,6.55935282 60.7750657,6.12093493 C60.7750657,5.68251705 60.7750657,4.70726094 60.7750657,4.33147418 C60.7750657,3.95568742 60.7750657,3.96463473 60.4708574,3.9109509 L59.9966503,3.83042517 C59.9393731,3.7211615 59.9393731,3.590744 59.9966503,3.48148032 C60.1755964,3.48148032 60.6676981,3.48148032 61.1240106,3.48148032 C61.5803231,3.48148032 62.2066343,3.48148032 62.3676858,3.48148032 C62.5287373,3.48148032 62.4213696,3.79463595 62.3676858,3.83937247 L62.0097936,3.9109509 C61.7324272,3.96463473 61.6250596,4.07200237 61.607165,4.39410531 L61.607165,5.97777807 C61.9334535,6.00773274 62.257522,5.90079015 62.5018953,5.68251705 C62.7750878,5.35083033 63.012046,4.99089385 63.2087323,4.6088406 C63.7992544,3.57095336 64.1034627,3.33832346 64.6671429,3.33832346 C64.7737991,3.3384371 64.8786067,3.36618029 64.9713512,3.4188492 C65.0019527,3.4480025 65.0236682,3.48522922 65.0339823,3.52621684 C65.0115597,3.78127449 64.9512485,4.03156605 64.8550362,4.26884305 C64.8550362,4.26884305 64.7834578,4.32252688 64.7655632,4.32252688 C64.5883445,4.23512753 64.3978737,4.17768395 64.2018831,4.1525281 C64.0408316,4.1525281 63.8887274,4.23305384 63.5397826,4.83252319 C63.3132495,5.27834938 63.0104379,5.68108887 62.6450522,6.02251459 C62.6316121,6.04122854 62.6316121,6.06643177 62.6450522,6.08514572 C62.9563849,6.33145259 63.2175918,6.63518163 63.4145203,6.9798761 C63.6024137,7.21250599 63.9960951,7.73144961 64.228725,8.00881603 C64.5264081,8.44504928 65.0355512,8.68766109 65.5618732,8.6440746 C65.5618732,8.6440746 65.5618732,8.98407214 65.5618732,8.99301944 C65.1568764,9.02458896 64.7500368,9.02458896 64.3450399,8.99301944 C64.130407,8.9764613 63.9266617,8.89182865 63.7634652,8.75144224 C63.2566568,8.18638697 62.8209603,7.56138792 62.4661061,6.89040306 C62.3066438,6.58047797 61.991346,6.38170324 61.6429542,6.37145944 L61.6429542,8.12513098 C61.6429542,8.420392 61.7055853,8.50986504 61.9471625,8.57249617 L62.4661061,8.6619692 C62.51979,8.6619692 62.4661061,8.97512484 62.4661061,9.01091405 C62.2782128,9.01091405 61.7055853,9.01091405 61.2582201,9.01091405 L60.0145449,9.01091405 C59.969275,8.89900387 59.969275,8.77387938 60.0145449,8.6619692 L60.3545424,8.59039077 Z M16.1286734,32.0790593 C15.4421656,33.5029285 13.9698704,33.1959475 13.9381854,31.2234315 C13.8980511,29.168183 9.67338776,29.283573 9.67338776,29.1572971 C9.67761242,28.8807965 12.9601759,28.6456622 14.6500412,29.4316206 C16.4539725,30.2741854 16.3758162,31.5652472 16.1286734,32.0790593 Z M19.0669267,32.0790593 C18.8197839,31.5652472 18.7416277,30.2741854 20.5455589,29.4316206 C22.2354243,28.6456622 25.5179877,28.8807965 25.5222124,29.1572971 C25.5222124,29.283573 21.297549,29.168183 21.259527,31.2234315 C21.2257297,33.1959475 19.7513222,33.5029285 19.0669267,32.0790593 Z M22.5543864,19.7149107 C23.5514069,19.0617597 23.6485742,20.9842008 23.7394044,21.6787181 C23.9168403,23.0198548 25.0321514,23.5445528 24.6350331,23.4944779 C24.5420905,23.4792377 23.7140564,23.3507847 22.8796854,22.4058929 C21.9756075,21.3760914 21.8467552,20.1764708 22.5543864,19.7149107 Z M24.7976826,11.7834803 C24.7976826,11.3197431 24.4322492,10.934384 24.5653261,10.8799547 C24.9809986,10.915529 25.3560197,11.1511605 25.577133,11.5156884 C25.965802,12.138359 25.5243247,12.996164 25.0448254,12.8067502 C24.5653261,12.6173364 24.7997949,12.2472175 24.7976826,11.7834803 Z M16.3251202,9.54317234 C16.6652056,9.32545533 16.9017868,8.67230432 17.0031787,8.75939112 C17.0880769,9.19361507 17.044664,9.64410355 16.8785511,10.0526301 C16.6018357,10.6731236 15.6111521,10.8146396 15.5393328,10.3291307 C15.4675136,9.8436218 15.9871472,9.76959802 16.3251202,9.54317234 Z M29.1406365,17.1632674 C28.6548002,17.4680712 28.0189884,16.8388691 27.723262,15.7219809 C27.4528835,14.6943566 27.5120288,14.263277 27.5711741,14.2719856 C27.6303194,14.2806943 27.8943608,14.9251366 28.5977673,15.6523114 C28.958976,16.0289619 29.8271443,16.7365421 29.1406365,17.1654446 L29.1406365,17.1632674 Z M33.1899764,15.6196539 C32.792858,15.4019369 32.2922354,15.5434529 32.3091341,15.4019369 C32.5384424,15.0430463 32.9194054,14.8176323 33.3357273,14.7945064 C34.0518077,14.7422544 34.569329,15.5521616 34.1806599,15.8830915 C33.7919909,16.2140213 33.5913194,15.8439024 33.1899764,15.6218311 L33.1899764,15.6196539 Z M18.4501259,27.6724672 C17.9431663,27.9380819 17.7277085,28.5759927 17.5904069,28.451894 C17.3935466,27.9480854 17.4397731,27.3779547 17.7150345,26.914812 C18.1797474,26.1114363 19.3668778,26.1397395 19.4302478,26.8037763 C19.4936177,27.4678132 18.9570855,27.4068524 18.4501259,27.6724672 Z M19.9287581,5.70046723 L19.9266457,5.70046723 C20.1737885,6.25346842 20.6511755,6.55391788 20.1737885,7.05902133 C19.6964016,7.56412478 18.7226167,6.78469791 18.8514689,5.82238875 C18.9197697,5.2627449 19.2409538,4.76941032 19.7175249,4.49213787 C19.9139718,4.48342919 19.6858399,5.14528887 19.9287581,5.70046723 Z M14.9563293,5.70046723 C15.2013598,5.14528887 14.9732279,4.48342919 15.1675625,4.49213787 C15.6441336,4.76941032 15.9653177,5.2627449 16.0336185,5.82238875 C16.1624707,6.78469791 15.1886858,7.56412478 14.7134112,7.05902133 C14.2381365,6.55391788 14.7112988,6.25346842 14.954217,5.70046723 L14.9563293,5.70046723 Z M17.3686121,6.65189054 L17.3770614,6.64318186 C17.6407603,6.08017802 17.6569183,5.42750345 17.4214204,4.85137092 C17.1502346,5.41497269 17.1309516,6.07243432 17.3686121,6.65189054 Z M21.1919324,5.08215094 L21.1898201,5.08215094 C21.762262,4.74686676 20.6152659,2.76128769 18.8472443,3.54289173 C18.4936934,3.69455727 18.169552,3.91064703 17.890358,4.18080255 C18.291701,4.91450885 18.342397,5.87246366 17.6157549,7.04160397 C18.2938134,7.98431859 20.0597226,9.59542442 22.1720543,9.91111407 C24.6498194,10.281233 24.8716142,8.80946604 24.5970111,8.13236616 C24.322408,7.45526628 23.6021029,7.09167888 22.966291,7.3812425 C22.3304792,7.67080611 23.2915901,8.75939112 23.2915901,8.75939112 C21.2637517,9.01194285 20.7990387,7.62726271 21.360919,6.59963845 C21.9227992,5.5720142 24.328745,5.90076688 25.4398314,7.60331384 C26.5509179,9.3058608 24.7659976,10.063516 24.7659976,10.063516 C24.7659976,10.063516 21.3566943,11.5396373 18.1079282,8.32177995 C17.8322712,8.05355481 17.5786294,7.76227088 17.3496011,7.45091194 C17.1052867,7.77522705 16.8376756,8.08016347 16.5490274,8.36314618 C13.1228254,11.7595314 9.789566,10.4684696 9.789566,10.4684696 C9.789566,10.4684696 8.04478003,9.80225557 9.24880909,8.03874784 C10.4528382,6.27524012 12.8799073,5.82021158 13.3868669,6.81735546 C13.8938265,7.81449933 13.3530695,9.22748268 11.3357928,9.08378946 C11.3357928,9.08378946 12.3518243,7.94948387 11.7350235,7.68386913 C11.1182226,7.41825439 10.3810189,7.82973952 10.0620568,8.52425676 C9.74309471,9.218774 9.88673326,10.6796551 12.3856216,10.1767288 C14.5190766,9.75000349 16.3652545,8.04963369 17.0961213,7.07208435 C16.4328491,5.93777877 16.5469151,4.97764678 16.9968417,4.22434595 C16.7260725,3.96178898 16.4072329,3.75750768 16.0589664,3.62344702 C14.3247421,2.9202211 13.0636801,4.9689381 13.6255603,5.27374191 C13.6255603,5.27374191 10.8922031,5.63297496 11.2217269,4.23305463 C11.5512506,2.8331343 13.4924834,1.99710101 15.6365001,2.54139352 C16.3288515,2.72540653 16.9605907,3.09758849 17.4657793,3.61909268 C17.991505,3.0909154 18.6262213,2.69199539 19.3225189,2.45212955 C20.877195,1.93396308 23.3972067,2.52179899 23.6527988,3.91083347 C23.908391,5.29986795 21.1919324,5.08215094 21.1919324,5.08215094 Z M17.2904558,1.10881564 C17.6408708,0.394461452 18.367419,-0.0393077892 19.1429707,0.00281326369 L19.1429707,0.246656307 C18.4971062,0.214172621 17.8840819,0.541732416 17.5375986,1.1044613 C18.2494544,0.699507673 18.3212737,1.64875381 18.3212737,1.64875381 C18.3212737,1.64875381 18.2410051,2.60235428 17.4087464,2.57622824 C16.5764877,2.5501022 16.3399065,1.74454929 16.629296,1.26992622 C16.6931653,1.15465527 16.8005829,1.07187282 16.9259184,1.04133123 C17.0512539,1.01078963 17.183266,1.03522816 17.2904558,1.10881564 Z M7.75539059,7.0176551 L7.75539059,6.96758019 L7.75539059,6.99370623 L7.75539059,7.0176551 Z M7.83988386,6.60399279 C7.8014096,6.72239446 7.77313577,6.84406107 7.75539059,6.96758019 C7.77574678,6.83480029 7.8082817,6.70431094 7.85255785,6.57786675 L7.83988386,6.60399279 Z M17.5375986,33.060963 C18.0487829,32.1879178 17.7741798,31.4672745 17.6453275,30.9904743 C17.6242042,30.9186277 17.5904069,30.8054148 17.5375986,30.666076 C17.4847903,30.8054148 17.450993,30.9186277 17.4298697,30.9904743 C17.2946805,31.4672745 17.0200773,32.190095 17.5375986,33.060963 Z M27.8880238,26.4837323 C27.8880238,26.4837323 25.6447276,27.4765219 25.6447276,25.4365136 C25.6447276,23.3965052 28.7540798,22.5495861 29.6581578,24.0278845 C30.5622358,25.506183 29.2335791,27.004076 28.8132251,27.3807264 C28.3928711,27.7573768 27.4909055,28.7044458 23.0085377,28.0687121 C19.6985139,27.6006206 18.3149367,29.1072222 17.7530564,30.154441 C18.0114092,30.693185 18.1880818,31.2695763 18.2769147,31.8635195 C18.3768744,32.473389 18.271798,33.1001566 17.9790759,33.6400902 C18.9697595,34.6590058 20.1949119,34.6960177 21.4623109,33.8099095 C22.7571702,32.8998524 21.9481472,31.0187775 21.9481472,31.0187775 C21.9481472,31.0187775 22.3030189,30.5811663 23.405656,31.33229 C24.5082932,32.0834137 24.0858268,33.9666657 24.0858268,33.9666657 C23.5809795,36.8818964 19.3246312,36.3615528 17.5312616,34.2975956 C15.737892,36.3615528 11.4815437,36.8775421 10.9682471,33.9666657 C10.9682471,33.9666657 10.5521177,32.0834137 11.6526425,31.3344672 C12.7531674,30.5855207 13.1101514,31.0209547 13.1101514,31.0209547 C13.1101514,31.0209547 12.3011284,32.9020296 13.5959877,33.8120867 C14.8570497,34.6981949 16.0885391,34.661183 17.081335,33.6422674 C16.7870742,33.1028954 16.6812,32.4758167 16.7813839,31.8656967 C16.8719694,31.2721768 17.0485599,30.6960534 17.3052421,30.1566182 C16.7433619,29.1093994 15.3597846,27.6027977 12.0497609,28.0708893 C7.56739307,28.7066229 6.66753978,27.759554 6.24507344,27.3829036 C5.82260711,27.0062531 4.49395048,25.5083602 5.40014077,24.0300617 C6.30633106,22.5517633 9.41357096,23.4008596 9.41357096,25.4386907 C9.41357096,27.4765219 7.16816239,26.4815552 7.16816239,26.4815552 C7.16816239,26.4815552 7.9159278,26.2594838 7.98774708,25.6738251 C8.05956636,25.0881664 7.38150789,23.9299119 6.20282681,24.7115159 C5.02414573,25.49312 6.4626436,27.4351556 7.93071412,27.6528726 C9.39878464,27.8705896 11.2006036,27.6528726 12.9094799,27.5440141 C14.2339119,27.4678132 16.3504682,27.8270462 17.5312616,29.7407787 C18.7099427,27.8270462 20.8307237,27.4678132 22.1530433,27.5440141 C23.8745937,27.6528726 25.6637386,27.8705896 27.1318091,27.6528726 C28.5998796,27.4351556 30.0341528,25.49312 28.8533594,24.7136931 C27.672566,23.9342662 26.9966199,25.0859892 27.0684392,25.6760023 C27.1402584,26.2660153 27.8880238,26.4837323 27.8880238,26.4837323 Z M16.7349126,24.7920712 C16.0589664,24.6374922 15.9617992,23.4748834 16.0293938,22.7629488 C16.139235,21.382623 15.8794182,20.4921604 15.9280019,20.4268453 C15.9765855,20.3615302 16.3948272,20.7490665 16.9841677,22.0379511 C17.6242042,23.4378715 17.9875253,25.0794577 16.7349126,24.7920712 Z M8.99532929,34.5087811 C8.03210604,34.3846824 8.7756468,33.3135147 9.05658691,32.7909939 C9.60156848,31.7699012 9.6628261,31.0274862 9.73464538,30.9926515 C9.80646466,30.9578168 10.0324841,31.3540617 10.1085281,32.4818358 C10.1887967,33.7032282 9.68183709,34.598045 8.99532929,34.5087811 Z M25.7545688,34.5087811 C25.0701734,34.598045 24.5632138,33.7032282 24.6434824,32.4818358 C24.7195263,31.3540617 24.9455458,30.9578168 25.0173651,30.9926515 C25.0891844,31.0274862 25.150442,31.7699012 25.6954236,32.7909939 C25.9869253,33.3135147 26.7241291,34.3846824 25.7545688,34.5087811 Z M5.43182574,17.1654446 C4.74531795,16.7365421 5.61348627,16.0289619 5.97469499,15.6544886 C6.67810144,14.9273138 6.94636756,14.2828715 7.00340052,14.2741628 C7.06043347,14.2654541 7.11957876,14.6965338 6.8492003,15.7241581 C6.55347387,16.8410463 5.91977436,17.4702484 5.43182574,17.1654446 Z M1.3951599,25.9111366 C0.687528788,24.9118156 1.12900611,23.4226313 2.42597776,22.5931295 C3.62366983,21.8289428 4.22779669,21.870309 4.255257,22.0074708 C4.28271731,22.1446325 3.59620951,22.8239095 3.06601426,24.4720272 C2.79141114,25.3189464 2.39429279,27.3197656 1.3951599,25.9111366 Z M33.270245,25.9742746 L33.270245,25.9720974 C32.2711121,27.3807264 31.8739937,25.3820843 31.6015029,24.5351652 C31.0691954,22.8870474 30.3826876,22.2099476 30.4101479,22.0706087 C30.4376082,21.9312698 31.041735,21.8899036 32.2373148,22.6540903 C33.5363988,23.4857692 33.9778761,24.9727763 33.270245,25.9742746 Z M22.1847283,26.940938 C20.456841,26.940938 19.7808949,26.1963459 19.1176227,24.7289333 C18.7902113,24.0300617 18.323386,22.804315 17.8079771,21.3848001 C17.1425926,19.4601818 16.1983803,18.9768501 15.0302609,19.0029761 L15.0302609,23.5271354 C15.0302609,25.8371128 15.2013598,25.9568572 16.9313594,26.1005504 L16.9313594,26.940938 L9.94587855,26.940938 L9.94587855,26.1005504 C11.6970015,25.9568572 11.9082347,25.8349357 11.9082347,23.572856 L11.9082347,14.7183055 C11.9082347,12.4083281 11.6991138,12.2885837 9.94587855,12.1448905 L9.94587855,11.3023257 L16.9398087,11.3023257 L16.9398087,12.1448905 C15.1781241,12.2885837 15.0387102,12.4083281 15.0387102,14.7183055 L15.0387102,18.0733245 C16.1814817,18.040667 17.0475377,17.8556075 17.8502237,17.0348144 C18.5451808,16.3620689 19.0436911,15.351862 19.8125798,13.4751414 C20.5730192,11.6963935 21.4390752,10.947447 22.558611,10.947447 C23.4479027,10.9234981 23.9844349,11.498271 23.9844349,12.151422 C23.9844349,12.7349036 23.4479027,13.0005183 22.9810774,13.02229 L22.558611,13.02229 C21.6714317,13.02229 21.1348995,13.4555469 20.1061939,15.5739333 C19.2190146,17.400579 18.2156571,18.0994506 17.839662,18.2910415 L17.839662,18.3432936 C19.1028364,18.6546289 20.0597226,19.2816539 20.8539593,20.8470391 C21.2278421,21.5698596 21.7664866,22.9392995 22.4656684,24.3588144 C23.1204912,25.7391402 23.7732017,25.9808061 24.8716142,26.1005504 L24.8716142,26.940938 L22.1847283,26.940938 Z M1.38248591,15.6196539 L1.38248591,15.6218311 C0.987479887,15.8439024 0.780471382,16.2140213 0.391802353,15.8830915 C0.00313332357,15.5521616 0.520654585,14.7422544 1.23673503,14.7945064 C1.65305685,14.8176323 2.03401983,15.0430463 2.26332822,15.4019369 C2.28022688,15.5434529 1.77960427,15.4019369 1.38248591,15.6196539 Z M31.7662648,28.1427359 C31.95215,27.7181877 31.7789388,27.2152615 31.9225774,27.221793 C32.2853167,27.4327476 32.5297547,27.8082368 32.5816248,28.234177 C32.6809044,28.9678833 31.933139,29.5557193 31.576155,29.1790688 C31.2191709,28.8024184 31.5782673,28.5672841 31.7662648,28.1449131 L31.7662648,28.1427359 Z M2.73015352,27.8923613 C2.91815104,28.3060237 3.27302277,28.5498667 2.91392638,28.9286943 C2.55482999,29.3075219 1.80706458,28.719686 1.90634417,27.9859797 C1.96006342,27.5583444 2.20786039,27.1825138 2.57384098,26.9735956 C2.71959187,26.9648869 2.54638067,27.4699904 2.73015352,27.8923613 Z M9.06714857,16.5493055 C8.73973716,16.0093673 8.25390087,15.7502841 8.57708762,15.2103459 C8.90027436,14.6704078 9.93109223,15.3540391 10.0029115,16.3315885 C10.0723112,16.8608365 9.87953732,17.3906796 9.4896149,17.7423947 C9.32062837,17.7685207 9.39667231,17.0827121 9.06714857,16.5493055 Z M18.686707,9.8000784 C19.2929462,10.191969 20.3427751,10.0852877 20.0998569,10.9844589 C19.9012978,11.7225195 18.4226656,11.5831807 17.8481114,10.5751509 C17.2735571,9.56712121 17.6495522,8.75939112 17.6495522,8.75939112 C17.8037524,8.63529243 18.0804679,9.41689647 18.686707,9.8000784 Z M25.513763,16.5493055 C25.1863516,17.0827121 25.2602832,17.7685207 25.0912967,17.7423947 C24.700216,17.3895355 24.5066926,16.8581774 24.5758878,16.3272341 C24.647707,15.3496848 25.6785249,14.6660534 26.0017117,15.2059916 C26.3248984,15.7459298 25.8432868,16.0093673 25.513763,16.5493055 Z M4.45381618,20.9907324 L4.45592851,20.9929095 C4.20519707,21.1828408 3.9419258,21.3545276 3.66802879,21.5067217 C3.9389114,21.349658 4.20123431,21.177403 4.45381618,20.9907324 Z M9.78534134,13.4794957 C11.5005547,14.2066705 10.8816415,19.1183661 10.4528382,20.550944 C10.0240348,21.9835219 7.44065317,24.6244291 7.01818684,21.7048441 C6.5957205,18.7852591 8.22432823,17.2568858 9.53819853,18.5849595 C9.53819853,18.5849595 8.07435268,19.6778988 8.53906565,20.4834517 C9.00377862,21.2890046 10.254279,20.6336765 10.4824108,18.8941176 C10.7105426,17.1545588 10.623937,15.2582437 10.2247063,14.62251 C9.82547564,13.9867764 8.94040867,13.7364018 8.30670916,14.7400772 C8.15472011,15.0145924 8.01858988,15.2981179 7.89902915,15.5891735 C7.75510425,16.2281643 7.55792531,16.8531554 7.30968861,17.4571854 C6.01905395,20.5400582 4.7685536,22.9937288 4.40100788,24.2826134 C4.03346217,25.5714981 3.7419604,28.2058738 4.98401143,30.256768 C6.22606246,32.3076622 6.84708797,31.2822151 6.84708797,31.2822151 C6.84708797,31.2822151 7.43009151,30.3003114 6.43940796,30.1479095 C6.43940796,30.1479095 6.48376692,29.3793685 7.17872404,29.3075219 C7.87368117,29.2356753 8.77142213,29.5383019 8.79043312,30.9774113 C8.8094441,32.4165207 8.12716097,33.0914434 6.86609896,32.9608132 C5.60503694,32.830183 4.02923751,30.5398001 3.52650257,28.3169095 C3.02376763,26.0940189 4.2890543,23.1700796 5.10018967,21.5088988 C5.6155986,20.4529714 6.14156919,19.2402876 6.51122723,18.3324077 C5.95976297,19.2680875 5.26004133,20.1018826 4.44114219,20.7991414 C4.20049664,20.9864389 3.95016953,21.160142 3.69126444,21.319485 C3.19660892,21.6157904 2.65769029,21.8254677 2.09645402,21.9399785 C1.1015458,22.0727859 0.605147853,21.5829226 0.552339561,21.524139 C0.520500345,21.4891145 0.49086721,21.4520269 0.46362163,21.4131033 C0.366307331,21.2869475 0.287323404,21.1468664 0.229152813,20.9972639 C0.0221045315,20.4430842 -0.0461823289,19.8440805 0.0305936354,19.2555278 C0.0872010021,18.2028962 0.584307986,17.2274153 1.39304757,16.581963 C2.0753307,15.9440522 3.00053198,15.4759607 3.88982362,16.1291117 C4.50673572,16.5421499 4.78271269,17.327049 4.56576975,18.0515528 C4.16442674,19.9348049 2.96673467,20.2875064 2.96673467,20.2875064 C2.34782149,20.5487668 1.58526975,20.5400582 1.34023928,19.6974934 C0.960019575,18.3890142 2.18517195,17.7881152 2.18517195,17.7881152 C2.0802207,18.0336345 2.0802207,18.3133142 2.18517195,18.5588334 C2.2403142,18.6524599 2.32017386,18.7279746 2.4154161,18.7765504 C2.64354793,18.9420154 3.04277861,19.0639369 3.4884806,18.5588334 C3.59798713,18.4564287 3.68697206,18.3329075 3.75040973,18.195246 C3.86980403,17.9160624 3.88485058,17.6012417 3.79265636,17.311315 C3.6152205,16.6777585 3.20542815,16.5405968 2.75127684,16.658164 C2.65065079,16.6860111 2.55244199,16.7224224 2.45766274,16.7670225 C1.87043453,17.0065112 0.554451892,17.7685207 0.657956145,19.5973435 C0.721326095,20.7360035 1.20927471,21.1496658 1.695111,21.2737645 C2.04380125,21.34584 2.40486095,21.3202787 2.74071518,21.1997407 C2.82520845,21.1757918 2.91392638,21.1518429 3.00686897,21.1213626 C3.78667047,20.8715848 4.4817608,20.3990002 5.01147174,19.7584541 C5.89404499,18.7016561 6.63895418,17.530599 7.22730767,16.2749821 C7.60541504,15.1167276 8.16307061,13.0244672 7.69835764,11.1978216 C7.35615991,9.85886199 6.6421918,9.18611645 5.90498804,8.96839945 L5.80782078,8.94227341 C5.51656418,8.87356468 5.21401041,8.87356468 4.92275381,8.94227341 C4.31228995,9.07072644 3.52016557,9.49527459 2.85689342,10.6970725 C2.85689342,10.7079583 2.85689342,10.7079583 2.85689342,10.7079583 C2.69245204,11.0098926 2.58090596,11.3393258 2.52736968,11.6811533 C2.3992087,12.2150616 2.3912607,12.7721147 2.50413403,13.3096765 C2.542156,13.4555469 3.09347457,15.4694292 4.61646572,14.7857978 C4.62702737,14.7770891 4.71785764,14.7379 4.83826054,14.6616991 C5.10068326,14.5180888 5.33151926,14.3201915 5.51631901,14.0803947 C5.66131867,13.9102564 5.77447804,13.7138999 5.85006742,13.5012675 C5.86485374,13.4620784 5.87752773,13.4207122 5.88808939,13.3837003 C5.89865105,13.3466884 5.91977436,13.2574244 5.91977436,13.2574244 C5.9345685,13.1770557 5.94164379,13.0953802 5.94089768,13.0135814 C5.96159933,12.7957753 5.95378405,12.5760889 5.91766203,12.3604304 C5.65150824,10.7253757 4.2151227,12.0316777 4.31228995,13.200818 C4.31228995,13.200818 3.09347457,12.4932377 3.88982362,11.0846087 C4.68617266,9.67597971 6.20705147,9.72387745 6.76470704,10.6491747 C7.3223626,11.574472 7.34137358,14.1239381 5.03259506,15.1493852 L4.86360852,15.2190546 C3.32794339,15.8482567 2.51892036,14.8184553 2.51892036,14.8184553 C1.94735432,14.2196429 1.633038,13.4093399 1.64652737,12.5694387 C1.66099717,12.0710324 1.74859542,11.5777565 1.90634417,11.1063804 C1.9094753,11.1046731 1.91232655,11.102469 1.9147935,11.0998489 L1.92957982,11.0606598 C1.94436614,11.0475968 1.94436614,11.0323566 1.94436614,11.0171164 L1.9549278,10.9909904 C1.95857682,10.9767509 1.96352776,10.9629002 1.96971412,10.9496242 C2.24246457,10.2377689 2.64955728,9.58877575 3.16740618,9.04024606 C3.42410365,8.78358122 3.713297,8.56387346 4.02712518,8.38709505 C4.42956181,8.16767395 4.86528711,8.02042806 5.3156475,7.95166104 C5.44630592,7.93860823 5.57788278,7.93860823 5.70854119,7.95166104 C5.70854119,7.95166104 4.93754013,7.25496663 5.28607486,6.31660635 C5.86707741,6.2544425 6.41405298,6.6096055 6.61050682,7.17658851 C6.61050682,7.17658851 6.43518329,5.07344226 7.40685587,4.36368483 C8.37852844,3.6539274 9.98390052,3.87164441 10.0155855,5.17794643 C9.00377862,4.90580017 8.21165424,5.45662419 7.87368117,6.5452092 C7.82624958,6.70217561 7.78885155,6.86217774 7.76172759,7.02418661 C7.70564763,7.38397358 7.68653096,7.74885244 7.70469463,8.11277163 L7.70469463,8.17155522 C7.72839003,8.55768465 7.78135995,8.94131144 7.86311951,9.31892382 C7.90114148,9.61719612 7.95183744,9.8871652 8.00042107,10.1048822 C8.02365672,10.2093864 8.04689237,10.3051818 8.06801568,10.3944458 C8.14828429,10.8668917 8.19898025,11.2718453 8.23277755,11.6180154 C8.26362071,11.8613479 8.2805486,12.1063399 8.28347351,12.3517217 C8.28347351,12.4692889 8.28769818,12.6064506 8.28347351,12.6870059 C8.27924885,12.7675611 8.26868719,12.8524708 8.26868719,12.9352032 C8.2495608,13.3399102 8.20936867,13.7432671 8.14828429,14.1435326 C8.1292733,14.289403 8.10603765,14.4396277 8.082802,14.5920296 C8.59187394,13.6776182 9.0692609,13.1746919 9.78534134,13.4794957 Z M16.2364023,14.1544185 C16.2364023,13.3902318 16.9419211,12.9308489 17.6896865,13.1507431 C18.4374519,13.3706372 18.2895887,14.3830213 17.6896865,15.4062912 C17.1151323,16.3751319 15.9850348,17.1088382 15.9850348,17.1088382 C16.1220817,16.129618 16.2060013,15.1432778 16.2364023,14.1544185 Z M9.789566,23.9669238 C8.98054297,23.7971045 9.72197139,23.0155005 10.0050238,22.6236099 C10.5647917,21.8659547 10.687307,21.2890046 10.7506769,21.2650558 C10.8140469,21.2411069 10.9682471,21.5720368 10.9238881,22.4603221 C10.8753045,23.4248084 10.3598956,24.0888453 9.789566,23.9669238 Z M21.6967797,15.1689797 C21.6967797,15.1689797 21.9988431,14.3438323 22.6853509,14.2806943 C23.2370396,14.2231512 23.7617839,14.5388677 23.9844349,15.0622984 C24.1470844,14.3895528 24.4280246,13.8735635 24.8779512,13.6732639 C25.5750207,13.3641057 26.035509,13.8909809 26.5319069,14.8380498 C26.4896603,14.6007383 26.455863,14.3699583 26.424178,14.1435326 C26.3630936,13.7432671 26.3229015,13.3399102 26.3037751,12.9352032 C26.3037751,12.8524708 26.3037751,12.7675611 26.2889888,12.6870059 C26.2742024,12.6064506 26.2889888,12.4692889 26.2889888,12.3517217 C26.2901594,12.1063418 26.3063863,11.8612838 26.3375724,11.6180154 C26.3713697,11.2718453 26.4220657,10.8668917 26.5023343,10.3944458 C26.5234576,10.3051818 26.5466932,10.2093864 26.5699289,10.1048822 C26.6206248,9.8871652 26.6670961,9.61719612 26.7072304,9.31892382 C26.78899,8.94131144 26.8419599,8.55768465 26.8656553,8.17155522 C26.8656553,8.14325201 26.8656553,8.11930314 26.8656553,8.09970861 C26.883819,7.73578942 26.8647023,7.37091056 26.8086224,7.01112359 C26.7917661,6.84866043 26.7570417,6.68869956 26.7051181,6.53432335 C26.3692574,5.44573834 25.5750207,4.89491432 24.5632138,5.16706058 C24.5970111,3.86075856 26.2002708,3.64304155 27.1719434,4.35279898 C28.143616,5.06255641 27.9682925,7.16570266 27.9682925,7.16570266 C28.1681335,6.60475092 28.7118043,6.25508696 29.2884998,6.31660635 C29.6391468,7.25496663 28.8660334,7.95166104 28.8660334,7.95166104 C28.9966918,7.93860823 29.1282687,7.93860823 29.2589271,7.95166104 C30.0678212,8.06746066 30.8204792,8.44391051 31.4092808,9.02718304 C31.9256947,9.57688988 32.3325919,10.2255714 32.6069728,10.9365612 L32.6196468,10.9779274 L32.6302085,11.0040534 C32.6302085,11.0192936 32.6302085,11.0345338 32.6449948,11.0475968 C32.6508317,11.0602763 32.6557733,11.0733733 32.6597811,11.0867859 L32.6597811,11.1063804 C32.8165668,11.5780164 32.9041382,12.071141 32.9195979,12.5694387 C32.9330873,13.4093399 32.618771,14.2196429 32.0472049,14.8184553 C32.0472049,14.8184553 31.2424066,15.8439024 29.7088538,15.2147003 L29.5398672,15.1450308 C27.2310887,14.1239381 27.2543243,11.574472 27.8141017,10.6491747 C28.3738601,9.72387745 29.8905143,9.67597971 30.6868633,11.0846087 C31.4832124,12.4932377 30.264397,13.200818 30.264397,13.200818 C30.3615642,12.0316777 28.9251787,10.7253757 28.6590249,12.3604304 C28.6229029,12.5760889 28.6150876,12.7957753 28.6357893,13.0135814 C28.6369345,13.0946664 28.6447072,13.1755077 28.6590249,13.2552472 C28.6590249,13.2552472 28.6801482,13.3445112 28.6907099,13.3815231 C28.7012715,13.418535 28.7160579,13.4599012 28.7308442,13.4990903 C28.8057083,13.7116015 28.9181543,13.9079629 29.0624803,14.0782175 C29.24728,14.3180143 29.478116,14.5159117 29.7405387,14.6595219 C29.8609416,14.7357229 29.9517719,14.7749119 29.9623336,14.7836206 C31.4853247,15.467252 32.0366433,13.4533697 32.0746652,13.3074993 C32.1875386,12.7699375 32.1795906,12.2128845 32.0514296,11.6789761 C31.9988527,11.3368991 31.887249,11.0072955 31.7219058,10.7057811 C31.7209083,10.7022253 31.7209083,10.6984511 31.7219058,10.6948953 C31.0565214,9.49309742 30.264397,9.06854927 29.6539331,8.94009624 C29.3626765,8.87138751 29.0601228,8.87138751 28.7688662,8.94009624 L28.6674742,8.96622228 C27.9302705,9.18393928 27.2163024,9.85668482 26.8741046,11.1956444 C26.2678654,13.5774684 27.4021876,16.4034351 27.6028591,17.0478774 C28.1025892,18.0879046 28.7186483,19.0641057 29.4384753,19.9565766 C29.9367382,20.6014267 30.6071121,21.0819896 31.3670341,21.3390796 C31.4529356,21.3695599 31.5374289,21.395686 31.6205139,21.4174577 C31.9391479,21.5337915 32.2829113,21.5564074 32.6133098,21.4827728 C33.0780228,21.3586741 33.5448481,20.9450118 33.6039934,19.808529 C33.703316,18.5738066 33.0041064,17.4184295 31.8845554,16.9673221 C31.7992609,16.9273487 31.7109566,16.8945834 31.6205139,16.8693495 C31.1853736,16.7496051 30.7945922,16.8867668 30.6256057,17.5225005 C30.5360546,17.8126183 30.5502926,18.1262017 30.66574,18.4064315 C30.7255095,18.5429366 30.8101226,18.6663613 30.9149951,18.7700189 C31.3374615,19.2751224 31.7155689,19.1532008 31.9415883,18.9877359 C32.030164,18.9366738 32.10328,18.8613135 32.1528215,18.7700189 C32.2532806,18.5235457 32.2532806,18.2457739 32.1528215,17.9993007 C32.1528215,17.9993007 33.3251656,18.6001997 32.9618445,19.910856 C32.7273757,20.7512437 31.9986213,20.7599523 31.4071684,20.4986919 C31.4071684,20.4986919 30.264397,20.1459904 29.8799526,18.2627383 C29.6685246,17.5422201 29.930109,16.7632384 30.5284384,16.3315885 C31.3733711,15.6784375 32.2605504,16.1443519 32.9132609,16.7822627 C33.6876257,17.4469707 34.1533374,18.4180553 34.1954462,19.4558275 C34.2705587,20.043531 34.2060434,20.6412446 34.0074487,21.1975635 C33.9522872,21.346402 33.8768989,21.4864128 33.7835416,21.613403 C33.7560813,21.652592 33.7286209,21.6896039 33.6990483,21.7266158 C33.6694757,21.7636277 33.1730777,22.2752627 32.2204161,22.1402781 C31.682047,22.0247843 31.1669047,21.8149062 30.697425,21.5197847 C30.4556792,21.3577525 30.222956,21.1818503 30.0003555,20.9929095 C29.3993724,20.4664807 28.8719243,19.8569026 28.4330054,19.1815041 C28.7498552,19.9260962 29.1237379,20.7577752 29.4891713,21.5088988 C30.3003066,23.1700796 31.5677056,26.0940189 31.0628584,28.3169095 C30.5580111,30.5398001 28.984324,32.830183 27.7211496,32.9608132 C26.4579753,33.0914434 25.7820292,32.4165207 25.7989278,30.9774113 C25.8158265,29.5383019 26.7156798,29.2356753 27.4106369,29.3075219 C28.105594,29.3793685 28.1478406,30.1479095 28.1478406,30.1479095 C27.1592694,30.3003114 27.742273,31.2822151 27.742273,31.2822151 C27.742273,31.2822151 28.3632985,32.3076622 29.6053495,30.256768 C30.8474005,28.2058738 30.5558988,25.5714981 30.188353,24.2826134 C29.8208073,22.9937288 28.570307,20.5400582 27.2796723,17.4571854 C27.0875614,16.9925373 26.9273345,16.5145622 26.800173,16.0267847 C26.5889399,15.5238584 26.424178,15.1319678 26.3058874,14.9381997 C25.7080976,13.9345243 24.8568279,14.1848988 24.4723835,14.8206325 C24.0879392,15.4563661 24.0097829,17.3526812 24.227353,19.0944173 C24.4449232,20.8361533 25.6489523,21.4893043 26.0862049,20.6815742 C26.5234576,19.8738441 25.1293187,18.7830819 25.1293187,18.7830819 C26.3967177,17.4550082 28.6907099,19.2598822 27.5373768,21.9029666 C25.99115,25.4452222 24.6646057,22.1816444 24.2548134,20.7490665 C23.9767424,19.6093339 23.82579,18.4406133 23.8048867,17.2655944 C23.4361145,17.933522 22.8941099,18.4823628 22.2396489,18.8505742 C20.4336053,19.9391592 20.1885749,18.1517026 20.3596737,17.733686 C20.3596737,17.733686 20.7229948,16.0746824 21.673544,15.9353435 C22.6240933,15.7960047 22.9895267,16.7343649 22.8627868,16.7343649 C22.3394733,16.7294374 21.8259517,16.8806615 21.3841546,17.169799 C20.8011511,17.5312092 20.6363892,18.182183 21.0588555,18.5261759 C21.4813219,18.8701687 22.8627868,18.5435932 23.494374,16.9890938 C24.1259611,15.4345944 22.8944718,15.1232591 22.2459859,15.2974327 C21.5975001,15.4716063 21.6967797,15.1689797 21.6967797,15.1689797 Z" fill="#FFFFFF" fill-rule="nonzero"></path>
    </g>
</svg>