<?xml version="1.0" encoding="UTF-8"?>
<svg width="30px" height="30px" viewBox="0 0 30 30" version="1.1" xmlns="http://www.w3.org/2000/svg" xmlns:xlink="http://www.w3.org/1999/xlink">
    <!-- Generator: Sketch 57.1 (83088) - https://sketch.com -->
    <title>Logo/whatsapp</title>
    <desc>Created with Sketch.</desc>
    <defs>
        <linearGradient x1="50.0000371%" y1="100%" x2="50.0000371%" y2="4.47225813e-05%" id="linearGradient-1">
            <stop stop-color="#24CF42" offset="0%"></stop>
            <stop stop-color="#60FD7C" offset="100%"></stop>
        </linearGradient>
    </defs>
    <g id="Logo/whatsapp" stroke="none" stroke-width="1" fill="none" fill-rule="evenodd">
        <g id="whatsapp">
            <path d="M14.9933703,30 C12.3019127,29.9988731 9.66211728,29.2761236 7.35925246,27.9098513 L6.81151268,27.5848828 L1.13466095,29.0736359 L2.64993855,23.5405019 L2.29324458,22.9732588 C0.791836003,20.5857929 -0.00121214899,17.8265505 0,14.9934556 C0.00329528394,6.72604343 6.73193915,0 15.005419,0 C19.01166,0.00156026525 22.7776203,1.56329909 25.6095017,4.39743423 C28.4413831,7.23165605 30.0000881,10.9990032 29.998529,15.0055043 C29.9951472,23.2734365 23.26659,30 14.999438,30 L14.9933703,30 Z" id="Path" fill="url(#linearGradient-1)"></path>
            <path d="M19.8001026,17.0738462 C19.5333333,16.940359 18.2217949,16.2951795 17.9772308,16.2062051 C17.7327179,16.1172308 17.5549231,16.0727692 17.3770256,16.3397436 C17.1992308,16.6066667 16.6879487,17.2073846 16.532359,17.3852821 C16.3767692,17.5633333 16.2211795,17.5855897 15.9544103,17.4520513 C15.687641,17.3185641 14.8281026,17.0369744 13.8091795,16.1284103 C13.0161538,15.4213333 12.4807179,14.548 12.3251282,14.2810256 C12.1695385,14.014 12.3085641,13.8696923 12.4421538,13.7367179 C12.5621026,13.6172821 12.7088718,13.4252821 12.8422564,13.2695385 C12.975641,13.1137949 13.0201026,13.0025641 13.1089744,12.8246154 C13.1978974,12.6466154 13.1534872,12.4908718 13.0867692,12.3573846 C13.0201026,12.2238974 12.4866154,10.9112821 12.2642564,10.3773333 C12.0477436,9.85733333 11.8278462,9.92769231 11.6641026,9.91953846 C11.5086667,9.91179487 11.3306154,9.91015385 11.1527692,9.91015385 C10.9749744,9.91015385 10.6859487,9.97687179 10.4414359,10.2438462 C10.1969231,10.5108205 9.50779487,11.1560513 9.50779487,12.4686154 C9.50779487,13.7812308 10.463641,15.0493333 10.5970769,15.2273333 C10.7304615,15.4053333 12.4781026,18.0989231 15.1541026,19.2541538 C15.7905641,19.5288718 16.2875385,19.6929231 16.6749231,19.8158974 C17.314,20.0188205 17.8954872,19.9901538 18.3551282,19.9215385 C18.867641,19.8449744 19.9334872,19.276359 20.1557949,18.6534359 C20.3780513,18.0305128 20.3780513,17.4965641 20.3113846,17.3852821 C20.2446667,17.2741026 20.0668205,17.2073846 19.8001026,17.0738462 M14.9326667,23.7176923 L14.9290769,23.7176923 C13.3367692,23.7170256 11.7750256,23.2894359 10.4126154,22.4811282 L10.0885641,22.2888718 L6.73005128,23.169641 L7.62651282,19.8961538 L7.41548718,19.5605641 C6.52723077,18.1481026 6.05805128,16.5156923 6.05876841,14.8395897 C6.06071795,9.94846154 10.0414872,5.96923077 14.9362051,5.96923077 C17.306359,5.97015385 19.534359,6.89410256 21.2097436,8.57082051 C22.8851282,10.2475897 23.8072821,12.4764103 23.8063597,14.8467179 C23.804359,19.7381538 19.823641,23.7176923 14.9326667,23.7176923 M22.4848718,7.29671795 C20.4691795,5.27933333 17.7885641,4.16779487 14.9325641,4.16666667 C9.04794872,4.16666667 4.25851282,8.95420513 4.25620513,14.8388718 C4.25538462,16.7199487 4.74702564,18.5561026 5.68128205,20.1746154 L4.16666667,25.7052821 L9.82635897,24.2211795 C11.3857436,25.0714359 13.1414359,25.5194872 14.9283077,25.5202564 L14.9326667,25.5202564 L14.9327179,25.5202564 C20.8167179,25.5202564 25.6065641,20.7321026 25.6089239,14.8473846 C25.6100513,11.9955897 24.5005641,9.31405128 22.4848718,7.29671795" id="Fill-4" fill="#FFFFFF"></path>
        </g>
    </g>
</svg>