<svg width="311" height="123" viewBox="0 0 311 123" fill="none" xmlns="http://www.w3.org/2000/svg">
<path d="M281.933 49.6016C261.318 57.5803 232.345 54.0098 218.771 45.6122C209.057 39.6282 210.862 21.3469 229.901 21.3469C230.57 21.3469 231.806 5.96793 252.013 7.05503C270.633 8.05237 275.28 27.6601 275.28 27.6601C289.243 24.3389 291.158 46.0311 281.933 49.6016Z" fill="#F5F7FA"/>
<path d="M56.4508 7.53866C56.4508 11.528 52.3218 14.7395 47.2254 14.7395C42.129 14.7395 38 11.518 38 7.53866C38 3.55927 42.4082 -1.33767 47.2254 0.337858C52.2919 2.10315 56.4508 3.55927 56.4508 7.53866Z" fill="#F5F7FA"/>
<path d="M40.3352 58.6762C49.1252 72.8362 100.335 75.1462 106.775 59.1862C109.115 53.4262 107.085 36.9162 94.8352 38.0562C91.9552 38.3162 85.6352 45.1862 84.4452 46.6862C84.4452 46.8062 80.8052 39.4962 75.1252 39.2262C68.3852 38.8962 64.2152 46.3662 64.2152 46.3662C64.2152 46.3662 62.9152 39.9962 52.8552 40.1062C43.7152 40.2162 33.2452 47.2462 40.3352 58.6762Z" fill="#F5F7FA"/>
<path d="M155.187 53.9263C155.187 53.9263 155.011 46.5146 162.254 46.3564C162.254 46.3564 163.88 53.9263 155.187 53.9263Z" fill="#2DB055"/>
<path d="M138 60V70.8501C138.009 71.1595 138.266 71.4543 138.715 71.6699C139.164 71.8855 139.768 72.0042 140.394 71.9999H171.606C172.232 72.0042 172.836 71.8855 173.285 71.6699C173.734 71.4543 173.991 71.1595 174 70.8501V60H138Z" fill="#6D0978"/>
<rect x="138.2" y="60" width="35.61" height="3" fill="#5F0868"/>
<path d="M174.931 60.2027H160.692C160.44 60.2027 160.191 60.2523 159.958 60.3487C159.726 60.4451 159.514 60.5864 159.336 60.7646C159.158 60.9427 159.017 61.1541 158.92 61.3869C158.824 61.6196 158.774 61.869 158.774 62.1209V63.3268C158.774 63.8355 158.572 64.3234 158.212 64.6832C157.853 65.0429 157.365 65.245 156.856 65.245C156.347 65.245 155.859 65.0429 155.5 64.6832C155.14 64.3234 154.938 63.8355 154.938 63.3268V63.294C154.938 62.7852 154.736 62.2973 154.376 61.9376C154.016 61.5778 153.528 61.3757 153.019 61.3757H152.724C152.215 61.3757 151.728 61.5778 151.368 61.9376C151.008 62.2973 150.806 62.7852 150.806 63.294V67.1626C150.806 67.4145 150.756 67.6639 150.66 67.8966C150.564 68.1294 150.422 68.3408 150.244 68.5189C150.066 68.6971 149.855 68.8384 149.622 68.9348C149.389 69.0312 149.14 69.0808 148.888 69.0808H148.592C148.084 69.0808 147.596 68.8787 147.236 68.5189C146.876 68.1592 146.674 67.6713 146.674 67.1626V62.1209C146.674 61.6122 146.472 61.1243 146.112 60.7646C145.753 60.4048 145.265 60.2027 144.756 60.2027H137.069V56.2268C137.069 55.6171 137.312 55.0324 137.743 54.6013C138.174 54.1702 138.758 53.928 139.368 53.928H172.632C173.242 53.928 173.827 54.1702 174.258 54.6013C174.689 55.0324 174.931 55.6171 174.931 56.2268V60.2027Z" fill="#B55CBF"/>
<path d="M155.01 53.928C156.605 53.928 157.897 52.6355 157.897 51.0411C157.897 49.4468 156.605 48.1543 155.01 48.1543C153.416 48.1543 152.124 49.4468 152.124 51.0411C152.124 52.6355 153.416 53.928 155.01 53.928Z" fill="#FF0000"/>
<path d="M153.272 48.5803C153.286 48.6216 153.306 48.6609 153.33 48.6975C153.64 48.4741 153.992 48.3151 154.364 48.2295C154.087 47.3315 152.905 45.684 150.371 45.7847C150.295 45.7876 150.221 45.8052 150.153 45.8367C150.084 45.8683 150.022 45.913 149.971 45.9683C149.92 46.0236 149.88 46.0886 149.854 46.1593C149.827 46.2301 149.815 46.3053 149.818 46.3807C149.821 46.4561 149.839 46.5302 149.87 46.5988C149.902 46.6674 149.947 46.7291 150.002 46.7804C150.057 46.8317 150.122 46.8716 150.193 46.8978C150.264 46.924 150.339 46.936 150.414 46.9331C152.684 46.8491 153.246 48.5016 153.272 48.5803Z" fill="#8C3F07"/>
<path d="M142.675 57.7487C142.56 57.7486 142.447 57.7138 142.352 57.6488C142.256 57.5838 142.183 57.4916 142.141 57.3843C142.099 57.2769 142.09 57.1594 142.115 57.0469C142.141 56.9345 142.2 56.8323 142.284 56.7538L142.763 56.3096C142.875 56.208 143.023 56.1547 143.174 56.1612C143.325 56.1677 143.467 56.2334 143.57 56.3442C143.673 56.455 143.728 56.6018 143.723 56.7529C143.718 56.904 143.654 57.0471 143.544 57.1512L143.065 57.5958C142.959 57.6943 142.82 57.7489 142.675 57.7487Z" fill="#94319F"/>
<path d="M152.431 60.7773C152.356 60.7774 152.281 60.7626 152.211 60.7337C152.142 60.7048 152.079 60.6624 152.025 60.609L151.376 59.9593C151.271 59.851 151.213 59.706 151.214 59.5554C151.216 59.4049 151.276 59.2608 151.382 59.1544C151.489 59.0479 151.633 58.9874 151.783 58.9861C151.934 58.9848 152.079 59.0426 152.187 59.1472L152.837 59.7969C152.917 59.8772 152.972 59.9795 152.994 60.0909C153.016 60.2022 153.005 60.3176 152.961 60.4225C152.918 60.5274 152.844 60.6171 152.75 60.6802C152.656 60.7434 152.545 60.7772 152.431 60.7773Z" fill="#94319F"/>
<path d="M160.615 57.8184C160.517 57.818 160.421 57.7928 160.336 57.7452C160.251 57.6976 160.18 57.6291 160.129 57.5463C160.077 57.4634 160.048 57.3689 160.043 57.2715C160.038 57.1742 160.059 57.0773 160.102 56.9899L160.437 56.3048C160.47 56.2371 160.517 56.1767 160.573 56.127C160.63 56.0772 160.696 56.0391 160.767 56.0149C160.839 55.9906 160.914 55.9807 160.99 55.9856C161.065 55.9905 161.138 56.0102 161.206 56.0436C161.274 56.0769 161.334 56.1233 161.384 56.18C161.434 56.2367 161.472 56.3026 161.496 56.374C161.52 56.4455 161.53 56.521 161.525 56.5962C161.52 56.6715 161.501 56.745 161.467 56.8127L161.13 57.4965C161.083 57.593 161.009 57.6743 160.918 57.7312C160.827 57.7881 160.722 57.8183 160.615 57.8184Z" fill="#94319F"/>
<path d="M169.999 57.8175C169.957 57.8175 169.915 57.8129 169.874 57.8037L169.259 57.6668C169.11 57.6338 168.981 57.5431 168.899 57.4146C168.817 57.2861 168.79 57.1304 168.823 56.9817C168.856 56.833 168.947 56.7036 169.075 56.6218C169.203 56.54 169.359 56.5126 169.508 56.5456L170.123 56.6825C170.262 56.7129 170.384 56.7934 170.466 56.9084C170.549 57.0234 170.586 57.1649 170.571 57.3056C170.555 57.4463 170.488 57.5764 170.383 57.6709C170.278 57.7654 170.141 57.8176 169.999 57.8175Z" fill="#94319F"/>
<rect x="119" y="70" width="76" height="6" rx="3" fill="#B55CBF"/>
<path d="M123 76H191L181.392 112.509C181.161 113.388 180.367 114 179.458 114H134.542C133.633 114 132.839 113.388 132.608 112.509L123 76Z" fill="#6D0978"/>
<rect x="143.278" y="85.3257" width="2" height="20" rx="1" transform="rotate(-10 143.278 85.3257)" fill="#3E0444"/>
<rect x="155" y="85" width="2" height="20" rx="1" fill="#3E0444"/>
<rect x="166.751" y="84.978" width="2" height="20" rx="1" transform="rotate(10 166.751 84.978)" fill="#3E0444"/>
<circle cx="187" cy="78" r="16" fill="#FF0000"/>
<path fill-rule="evenodd" clip-rule="evenodd" d="M193 78C193 81.3137 190.314 84 187 84C186.042 84 185.136 83.7755 184.333 83.3761L191.86 74.4806C192.577 75.4692 193 76.6852 193 78ZM182.711 82.1962L190.429 73.0756C189.457 72.3976 188.275 72 187 72C183.686 72 181 74.6863 181 78C181 79.6334 181.653 81.1143 182.711 82.1962ZM195 78C195 82.4183 191.418 86 187 86C182.582 86 179 82.4183 179 78C179 73.5817 182.582 70 187 70C191.418 70 195 73.5817 195 78Z" fill="white"/>
</svg>
