<svg width="311" height="123" viewBox="0 0 311 123" fill="none" xmlns="http://www.w3.org/2000/svg">
<path d="M281.933 49.6016C261.318 57.5803 232.345 54.0098 218.771 45.6122C209.057 39.6282 210.862 21.3469 229.901 21.3469C230.57 21.3469 231.806 5.96793 252.013 7.05503C270.633 8.05237 275.28 27.6601 275.28 27.6601C289.243 24.3389 291.158 46.0311 281.933 49.6016Z" fill="#F5F7FA"/>
<path d="M56.4508 7.53866C56.4508 11.528 52.3218 14.7395 47.2254 14.7395C42.129 14.7395 38 11.518 38 7.53866C38 3.55927 42.4082 -1.33767 47.2254 0.337858C52.2919 2.10315 56.4508 3.55927 56.4508 7.53866Z" fill="#F5F7FA"/>
<path d="M40.3352 58.6762C49.1252 72.8362 100.335 75.1462 106.775 59.1862C109.115 53.4262 107.085 36.9162 94.8352 38.0562C91.9552 38.3162 85.6352 45.1862 84.4452 46.6862C84.4452 46.8062 80.8052 39.4962 75.1252 39.2262C68.3852 38.8962 64.2152 46.3662 64.2152 46.3662C64.2152 46.3662 62.9152 39.9962 52.8552 40.1062C43.7152 40.2162 33.2452 47.2462 40.3352 58.6762Z" fill="#F5F7FA"/>
<path fill-rule="evenodd" clip-rule="evenodd" d="M128.877 65.3608C128.688 50.4869 140.862 38.2595 156.118 38C171.373 38.2595 183.547 50.4869 183.358 65.3608C183.358 84.8879 161.237 102.749 158.387 105.05C158.256 105.156 158.165 105.229 158.12 105.268C157.558 105.728 156.851 105.986 156.118 106C155.388 105.989 154.685 105.73 154.13 105.268C154.084 105.229 153.995 105.157 153.864 105.051C151.02 102.754 128.877 84.8645 128.877 65.3608ZM145.221 62.174C145.221 68.0408 150.1 72.7967 156.118 72.7967C159.007 72.7967 161.779 71.6776 163.822 69.6854C165.866 67.6932 167.014 64.9913 167.014 62.174C167.014 56.3072 162.135 51.5512 156.118 51.5512C150.1 51.5512 145.221 56.3072 145.221 62.174Z" fill="#6D0978"/>
<circle cx="182" cy="78" r="16" fill="#FF0000"/>
<path fill-rule="evenodd" clip-rule="evenodd" d="M188 78C188 81.3137 185.314 84 182 84C181.042 84 180.136 83.7755 179.333 83.3761L186.86 74.4806C187.577 75.4692 188 76.6852 188 78ZM177.711 82.1962L185.429 73.0756C184.457 72.3976 183.275 72 182 72C178.686 72 176 74.6863 176 78C176 79.6334 176.653 81.1143 177.711 82.1962ZM190 78C190 82.4183 186.418 86 182 86C177.582 86 174 82.4183 174 78C174 73.5817 177.582 70 182 70C186.418 70 190 73.5817 190 78Z" fill="white"/>
<ellipse cx="156" cy="110" rx="18" ry="1" fill="#F5F7FA"/>
</svg>
