<svg width="48" height="48" viewBox="0 0 48 48" fill="none" xmlns="http://www.w3.org/2000/svg">
<g clip-path="url(#clip0)">
<path fill-rule="evenodd" clip-rule="evenodd" d="M24 48C37.2548 48 48 37.2548 48 24C48 10.7452 37.2548 0 24 0C10.7452 0 0 10.7452 0 24C0 37.2548 10.7452 48 24 48Z" fill="#F5F7FA"/>
<g clip-path="url(#clip1)">
<path d="M35.2136 12.953C32.1304 12.5952 29.3477 13.5605 26.9432 15.8233C26.4279 16.3083 26.4033 17.1191 26.8882 17.6344C27.3731 18.1496 28.1839 18.1744 28.6993 17.6894C30.5536 15.9445 32.5881 15.2271 34.9178 15.4985C35.6205 15.5796 36.2567 15.0765 36.3383 14.3737C36.42 13.6707 35.9164 13.0348 35.2136 12.953Z" fill="#8C3F07"/>
<path d="M30.4317 9.47298C30.1727 9.15435 29.7769 8.9797 29.3665 9.00188C25.5644 9.21313 23.5606 13.7479 25.9619 16.7014C26.2059 17.0016 26.5715 17.1744 26.9559 17.1744C28.4918 17.1744 30.2582 16.1577 31.0567 14.3518C31.783 12.7098 31.5434 10.8404 30.4317 9.47298Z" fill="#2DB055"/>
<path d="M24.368 13.3416C21.532 13.3416 19.2249 15.6488 19.2249 18.4847C19.2249 21.3206 21.5321 23.6278 24.368 23.6278C27.2038 23.6278 29.511 21.3206 29.511 18.4847C29.511 15.6487 27.2038 13.3416 24.368 13.3416Z" fill="#DE0000"/>
<mask id="mask0" mask-type="alpha" maskUnits="userSpaceOnUse" x="0" y="0" width="48" height="48">
<path fill-rule="evenodd" clip-rule="evenodd" d="M24 48C37.2548 48 48 37.2548 48 24C48 10.7452 37.2548 0 24 0C10.7452 0 0 10.7452 0 24C0 37.2548 10.7452 48 24 48Z" fill="#F5F7FA"/>
</mask>
<g mask="url(#mask0)">
<path d="M37.7678 21.9846C37.6073 21.4396 37.1069 21.0654 36.5388 21.0654H12.4599C11.8918 21.0654 11.3915 21.4396 11.2309 21.9846C8.49584 31.2665 10.0922 40.2423 14.0606 49.236C14.2655 49.7004 14.7253 50.0001 15.2328 50.0001H33.7659C34.2735 50.0001 34.7333 49.7004 34.9381 49.236C38.9073 40.2406 40.5026 31.2651 37.7678 21.9846Z" fill="#5F0868"/>
</g>
<path d="M37.7676 21.9846C37.6071 21.4396 37.1068 21.0654 36.5386 21.0654H12.4598C11.8916 21.0654 11.3914 21.4396 11.2307 21.9846C9.13603 29.0931 9.55276 36.1386 11.8078 43.3063C13.2339 43.3593 14.7941 43.1532 16.4993 42.6143C27.8144 39.0382 35.3793 33.7942 38.7403 36.6416C39.5098 31.3979 39.1319 26.6142 37.7676 21.9846Z" fill="#8F149D"/>
<path d="M39.1249 30.9994C39.1162 30.298 38.5452 29.7339 37.8437 29.7339H11.1543C10.4528 29.7339 9.88179 30.298 9.87315 30.9994C9.84752 33.082 10.0159 35.2269 10.3736 37.3746C10.4522 37.846 10.7866 38.2345 11.241 38.3824C19.4032 41.0384 28.3477 41.5348 36.9234 41.0102C37.4879 40.9757 37.9631 40.575 38.0925 40.0244C38.8135 36.9566 39.1608 33.9201 39.1249 30.9994Z" fill="white"/>
<path d="M37.8435 29.7339H11.1541C10.4526 29.7339 9.88154 30.298 9.87289 30.9994C9.8572 32.2746 9.91461 33.5734 10.0434 34.8817C12.0012 35.2026 14.6983 35.2316 18.3997 34.7734C27.9996 33.5849 34.6796 35.5045 38.5994 37.5127C38.9738 35.3022 39.1507 33.1202 39.1247 30.9994C39.116 30.298 38.5449 29.7339 37.8435 29.7339Z" fill="#B55CBF"/>
<path d="M24.3677 13.3416C20.9696 13.3416 18.4962 16.595 19.4165 19.8728C20.2375 19.9008 20.9177 19.7029 21.3673 19.1849C23.9092 16.2562 23.1737 17.6582 29.4993 18.8116C29.6875 15.8294 27.3122 13.3416 24.3677 13.3416Z" fill="#FF0000"/>
</g>
</g>
<defs>
<clipPath id="clip0">
<rect width="48" height="48" fill="white"/>
</clipPath>
<clipPath id="clip1">
<rect width="41" height="41" fill="white" transform="translate(4 9)"/>
</clipPath>
</defs>
</svg>
