<svg width="46" height="46" viewBox="0 0 46 46" fill="none" xmlns="http://www.w3.org/2000/svg">
<path fill-rule="evenodd" clip-rule="evenodd" d="M23 0C35.7022 0 46 10.2979 46 23C46 35.7012 35.7022 46 23 46C10.2979 46 0 35.7012 0 23C0 10.2979 10.2979 0 23 0V0Z" fill="#FEFEFE"/>
<path fill-rule="evenodd" clip-rule="evenodd" d="M42.0708 22.1051C42.5538 22.1051 42.9442 22.4975 42.9442 22.9796C42.9442 23.4626 42.5538 23.855 42.0708 23.855C41.5878 23.855 41.1963 23.4626 41.1963 22.9796C41.1963 22.4975 41.5878 22.1051 42.0708 22.1051ZM41.7036 23.0214H41.7182C41.7143 23.0409 41.7095 23.0594 41.7036 23.076C41.6978 23.0915 41.689 23.1061 41.6793 23.1169C41.6696 23.1276 41.6579 23.1373 41.6433 23.1422C41.6296 23.149 41.614 23.1519 41.5946 23.1519C41.579 23.1519 41.5615 23.15 41.542 23.1451L41.503 23.1373C41.4845 23.1324 41.4719 23.1305 41.4651 23.1305C41.4407 23.1305 41.4261 23.1373 41.4203 23.1519H41.4086C41.4115 23.1305 41.4164 23.112 41.4232 23.0974C41.431 23.0808 41.4388 23.0682 41.4466 23.0584C41.4553 23.0487 41.4631 23.0399 41.4728 23.0331C41.4787 23.0282 41.4836 23.0243 41.4875 23.0204C41.4913 23.0175 41.4982 23.0127 41.5069 23.0068C41.5245 22.9942 41.5371 22.9825 41.5478 22.9727C41.5576 22.963 41.5654 22.9533 41.5702 22.9416C41.5751 22.9309 41.578 22.9182 41.578 22.9046C41.578 22.8793 41.5722 22.8598 41.5634 22.8452C41.5527 22.8306 41.5381 22.8237 41.5196 22.8237C41.5001 22.8237 41.4836 22.8306 41.4728 22.8452L41.4836 22.8442C41.4982 22.8442 41.5108 22.8481 41.5206 22.8588C41.5303 22.8676 41.5342 22.8802 41.5342 22.8948C41.5342 22.9133 41.5293 22.9279 41.5196 22.9387C41.5079 22.9503 41.4943 22.9571 41.4758 22.9571C41.4563 22.9571 41.4407 22.9503 41.429 22.9387C41.4183 22.9279 41.4125 22.9133 41.4125 22.8968C41.4125 22.8841 41.4164 22.8715 41.4232 22.8569C41.431 22.8442 41.4456 22.8325 41.466 22.8228C41.4875 22.813 41.5167 22.8091 41.5546 22.8091C41.5741 22.8091 41.5917 22.8091 41.6063 22.8111C41.6209 22.813 41.6345 22.8169 41.6452 22.8218C41.6686 22.8306 41.6851 22.8413 41.6949 22.8549C41.7036 22.8676 41.7095 22.8841 41.7095 22.9016C41.7095 22.9192 41.7056 22.9357 41.6978 22.9474C41.691 22.9601 41.6812 22.9698 41.6686 22.9776C41.6569 22.9854 41.6452 22.9912 41.6345 22.9942C41.6228 22.998 41.6053 23.0019 41.5839 23.0068C41.5624 23.0117 41.5439 23.0166 41.5274 23.0214C41.5128 23.0273 41.4982 23.0331 41.4855 23.0419C41.4728 23.0497 41.4631 23.0604 41.4553 23.0711L41.4602 23.076C41.4894 23.0516 41.5254 23.0409 41.5683 23.0409C41.5878 23.0409 41.6033 23.0409 41.6131 23.0419L41.6413 23.0458L41.6705 23.0487C41.69 23.0487 41.7007 23.039 41.7036 23.0214ZM41.9013 22.8091C41.9111 22.8091 41.9198 22.8091 41.9276 22.8111C41.9354 22.8121 41.9442 22.814 41.9558 22.8179C41.9734 22.8237 41.989 22.8335 42.0045 22.8461C42.0201 22.8598 42.0328 22.8773 42.0415 22.9007C42.0513 22.9221 42.0561 22.9494 42.0561 22.9796C42.0561 23.0097 42.0513 23.037 42.0415 23.0594C42.0376 23.0701 42.0328 23.0798 42.0269 23.0896C42.0201 23.0974 42.0133 23.1061 42.0055 23.113C41.989 23.1266 41.9724 23.1363 41.9539 23.1422C41.9354 23.149 41.9179 23.1519 41.9013 23.1519C41.8731 23.1519 41.8458 23.1441 41.8234 23.1315C41.7991 23.1178 41.7806 23.0984 41.7669 23.0721C41.7523 23.0467 41.7465 23.0166 41.7465 22.9796C41.7465 22.9445 41.7523 22.9143 41.7669 22.887C41.7806 22.8617 41.7991 22.8422 41.8234 22.8286C41.8458 22.815 41.8731 22.8091 41.9013 22.8091V22.8091ZM41.8779 22.8481V23.111C41.8779 23.1295 41.8857 23.1392 41.9013 23.1392C41.9169 23.1392 41.9247 23.1295 41.9247 23.111V22.8481C41.9247 22.8306 41.9169 22.8208 41.9013 22.8208C41.8857 22.8208 41.8779 22.8306 41.8779 22.8481ZM42.1701 23.1324V22.8354H42.1243V22.8228H42.212C42.2246 22.8228 42.2353 22.8228 42.247 22.8218C42.2577 22.8208 42.2665 22.8208 42.2753 22.8199C42.2889 22.8179 42.3015 22.814 42.3123 22.8091V23.1324H42.357V23.1441H42.1243V23.1324H42.1701ZM42.7183 23.0214H42.7329C42.729 23.0409 42.7242 23.0594 42.7174 23.076C42.7115 23.0915 42.7037 23.1061 42.694 23.1169C42.6842 23.1276 42.6726 23.1373 42.6589 23.1422C42.6453 23.149 42.6278 23.1519 42.6102 23.1519C42.5937 23.1519 42.5762 23.15 42.5567 23.1451L42.5177 23.1373C42.4992 23.1324 42.4875 23.1305 42.4797 23.1305C42.4554 23.1305 42.4408 23.1373 42.4359 23.1519H42.4223C42.4262 23.1305 42.4311 23.112 42.4388 23.0974C42.4457 23.0808 42.4535 23.0682 42.4612 23.0584C42.47 23.0487 42.4788 23.0399 42.4875 23.0331C42.4924 23.0282 42.4983 23.0243 42.5021 23.0204C42.506 23.0175 42.5129 23.0127 42.5226 23.0068C42.5391 22.9942 42.5528 22.9825 42.5625 22.9727C42.5732 22.963 42.58 22.9533 42.5839 22.9416C42.5908 22.9309 42.5927 22.9182 42.5927 22.9046C42.5927 22.8793 42.5878 22.8598 42.5771 22.8452C42.5684 22.8306 42.5528 22.8237 42.5343 22.8237C42.5138 22.8237 42.4982 22.8306 42.4875 22.8452L42.4982 22.8442C42.5129 22.8442 42.5245 22.8481 42.5343 22.8588C42.544 22.8676 42.5499 22.8802 42.5499 22.8948C42.5499 22.9133 42.544 22.9279 42.5343 22.9387C42.5236 22.9503 42.509 22.9571 42.4905 22.9571C42.471 22.9571 42.4554 22.9503 42.4447 22.9387C42.432 22.9279 42.4281 22.9133 42.4281 22.8968C42.4281 22.8841 42.4311 22.8715 42.4388 22.8569C42.4457 22.8442 42.4593 22.8325 42.4807 22.8228C42.5021 22.813 42.5323 22.8091 42.5693 22.8091C42.5898 22.8091 42.6063 22.8091 42.6209 22.8111C42.6356 22.813 42.6492 22.8169 42.6599 22.8218C42.6833 22.8306 42.7008 22.8413 42.7096 22.8549C42.7193 22.8676 42.7242 22.8841 42.7242 22.9016C42.7242 22.9192 42.7203 22.9357 42.7135 22.9474C42.7057 22.9601 42.6959 22.9698 42.6842 22.9776C42.6716 22.9854 42.6599 22.9912 42.6492 22.9942C42.6365 22.998 42.6209 23.0019 42.5986 23.0068C42.5771 23.0117 42.5586 23.0166 42.543 23.0214C42.5275 23.0273 42.5129 23.0331 42.5002 23.0419C42.4875 23.0497 42.4778 23.0604 42.47 23.0711L42.4739 23.076C42.5031 23.0516 42.5401 23.0409 42.583 23.0409C42.6024 23.0409 42.618 23.0409 42.6268 23.0419L42.657 23.0458L42.6852 23.0487C42.7047 23.0487 42.7154 23.039 42.7183 23.0214V23.0214ZM23 7.77865L27.4386 12.2435L33.7234 12.2367L33.7166 18.5449L38.1649 23L33.7166 27.4551L33.7234 33.7633L27.4386 33.7565L23 38.2204L18.5615 33.7565L12.2776 33.7633L12.2844 27.4551L7.83611 23L12.2844 18.5449L12.2776 12.2367L18.5615 12.2435L23 7.77865ZM15.2399 30.6316L16.0763 31.8742C16.2156 32.0796 16.3149 32.2053 16.3733 32.2491C16.4318 32.2919 16.5019 32.3192 16.5827 32.3289V32.4117H15.1025V32.3289C15.2213 32.3192 15.2963 32.3017 15.3314 32.2744C15.3664 32.2481 15.383 32.215 15.383 32.176C15.383 32.1498 15.3781 32.1254 15.3674 32.105C15.346 32.0602 15.2944 31.9764 15.2106 31.8537L14.7676 31.1984L14.304 31.7641C14.1658 31.9365 14.0956 32.0524 14.0956 32.1137C14.0956 32.1566 14.1151 32.1975 14.1492 32.2354C14.1862 32.2715 14.2398 32.2987 14.3089 32.3153C14.3401 32.3241 14.4043 32.3289 14.5017 32.3289V32.4117H13.3361V32.3289C13.4685 32.3085 13.5727 32.2724 13.6487 32.2218C13.749 32.1527 13.8892 32.0095 14.0664 31.7914L14.6692 31.0572L13.897 29.9227C13.7694 29.7367 13.6983 29.6335 13.6808 29.613C13.6399 29.5634 13.601 29.5283 13.562 29.5059C13.5221 29.4855 13.4685 29.4708 13.4004 29.4601V29.3764H14.9068V29.4601H14.8309C14.7442 29.4601 14.6838 29.4738 14.6497 29.501C14.6147 29.5293 14.5971 29.5634 14.5971 29.6052C14.5971 29.6383 14.602 29.6656 14.6127 29.69L14.7676 29.9227L15.1434 30.4963L15.4628 30.1038C15.6274 29.9032 15.7092 29.761 15.7092 29.6812C15.7092 29.6413 15.6975 29.6043 15.6751 29.5702C15.6518 29.5351 15.6187 29.5079 15.5758 29.4894C15.532 29.4699 15.4648 29.4601 15.3742 29.4601V29.3764H16.4902V29.4601C16.4026 29.4621 16.3324 29.4718 16.2779 29.4923C16.2244 29.5127 16.1669 29.5507 16.1056 29.6052C16.0676 29.6413 15.9692 29.7523 15.8144 29.9392L15.2399 30.6316V30.6316ZM18.5196 31.547H17.4484L17.3208 31.843C17.279 31.9414 17.2585 32.0222 17.2585 32.0865C17.2585 32.1721 17.2926 32.2354 17.3617 32.2744C17.4017 32.2987 17.5 32.3163 17.6587 32.3289V32.4117H16.6499V32.3289C16.758 32.3114 16.8476 32.2666 16.9177 32.1936C16.9878 32.1196 17.0745 31.9667 17.1777 31.7349L18.2615 29.315H18.3053L19.3989 31.8021C19.5031 32.0387 19.5898 32.1868 19.656 32.2481C19.7076 32.2948 19.7787 32.3211 19.8712 32.3289V32.4117H18.4037V32.3289H18.4641C18.5819 32.3289 18.6657 32.3114 18.7124 32.2793C18.7445 32.2549 18.7621 32.2218 18.7621 32.176C18.7621 32.1498 18.7572 32.1225 18.7484 32.0933C18.7445 32.0796 18.7231 32.0232 18.6812 31.9258L18.5196 31.547V31.547ZM18.4436 31.3814L17.9918 30.3366L17.5263 31.3814H18.4436ZM23.2084 29.4601C23.0438 29.4601 22.9367 29.4855 22.89 29.538C22.8413 29.5906 22.8179 29.688 22.8179 29.8292V31.9394C22.8179 32.1011 22.8413 32.2043 22.89 32.253C22.9367 32.2997 23.0477 32.326 23.2181 32.3289V32.4117H21.6893V32.3289C21.811 32.3289 21.8957 32.3182 21.9464 32.2987C21.996 32.2783 22.033 32.2452 22.0544 32.1984C22.0778 32.1527 22.0885 32.0699 22.0885 31.9521V29.5741H21.3592V30.4807C21.3592 30.8595 21.3504 31.1477 21.3309 31.3454C21.3124 31.5441 21.2608 31.733 21.1771 31.9102C21.0923 32.0894 20.9843 32.2238 20.8518 32.3124C20.7184 32.402 20.5723 32.4468 20.4107 32.4468C20.2636 32.4468 20.1507 32.4088 20.0699 32.3319C19.99 32.2549 19.9501 32.1605 19.9501 32.0465C19.9501 31.9521 19.9744 31.8751 20.0241 31.8148C20.0728 31.7544 20.1439 31.7252 20.2354 31.7252C20.4078 31.7252 20.5022 31.8313 20.5198 32.0446C20.5275 32.14 20.5645 32.1868 20.6317 32.1868C20.7262 32.1868 20.8265 32.1244 20.9317 31.9978C21.0378 31.8722 21.1079 31.6979 21.143 31.4778C21.1771 31.2578 21.1936 30.9374 21.1936 30.5177V29.9451C21.1936 29.7825 21.1839 29.6744 21.1634 29.6198C21.143 29.5653 21.104 29.5254 21.0466 29.501C20.9901 29.4767 20.8878 29.4631 20.7389 29.4601V29.3764H23.2084V29.4601V29.4601ZM25.417 31.0279V31.8781C25.417 32.0426 25.4072 32.1459 25.3858 32.1887C25.3663 32.2306 25.3293 32.2656 25.2796 32.29C25.229 32.3163 25.1346 32.3289 24.9953 32.3289V32.4117H26.5485V32.3289C26.4083 32.3289 26.3128 32.3163 26.2632 32.289C26.2125 32.2637 26.1775 32.2296 26.158 32.1868C26.1385 32.1449 26.1278 32.0426 26.1278 31.8781V29.91C26.1278 29.7464 26.1385 29.6432 26.158 29.6004C26.1775 29.5565 26.2135 29.5234 26.2642 29.4981C26.3148 29.4718 26.4093 29.4601 26.5485 29.4601V29.3764H25.1384C24.7723 29.3764 24.5035 29.4027 24.3331 29.4533C24.1627 29.504 24.0244 29.5974 23.9173 29.7348C23.8092 29.8701 23.7557 30.0308 23.7557 30.2139C23.7557 30.4378 23.8365 30.6229 23.9972 30.7689C24.1004 30.8614 24.2455 30.9315 24.4295 30.9763L23.6992 32.0047C23.6047 32.1371 23.5375 32.2189 23.4966 32.253C23.4353 32.2987 23.3642 32.3241 23.2843 32.3289V32.4117H24.2396L25.2164 31.0279H25.417ZM25.417 29.54V30.8692H25.2894C25.081 30.8692 24.9262 30.8507 24.8229 30.8127C24.7207 30.7748 24.6399 30.7056 24.5795 30.6063C24.5211 30.5079 24.4928 30.3784 24.4928 30.2187C24.4928 29.987 24.5464 29.8165 24.6545 29.7065C24.7626 29.5945 24.9369 29.54 25.1764 29.54H25.417V29.54ZM29.9315 29.4601C29.7669 29.4601 29.6617 29.4855 29.613 29.538C29.5653 29.5906 29.5419 29.688 29.5419 29.8292V31.9394C29.5419 32.1011 29.5653 32.2043 29.613 32.253C29.6617 32.2997 29.7708 32.326 29.9422 32.3289V32.4117H28.4123V32.3289C28.5341 32.3289 28.6198 32.3182 28.6704 32.2987C28.7201 32.2783 28.7571 32.2452 28.7795 32.1984C28.8009 32.1527 28.8126 32.0699 28.8126 31.9521V29.5741H28.0832V30.4807C28.0832 30.8595 28.0735 31.1477 28.055 31.3454C28.0365 31.5441 27.9848 31.733 27.9011 31.9102C27.8164 32.0894 27.7083 32.2238 27.5759 32.3124C27.4424 32.402 27.2954 32.4468 27.1347 32.4468C26.9887 32.4468 26.8757 32.4088 26.7939 32.3319C26.714 32.2549 26.6741 32.1605 26.6741 32.0465C26.6741 31.9521 26.6975 31.8751 26.7472 31.8148C26.7968 31.7544 26.8679 31.7252 26.9604 31.7252C27.1318 31.7252 27.2272 31.8313 27.2438 32.0446C27.2516 32.14 27.2896 32.1868 27.3558 32.1868C27.4493 32.1868 27.5505 32.1244 27.6547 31.9978C27.7618 31.8722 27.832 31.6979 27.867 31.4778C27.9011 31.2578 27.9177 30.9374 27.9177 30.5177V29.9451C27.9177 29.7825 27.9069 29.6744 27.8875 29.6198C27.867 29.5653 27.8281 29.5254 27.7716 29.501C27.7132 29.4767 27.6109 29.4631 27.4629 29.4601V29.3764H29.9315V29.4601ZM31.3084 30.7553H31.7077C32.141 30.7553 32.4555 30.8312 32.6513 30.9832C32.845 31.136 32.9424 31.3386 32.9424 31.5927C32.9424 31.7651 32.8937 31.9151 32.7954 32.0397C32.6951 32.1653 32.5714 32.2578 32.4205 32.3192C32.2715 32.3805 32.0514 32.4117 31.7641 32.4117H30.1379V32.3289C30.3258 32.326 30.4456 32.3007 30.4992 32.253C30.5518 32.2062 30.5781 32.104 30.5781 31.9462V29.9305C30.5781 29.7153 30.5566 29.5838 30.5118 29.5351C30.469 29.4884 30.3512 29.4631 30.1622 29.4601V29.3764H31.7242V29.4601C31.5801 29.4621 31.4856 29.4747 31.4389 29.5001C31.3912 29.5254 31.359 29.5565 31.3376 29.5945C31.3181 29.6306 31.3084 29.724 31.3084 29.872V30.7553V30.7553ZM16.1873 15.4843V16.423C16.1873 16.5778 16.1951 16.6752 16.2127 16.7142C16.2302 16.7531 16.2643 16.7872 16.3139 16.8154C16.3646 16.8456 16.4308 16.8602 16.5165 16.8602H16.6168V16.943H15.0305V16.8602H15.1318C15.2194 16.8602 15.2905 16.8437 15.3431 16.8125C15.382 16.7921 15.4122 16.756 15.4327 16.7054C15.4502 16.6694 15.458 16.5759 15.458 16.423V14.4277C15.458 14.2729 15.4502 14.1755 15.4327 14.1375C15.4171 14.0976 15.383 14.0645 15.3333 14.0353C15.2837 14.0061 15.2155 13.9914 15.1318 13.9914H15.0305V13.9077H16.6168V13.9914H16.5165C16.4279 13.9914 16.3568 14.007 16.3032 14.0382C16.2643 14.0596 16.2331 14.0947 16.2117 14.1463C16.1951 14.1813 16.1873 14.2758 16.1873 14.4277V15.2876H17.2595V14.4277C17.2595 14.2729 17.2507 14.1755 17.2342 14.1375C17.2176 14.0976 17.1845 14.0645 17.1339 14.0353C17.0823 14.0061 17.0151 13.9914 16.9304 13.9914H16.831V13.9077H18.4154V13.9914H18.318C18.2284 13.9914 18.1564 14.007 18.1047 14.0382C18.0668 14.0596 18.0356 14.0947 18.0132 14.1463C17.9967 14.1813 17.9889 14.2758 17.9889 14.4277V16.423C17.9889 16.5778 17.9967 16.6752 18.0132 16.7142C18.0298 16.7531 18.0629 16.7872 18.1135 16.8154C18.1651 16.8456 18.2323 16.8602 18.318 16.8602H18.4154V16.943H16.831V16.8602H16.9304C17.019 16.8602 17.0901 16.8437 17.1426 16.8125C17.1806 16.7921 17.2118 16.756 17.2342 16.7054C17.2507 16.6694 17.2595 16.5759 17.2595 16.423V15.4843H16.1873V15.4843ZM20.4048 16.0793H19.3337L19.2051 16.3753C19.1633 16.4727 19.1428 16.5545 19.1428 16.6178C19.1428 16.7044 19.1779 16.7668 19.246 16.8057C19.286 16.8301 19.3853 16.8476 19.543 16.8602V16.943H18.5342V16.8602C18.6433 16.8437 18.7328 16.7989 18.803 16.7239C18.8731 16.6509 18.9597 16.498 19.062 16.2672L20.1478 13.8454H20.1896L21.2832 16.3334C21.3884 16.5691 21.4741 16.7181 21.5403 16.7794C21.5929 16.8262 21.6649 16.8524 21.7565 16.8602V16.943H20.289V16.8602H20.3484C20.4672 16.8602 20.5499 16.8437 20.5977 16.8106C20.6308 16.7872 20.6473 16.7522 20.6473 16.7074C20.6473 16.6811 20.6425 16.6528 20.6327 16.6256C20.6308 16.611 20.6074 16.5554 20.5655 16.4561L20.4048 16.0793V16.0793ZM20.3279 15.9127L19.8771 14.8688L19.4106 15.9127H20.3279ZM24.7012 15.8777L24.5873 16.943H21.8918V16.8602H21.9931C22.0817 16.8602 22.1528 16.8437 22.2054 16.8125C22.2453 16.7921 22.2745 16.756 22.296 16.7054C22.3125 16.6694 22.3203 16.5759 22.3203 16.423V14.4277C22.3203 14.2729 22.3125 14.1755 22.296 14.1375C22.2784 14.0976 22.2463 14.0645 22.1957 14.0353C22.146 14.0061 22.0788 13.9914 21.9931 13.9914H21.8918V13.9077H23.5103V13.9914H23.3788C23.2902 13.9914 23.2201 14.007 23.1655 14.0382C23.1276 14.0596 23.0964 14.0947 23.074 14.1463C23.0575 14.1813 23.0497 14.2758 23.0497 14.4277V16.3607C23.0497 16.5155 23.0584 16.6148 23.076 16.6567C23.0954 16.6996 23.1285 16.7317 23.1821 16.7521C23.2191 16.7668 23.3097 16.7726 23.4518 16.7726H23.705C23.8657 16.7726 24.0001 16.7434 24.1082 16.6879C24.2153 16.6314 24.3088 16.5418 24.3857 16.4191C24.4646 16.2964 24.5386 16.1163 24.6087 15.8777H24.7012V15.8777ZM26.7705 16.0793H25.6994L25.5718 16.3753C25.5289 16.4727 25.5085 16.5545 25.5085 16.6178C25.5085 16.7044 25.5436 16.7668 25.6127 16.8057C25.6516 16.8301 25.751 16.8476 25.9097 16.8602V16.943H24.8999V16.8602C25.0089 16.8437 25.0985 16.7989 25.1686 16.7239C25.2378 16.6509 25.3254 16.498 25.4277 16.2672L26.5125 13.8454H26.5553L27.6499 16.3334C27.7541 16.5691 27.8398 16.7181 27.9069 16.7794C27.9586 16.8262 28.0296 16.8524 28.1221 16.8602V16.943H26.6546V16.8602H26.715C26.8319 16.8602 26.9147 16.8437 26.9633 16.8106C26.9964 16.7872 27.013 16.7522 27.013 16.7074C27.013 16.6811 27.0072 16.6528 26.9994 16.6256C26.9964 16.611 26.9731 16.5554 26.9312 16.4561L26.7705 16.0793ZM26.6936 15.9127L26.2427 14.8688L25.7773 15.9127H26.6936ZM31.0659 15.8777L30.953 16.943H28.2575V16.8602H28.3598C28.4464 16.8602 28.5175 16.8437 28.5711 16.8125C28.611 16.7921 28.6402 16.756 28.6616 16.7054C28.6782 16.6694 28.686 16.5759 28.686 16.423V14.4277C28.686 14.2729 28.6782 14.1755 28.6616 14.1375C28.6451 14.0976 28.612 14.0645 28.5613 14.0353C28.5117 14.0061 28.4435 13.9914 28.3598 13.9914H28.2575V13.9077H29.876V13.9914H29.7445C29.6559 13.9914 29.5858 14.007 29.5312 14.0382C29.4933 14.0596 29.4621 14.0947 29.4397 14.1463C29.4241 14.1813 29.4153 14.2758 29.4153 14.4277V16.3607C29.4153 16.5155 29.4241 16.6148 29.4416 16.6567C29.4601 16.6996 29.4942 16.7317 29.5478 16.7521C29.5848 16.7668 29.6754 16.7726 29.8175 16.7726H30.0707C30.2314 16.7726 30.3667 16.7434 30.4739 16.6879C30.581 16.6314 30.6735 16.5418 30.7524 16.4191C30.8303 16.2964 30.9043 16.1163 30.9754 15.8777H31.0659V15.8777ZM23.5005 23.0195C23.4694 22.9581 23.446 22.9124 23.4187 22.8578C23.147 22.333 22.4031 21.3329 21.9152 21.1255C21.4984 20.9492 21.6844 21.4254 21.3076 21.3407C20.8577 21.2394 20.0913 20.5957 20.0436 19.8644C20.0173 19.471 20.139 19.3794 20.5149 19.4788C20.7281 19.5352 20.9784 19.6579 21.1527 19.7573C22.2122 20.3562 23.5551 21.3329 23.6534 22.7916L23.6106 23.1655L23.5005 23.0195V23.0195ZM15.4823 22.8247C15.4249 23 15.2574 23.2542 15.1697 23.4499C13.601 26.9439 17.8146 26.2125 18.729 25.4793C18.9237 25.3225 19.0152 25.1657 18.9987 24.8035C18.9753 24.2494 18.8935 23.6661 18.8205 23.1208L18.4397 20.6629C18.3648 20.2325 18.4232 20.2559 18.2518 20.1546C18.1525 20.0971 18.1807 20.1341 18.1271 20.0484C18.1067 19.9725 18.2197 18.8662 18.4797 18.8088C18.6374 19.0094 18.4349 19.1165 18.8224 19.2791C18.9958 19.3522 19.212 19.4525 19.3541 19.5352C19.3561 19.7952 19.3259 20.3289 19.21 20.5363L18.9325 20.4642C18.9841 21.0855 19.1194 21.7535 19.2032 22.3738C19.2899 23.0117 19.3658 23.6476 19.4126 24.2913C19.5255 25.8464 19.1389 26.641 17.7493 26.9059C16.4844 27.1484 14.9127 27.0383 14.5144 26.0207C14.0966 24.9505 14.9136 23.4947 15.31 22.7303L15.4823 22.8247V22.8247ZM21.5929 25.7461C21.2394 25.7782 20.1039 25.862 19.803 25.8006C19.8001 25.6361 19.8147 25.6526 19.955 25.6078C21.1673 25.2232 22.7585 24.7509 23.5648 23.7858C24.0936 23.1548 24.2825 22.6416 24.2328 21.5714C24.2133 21.1654 24.1423 20.7311 24.0507 20.3357C23.9835 20.0436 24.042 20.0387 24.1384 19.7875C24.1754 19.6911 24.1987 19.6297 24.2445 19.5265L24.3536 19.32C24.3555 19.3259 24.3633 19.3074 24.3692 19.3015C24.4938 19.544 24.6925 21.2715 24.7431 21.6893C24.8278 22.3914 24.897 23.4304 25.0829 24.0605C25.2845 24.7402 25.4783 24.6292 25.8951 24.6321C26.344 24.634 26.79 24.6311 27.238 24.6292C28.1329 24.6262 29.0745 24.6642 29.9626 24.6292L29.8127 24.488C28.7882 23.7303 28.2819 23.3808 26.9195 23.4742C27.0296 23.0185 27.4707 22.5949 27.9751 22.5267C28.9012 22.4021 29.6588 23.2055 30.2635 23.7021C30.358 23.78 30.4291 23.856 30.5216 23.9319C31.1614 24.4539 31.1234 24.6009 31.7856 24.6369L31.7729 25.5494C30.987 25.5922 30.0824 25.5533 29.2829 25.5533L25.5582 25.5543C25.1462 25.5504 24.9486 25.3585 24.8015 25.1044C24.3847 24.3877 24.5435 23.5687 24.4217 23.0097C24.3292 23.1967 24.2377 23.4811 24.1578 23.6787C23.8881 24.3487 23.6106 24.9476 23.0292 25.3244C22.6173 25.5903 22.145 25.6955 21.5929 25.7461V25.7461ZM31.3084 30.952V31.8673C31.3084 32.0124 31.3279 32.1137 31.3678 32.1731C31.4087 32.2315 31.4827 32.2608 31.5918 32.2608C31.7661 32.2608 31.8985 32.2023 31.9871 32.0845C32.0748 31.9667 32.1196 31.8196 32.1196 31.6434C32.1196 31.4739 32.0796 31.3308 31.9988 31.2159C31.919 31.099 31.8284 31.026 31.7291 30.9968C31.6298 30.9676 31.4895 30.952 31.3084 30.952V30.952ZM6.09691 28.0442L5.0199 28.3938L5.03743 28.4464C5.09196 28.6149 5.1835 28.7191 5.31301 28.76C5.44253 28.8009 5.61489 28.7989 5.8262 28.7532L5.85054 28.8272L4.46581 29.2771L4.44147 29.2031C4.58753 29.1388 4.7005 29.0658 4.78035 28.984C4.8602 28.9031 4.90597 28.8233 4.91765 28.7454C4.92934 28.6694 4.91473 28.5672 4.87286 28.4416L4.12888 28.6831C3.98281 28.7308 3.89614 28.7658 3.8679 28.7892C3.83869 28.8116 3.82019 28.8437 3.81045 28.8846C3.79974 28.9245 3.80753 28.982 3.83187 29.058L3.88348 29.2157C3.96334 29.4631 4.08506 29.6422 4.24866 29.7542C4.41031 29.8662 4.61967 29.9159 4.87578 29.9052L4.89817 29.9772L4.01884 30.1321L3.27584 27.8456L3.3479 27.8222L3.37614 27.9099C3.40146 27.9858 3.43554 28.0433 3.47741 28.0822C3.50663 28.1095 3.54655 28.126 3.59719 28.129C3.63322 28.1338 3.71697 28.1144 3.8494 28.0705L5.58957 27.5057C5.70934 27.4668 5.78141 27.4395 5.80672 27.4249C5.84762 27.3967 5.87586 27.3597 5.88852 27.3178C5.90897 27.2564 5.90508 27.1834 5.87781 27.0977L5.84957 27.0091L5.92163 26.9857L6.64029 29.1992L5.85834 29.4543L5.83399 29.3803C6.01317 29.28 6.13294 29.1836 6.19429 29.0872C6.25564 28.9917 6.28486 28.8759 6.28291 28.7386C6.28388 28.6577 6.25077 28.5175 6.18553 28.3169L6.09691 28.0442V28.0442ZM6.9782 30.1584L7.67446 31.4126L7.60824 31.4506L7.57221 31.3873C7.5206 31.2928 7.47483 31.2334 7.43491 31.2091C7.39595 31.1847 7.35408 31.175 7.31221 31.1789C7.26936 31.1838 7.17782 31.2237 7.03954 31.3006L5.8486 31.9608C5.63047 32.0816 5.49608 32.178 5.44252 32.2501C5.39091 32.3221 5.36267 32.4088 5.35683 32.5101C5.35196 32.6104 5.38118 32.7184 5.44545 32.8343C5.51848 32.9658 5.61002 33.0612 5.72103 33.1206C5.83204 33.181 5.95084 33.2053 6.08133 33.1937C6.21085 33.182 6.40463 33.1041 6.66269 32.9609L7.65498 32.4117C7.76405 32.3513 7.83611 32.2968 7.86922 32.2481C7.9033 32.1994 7.91985 32.1527 7.91791 32.1079C7.91693 32.0397 7.88772 31.956 7.83319 31.8576L7.8994 31.8206L8.36585 32.662L8.29963 32.699L8.27139 32.6483C8.23439 32.5802 8.18862 32.5305 8.13603 32.5013C8.08345 32.4711 8.02405 32.4604 7.95783 32.4711C7.91012 32.477 7.83708 32.5062 7.73873 32.5626L6.8146 33.0739C6.5283 33.2326 6.31115 33.328 6.16411 33.3612C6.01609 33.3933 5.84957 33.366 5.66163 33.2793C5.47466 33.1927 5.31009 33.0223 5.17084 32.7701C5.05398 32.5607 4.99166 32.3815 4.98484 32.2354C4.97413 32.0368 5.01114 31.8713 5.09488 31.7408C5.1796 31.6103 5.32177 31.4886 5.52432 31.3756L6.71527 30.7163C6.85452 30.6384 6.93827 30.5829 6.96359 30.5479C6.98891 30.5138 7.00157 30.4719 7.00059 30.4222C6.99864 30.3726 6.96943 30.2966 6.91101 30.1944L6.9782 30.1584V30.1584ZM8.25386 34.9884L8.37072 35.1276L7.97536 36.6302L8.53821 37.3011L8.59664 37.2524C8.55282 37.1921 8.52847 37.1278 8.52458 37.0567C8.52458 37.01 8.54211 36.9135 8.57911 36.7685L8.87028 35.6515C9.01245 35.7538 9.14488 35.8141 9.27148 35.8317C9.46916 35.858 9.64639 35.8063 9.80317 35.6739C9.93268 35.5668 10.0135 35.4344 10.0456 35.2785C10.0778 35.1227 10.0622 34.9699 9.99793 34.8209C9.93268 34.6719 9.79246 34.4684 9.57627 34.2093L8.74563 33.2199L8.6872 33.2696C8.769 33.367 8.81672 33.441 8.82743 33.4907C8.84106 33.5423 8.83717 33.5861 8.81964 33.626C8.80114 33.6659 8.73394 33.7331 8.62001 33.8295L7.23723 34.9903C7.12134 35.0877 7.04344 35.1393 7.00254 35.151C6.96067 35.1617 6.91685 35.1559 6.86913 35.1364C6.82044 35.1169 6.75617 35.0575 6.67242 34.9591L6.61497 35.0078L7.53034 36.0995L7.58876 36.0508C7.50599 35.9524 7.45925 35.8784 7.44659 35.8278C7.43491 35.7771 7.43783 35.7323 7.45633 35.6924C7.47386 35.6544 7.54007 35.5863 7.65596 35.4899L8.25386 34.9884V34.9884ZM9.29874 34.1119L9.43897 34.2794C9.58114 34.4489 9.64444 34.6027 9.62983 34.7439C9.61717 34.8851 9.52953 35.0244 9.36594 35.1607C9.25492 35.2542 9.14586 35.3097 9.04166 35.3263C8.93747 35.3438 8.84203 35.3282 8.75342 35.2776C8.66675 35.2279 8.56158 35.1296 8.43986 34.9845L8.36488 34.8949L9.29874 34.1119ZM12.3389 36.8025C12.6944 37.0684 12.893 37.3946 12.9359 37.7831C12.9777 38.1707 12.8696 38.5252 12.6087 38.8455C12.3866 39.1202 12.112 39.2974 11.7819 39.3753C11.3457 39.4795 10.9337 39.3743 10.5462 39.0598C10.1576 38.7452 9.96287 38.3703 9.96385 37.9341C9.96482 37.5903 10.0807 37.2748 10.3125 36.9885C10.5715 36.6682 10.8977 36.489 11.2892 36.451C11.6816 36.415 12.0312 36.5308 12.3389 36.8025V36.8025ZM12.2766 36.9194C12.0789 36.7597 11.8472 36.7392 11.5803 36.8571C11.3622 36.9544 11.1275 37.1589 10.8763 37.4696C10.5773 37.8377 10.4215 38.1629 10.4079 38.4443C10.3991 38.6411 10.4761 38.8047 10.6377 38.9361C10.7477 39.0257 10.8607 39.0724 10.9766 39.0793C11.1246 39.0871 11.2863 39.0364 11.4586 38.9293C11.6319 38.8232 11.816 38.6488 12.0098 38.4093C12.2425 38.123 12.3886 37.8883 12.4499 37.7033C12.5113 37.5173 12.5249 37.3634 12.4899 37.2378C12.4548 37.1132 12.3847 37.007 12.2766 36.9194V36.9194ZM14.5066 40.5302L14.4745 40.9061C14.4657 41.0035 14.4598 41.058 14.456 41.0707C14.4521 41.097 14.4433 41.1223 14.4326 41.1437C14.4131 41.1797 14.3839 41.2002 14.3479 41.206C14.2953 41.2119 14.2203 41.1885 14.1249 41.1388L14.0771 41.1135L14.0411 41.1797L15.2291 41.8107L15.2642 41.7445C15.1931 41.6988 15.1464 41.6462 15.1249 41.5868C15.0967 41.5079 15.0918 41.3511 15.1074 41.1155L15.2944 38.6303L15.2593 38.6118L13.339 40.1047C13.1569 40.2478 13.0206 40.3345 12.9329 40.3637C12.8433 40.3939 12.7518 40.391 12.6564 40.3579L12.6203 40.4241L13.4374 40.8594L13.4724 40.7912C13.3507 40.7143 13.2777 40.6568 13.2562 40.6198C13.2173 40.5584 13.2173 40.4932 13.2533 40.4241C13.2816 40.3725 13.3332 40.315 13.4091 40.2536L13.6399 40.0696L14.5066 40.5302V40.5302ZM14.5163 40.3637L13.7743 39.9693L14.6001 39.3237L14.5163 40.3637ZM18.7835 39.9459L18.5352 40.8389L18.4543 40.8146C18.4845 40.5808 18.4466 40.3734 18.3394 40.1923C18.2323 40.0121 18.0921 39.8953 17.9197 39.8417C17.7873 39.8008 17.6704 39.8047 17.5701 39.8524C17.4698 39.9002 17.4065 39.9693 17.3773 40.0628C17.3598 40.1212 17.3579 40.1787 17.3715 40.2322C17.39 40.3053 17.4328 40.3851 17.4981 40.4698C17.5468 40.5322 17.6646 40.6519 17.8535 40.8301C18.1184 41.0785 18.283 41.2878 18.3501 41.4563C18.4164 41.6257 18.4222 41.7971 18.3696 41.9714C18.3005 42.1944 18.1554 42.359 17.9343 42.4671C17.7113 42.5742 17.4669 42.5869 17.2001 42.5051C17.1164 42.4797 17.0394 42.4466 16.9703 42.4077C16.9011 42.3668 16.8174 42.3054 16.719 42.2246C16.6645 42.1798 16.6168 42.1506 16.5759 42.1389C16.5418 42.1282 16.5019 42.1302 16.4561 42.1448C16.4103 42.1594 16.3675 42.1896 16.3276 42.2363L16.2555 42.2139L16.5623 41.2099L16.6343 41.2313C16.6051 41.5322 16.6509 41.7806 16.7707 41.9792C16.8885 42.1779 17.0433 42.3074 17.2322 42.3648C17.3783 42.4096 17.5078 42.4048 17.6188 42.3522C17.7298 42.2986 17.8029 42.2188 17.835 42.1136C17.8545 42.0503 17.8564 41.9841 17.8399 41.9149C17.8253 41.8468 17.7912 41.7747 17.7396 41.7007C17.687 41.6277 17.5886 41.5225 17.4426 41.3842C17.2371 41.1904 17.093 41.0366 17.0131 40.9207C16.9323 40.8048 16.8807 40.686 16.8544 40.5653C16.8291 40.4455 16.8349 40.3228 16.8739 40.1981C16.9381 39.9868 17.0706 39.8301 17.2731 39.7278C17.4737 39.6265 17.6928 39.6129 17.9295 39.685C18.0161 39.7103 18.096 39.7463 18.171 39.7921C18.2274 39.8271 18.2937 39.8787 18.3686 39.9489C18.4436 40.017 18.4991 40.0579 18.5342 40.0686C18.5683 40.0793 18.5985 40.0774 18.6248 40.0608C18.651 40.0472 18.6842 40.0024 18.7251 39.9274L18.7835 39.9459V39.9459ZM20.8596 43.0689L20.8489 43.1429L19.4087 42.9413L19.4203 42.8663L19.5109 42.879C19.5917 42.8907 19.6579 42.8848 19.7096 42.8634C19.7485 42.8498 19.7797 42.8215 19.805 42.7777C19.8254 42.7475 19.8439 42.6628 19.8634 42.5245L20.1185 40.7123C20.138 40.5721 20.1429 40.4835 20.1332 40.4455C20.1224 40.4085 20.0971 40.3734 20.0553 40.3403C20.0144 40.3082 19.954 40.2858 19.8771 40.2751L19.7855 40.2624L19.7972 40.1874L21.2365 40.389L21.2258 40.465L21.1342 40.4523C21.0544 40.4406 20.9881 40.4455 20.9356 40.4669C20.8976 40.4815 20.8655 40.5098 20.8392 40.5526C20.8197 40.5838 20.8002 40.6685 20.7807 40.8058L20.5256 42.618C20.5061 42.7582 20.5013 42.8469 20.511 42.8848C20.5227 42.9228 20.549 42.9569 20.5899 42.989C20.6317 43.0231 20.6921 43.0455 20.7681 43.0562L20.8596 43.0689V43.0689ZM23.4986 42.4544L22.516 42.4895L22.4089 42.7641C22.3739 42.8556 22.3573 42.9306 22.3592 42.989C22.3622 43.0679 22.3963 43.1234 22.4596 43.1585C22.4975 43.1799 22.5881 43.1926 22.7332 43.1984L22.7361 43.2744L21.812 43.3065L21.81 43.2315C21.9084 43.212 21.9892 43.1682 22.0506 43.0971C22.1129 43.028 22.1869 42.8858 22.2745 42.6706L23.1909 40.4173L23.2298 40.4163L24.3117 42.6609C24.4149 42.8732 24.4977 43.0066 24.561 43.0601C24.6097 43.101 24.6769 43.1234 24.7616 43.1283L24.7645 43.2033L23.4187 43.251L23.4158 43.175L23.4713 43.1731C23.5794 43.1692 23.6554 43.1507 23.6972 43.1195C23.7265 43.0971 23.7411 43.065 23.7391 43.0231C23.7391 42.9988 23.7342 42.9735 23.7245 42.9481C23.7216 42.9355 23.6992 42.8858 23.6573 42.7972L23.4986 42.4544V42.4544ZM23.4226 42.3054L22.9757 41.3628L22.5832 42.3356L23.4226 42.3054ZM25.973 40.2722L27.7219 41.614L27.4327 40.4543C27.3928 40.2916 27.3421 40.1884 27.2818 40.1417C27.199 40.0813 27.0821 40.0716 26.9332 40.1115L26.9147 40.0365L27.8057 39.8154L27.8251 39.8885C27.7132 39.9313 27.6421 39.9693 27.609 40.0024C27.5759 40.0355 27.5544 40.0803 27.5457 40.1387C27.5369 40.1972 27.5486 40.2897 27.5797 40.4163L28.1407 42.6638L28.0725 42.6803L25.6877 40.8886L26.1152 42.6044C26.1541 42.7592 26.2155 42.8547 26.3012 42.8917C26.3849 42.9296 26.4725 42.9355 26.5641 42.9131L26.6284 42.8975L26.6459 42.9696L25.6886 43.2091L25.6711 43.1361C25.8191 43.0971 25.9146 43.0407 25.9584 42.9666C26.0012 42.8917 26.0051 42.7836 25.9691 42.6404L25.4949 40.7357L25.4189 40.6782C25.3449 40.6208 25.2826 40.5867 25.2329 40.575C25.1832 40.5633 25.117 40.5672 25.0343 40.5847L25.0167 40.5107L25.973 40.2722V40.2722ZM30.2577 39.0014L31.5002 38.2837L31.5382 38.3499L31.4769 38.3849C31.3834 38.4395 31.325 38.4862 31.3006 38.5261C31.2772 38.5661 31.2685 38.607 31.2733 38.6488C31.2782 38.6927 31.3201 38.7832 31.399 38.9205L32.0796 40.0998C32.2053 40.315 32.3036 40.4484 32.3766 40.499C32.4497 40.5507 32.5364 40.5779 32.6376 40.5809C32.7389 40.5838 32.847 40.5526 32.96 40.4874C33.0904 40.4114 33.1849 40.3189 33.2424 40.2069C33.3008 40.0949 33.3222 39.9742 33.3086 39.8447C33.2949 39.7161 33.2141 39.5233 33.0661 39.2672L32.4993 38.2846C32.437 38.1775 32.3805 38.1064 32.3309 38.0733C32.2832 38.0412 32.2355 38.0246 32.1916 38.0266C32.1225 38.0305 32.0397 38.0607 31.9423 38.1172L31.9044 38.0509L32.737 37.5699L32.7749 37.6351L32.7262 37.6643C32.6581 37.7033 32.6094 37.75 32.5802 37.8026C32.551 37.8552 32.5412 37.9156 32.5529 37.9818C32.5607 38.0285 32.5919 38.1006 32.6483 38.1989L33.1761 39.1143C33.3397 39.3967 33.4391 39.6119 33.4751 39.759C33.5092 39.906 33.4848 40.0735 33.4021 40.2634C33.3183 40.4513 33.1508 40.6188 32.9015 40.763C32.6931 40.8837 32.5159 40.948 32.3698 40.9577C32.1722 40.9713 32.0056 40.9382 31.8732 40.8564C31.7408 40.7746 31.6171 40.6344 31.5012 40.4338L30.8205 39.2545C30.7407 39.1163 30.6832 39.0345 30.6482 39.0092C30.6131 38.9848 30.5712 38.9721 30.5216 38.9751C30.4729 38.976 30.3969 39.0072 30.2957 39.0676L30.2577 39.0014V39.0014ZM34.0165 36.5922L33.2832 37.2524L33.3349 37.3089C33.3991 37.2544 33.4566 37.2203 33.5053 37.2076C33.5549 37.195 33.626 37.1959 33.7176 37.2105L33.813 37.2271L35.1257 38.6849C35.225 38.7949 35.2727 38.8923 35.2688 38.978C35.2649 39.0656 35.2065 39.1591 35.0945 39.2633L35.1451 39.3188L35.8784 38.6596L35.8278 38.6031L35.7781 38.6469C35.709 38.7102 35.6272 38.7453 35.5356 38.7521C35.4431 38.7599 35.3448 38.7034 35.2367 38.5855L34.0535 37.2709L37.0012 37.7335L37.0528 37.6867L35.5035 35.9661C35.4159 35.8677 35.3613 35.7917 35.3418 35.7362C35.3233 35.6817 35.3204 35.6311 35.335 35.5863C35.3487 35.5415 35.3935 35.4743 35.4714 35.3847L35.4207 35.3282L34.7381 35.9436L34.7887 35.9992C34.9017 35.894 35.0088 35.8492 35.1111 35.8638C35.186 35.8765 35.2786 35.9436 35.3905 36.0673L36.19 36.9554L34.0165 36.5922V36.5922ZM39.0023 35.335L39.0588 35.3837L38.1055 36.4812L38.048 36.4315L38.1084 36.3614C38.1619 36.301 38.1931 36.2426 38.2038 36.1861C38.2126 36.1472 38.2058 36.1043 38.1824 36.0605C38.1688 36.0274 38.1084 35.9651 38.0032 35.8726L36.6224 34.6729C36.5153 34.5803 36.4422 34.5268 36.4062 34.5151C36.3692 34.5034 36.3264 34.5054 36.2757 34.5229C36.2261 34.5394 36.1744 34.5784 36.1238 34.6368L36.0634 34.706L36.006 34.6563L36.9593 33.5588L37.0177 33.6095L36.9574 33.6786C36.9048 33.74 36.8717 33.7974 36.861 33.8549C36.8532 33.8928 36.859 33.9357 36.8804 33.9824C36.896 34.0146 36.9564 34.0769 37.0616 34.1684L38.4414 35.3691C38.5495 35.4616 38.6216 35.5142 38.6576 35.5259C38.6956 35.5376 38.7394 35.5347 38.7891 35.5171C38.8397 35.5006 38.8903 35.4626 38.942 35.4042L39.0023 35.335V35.335ZM38.0889 31.7008C37.8757 32.0514 37.8211 32.4166 37.9253 32.7954C38.0305 33.1742 38.2632 33.4644 38.6255 33.666C38.9459 33.8432 39.2769 33.9026 39.6158 33.8432C40.0453 33.7682 40.3812 33.5121 40.6237 33.0758C40.8662 32.6386 40.8973 32.214 40.7191 31.8031C40.5847 31.4915 40.3637 31.2509 40.055 31.0805C39.6937 30.8799 39.3256 30.8351 38.9517 30.9432C38.5768 31.0533 38.2885 31.3045 38.0889 31.7008V31.7008ZM38.2155 31.7427C38.2827 31.621 38.3742 31.5333 38.4911 31.4769C38.6089 31.4214 38.7628 31.4068 38.9566 31.436C39.1494 31.4642 39.4065 31.5674 39.7288 31.7456C39.9985 31.8956 40.2011 32.0465 40.3374 32.1984C40.4728 32.3504 40.5497 32.5003 40.5682 32.6474C40.5818 32.7632 40.5546 32.883 40.4864 33.0057C40.3851 33.1888 40.2361 33.293 40.0414 33.3173C39.7629 33.3534 39.4152 33.256 38.9994 33.0262C38.6508 32.8324 38.4093 32.6366 38.2749 32.439C38.1123 32.1965 38.0918 31.9657 38.2155 31.7427V31.7427ZM5.94695 16.9859L6.01999 17.0083L5.59444 18.3988L5.52238 18.3764L5.54964 18.2888C5.57204 18.2109 5.57788 18.1447 5.56522 18.0892C5.55743 18.0492 5.53406 18.0132 5.49414 17.982C5.46784 17.9587 5.38799 17.9246 5.25361 17.8847L3.50468 17.3501C3.36835 17.3072 3.28168 17.2887 3.24273 17.2936C3.20475 17.2975 3.1658 17.317 3.12685 17.354C3.08789 17.389 3.05771 17.4445 3.03531 17.5195L3.00804 17.6071L2.93501 17.5857L3.35958 16.1942L3.43262 16.2166L3.40632 16.3062C3.38198 16.3821 3.37614 16.4493 3.38977 16.5038C3.39854 16.5438 3.42093 16.5798 3.45988 16.6129C3.48715 16.6372 3.567 16.6694 3.69944 16.7103L5.44934 17.2449C5.58567 17.2868 5.67234 17.3053 5.71129 17.3014C5.75024 17.2965 5.78822 17.2751 5.82717 17.24C5.8671 17.203 5.89728 17.1485 5.91968 17.0745L5.94695 16.9859V16.9859ZM4.44147 13.6876L6.60913 13.2854L5.55354 12.7236C5.40552 12.6457 5.29548 12.6145 5.22147 12.6281C5.12117 12.6496 5.03451 12.7284 4.96439 12.8657L4.8972 12.8307L5.32859 12.0195L5.39578 12.0555C5.35391 12.1656 5.33443 12.2445 5.33638 12.2912C5.33833 12.3379 5.35878 12.3847 5.39481 12.4305C5.43181 12.4743 5.50874 12.5278 5.6256 12.5902L7.66959 13.6769L7.63648 13.7392L4.70926 14.3118L6.27025 15.1425C6.41145 15.2174 6.52343 15.236 6.60815 15.197C6.6919 15.159 6.75617 15.0987 6.79999 15.0159L6.83115 14.9584L6.89835 14.9925L6.43482 15.864L6.36763 15.828C6.43871 15.6927 6.46111 15.5836 6.43482 15.5018C6.40853 15.419 6.32965 15.344 6.20013 15.2749L4.46679 14.3537L4.3733 14.3703C4.28079 14.3878 4.2136 14.4121 4.17075 14.4394C4.12985 14.4686 4.08895 14.5202 4.04611 14.5942L3.97891 14.5582L4.44147 13.6876V13.6876ZM8.06203 8.59956L8.62196 9.10398L8.57327 9.15852C8.41454 9.07477 8.28892 9.02705 8.19738 9.01537C8.10487 9.00465 8.01139 9.01927 7.91596 9.05724C7.8624 9.07964 7.79229 9.13904 7.70562 9.23544L7.56734 9.3893L9.16047 10.8247C9.26661 10.9201 9.33769 10.9737 9.3747 10.9863C9.4117 10.998 9.45552 10.9961 9.50519 10.9795C9.5568 10.963 9.60841 10.9259 9.66099 10.8665L9.72332 10.7994L9.7798 10.85L8.80503 11.9319L8.74855 11.8812L8.81087 11.8131C8.8654 11.7527 8.89754 11.6943 8.90923 11.6388C8.91799 11.5998 8.91312 11.557 8.89072 11.5102C8.87806 11.4771 8.81964 11.4138 8.71447 11.3203L7.12037 9.88497L6.98599 10.0349C6.86134 10.1732 6.79902 10.3008 6.80194 10.4176C6.80486 10.5803 6.87108 10.7419 7.00254 10.9016L6.95093 10.96L6.391 10.4556L8.06203 8.59956V8.59956ZM10.2034 6.88666L10.4293 6.7104C10.5949 6.58089 10.7156 6.50201 10.7906 6.47474C10.9201 6.42605 11.0389 6.41437 11.1499 6.43871C11.26 6.46306 11.3924 6.54389 11.5472 6.6773L11.6086 6.62957L11.1032 5.98103L9.26758 7.41445L9.3153 7.47386L9.38833 7.41737C9.45942 7.36187 9.52661 7.33363 9.59186 7.33168C9.63665 7.32876 9.6795 7.3424 9.71942 7.37161C9.74279 7.39011 9.79246 7.44854 9.87036 7.54787L10.997 8.98908C11.0827 9.10009 11.1295 9.17312 11.1373 9.20721C11.1519 9.2559 11.1499 9.29874 11.1334 9.33477C11.1129 9.38833 11.071 9.43994 11.0068 9.48961L10.9337 9.54608L10.9805 9.60646L12.8755 8.12532L12.4295 7.35213L12.3691 7.39887C12.4675 7.6355 12.4918 7.84877 12.4421 8.03963C12.3925 8.23049 12.2659 8.40675 12.0614 8.56645L11.9299 8.6687C11.8676 8.71739 11.816 8.74465 11.7741 8.74952C11.7332 8.75342 11.6962 8.7466 11.6651 8.72713C11.6329 8.70765 11.5716 8.63948 11.4761 8.51873L10.9951 7.90135C11.0983 7.81955 11.1898 7.77086 11.2658 7.75528C11.3427 7.7397 11.4323 7.75626 11.5365 7.803C11.6397 7.85071 11.7469 7.93154 11.8579 8.04645L11.9192 7.99873L11.0224 6.85063L10.961 6.89834C11.0759 7.08239 11.1373 7.24306 11.1441 7.37842C11.148 7.51475 11.0818 7.63648 10.9435 7.74554L10.8997 7.77962L10.2034 6.88666V6.88666ZM14.5144 5.73466L14.8318 6.44845C14.8922 6.58575 14.9399 6.66756 14.9711 6.6958C15.0042 6.72404 15.047 6.73962 15.0987 6.74156C15.1512 6.74351 15.235 6.71916 15.3518 6.66755L15.382 6.73669L14.081 7.3161L14.0499 7.24696C14.1687 7.19438 14.2427 7.14763 14.2748 7.10673C14.306 7.06681 14.3235 7.02591 14.3255 6.98306C14.3255 6.94021 14.2962 6.85063 14.2349 6.71235L13.5016 5.06372C13.4403 4.92642 13.3935 4.84461 13.3604 4.81637C13.3273 4.78813 13.2855 4.77256 13.2329 4.77061C13.1813 4.76769 13.0975 4.79203 12.9807 4.84462L12.9495 4.7745L14.1297 4.24963C14.4384 4.11232 14.6721 4.03442 14.8338 4.01299C14.9945 3.99157 15.1464 4.01884 15.2866 4.09285C15.4278 4.16685 15.532 4.28079 15.6011 4.43465C15.6839 4.62162 15.6858 4.80664 15.605 4.98971C15.5534 5.10559 15.459 5.21758 15.3207 5.32372L16.3149 5.91286C16.4454 5.98785 16.5321 6.03167 16.5778 6.0453C16.647 6.06088 16.7151 6.05601 16.7843 6.02972L16.8154 6.09886L16.015 6.45429L14.6809 5.66066L14.5144 5.73466V5.73466ZM13.9593 4.48918L14.455 5.60222L14.5611 5.55451C14.7345 5.47758 14.8581 5.40454 14.9302 5.33346C15.0022 5.26334 15.0441 5.17571 15.0558 5.07054C15.0685 4.96537 15.0451 4.84656 14.9867 4.71315C14.9 4.51937 14.7909 4.39667 14.6585 4.34409C14.527 4.2915 14.3605 4.31 14.1589 4.39959L13.9593 4.48918ZM18.1934 2.8055L19.9189 4.17854L19.6492 3.01291C19.6122 2.85029 19.5635 2.74512 19.5031 2.69935C19.4223 2.63703 19.3054 2.62437 19.1555 2.66137L19.1389 2.58737L20.0338 2.38092L20.0504 2.45493C19.9403 2.49583 19.8683 2.53283 19.8332 2.56497C19.7991 2.5971 19.7777 2.64287 19.767 2.70032C19.7582 2.75778 19.768 2.85126 19.7972 2.97883L20.3182 5.23511L20.25 5.25069L17.8973 3.41703L18.2956 5.13967C18.3307 5.29548 18.391 5.39286 18.4748 5.43084C18.5585 5.46979 18.6462 5.47758 18.7387 5.45713L18.802 5.44252L18.8185 5.51653L17.8574 5.73758L17.8409 5.66357C17.9908 5.62852 18.0862 5.57301 18.131 5.49998C18.1758 5.42597 18.1817 5.31788 18.1486 5.17376L17.7074 3.26123L17.6325 3.2028C17.5585 3.14437 17.4971 3.10834 17.4474 3.09568C17.3987 3.08302 17.3325 3.08497 17.2498 3.10153L17.2322 3.02752L18.1934 2.8055V2.8055ZM23.3145 4.24476H22.333L22.2161 4.51645C22.1772 4.60701 22.1586 4.68102 22.1586 4.73945C22.1586 4.81832 22.1898 4.8748 22.2531 4.91181C22.2891 4.93421 22.3807 4.95076 22.5248 4.96147V5.03645H21.6007V4.96147C21.7 4.94589 21.7828 4.90402 21.8461 4.83683C21.9113 4.76963 21.9902 4.63038 22.0846 4.4181L23.0789 2.19785H23.1188L24.1208 4.47944C24.2172 4.69465 24.2951 4.83196 24.3565 4.88746C24.4032 4.92934 24.4695 4.95368 24.5542 4.96147V5.03645H23.2094V4.96147H23.2639C23.372 4.96147 23.4479 4.94589 23.4918 4.91668C23.521 4.89428 23.5375 4.86215 23.5375 4.82125C23.5375 4.7969 23.5327 4.77158 23.5249 4.74529C23.521 4.7336 23.5015 4.68296 23.4626 4.5924L23.3145 4.24476V4.24476ZM23.2454 4.09285L22.8315 3.13561L22.404 4.09285H23.2454ZM28.5565 2.95156L28.3997 3.68873L28.3276 3.67217C28.3208 3.49299 28.2994 3.36153 28.2634 3.27681C28.2263 3.19014 28.1679 3.11613 28.0861 3.05284C28.0404 3.01778 27.9537 2.98759 27.8271 2.96033L27.6245 2.91748L27.1785 5.01503C27.1493 5.15428 27.1376 5.2429 27.1454 5.28087C27.1532 5.31885 27.1776 5.35586 27.2165 5.39189C27.2564 5.42792 27.3139 5.45324 27.3918 5.46979L27.4824 5.48927L27.4658 5.56328L26.0421 5.26042L26.0577 5.18642L26.1483 5.20589C26.2272 5.22244 26.2934 5.22147 26.3479 5.20395C26.3869 5.19226 26.4209 5.16694 26.4502 5.12507C26.4725 5.09683 26.4979 5.01405 26.5271 4.87675L26.9731 2.77823L26.7754 2.73635C26.5923 2.69838 26.4511 2.70811 26.3518 2.76752C26.2116 2.85126 26.1064 2.99052 26.0324 3.1843L25.9564 3.16969L26.1122 2.43253L28.5565 2.95156V2.95156ZM30.4651 6.54291L30.4398 6.61302L29.0726 6.11639L29.0998 6.0453L29.1855 6.07646C29.2615 6.1047 29.3277 6.11249 29.3832 6.10276C29.4241 6.09691 29.4601 6.07549 29.4942 6.03849C29.5195 6.0122 29.5565 5.93429 29.6043 5.80283L30.2304 4.08311C30.2791 3.9497 30.3015 3.86401 30.2995 3.82505C30.2986 3.7861 30.2801 3.74715 30.246 3.70625C30.2119 3.66633 30.1584 3.63224 30.0853 3.60595L29.9986 3.57382L30.024 3.50273L31.3902 3.99937L31.3649 4.07143L31.2772 4.03929C31.2023 4.01202 31.136 4.00228 31.0805 4.01299C31.0396 4.01884 31.0026 4.04026 30.9676 4.07727C30.9423 4.10259 30.9062 4.18146 30.8585 4.31195L30.2324 6.03167C30.1846 6.16508 30.1603 6.25077 30.1632 6.28972C30.1661 6.32867 30.1846 6.3686 30.2178 6.4095C30.2518 6.4504 30.3054 6.48351 30.3784 6.51077L30.4651 6.54291ZM34.3388 5.60515C34.7235 5.8262 34.9601 6.12613 35.0497 6.50591C35.1393 6.88569 35.075 7.25183 34.855 7.60142C34.668 7.90038 34.4167 8.10877 34.0993 8.22757C33.6796 8.38338 33.257 8.32982 32.8334 8.06495C32.4088 7.80008 32.1712 7.45146 32.1186 7.01812C32.0777 6.67632 32.1537 6.3501 32.3494 6.03849C32.5685 5.68792 32.8704 5.46979 33.254 5.38507C33.6387 5.30132 34 5.37436 34.3388 5.60515V5.60515ZM34.2911 5.72979C34.0749 5.59541 33.8422 5.60223 33.5919 5.75219C33.3875 5.87586 33.1791 6.10763 32.9677 6.44553C32.7155 6.84868 32.6016 7.19048 32.622 7.47093C32.6367 7.66666 32.7331 7.82053 32.9103 7.93154C33.0301 8.00652 33.1479 8.03865 33.2638 8.03184C33.4118 8.02113 33.5657 7.95199 33.7244 7.82344C33.8821 7.69685 34.0448 7.5021 34.2074 7.24112C34.4031 6.92853 34.519 6.67729 34.5579 6.48643C34.5969 6.29459 34.592 6.13976 34.5414 6.01901C34.4917 5.89923 34.408 5.80283 34.2911 5.72979V5.72979ZM37.6945 8.38824L36.9963 7.69101L36.9437 7.74457C37.0012 7.80689 37.0382 7.86142 37.0538 7.91011C37.0694 7.95783 37.0713 8.02892 37.0616 8.12337L37.0509 8.21783L35.6632 9.60646C35.558 9.70968 35.4636 9.76324 35.3779 9.76324C35.2912 9.76422 35.1929 9.71163 35.0838 9.60451L35.0302 9.65807L35.7284 10.3553L35.781 10.3008L35.7353 10.255C35.6681 10.1898 35.6291 10.1099 35.6174 10.0184C35.6048 9.92587 35.6554 9.82459 35.7684 9.71163L37.0187 8.46031L36.711 11.4284L36.7607 11.4781L38.3986 9.84017C38.4911 9.74863 38.5641 9.6902 38.6187 9.66781C38.6722 9.64541 38.7229 9.63957 38.7676 9.65125C38.8134 9.66294 38.8826 9.70481 38.976 9.77882L39.0306 9.72429L38.3811 9.07477L38.3275 9.12833C38.4385 9.23642 38.4891 9.34159 38.4794 9.44286C38.4716 9.51882 38.4093 9.61523 38.2905 9.73306L37.4452 10.5783L37.6945 8.38824V8.38824ZM39.1718 13.5201L38.6226 12.7051L38.3324 12.7596C38.236 12.7791 38.1639 12.8044 38.1152 12.8375C38.05 12.8813 38.0198 12.9397 38.0246 13.0128C38.0276 13.0547 38.0646 13.1394 38.1357 13.266L38.0733 13.3078L37.5563 12.5405L37.6196 12.4986C37.6877 12.5726 37.7685 12.6184 37.8591 12.633C37.9516 12.6486 38.1123 12.6369 38.3411 12.596L40.7367 12.1792L40.7591 12.2123L39.4279 14.3186C39.3023 14.5192 39.2341 14.6604 39.2214 14.7432C39.2127 14.8055 39.2292 14.8737 39.2711 14.9477L39.2088 14.9906L38.456 13.8746L38.5184 13.8317L38.5495 13.8785C38.6089 13.9671 38.6654 14.0216 38.7141 14.0411C38.7491 14.0547 38.7832 14.0489 38.8183 14.0265C38.8387 14.0129 38.8563 13.9944 38.8738 13.9739C38.8826 13.9642 38.9137 13.9184 38.9673 13.8356L39.1718 13.5201V13.5201ZM39.2584 13.377L39.8213 12.4986L38.7881 12.6797L39.2584 13.377ZM41.2898 18.0113L40.3296 18.2138L39.5662 15.865L39.6382 15.8417L39.6665 15.9293C39.6918 16.0053 39.7259 16.0627 39.7677 16.1007C39.797 16.1289 39.8369 16.1445 39.8875 16.1484C39.9226 16.1523 40.0063 16.1338 40.1397 16.09L41.8799 15.5252C42.0152 15.4804 42.097 15.4463 42.1263 15.4219C42.1555 15.3957 42.1759 15.3567 42.1866 15.3051C42.1973 15.2535 42.1915 15.1902 42.1672 15.1162L42.1389 15.0285L42.211 15.0052L42.6696 16.4152L42.5966 16.4396L42.5596 16.3247C42.5343 16.2467 42.5012 16.1903 42.4583 16.1513C42.4291 16.124 42.3902 16.1065 42.3385 16.1017C42.3025 16.0978 42.2188 16.1172 42.0863 16.1611L40.4007 16.7083C40.2663 16.7522 40.1816 16.7892 40.1504 16.8154C40.1183 16.8437 40.0998 16.8826 40.0969 16.9342C40.0959 16.9703 40.1154 17.0511 40.1563 17.1767L40.2274 17.3958C40.2731 17.537 40.3355 17.6451 40.4163 17.724C40.4952 17.8009 40.5994 17.8564 40.7289 17.8895C40.8574 17.9236 41.0366 17.9382 41.2645 17.9314L41.2898 18.0113V18.0113ZM39.496 28.8097L41.5605 28.0374L40.4231 27.6674C40.2653 27.6167 40.1504 27.6041 40.0794 27.6314C39.9839 27.6703 39.9128 27.7618 39.868 27.9108L39.796 27.8865L40.0794 27.014L40.1524 27.0373C40.13 27.1532 40.1241 27.234 40.1349 27.2798C40.1436 27.3256 40.1719 27.3684 40.2167 27.4054C40.2605 27.4444 40.3452 27.4833 40.4708 27.5233L42.6735 28.239L42.6511 28.3062L39.868 29.3783L41.5498 29.9246C41.7007 29.9743 41.8146 29.9733 41.8906 29.9207C41.9666 29.8691 42.0201 29.798 42.0493 29.7085L42.0688 29.6461L42.1409 29.6695L41.8361 30.6073L41.764 30.5839C41.8108 30.4378 41.8137 30.3268 41.7728 30.2509C41.7328 30.1739 41.6433 30.1136 41.503 30.0678L39.6353 29.4611L39.5477 29.4952C39.459 29.5273 39.3967 29.5624 39.3607 29.5984C39.3247 29.6335 39.2925 29.6919 39.2643 29.7708L39.1903 29.7484L39.496 28.8097V28.8097ZM23 0.443074C35.4568 0.443074 45.5569 10.5442 45.5569 23C45.5569 35.4558 35.4568 45.5569 23 45.5569C10.5442 45.5569 0.443074 35.4558 0.443074 23C0.443074 10.5442 10.5442 0.443074 23 0.443074V0.443074ZM23 0C35.7012 0 46 10.2988 46 23C46 35.7002 35.7012 46 23 46C10.2998 46 0 35.7002 0 23C0 10.2988 10.2998 0 23 0V0ZM23 38.6187C31.6025 38.6187 38.6187 31.6015 38.6187 23C38.6187 14.3975 31.6025 7.38135 23 7.38135C14.3985 7.38135 7.38232 14.3975 7.38232 23C7.38232 31.6015 14.3985 38.6187 23 38.6187ZM3.88154 22.1051C4.36454 22.1051 4.756 22.4975 4.756 22.9796C4.756 24.1306 3.0061 24.1306 3.0061 22.9796C3.0061 22.4975 3.39853 22.1051 3.88154 22.1051ZM3.51442 23.0214H3.52902C3.52415 23.0409 3.52026 23.0594 3.51344 23.076C3.50857 23.0915 3.49981 23.1061 3.49007 23.1169C3.48033 23.1276 3.46767 23.1373 3.45501 23.1422C3.44041 23.149 3.42483 23.1519 3.40535 23.1519C3.38977 23.1519 3.37127 23.15 3.35277 23.1451L3.31382 23.1373C3.29531 23.1324 3.28265 23.1305 3.27584 23.1305C3.25149 23.1305 3.23689 23.1373 3.23104 23.1519H3.21936C3.22228 23.1305 3.22715 23.112 3.23396 23.0974C3.24175 23.0808 3.24857 23.0682 3.25733 23.0584C3.2661 23.0487 3.27389 23.0399 3.28363 23.0331C3.28947 23.0282 3.29434 23.0243 3.29823 23.0204C3.3031 23.0175 3.30895 23.0127 3.31771 23.0068C3.33524 22.9942 3.3479 22.9825 3.35861 22.9727C3.36835 22.963 3.37614 22.9533 3.38101 22.9416C3.38588 22.9309 3.3888 22.9182 3.3888 22.9046C3.3888 22.8793 3.38393 22.8598 3.37419 22.8452C3.36348 22.8306 3.34887 22.8237 3.33037 22.8237C3.30992 22.8237 3.29434 22.8306 3.28363 22.8452L3.29531 22.8442C3.30895 22.8442 3.32161 22.8481 3.33134 22.8588C3.34011 22.8676 3.34498 22.8802 3.34498 22.8948C3.34498 22.9133 3.34011 22.9279 3.3294 22.9387C3.31966 22.9503 3.30505 22.9571 3.28655 22.9571C3.2661 22.9571 3.25149 22.9503 3.23981 22.9387C3.22909 22.9279 3.22325 22.9133 3.22325 22.8968C3.22325 22.8841 3.22715 22.8715 3.23396 22.8569C3.24175 22.8442 3.25636 22.8325 3.27779 22.8228C3.29824 22.813 3.32745 22.8091 3.36543 22.8091C3.38588 22.8091 3.40243 22.8091 3.41704 22.8111C3.43067 22.813 3.4443 22.8169 3.45696 22.8218C3.47936 22.8306 3.49591 22.8413 3.50565 22.8549C3.51539 22.8676 3.52026 22.8841 3.52026 22.9016C3.52026 22.9192 3.51636 22.9357 3.50857 22.9474C3.50176 22.9601 3.49202 22.9698 3.47936 22.9776C3.46767 22.9854 3.45696 22.9912 3.4443 22.9942C3.43262 22.998 3.41606 23.0019 3.39561 23.0068C3.37322 23.0117 3.35471 23.0166 3.33913 23.0214C3.32355 23.0273 3.30895 23.0331 3.29629 23.0419C3.28363 23.0497 3.27389 23.0604 3.2661 23.0711L3.27097 23.076C3.30018 23.0516 3.33621 23.0409 3.37906 23.0409C3.39853 23.0409 3.41314 23.0409 3.42385 23.0419L3.45209 23.0458L3.48131 23.0487C3.50078 23.0487 3.5115 23.039 3.51442 23.0214V23.0214ZM3.7121 22.8091C3.72183 22.8091 3.7306 22.8091 3.73839 22.8111C3.74618 22.8121 3.75592 22.814 3.76565 22.8179C3.78318 22.8237 3.79974 22.8335 3.81532 22.8461C3.82992 22.8598 3.84356 22.8773 3.85232 22.9007C3.86206 22.9221 3.86693 22.9494 3.86693 22.9796C3.86693 23.0097 3.86206 23.037 3.85232 23.0594C3.84843 23.0701 3.84356 23.0798 3.83772 23.0896C3.8309 23.0974 3.82408 23.1061 3.81532 23.113C3.79974 23.1266 3.78318 23.1363 3.76468 23.1422C3.74618 23.149 3.72865 23.1519 3.7121 23.1519C3.68288 23.1519 3.65659 23.1441 3.63419 23.1315C3.60985 23.1178 3.59135 23.0984 3.57771 23.0721C3.56311 23.0467 3.55726 23.0166 3.55726 22.9796C3.55726 22.9445 3.56311 22.9143 3.57771 22.887C3.59135 22.8617 3.60985 22.8422 3.63419 22.8286C3.65659 22.815 3.68288 22.8091 3.7121 22.8091V22.8091ZM3.68775 22.8481V23.111C3.68775 23.1295 3.69652 23.1392 3.7121 23.1392C3.72768 23.1392 3.73547 23.1295 3.73547 23.111V22.8481C3.73547 22.8306 3.72768 22.8208 3.7121 22.8208C3.69652 22.8208 3.68775 22.8306 3.68775 22.8481ZM3.98086 23.1324V22.8354H3.9351V22.8228H4.02274C4.0354 22.8228 4.04708 22.8228 4.05779 22.8218C4.06753 22.8208 4.07727 22.8208 4.08603 22.8199C4.09967 22.8179 4.11135 22.814 4.12206 22.8091V23.1324H4.16783V23.1441H3.9351V23.1324H3.98086V23.1324ZM4.53008 23.0214H4.54274C4.53982 23.0409 4.53495 23.0594 4.52813 23.076C4.52327 23.0915 4.51547 23.1061 4.50476 23.1169C4.49502 23.1276 4.48334 23.1373 4.46971 23.1422C4.45607 23.149 4.43952 23.1519 4.42102 23.1519C4.40446 23.1519 4.38693 23.15 4.36648 23.1451L4.32851 23.1373C4.31 23.1324 4.29832 23.1305 4.29053 23.1305C4.26618 23.1305 4.25158 23.1373 4.24574 23.1519H4.23308C4.23697 23.1305 4.24281 23.112 4.24963 23.0974C4.25645 23.0808 4.26326 23.0682 4.27203 23.0584C4.28079 23.0487 4.28955 23.0399 4.29832 23.0331C4.30319 23.0282 4.30903 23.0243 4.31292 23.0204C4.31682 23.0175 4.32364 23.0127 4.3324 23.0068C4.34993 22.9942 4.36356 22.9825 4.3733 22.9727C4.38401 22.963 4.39083 22.9533 4.3957 22.9416C4.40057 22.9309 4.40349 22.9182 4.40349 22.9046C4.40349 22.8793 4.39862 22.8598 4.38791 22.8452C4.37817 22.8306 4.36356 22.8237 4.34506 22.8237C4.32461 22.8237 4.31 22.8306 4.29832 22.8452L4.31 22.8442C4.32364 22.8442 4.3363 22.8481 4.34506 22.8588C4.35577 22.8676 4.36064 22.8802 4.36064 22.8948C4.36064 22.9133 4.35577 22.9279 4.34506 22.9387C4.33435 22.9503 4.31974 22.9571 4.30124 22.9571C4.28176 22.9571 4.26618 22.9503 4.2545 22.9387C4.24379 22.9279 4.23892 22.9133 4.23892 22.8968C4.23892 22.8841 4.24184 22.8715 4.24963 22.8569C4.25645 22.8442 4.27105 22.8325 4.29248 22.8228C4.31293 22.813 4.34311 22.8091 4.38109 22.8091C4.40057 22.8091 4.41712 22.8091 4.43173 22.8111C4.44633 22.813 4.459 22.8169 4.47068 22.8218C4.49405 22.8306 4.5106 22.8413 4.52034 22.8549C4.53008 22.8676 4.53495 22.8841 4.53495 22.9016C4.53495 22.9192 4.53105 22.9357 4.52326 22.9474C4.51645 22.9601 4.50671 22.9698 4.49503 22.9776C4.48237 22.9854 4.47068 22.9912 4.45899 22.9942C4.44731 22.998 4.43076 23.0019 4.40933 23.0068C4.38791 23.0117 4.36941 23.0166 4.35383 23.0214C4.33727 23.0273 4.32364 23.0331 4.31195 23.0419C4.29832 23.0497 4.28858 23.0604 4.28079 23.0711L4.28566 23.076C4.31487 23.0516 4.3509 23.0409 4.39375 23.0409C4.41323 23.0409 4.42783 23.0409 4.43757 23.0419L4.46679 23.0458L4.496 23.0487C4.51547 23.0487 4.52619 23.039 4.53008 23.0214ZM3.88154 20.5217C5.239 20.5217 6.33939 21.6221 6.33939 22.9796C6.33939 24.337 5.239 25.4374 3.88154 25.4374C3.00804 25.4374 2.24167 24.9826 1.80541 24.2961L2.99149 23.4158L2.98467 23.3993L2.99052 23.3954L2.99149 23.3934C2.81816 23.0292 2.87853 22.5822 3.17749 22.2833C3.35861 22.1022 3.59427 22.0087 3.83285 22.0019V21.5198C5.82522 21.7681 5.23803 23.6485 5.18837 23.6631H5.18739L5.67916 23.9582C6.168 23.0263 5.83302 21.1459 3.83285 20.9502V21.3991C3.827 21.4001 2.16377 21.5189 2.32736 23.2649L1.5717 23.8248C1.47529 23.5619 1.42368 23.2766 1.42368 22.9796C1.42368 21.6221 2.52407 20.5217 3.88154 20.5217V20.5217ZM42.0708 20.5217C43.4272 20.5217 44.5286 21.6221 44.5286 22.9796C44.5286 24.337 43.4272 25.4374 42.0708 25.4374C41.1973 25.4374 40.4299 24.9826 39.9946 24.2961L41.1817 23.4158L41.1739 23.3993L41.1797 23.3954L41.1817 23.3934C41.0074 23.0292 41.0687 22.5822 41.3667 22.2833C41.5478 22.1022 41.7835 22.0087 42.0221 22.0019V21.5198C44.0144 21.7681 43.4263 23.6485 43.3776 23.6631H43.3766L43.8674 23.9582C44.3572 23.0263 44.0222 21.1459 42.0221 20.9502V21.3991C42.0162 21.4001 40.353 21.5189 40.5156 23.2649L39.7619 23.8248C39.6645 23.5619 39.6129 23.2766 39.6129 22.9796C39.6129 21.6221 40.7133 20.5217 42.0708 20.5217V20.5217Z" fill="#6E0A78"/>
</svg>
