<svg width="47" height="46" viewBox="0 0 47 46" fill="none" xmlns="http://www.w3.org/2000/svg">
<path fill-rule="evenodd" clip-rule="evenodd" d="M12.0394 6.13672C15.403 3.75777 19.5096 2.36 23.9426 2.36C35.3434 2.36 44.5846 11.6005 44.5846 23.0001C44.5846 32.1104 38.6815 39.8427 30.4908 42.5801L30.2673 41.989C30.3505 41.9982 30.429 41.9982 30.5047 41.9881C30.5796 41.9779 30.6701 41.9529 30.7782 41.9123C30.9676 41.8411 31.1238 41.7423 31.2448 41.6194C31.3659 41.4956 31.4527 41.3496 31.5054 41.1824C31.559 41.0142 31.5765 40.8285 31.558 40.6243C31.5405 40.4201 31.4878 40.203 31.401 39.9739C31.2217 39.4999 31.0111 39.1876 30.7681 39.0361C30.5251 38.8836 30.2405 38.8697 29.9162 38.9926C29.7397 39.0582 29.6021 39.1469 29.5041 39.2587C29.4062 39.3696 29.3378 39.51 29.299 39.68L29.2787 39.6884L29.0782 39.3955L28.5866 39.5812L29.8026 42.7967C28.4033 43.2102 26.9421 43.4794 25.4361 43.5871L25.4242 42.4563L25.0195 42.4609L24.9964 40.2471L24.2767 40.2554L24.2998 42.4683L23.4405 42.4775L23.4174 40.2647L22.6977 40.2721L22.7272 43.1465L24.8218 43.1243L24.8895 43.6189C24.5756 43.6331 24.26 43.6403 23.9426 43.6403C21.4453 43.6403 19.0515 43.1966 16.8359 42.3839L17.0017 41.9614C17.0341 41.99 17.0784 42.0187 17.1366 42.0473C17.1939 42.076 17.2383 42.0972 17.2678 42.1083C17.436 42.1748 17.5977 42.1988 17.7511 42.1804C17.9054 42.1637 18.0523 42.1074 18.1918 42.014C18.3313 41.9207 18.4588 41.7923 18.5761 41.6297C18.6926 41.468 18.7951 41.274 18.8838 41.0494C19.0695 40.5755 19.1185 40.1994 19.0298 39.9241C18.9411 39.6488 18.7277 39.4436 18.3895 39.3115C18.3461 39.2939 18.298 39.2782 18.25 39.2625C18.2001 39.2477 18.1419 39.233 18.0772 39.22L18.4865 38.176L17.8157 37.9127L17.4083 38.9512C17.3455 38.9105 17.266 38.8708 17.169 38.8329C16.8188 38.6952 16.5037 38.7082 16.2256 38.8708C15.9475 39.0334 15.7193 39.3429 15.5401 39.8003C15.3525 40.278 15.298 40.666 15.3747 40.9644C15.4523 41.2619 15.6482 41.4735 15.9605 41.5964C16.0122 41.6158 16.0704 41.6371 16.1351 41.6583C16.2007 41.6796 16.2663 41.6907 16.3328 41.6925L16.1639 42.1239C12.936 40.8093 10.1156 38.7009 7.94517 36.0412L8.4689 35.6135C8.48553 35.6948 8.5114 35.7696 8.54466 35.838C8.57792 35.9063 8.63059 35.984 8.70358 36.0736C8.83201 36.2297 8.97429 36.3471 9.12952 36.4228C9.28566 36.4977 9.45105 36.5337 9.6266 36.5309C9.80307 36.5282 9.98509 36.4857 10.1727 36.4034C10.3611 36.3212 10.5496 36.202 10.74 36.0468C11.1317 35.7271 11.3608 35.4277 11.4274 35.1487C11.4948 34.8697 11.4181 34.5962 11.1982 34.3273C11.079 34.1813 10.9515 34.0797 10.8148 34.0215C10.6781 33.9642 10.5228 33.9439 10.35 33.9614L10.3353 33.9439L10.5496 33.6621L10.217 33.2546L7.49944 35.4752C4.86688 32.0101 3.30434 27.6875 3.30434 23.0001C3.30434 17.0916 5.78665 11.7632 9.76509 8.00075L12.2429 11.0459L12.9322 10.4851L11.708 8.9809L11.8891 8.834L14.1546 9.49091L15.0046 8.79888L12.485 8.09855L12.0443 8.13087L12.1607 7.71879L12.0394 6.13672ZM11.269 6.70882C10.9813 6.93299 10.6997 7.16461 10.4245 7.4034L11.3356 8.52355L11.4391 8.32213L11.269 6.70882ZM23.9426 0C11.2412 0 0.944336 10.297 0.944336 23.0001C0.944336 35.7023 11.2412 46.0003 23.9426 46.0003C36.6467 46.0003 46.9446 35.7024 46.9446 23.0001C46.9446 10.2969 36.6466 0 23.9426 0ZM23.5388 3.80862L22.515 3.85297L22.6241 6.3467L21.7814 6.38367L21.641 3.14431L24.3491 3.02697L24.4895 6.26632L23.6469 6.30327L23.5388 3.80862ZM20.0628 4.52097L20.1893 5.1853L20.5793 6.61834L21.3609 6.40583L20.5109 3.27642L19.6609 3.50833L19.3134 4.85267L19.2423 5.30817L19.2164 5.31465L18.9346 4.96817L17.8952 3.98695L17.0507 4.21701L17.9007 7.34548L18.626 7.14869L18.2352 5.70917L17.9783 5.08643L18.0171 5.07626L18.4006 5.54933L19.3088 6.34484L19.6026 6.26539L19.9269 5.13541L20.0314 4.52929L20.0628 4.52097ZM14.1311 7.48783C13.8752 7.00183 13.7966 6.56574 13.8946 6.17953C13.9943 5.7924 14.2567 5.48563 14.6855 5.26018C14.9155 5.13822 15.1326 5.06985 15.3396 5.05415C15.5466 5.03844 15.7397 5.0671 15.9198 5.14009C16.1009 5.21308 16.2682 5.3295 16.4225 5.48749C16.5768 5.64549 16.7135 5.83674 16.8318 6.06311C17.0886 6.54818 17.1681 6.98427 17.0711 7.36956C16.9741 7.75669 16.7117 8.06159 16.283 8.28796C16.0538 8.40899 15.8358 8.47829 15.6297 8.49307C15.4228 8.5097 15.2278 8.48107 15.0458 8.409C14.8638 8.33693 14.6947 8.22144 14.5404 8.06344C14.387 7.90545 14.2503 7.71327 14.1311 7.48783ZM14.8998 7.08223C14.9663 7.20788 15.0393 7.31874 15.1188 7.41483C15.1982 7.50907 15.2814 7.58483 15.3701 7.64027C15.4579 7.69663 15.5512 7.72712 15.6491 7.73174C15.7471 7.73636 15.8469 7.71143 15.9503 7.65692C16.1453 7.55436 16.2534 7.40652 16.2746 7.21527C16.295 7.02309 16.2247 6.77361 16.064 6.46779C15.9245 6.20446 15.7683 6.01414 15.5946 5.89772C15.4209 5.78223 15.2287 5.77945 15.0181 5.89032C14.8351 5.98734 14.7289 6.13239 14.6975 6.32365C14.666 6.51583 14.7344 6.76901 14.8998 7.08223ZM12.5746 17.2104L12.5385 17.6733V18.6933H13.0947V16.4666H12.4896L12.0175 17.2954L11.8882 17.5846H11.8706L11.7459 17.3037L11.2341 16.4666H10.6327V18.6933H11.1491V17.6687L11.0918 17.2104H11.1177L11.2877 17.5938L11.7459 18.2831H11.9547L12.3741 17.5938L12.5515 17.2104H12.5746ZM15.0163 18.6822C15.1687 18.6333 15.2897 18.5732 15.3784 18.5021L15.1881 18.1232C15.1373 18.1621 15.0643 18.2 14.9682 18.2369C14.8722 18.2739 14.7641 18.2923 14.6421 18.2923C14.4472 18.2923 14.3058 18.2452 14.2181 18.15C14.1312 18.0549 14.0832 17.9145 14.074 17.7269H15.4052C15.4209 17.6493 15.432 17.5754 15.4385 17.5042C15.4459 17.4331 15.4505 17.3666 15.4505 17.3037C15.4505 17.1319 15.4246 16.9877 15.3747 16.8722C15.3239 16.7568 15.2574 16.6644 15.1743 16.596C15.0911 16.5276 14.996 16.4786 14.8888 16.4491C14.7825 16.4195 14.6726 16.4047 14.5599 16.4047C14.2209 16.4047 13.9585 16.5027 13.7709 16.6985C13.5843 16.8944 13.491 17.1882 13.491 17.58C13.491 17.9449 13.5742 18.2323 13.7405 18.442C13.9067 18.6508 14.1691 18.7562 14.5285 18.7562C14.7003 18.7562 14.8629 18.7312 15.0163 18.6822ZM14.2181 17.0034C14.2901 16.9129 14.4019 16.8676 14.5525 16.8676C14.6828 16.8676 14.7779 16.911 14.8389 16.997C14.899 17.0829 14.9239 17.2058 14.911 17.3665H14.0878C14.1026 17.215 14.146 17.094 14.2181 17.0034ZM16.4381 17.8156H17.1642V18.6933H17.7425V16.4666H17.1642V17.3037H16.4381V16.4666H15.8597V18.6933H16.4381V17.8156ZM19.6687 18.6822C19.8221 18.6333 19.9431 18.5732 20.0318 18.5021L19.8415 18.1232C19.7907 18.1621 19.7168 18.2 19.6216 18.2369C19.5255 18.2739 19.4174 18.2923 19.2955 18.2923C19.0996 18.2923 18.9592 18.2452 18.8715 18.15C18.7846 18.0549 18.7366 17.9145 18.7273 17.7269H20.0586C20.0734 17.6493 20.0845 17.5754 20.0918 17.5042C20.0992 17.4331 20.1029 17.3666 20.1029 17.3037C20.1029 17.1319 20.078 16.9877 20.0272 16.8722C19.9773 16.7568 19.9098 16.6644 19.8276 16.596C19.7436 16.5276 19.6493 16.4786 19.5422 16.4491C19.435 16.4195 19.3251 16.4047 19.2133 16.4047C18.8742 16.4047 18.6119 16.5027 18.4243 16.6985C18.2368 16.8944 18.1435 17.1882 18.1435 17.58C18.1435 17.9449 18.2266 18.2323 18.3929 18.442C18.5601 18.6508 18.8225 18.7562 19.1809 18.7562C19.3537 18.7562 19.5163 18.7312 19.6687 18.6822ZM18.8715 17.0034C18.9435 16.9129 19.0553 16.8676 19.2059 16.8676C19.3361 16.8676 19.4313 16.911 19.4914 16.997C19.5514 17.0829 19.5763 17.2058 19.5643 17.3665H18.7403C18.7551 17.215 18.7994 17.094 18.8715 17.0034ZM22.2536 19.2006H22.6767V18.1815H22.3516V16.4666H20.8014C20.8014 16.7429 20.7884 16.9822 20.7616 17.1836C20.7348 17.3859 20.7034 17.555 20.6656 17.6918C20.6295 17.8285 20.5916 17.9357 20.5547 18.0142C20.5177 18.0928 20.4872 18.1491 20.4632 18.1815H20.2009V19.2006H20.624L20.6905 18.6933H22.1862L22.2536 19.2006ZM21.7723 16.9563V18.2083H21.0425C21.0776 18.1427 21.1108 18.0604 21.1404 17.9634C21.17 17.8645 21.1958 17.7601 21.218 17.6465C21.2402 17.5347 21.2587 17.4174 21.2734 17.2972C21.2882 17.1771 21.2993 17.0635 21.3048 16.9563H21.7723ZM23.3613 18.6933L23.8158 17.7897L23.9849 17.7269V18.6933H24.5374V17.7712H24.7286L25.1831 18.6933H25.8464L25.3078 17.6918L25.0806 17.5135L25.2543 17.3712L25.7393 16.4666H25.1249L24.7064 17.3527L24.5374 17.4155V16.4666H23.9849V17.3712H23.7937L23.3798 16.4666H22.7608L23.219 17.3712L23.4463 17.5403L23.2948 17.6733L22.7119 18.6933H23.3613ZM28.0193 17.2104L27.9833 17.6733V18.6933H28.5403V16.4666H27.9343L27.4632 17.2954L27.3338 17.5846H27.3163L27.1915 17.3037L26.6788 16.4666H26.0774V18.6933H26.5938V17.6687L26.5365 17.2104H26.5624L26.7324 17.5938L27.1915 18.2831H27.4003L27.8188 17.5938L27.9971 17.2104H28.0193ZM30.461 18.6822C30.6144 18.6333 30.7354 18.5732 30.8241 18.5021L30.6338 18.1232C30.583 18.1621 30.5091 18.2 30.4139 18.2369C30.3178 18.2739 30.2088 18.2923 30.0878 18.2923C29.8919 18.2923 29.7506 18.2452 29.6637 18.15C29.5769 18.0549 29.5289 17.9145 29.5196 17.7269H30.8509C30.8657 17.6493 30.8767 17.5754 30.8841 17.5042C30.8915 17.4331 30.8952 17.3666 30.8952 17.3037C30.8952 17.1319 30.8703 16.9877 30.8195 16.8722C30.7696 16.7568 30.7021 16.6644 30.619 16.596C30.5358 16.5276 30.4416 16.4786 30.3344 16.4491C30.2273 16.4195 30.1173 16.4047 30.0046 16.4047C29.6665 16.4047 29.4041 16.5027 29.2166 16.6985C29.03 16.8944 28.9367 17.1882 28.9367 17.58C28.9367 17.9449 29.0189 18.2323 29.1852 18.442C29.3515 18.6508 29.6148 18.7562 29.9732 18.7562C30.146 18.7562 30.3086 18.7312 30.461 18.6822ZM29.6637 17.0034C29.7358 16.9129 29.8476 16.8676 29.9982 16.8676C30.1284 16.8676 30.2236 16.911 30.2836 16.997C30.3437 17.0829 30.3686 17.2058 30.3566 17.3665H29.5325C29.5473 17.215 29.5917 17.094 29.6637 17.0034ZM31.8837 17.8156H32.6089V18.6933H33.1882V16.4666H32.6089V17.3037H31.8837V16.4666H31.3045V18.6933H31.8837V17.8156ZM34.6709 16.9794H35.2982V16.4666H33.4459V16.9794H34.0741V18.6933H34.6709V16.9794ZM35.9671 16.4694C35.8036 16.4999 35.6631 16.5424 35.544 16.596L35.6816 17.0284C35.7648 16.9896 35.871 16.9582 36.0003 16.9341C36.1297 16.911 36.2516 16.899 36.3671 16.899C36.5223 16.899 36.6212 16.9351 36.6664 17.0081C36.7108 17.0811 36.7219 17.2002 36.7015 17.3665C36.5057 17.3573 36.3283 17.3638 36.1694 17.3859C36.0105 17.409 35.8738 17.4488 35.7601 17.507C35.6456 17.5643 35.5578 17.64 35.4968 17.7333C35.4359 17.8276 35.4054 17.9422 35.4054 18.0789C35.4054 18.1768 35.422 18.2655 35.4544 18.3441C35.4876 18.4226 35.5329 18.491 35.5929 18.5492C35.6521 18.6065 35.7232 18.6508 35.8063 18.6822C35.8895 18.7127 35.9837 18.7284 36.0872 18.7284C36.2535 18.7284 36.3893 18.6961 36.4946 18.6287C36.5999 18.5621 36.6821 18.4827 36.7413 18.3903H36.7644L36.8577 18.698H37.3297C37.2937 18.5908 37.2715 18.4771 37.2623 18.357C37.254 18.2369 37.2503 18.1131 37.2512 17.9856C37.2531 17.8581 37.2577 17.7278 37.2669 17.5957C37.2762 17.4636 37.2808 17.3324 37.2808 17.2012C37.2808 17.0829 37.2678 16.9757 37.2429 16.8815C37.217 16.7863 37.1745 16.7041 37.1126 16.6366C37.0526 16.5673 36.9704 16.5147 36.866 16.4777C36.7625 16.4408 36.6332 16.4223 36.4789 16.4223C36.3006 16.4223 36.1306 16.438 35.9671 16.4694ZM36.5546 18.1741C36.4863 18.2267 36.3948 18.2526 36.2784 18.2526C36.1925 18.2526 36.1251 18.2295 36.0761 18.1833C36.0271 18.1371 36.0031 18.0734 36.0031 17.9893C36.0031 17.9301 36.0216 17.8812 36.0604 17.8424C36.0992 17.8045 36.1509 17.774 36.2156 17.7537C36.2812 17.7333 36.3569 17.7195 36.441 17.7139C36.5251 17.7075 36.6138 17.7093 36.7062 17.7176V18.0078C36.6729 18.0669 36.623 18.1223 36.5546 18.1741ZM26.0318 3.16276C25.7897 3.17478 25.5782 3.20712 25.3961 3.26071L25.5089 3.91117C25.6373 3.87236 25.7962 3.84834 25.9875 3.84002C26.1787 3.83171 26.357 3.8391 26.5243 3.8622C26.746 3.89269 26.8828 3.96567 26.9327 4.08024C26.9826 4.19296 26.9752 4.3676 26.9123 4.6032C26.6315 4.55146 26.3746 4.52558 26.1408 4.52558C25.9071 4.52651 25.702 4.557 25.5255 4.61798C25.349 4.67804 25.2077 4.7695 25.1014 4.89239C24.9952 5.01527 24.9277 5.17513 24.9009 5.37193C24.8815 5.5133 24.887 5.6445 24.9185 5.76368C24.9499 5.88472 25.0025 5.9919 25.0765 6.08707C25.1504 6.18223 25.2437 6.26075 25.3583 6.32265C25.4719 6.38456 25.6031 6.42522 25.7528 6.44647C25.993 6.47973 26.1963 6.45849 26.3607 6.38365C26.5261 6.30789 26.661 6.20995 26.7654 6.08892L26.7968 6.09352L26.8708 6.55456L27.5517 6.64973C27.5212 6.48804 27.512 6.31989 27.524 6.14434C27.5351 5.96971 27.5545 5.79046 27.5813 5.6066C27.6099 5.42273 27.6423 5.23611 27.682 5.04763C27.7217 4.85822 27.7541 4.67065 27.7799 4.48216C27.8039 4.31031 27.8067 4.15415 27.7901 4.01186C27.7725 3.86958 27.7263 3.74301 27.6524 3.63306C27.5785 3.52219 27.4704 3.42979 27.3281 3.35495C27.1858 3.28104 27.0029 3.22838 26.7802 3.19696C26.5224 3.16185 26.2739 3.14983 26.0318 3.16276ZM26.5391 5.73966C26.43 5.80157 26.2924 5.82003 26.1251 5.79693C26.0004 5.7803 25.908 5.73318 25.8461 5.65742C25.7851 5.58165 25.762 5.4828 25.7787 5.36268C25.7907 5.27676 25.8286 5.21117 25.8923 5.16312C25.9551 5.11508 26.0364 5.08181 26.1344 5.0661C26.2332 5.04855 26.3432 5.04484 26.4679 5.05223C26.5908 5.06054 26.7174 5.08088 26.8486 5.1123L26.7904 5.52992C26.7312 5.60846 26.6481 5.67868 26.5391 5.73966ZM30.1522 6.1287L29.1515 5.7896L28.7413 6.99905L27.943 6.72834L28.9834 3.65807L29.7817 3.92878L29.3899 5.08279L30.3915 5.42279L30.7832 4.26786L31.5815 4.53859L30.5402 7.60886L29.7428 7.33905L30.1522 6.1287ZM33.6773 7.12374L33.4195 7.50625L32.6803 8.78685L33.4103 9.20815L35.0318 6.40029L34.5707 6.1342L32.7977 6.87058L32.3376 7.13667L32.3145 7.12374L32.5685 6.76062L33.341 5.42367L32.611 5.00237L30.9895 7.81023L31.4506 8.07631L33.182 7.38428L33.6606 7.1145L33.6773 7.12374ZM35.9251 9.72184L35.5795 9.52598L34.3572 9.98518L33.5986 9.32732L34.7406 8.96976L35.1379 8.99749C35.0002 8.8321 34.9337 8.64082 34.9392 8.42462C34.9429 8.20842 35.0279 8.00609 35.1915 7.81668C35.4493 7.51917 35.7375 7.38611 36.0572 7.4166C36.3769 7.44802 36.7409 7.6402 37.1484 7.99407C37.3055 8.12989 37.4441 8.26572 37.566 8.39877C37.687 8.53274 37.7905 8.65377 37.8746 8.76003L35.7588 11.2002L35.1222 10.6486L35.9251 9.72184ZM36.2134 9.38924L36.8001 8.7129C36.7779 8.66578 36.7483 8.62051 36.7123 8.57709C36.6753 8.53366 36.6374 8.49485 36.5986 8.46067C36.4517 8.33409 36.3104 8.26572 36.1746 8.25648C36.0387 8.24816 35.9177 8.30544 35.8105 8.43017C35.7024 8.55398 35.6673 8.68425 35.7061 8.821C35.7458 8.95774 35.853 9.09911 36.0286 9.24602L36.2134 9.38924ZM9.16606 20.306C10.4358 13.2968 16.5696 7.98096 23.9458 7.98096C31.3203 7.98096 37.4547 13.2968 38.7246 20.306H9.16606ZM38.7251 25.6927H9.16553C10.4341 32.7032 16.5686 38.0198 23.9458 38.0198C31.3214 38.0198 37.4564 32.7032 38.7251 25.6927ZM7.88499 23.0008C7.88499 14.1312 15.0752 6.94096 23.9458 6.94096C32.8145 6.94096 40.0057 14.1312 40.0057 23.0008C40.0057 31.8705 32.8145 39.0598 23.9458 39.0598C15.0753 39.0598 7.88499 31.8705 7.88499 23.0008ZM5.85676 31.3352C5.95655 31.4645 6.0665 31.5652 6.18569 31.6364L6.65228 31.2696C6.58483 31.2252 6.52016 31.1698 6.45733 31.1033C6.39542 31.0358 6.34184 30.9462 6.29656 30.8335C6.25591 30.7309 6.23928 30.6321 6.24944 30.5387C6.2596 30.4454 6.29009 30.3604 6.34184 30.2828C6.3945 30.207 6.46287 30.1377 6.54972 30.0749C6.63565 30.0121 6.73636 29.9576 6.84908 29.9123C7.12719 29.8005 7.34894 29.7672 7.51248 29.8125C7.67879 29.8578 7.79797 29.9723 7.87189 30.1581C7.91162 30.2569 7.93749 30.3493 7.94673 30.4352C7.95597 30.5212 7.95782 30.6108 7.95042 30.706L8.57963 30.6376C8.59164 30.5249 8.59164 30.4048 8.57686 30.2773C8.563 30.1497 8.51773 29.9908 8.44289 29.8033C8.29229 29.43 8.05575 29.1944 7.7333 29.0964C7.41084 28.9994 7.02371 29.0419 6.5719 29.223C6.36309 29.3071 6.1783 29.405 6.0203 29.5141C5.86138 29.624 5.7385 29.7478 5.65257 29.8855C5.56572 30.025 5.51675 30.1784 5.50659 30.3484C5.49643 30.5175 5.53154 30.7041 5.61469 30.9102C5.67659 31.0645 5.75698 31.2067 5.85676 31.3352ZM7.64764 34.1353C7.51274 34.0854 7.37045 33.994 7.22078 33.86C7.0711 33.727 6.94267 33.568 6.83549 33.3814C6.61282 32.9943 6.56662 32.6432 6.69782 32.3299C6.8281 32.0158 7.09789 31.7414 7.5072 31.5058C7.94607 31.2536 8.33321 31.1649 8.66768 31.2397C9.00307 31.3155 9.27655 31.5354 9.48629 31.9003C9.55651 32.0223 9.60733 32.1507 9.64151 32.2847C9.67385 32.4186 9.67847 32.5526 9.65352 32.6866C9.62858 32.8196 9.5676 32.9518 9.46873 33.0802C9.3708 33.2096 9.22481 33.3297 9.03263 33.4405C8.96334 33.4803 8.88572 33.52 8.80165 33.5579C8.71664 33.5958 8.62702 33.6318 8.53185 33.6651L7.70492 32.2293C7.50073 32.3595 7.37323 32.5027 7.32056 32.657C7.26882 32.8132 7.30301 32.9952 7.42405 33.2058C7.49981 33.338 7.58758 33.4415 7.68922 33.5219C7.78993 33.6022 7.87862 33.6567 7.95346 33.6854L7.64764 34.1353ZM8.96334 32.1914C8.87094 32.0287 8.74991 31.9382 8.60392 31.9188C8.45794 31.8985 8.29533 31.9299 8.117 32.0112L8.62887 32.8991C8.81551 32.8095 8.93839 32.7032 8.9966 32.5831C9.05573 32.4621 9.04464 32.3318 8.96334 32.1914ZM10.278 34.3744C10.3852 34.3892 10.4831 34.4521 10.5718 34.5602C10.6864 34.7006 10.7159 34.8457 10.6605 34.9953C10.6041 35.1459 10.4794 35.3012 10.2835 35.461C10.0128 35.6818 9.78644 35.8001 9.60442 35.8167C9.42148 35.8324 9.26441 35.7604 9.13321 35.5996C9.07039 35.522 9.02973 35.4527 9.0094 35.3899C8.99092 35.327 8.98076 35.2614 8.98076 35.1949L9.90656 34.4373C10.0479 34.38 10.1717 34.3587 10.278 34.3744ZM13.1322 37.2763L12.551 36.7533L11.069 38.397L10.5174 37.9L12.0004 36.2563L11.4201 35.7333L11.8627 35.2418L13.5748 36.7857L13.1322 37.2763ZM14.5381 38.8191L14.2914 39.1462L13.5745 40.2438L14.1778 40.6374L15.7494 38.2305L15.3688 37.982L13.7953 38.5678L13.3823 38.7858L13.3629 38.7738L13.605 38.4643L14.3533 37.3186L13.75 36.9241L12.1784 39.3319L12.5581 39.5804L14.0946 39.0316L14.5243 38.8099L14.5381 38.8191ZM18.0236 39.8049C17.9894 39.791 17.959 39.7827 17.9303 39.7772C17.9146 39.7745 17.8967 39.7711 17.8764 39.7674L17.8296 39.7587L17.1791 41.419C17.2041 41.4366 17.2327 41.4532 17.2669 41.4689C17.3029 41.4846 17.3399 41.5013 17.3806 41.516C17.5432 41.5807 17.6901 41.5567 17.8222 41.4458C17.9534 41.335 18.0837 41.115 18.2121 40.7861C18.3221 40.508 18.3636 40.2927 18.3368 40.1403C18.31 39.9878 18.2066 39.876 18.0236 39.8049ZM16.3522 41.1132C16.3901 41.128 16.4261 41.1391 16.4612 41.1465C16.4824 41.1509 16.5045 41.1554 16.5277 41.16L16.5749 41.1696L17.2235 39.5148C17.1634 39.475 17.0988 39.4418 17.0304 39.415C16.8724 39.3522 16.7264 39.3688 16.5924 39.4621C16.4585 39.5554 16.331 39.7568 16.2108 40.0636C16.1018 40.3417 16.0565 40.5699 16.076 40.7482C16.0954 40.9275 16.1868 41.0485 16.3522 41.1132ZM21.2748 41.246L21.1778 41.6433L20.9551 42.9359L21.6656 43.0578L22.1535 40.2241L21.7053 40.1474L20.494 41.3097L20.2002 41.6738L20.179 41.6701L20.2778 41.2903L20.5098 39.9414L19.8002 39.8194L19.3123 42.6531L19.7595 42.7298L20.9523 41.6165L21.2582 41.2432L21.2748 41.246ZM27.5969 40.9983L27.6477 41.4039L27.8954 42.6919L28.6031 42.5561L28.0589 39.7325L27.6126 39.8185L26.8892 41.3337L26.7432 41.7781L26.721 41.7818L26.6794 41.3919L26.4207 40.0476L25.7139 40.1843L26.2572 43.007L26.7035 42.9211L27.426 41.4585L27.5812 41.0011L27.5969 40.9983ZM29.9374 39.6597C29.8062 39.7096 29.7166 39.7826 29.6677 39.8787C29.6196 39.9748 29.6002 40.0995 29.6104 40.252L30.0326 41.3699C30.0964 41.3912 30.161 41.4023 30.2266 41.405C30.2932 41.406 30.3726 41.3894 30.4659 41.3542C30.66 41.2812 30.7782 41.1556 30.8207 40.9773C30.8642 40.7989 30.8235 40.5467 30.7006 40.2206C30.611 39.9831 30.5038 39.8149 30.3791 39.7152C30.2534 39.6145 30.1065 39.596 29.9374 39.6597ZM31.6612 38.6564C31.5965 38.9992 31.687 39.3798 31.9328 39.8002C32.0474 39.9952 32.1749 40.1606 32.3153 40.2955C32.4576 40.4313 32.6082 40.5283 32.769 40.5865C32.9298 40.6466 33.0988 40.666 33.2762 40.6466C33.4527 40.6281 33.6366 40.5616 33.8288 40.4498C34.1854 40.241 34.3961 39.9656 34.4589 39.6247C34.5226 39.2828 34.4312 38.9022 34.1854 38.4827C34.0708 38.2868 33.9433 38.1214 33.802 37.9865C33.6606 37.8516 33.5109 37.7537 33.352 37.6936C33.1931 37.6345 33.024 37.6133 32.8475 37.6327C32.6701 37.6521 32.4863 37.7176 32.295 37.8294C31.9374 38.0392 31.7268 38.3145 31.6612 38.6564ZM32.7792 39.7115C32.7062 39.6293 32.6378 39.5341 32.574 39.426C32.4151 39.1535 32.344 38.9336 32.3597 38.7645C32.3763 38.5945 32.4604 38.4651 32.6138 38.3755C32.7893 38.273 32.9547 38.2702 33.1108 38.3681C33.2661 38.4651 33.4111 38.6287 33.5442 38.8578C33.6994 39.1221 33.7733 39.3383 33.765 39.5073C33.7567 39.6774 33.6717 39.8095 33.5091 39.9046C33.4231 39.9545 33.3372 39.9785 33.2531 39.9767C33.1681 39.9758 33.0868 39.9508 33.0083 39.9037C32.9288 39.8566 32.8531 39.7928 32.7792 39.7115ZM33.796 36.9926C33.8893 36.9021 34.002 36.794 34.1369 36.6692C34.2709 36.5445 34.4187 36.4151 34.5823 36.2821C34.8964 36.0243 35.1588 35.8885 35.3685 35.8719C35.5774 35.8571 35.7585 35.943 35.9109 36.1297C35.9968 36.2331 36.0513 36.3579 36.0735 36.502C36.0966 36.6471 36.0652 36.7921 35.9784 36.9372L35.9931 36.9547C36.177 36.8633 36.3396 36.8355 36.4828 36.8697C36.6251 36.9039 36.7554 36.9926 36.8718 37.1349C37.0538 37.3576 37.1074 37.5904 37.0326 37.8353C36.9596 38.0792 36.7406 38.3499 36.3775 38.6474C36.2574 38.7453 36.1271 38.8461 35.9867 38.9486C35.8462 39.0512 35.7215 39.138 35.6115 39.2082L33.796 36.9926ZM35.7945 38.3212C35.8398 38.2945 35.8804 38.2686 35.9174 38.2436C35.9543 38.2187 35.9987 38.1854 36.0504 38.1429C36.2038 38.0163 36.2962 37.9036 36.3248 37.8057C36.3544 37.7068 36.3313 37.6117 36.2565 37.5193C36.1927 37.4435 36.1132 37.4028 36.0172 37.3992C35.9211 37.3964 35.8028 37.4537 35.6596 37.5701L35.3722 37.8057L35.7945 38.3212ZM35.3759 37.207C35.4683 37.133 35.5247 37.048 35.545 36.9538C35.5663 36.8605 35.5478 36.7773 35.4887 36.7062C35.4258 36.6295 35.3528 36.5907 35.2697 36.5916C35.1875 36.5925 35.0794 36.6471 34.9482 36.7552C34.8825 36.8088 34.8317 36.8531 34.7957 36.8882C34.7597 36.9224 34.7273 36.9538 34.6978 36.9825L35.0803 37.45L35.3759 37.207ZM36.2367 34.8289C36.1314 35.0073 36.0547 35.1736 36.0067 35.3297L36.5361 35.5755C36.5684 35.4656 36.6266 35.3399 36.7116 35.2004C36.7966 35.0599 36.8872 34.9361 36.9833 34.8299C37.1117 34.6867 37.23 34.6266 37.3362 34.6479C37.4425 34.67 37.5681 34.7615 37.7095 34.925C37.5386 35.0987 37.3972 35.2678 37.2863 35.4351C37.1755 35.6004 37.0997 35.7612 37.06 35.9174C37.0212 36.0726 37.0212 36.2195 37.06 36.3562C37.0988 36.493 37.1838 36.6205 37.3159 36.7387C37.4092 36.8228 37.5072 36.8847 37.6097 36.9226C37.7132 36.9605 37.8167 36.9762 37.922 36.9716C38.0264 36.967 38.129 36.9392 38.2278 36.8894C38.3267 36.8395 38.42 36.7665 38.5069 36.6704C38.6445 36.5161 38.7258 36.3627 38.7499 36.2075C38.773 36.0522 38.7656 35.9072 38.7268 35.7723L38.7452 35.752L39.1176 35.9312L39.5112 35.4951C39.3782 35.4351 39.2506 35.3584 39.1278 35.2623C39.0058 35.1662 38.8829 35.0627 38.7619 34.9509C38.6408 34.8391 38.5207 34.7227 38.4006 34.5998C38.2814 34.4778 38.1595 34.3596 38.0338 34.2478C37.9192 34.1443 37.8065 34.0639 37.6947 34.0057C37.5829 33.9466 37.4674 33.9161 37.3519 33.9133C37.2355 33.9106 37.1163 33.9401 36.9944 34.0048C36.8724 34.0685 36.7468 34.172 36.6183 34.3152C36.4705 34.4797 36.343 34.6506 36.2367 34.8289ZM38.3637 35.7594C38.3563 35.8675 38.3045 35.9746 38.2084 36.0818C38.1373 36.1613 38.0588 36.2038 37.9728 36.2093C37.8887 36.2149 37.8065 36.1816 37.7261 36.1095C37.6698 36.0587 37.6384 35.9987 37.6337 35.9294C37.6291 35.8601 37.643 35.7871 37.6781 35.7085C37.7123 35.63 37.7612 35.5496 37.8269 35.4656C37.8906 35.3824 37.9654 35.302 38.0514 35.2244L38.3286 35.4748C38.359 35.5561 38.3701 35.6513 38.3637 35.7594ZM40.0027 32.8021L39.5074 33.557L40.4545 34.1788L40.0599 34.7803L37.6549 33.204L38.0504 32.6016L38.954 33.1948L39.4492 32.439L38.5456 31.8467L38.9411 31.2443L41.3452 32.8206L40.9497 33.423L40.0027 32.8021ZM39.4154 30.2875C39.3674 30.4889 39.3443 30.6709 39.3452 30.8344L39.9245 30.9102C39.9217 30.7956 39.9402 30.6589 39.9799 30.4991C40.0178 30.3411 40.0677 30.196 40.1278 30.0648C40.2081 29.8902 40.3024 29.7968 40.4105 29.7858C40.5186 29.7747 40.6655 29.8255 40.8494 29.9382C40.7376 30.1553 40.6535 30.3595 40.598 30.5517C40.5417 30.743 40.5177 30.9185 40.5269 31.0793C40.5352 31.24 40.5786 31.3796 40.6572 31.4988C40.7357 31.6179 40.8549 31.714 41.0157 31.788C41.1302 31.8397 41.242 31.8693 41.3511 31.8748C41.461 31.8803 41.5645 31.8646 41.6634 31.8286C41.7622 31.7926 41.8509 31.7353 41.9313 31.6586C42.0108 31.581 42.0773 31.484 42.1318 31.3666C42.2177 31.1781 42.2482 31.0063 42.2251 30.8511C42.2011 30.6968 42.1503 30.561 42.0736 30.4445L42.0847 30.4187L42.494 30.4778L42.7379 29.9438C42.5947 29.9271 42.4496 29.8911 42.3046 29.8366C42.1586 29.7821 42.0108 29.7192 41.862 29.649C41.7123 29.5788 41.5626 29.503 41.412 29.4226C41.2614 29.3404 41.109 29.2656 40.9565 29.1954C40.817 29.1307 40.6849 29.0882 40.5602 29.0651C40.4354 29.0429 40.3172 29.0475 40.2063 29.0799C40.0936 29.1122 39.9892 29.1769 39.8922 29.2748C39.7951 29.3728 39.7064 29.5077 39.6261 29.6823C39.5337 29.8837 39.4634 30.0861 39.4154 30.2875ZM41.7225 30.5397C41.7484 30.6441 41.7308 30.7624 41.6707 30.8936C41.6264 30.9906 41.5645 31.0543 41.485 31.0858C41.4056 31.1162 41.3178 31.1089 41.2199 31.0645C41.1496 31.0322 41.1025 30.9841 41.0767 30.9204C41.0517 30.8557 41.0434 30.7809 41.0536 30.6958C41.0628 30.6108 41.0859 30.5185 41.1229 30.4196C41.1598 30.3207 41.2069 30.2219 41.2651 30.123L41.6051 30.2782C41.6578 30.3475 41.6975 30.4344 41.7225 30.5397ZM18.2814 14.8964C18.1863 14.9638 18.0662 15.0128 17.9193 15.0415C17.7724 15.071 17.6209 15.0858 17.4666 15.0858C17.28 15.0858 17.1026 15.0572 16.9354 14.999C16.7672 14.9417 16.6194 14.8474 16.4919 14.719C16.3645 14.5897 16.2628 14.4215 16.1871 14.2155C16.1113 14.0094 16.0734 13.759 16.0734 13.4652C16.0734 13.1594 16.1159 12.9034 16.2009 12.6965C16.285 12.4904 16.3949 12.3241 16.5298 12.1985C16.6647 12.0719 16.8153 11.9814 16.9816 11.9268C17.1479 11.8723 17.3142 11.8446 17.4804 11.8446C17.6588 11.8446 17.8084 11.8566 17.9322 11.8807C18.0551 11.9037 18.1567 11.9324 18.2371 11.9647L18.117 12.4812C18.0486 12.4489 17.9682 12.4249 17.874 12.4101C17.7807 12.3953 17.6671 12.3879 17.534 12.3879C17.2874 12.3879 17.0897 12.4757 16.9391 12.6512C16.7894 12.8268 16.7146 13.0984 16.7146 13.4671C16.7146 13.6278 16.7321 13.7747 16.7682 13.9069C16.8033 14.0399 16.8578 14.1526 16.9298 14.2459C17.0028 14.3393 17.0934 14.4132 17.2024 14.4649C17.3105 14.5167 17.4361 14.5425 17.5784 14.5425C17.7123 14.5425 17.825 14.5296 17.9165 14.5028C18.0089 14.476 18.0883 14.4418 18.1567 14.4003L18.2814 14.8964ZM19.9868 14.0085L20.009 13.6925H19.9961L19.8048 14.0177L19.0122 15.0239H18.6463V12.7972H19.2256V13.857L19.1988 14.16H19.2173L19.3993 13.844L20.2011 12.7972H20.5661V15.0239H19.9868V14.0085ZM22.6493 14.8853C22.5606 14.9509 22.4525 15.0008 22.3269 15.035C22.2003 15.0692 22.071 15.0858 21.937 15.0858C21.7587 15.0858 21.6082 15.0581 21.4853 15.0017C21.3624 14.9454 21.2617 14.8659 21.185 14.7634C21.1074 14.6608 21.052 14.537 21.0178 14.391C20.9836 14.2459 20.9661 14.0861 20.9661 13.9106C20.9661 13.5336 21.0511 13.2435 21.2201 13.0393C21.3892 12.8369 21.6359 12.7344 21.9592 12.7344C22.1227 12.7344 22.2539 12.7482 22.3537 12.775C22.4525 12.8018 22.5422 12.836 22.6225 12.8776L22.4849 13.3497C22.4165 13.3165 22.3491 13.2915 22.2816 13.2739C22.2151 13.2564 22.1394 13.2472 22.0525 13.2472C21.8927 13.2472 21.7708 13.2998 21.6876 13.4052C21.6045 13.5105 21.5629 13.6786 21.5629 13.9106C21.5629 14.0057 21.574 14.0935 21.5943 14.1729C21.6155 14.2533 21.646 14.3226 21.6876 14.3827C21.7292 14.4418 21.7837 14.4889 21.8502 14.5231C21.9167 14.5564 21.9952 14.5739 22.0839 14.5739C22.1819 14.5739 22.265 14.5619 22.3334 14.5361C22.4017 14.5111 22.4627 14.4806 22.5154 14.4446L22.6493 14.8853ZM24.582 13.3091H23.9538V15.0239H23.3579V13.3091H22.7297V12.7972H24.582V13.3091ZM26.5858 14.8317C26.4971 14.9038 26.3761 14.9638 26.2236 15.0128C26.0703 15.0618 25.9077 15.0858 25.7359 15.0858C25.3765 15.0858 25.1141 14.9814 24.9478 14.7717C24.7815 14.5629 24.6984 14.2755 24.6984 13.9106C24.6984 13.5188 24.7917 13.225 24.9783 13.0282C25.1659 12.8323 25.4282 12.7344 25.7673 12.7344C25.8791 12.7344 25.9899 12.7501 26.0962 12.7796C26.2033 12.8092 26.2976 12.8582 26.3816 12.9265C26.4639 12.9949 26.5313 13.0864 26.5812 13.2028C26.632 13.3183 26.6569 13.4624 26.6569 13.6343C26.6569 13.6971 26.6532 13.7636 26.6458 13.8348C26.6385 13.9059 26.6274 13.9798 26.6126 14.0574H25.2813C25.2906 14.2441 25.3386 14.3855 25.4255 14.4806C25.5132 14.5758 25.6536 14.6229 25.8495 14.6229C25.9714 14.6229 26.0795 14.6044 26.1756 14.5675C26.2717 14.5296 26.3447 14.4917 26.3955 14.4538L26.5858 14.8317ZM25.7599 13.1982C25.6093 13.1982 25.4975 13.2435 25.4255 13.334C25.3534 13.4246 25.31 13.5456 25.2943 13.6971H26.1183C26.1303 13.5364 26.1063 13.4135 26.0454 13.3275C25.9853 13.2407 25.8901 13.1982 25.7599 13.1982ZM28.9721 14.0039L29.0081 13.541H28.9859L28.8076 13.9235L28.3891 14.6137H28.1794L27.7212 13.9235L27.5521 13.541H27.5253L27.5826 13.9993V15.0239H27.0662V12.7972H27.6676L28.1794 13.6343L28.3041 13.9152H28.3226L28.451 13.626L28.9231 12.7972H29.5291V15.0239H28.9721V14.0039ZM30.0188 12.9265C30.137 12.873 30.2775 12.8305 30.441 12.8C30.6045 12.7686 30.7754 12.7529 30.9537 12.7529C31.1071 12.7529 31.2373 12.7713 31.3408 12.8083C31.4443 12.8453 31.5274 12.8979 31.5875 12.9663C31.6484 13.0347 31.6919 13.1169 31.7168 13.2111C31.7427 13.3063 31.7547 13.4135 31.7547 13.5317C31.7547 13.662 31.751 13.7941 31.7408 13.9263C31.7325 14.0584 31.727 14.1877 31.726 14.3152C31.7242 14.4437 31.7279 14.5675 31.7371 14.6876C31.7454 14.8077 31.7676 14.9213 31.8036 15.0285H31.3325L31.2382 14.7209H31.2161C31.156 14.8123 31.0738 14.8927 30.9685 14.9592C30.8641 15.0257 30.7283 15.059 30.562 15.059C30.4576 15.059 30.3643 15.0433 30.2812 15.0128C30.198 14.9814 30.1269 14.9371 30.0677 14.8788C30.0077 14.8206 29.9624 14.7523 29.9292 14.6737C29.8968 14.5952 29.8802 14.5074 29.8802 14.4095C29.8802 14.2727 29.9107 14.1572 29.9717 14.0639C30.0326 13.9706 30.1195 13.8948 30.234 13.8366C30.3486 13.7794 30.4853 13.7387 30.6442 13.7165C30.8022 13.6943 30.9805 13.6879 31.1764 13.6971C31.1967 13.5308 31.1856 13.4116 31.1403 13.3386C31.096 13.2656 30.9962 13.2296 30.8419 13.2296C30.7264 13.2296 30.6036 13.2407 30.4752 13.2647C30.3458 13.2887 30.2396 13.3192 30.1564 13.358L30.0188 12.9265ZM30.7532 14.5832C30.8687 14.5832 30.9611 14.5564 31.0285 14.5046C31.0969 14.4529 31.1477 14.3975 31.18 14.3383V14.0482C31.0886 14.0399 30.9999 14.0381 30.9158 14.0445C30.8308 14.0501 30.756 14.0639 30.6904 14.0842C30.6257 14.1046 30.574 14.1351 30.5352 14.1729C30.4964 14.2117 30.477 14.2607 30.477 14.3199C30.477 14.403 30.501 14.4677 30.55 14.5139C30.5999 14.5601 30.6664 14.5832 30.7532 14.5832ZM15.9692 27.8365H16.6722V29.5504H17.2515V27.3246H15.3899V29.5504H15.9692V27.8365ZM19.1213 28.219L19.0991 28.5359V29.5504H19.6784V27.3246H19.3135L18.5116 28.3705L18.3287 28.6865H18.3111L18.3379 28.3835V27.3246H17.7586V29.5504H18.1236L18.9171 28.5442L19.1084 28.219H19.1213ZM22.9377 30.0586H23.3562V29.0386H23.0356V27.3246H22.4564V29.0386H21.8993V27.3246H21.321V29.0386H20.7648V27.3246H20.1856V29.5504H22.8702L22.9377 30.0586ZM25.0902 29.5393C25.2427 29.4904 25.3646 29.4303 25.4533 29.3592L25.2621 28.9813C25.2122 29.0191 25.1383 29.057 25.0431 29.094C24.9461 29.1309 24.838 29.1503 24.7161 29.1503C24.5211 29.1503 24.3798 29.1023 24.293 29.0071C24.2061 28.9129 24.1572 28.7715 24.1488 28.5849H25.4801C25.4949 28.5073 25.506 28.4324 25.5133 28.3613C25.5207 28.2901 25.5244 28.2236 25.5244 28.1608C25.5244 27.9889 25.4986 27.8448 25.4487 27.7293C25.3979 27.6138 25.3314 27.5214 25.2482 27.453C25.1651 27.3847 25.0708 27.3357 24.9627 27.3062C24.8565 27.2766 24.7466 27.2618 24.6339 27.2618C24.2957 27.2618 24.0324 27.3597 23.8458 27.5556C23.6592 27.7515 23.565 28.0453 23.565 28.4371C23.565 28.802 23.6481 29.0903 23.8144 29.2991C23.9807 29.5088 24.244 29.6132 24.6024 29.6132C24.7743 29.6132 24.9378 29.5883 25.0902 29.5393ZM24.293 27.8605C24.3641 27.77 24.4768 27.7247 24.6274 27.7247C24.7567 27.7247 24.8519 27.7681 24.9129 27.854C24.9729 27.94 24.9978 28.0629 24.9858 28.2236H24.1618C24.1766 28.0721 24.22 27.9511 24.293 27.8605ZM26.3097 27.3015C26.1628 27.3108 26.0381 27.32 25.9337 27.3283V29.5458C26.0381 29.5578 26.1591 29.568 26.2986 29.5754C26.4381 29.5828 26.5702 29.5864 26.6949 29.5864C27.0719 29.5864 27.3462 29.531 27.5172 29.422C27.6881 29.3111 27.7731 29.1448 27.7731 28.9231C27.7731 28.7808 27.737 28.6634 27.6659 28.5738C27.5948 28.4833 27.4793 28.4195 27.3185 28.3835V28.3668C27.446 28.3216 27.5403 28.2504 27.5994 28.1525C27.6585 28.0545 27.6881 27.9538 27.6881 27.8494C27.6881 27.6628 27.6197 27.5224 27.4811 27.429C27.3425 27.3357 27.1107 27.2886 26.7836 27.2886C26.6146 27.2886 26.4566 27.2932 26.3097 27.3015ZM26.6 29.1174C26.5688 29.1142 26.535 29.1107 26.4991 29.1051V28.5886H26.7975C26.9462 28.5886 27.0488 28.6135 27.107 28.6625C27.1642 28.7115 27.1938 28.7743 27.1938 28.851C27.1938 28.9434 27.1596 29.0118 27.0913 29.0561C27.0229 29.1014 26.9083 29.1235 26.7485 29.1235C26.6949 29.1235 26.6506 29.1217 26.6146 29.1189L26.6 29.1174ZM27.0405 28.1636C26.9795 28.2098 26.901 28.2329 26.8067 28.2329H26.4991V27.7654C26.5314 27.7617 26.5684 27.7589 26.6081 27.7561C26.6478 27.7533 26.7023 27.7515 26.7707 27.7515C26.9074 27.7515 27.0016 27.7718 27.0534 27.8115C27.1051 27.8522 27.131 27.9104 27.131 27.988C27.131 28.0592 27.1014 28.1174 27.0405 28.1636ZM28.3514 27.5667C28.1675 27.77 28.0761 28.0601 28.0761 28.4371C28.0761 28.6126 28.0973 28.7724 28.1398 28.9184C28.1832 29.0635 28.2488 29.1882 28.3366 29.2899C28.4234 29.3924 28.5334 29.4719 28.6636 29.5282C28.7939 29.5846 28.9482 29.6132 29.1265 29.6132C29.4591 29.6132 29.7168 29.5116 29.8988 29.3083C30.0808 29.1041 30.1732 28.815 30.1732 28.4371C30.1732 28.2624 30.151 28.1017 30.1085 27.9566C30.0651 27.8116 30.0004 27.6868 29.9145 27.5843C29.8286 27.4826 29.7196 27.4032 29.5893 27.3468C29.4591 27.2904 29.3048 27.2618 29.1265 27.2618C28.7939 27.2618 28.5361 27.3634 28.3514 27.5667ZM28.6987 28.7096C28.6812 28.6255 28.672 28.5359 28.672 28.4371C28.672 28.1941 28.7126 28.0185 28.792 27.9123C28.8733 27.8051 28.9842 27.7515 29.1265 27.7515C29.29 27.7515 29.4055 27.8152 29.4738 27.9409C29.5422 28.0675 29.5764 28.2329 29.5764 28.4371C29.5764 28.6745 29.5394 28.8482 29.4646 28.9582C29.3907 29.0681 29.278 29.1235 29.1265 29.1235C29.0461 29.1235 28.9768 29.106 28.9195 29.0718C28.8613 29.0385 28.8151 28.9896 28.7791 28.9277C28.7431 28.8649 28.7172 28.7919 28.6987 28.7096ZM31.9359 28.219L31.9137 28.5359V29.5504H32.4929V27.3246H32.1271L31.3261 28.3705L31.1432 28.6865H31.1257L31.1525 28.3835V27.3246H30.5732V29.5504H30.9381L31.7317 28.5442L31.9229 28.219H31.9359ZM31.4 26.6612C31.3511 26.6132 31.316 26.5319 31.2947 26.4164L30.8051 26.5319C30.8226 26.6354 30.8559 26.7231 30.903 26.7943C30.9511 26.8654 31.0083 26.9246 31.0767 26.9698C31.1451 27.016 31.2217 27.0493 31.3077 27.0705C31.3945 27.0909 31.4832 27.102 31.5756 27.102C31.7622 27.102 31.9257 27.0548 32.0652 26.9615C32.2047 26.8682 32.2925 26.7241 32.3276 26.5319L31.8869 26.4201C31.8694 26.5337 31.8352 26.6132 31.7862 26.6612C31.7372 26.7084 31.6717 26.7324 31.5885 26.7324C31.5118 26.7324 31.449 26.7084 31.4 26.6612ZM14.8082 31.7054H14.1051V33.4193H13.5259V31.1926H15.3865V33.4193H14.8082V31.7054ZM15.8946 31.1926H16.3177L16.3842 31.4605H16.4018C16.4794 31.3469 16.5709 31.2647 16.6762 31.2111C16.7815 31.1575 16.9099 31.1307 17.0614 31.1307C17.3404 31.1307 17.5492 31.2194 17.6887 31.3959C17.8282 31.5723 17.8984 31.856 17.8984 32.2487C17.8984 32.4381 17.8753 32.6099 17.8319 32.7633C17.7866 32.9158 17.721 33.0451 17.6333 33.1523C17.5455 33.2585 17.4393 33.3408 17.3127 33.3971C17.1871 33.4535 17.042 33.4821 16.8785 33.4821C16.787 33.4821 16.7113 33.4756 16.6512 33.4618C16.5921 33.4489 16.533 33.4267 16.4739 33.3971V34.31H15.8946V31.1926ZM16.8877 31.6204C16.775 31.6204 16.6863 31.649 16.6226 31.7054C16.5588 31.7617 16.509 31.8467 16.4739 31.9585V32.8852C16.5154 32.9176 16.5598 32.9435 16.6097 32.9629C16.6586 32.9823 16.7224 32.9924 16.8027 32.9924C16.969 32.9924 17.0938 32.9333 17.1769 32.816C17.26 32.6986 17.3016 32.5055 17.3016 32.2348C17.3016 32.0389 17.2693 31.8874 17.2037 31.7811C17.1381 31.674 17.0328 31.6204 16.8877 31.6204ZM18.1922 32.3059C18.1922 31.929 18.2836 31.6389 18.4675 31.4356C18.6523 31.2323 18.91 31.1307 19.2426 31.1307C19.4209 31.1307 19.5752 31.1593 19.7054 31.2157C19.8366 31.2721 19.9447 31.3515 20.0306 31.4531C20.1165 31.5557 20.1812 31.6795 20.2246 31.8255C20.2671 31.9705 20.2893 32.1313 20.2893 32.3059C20.2893 32.6829 20.1978 32.973 20.0149 33.1772C19.8329 33.3805 19.5752 33.4821 19.2426 33.4821C19.0643 33.4821 18.91 33.4535 18.7798 33.3971C18.6495 33.3408 18.5405 33.2613 18.4527 33.1587C18.365 33.0571 18.2994 32.9324 18.2569 32.7873C18.2134 32.6413 18.1922 32.4815 18.1922 32.3059ZM18.7881 32.3059C18.7881 32.4048 18.7973 32.4944 18.8149 32.5785C18.8333 32.6607 18.8592 32.7337 18.8952 32.7966C18.9313 32.8585 18.9775 32.9065 19.0357 32.9407C19.0929 32.9749 19.1631 32.9924 19.2426 32.9924C19.3941 32.9924 19.5068 32.937 19.5807 32.827C19.6556 32.7171 19.6925 32.5434 19.6925 32.3059C19.6925 32.1017 19.6583 31.9364 19.59 31.8098C19.5216 31.6841 19.4061 31.6204 19.2426 31.6204C19.1003 31.6204 18.9895 31.674 18.9082 31.7811C18.8287 31.8874 18.7881 32.0629 18.7881 32.3059ZM22.9028 33.9275H22.4806L22.4132 33.4193H20.9166L20.8501 33.9275H20.427V32.9074H20.6893C20.7134 32.8751 20.7438 32.8187 20.7808 32.7402C20.8177 32.6617 20.8556 32.5545 20.8926 32.4177C20.9295 32.281 20.9609 32.1119 20.9887 31.9096C21.0145 31.7082 21.0284 31.4689 21.0284 31.1926H22.5786V32.9074H22.9028V33.9275ZM21.9984 32.9342V31.6832H21.5309C21.5254 31.7894 21.5152 31.9031 21.4995 32.0232C21.4857 32.1433 21.4672 32.2607 21.4441 32.3734C21.4219 32.4861 21.3961 32.5914 21.3665 32.6894C21.3369 32.7873 21.3037 32.8686 21.2686 32.9342H21.9984ZM24.029 32.4445L24.1094 32.791H24.1362L24.1934 32.4399L24.5325 31.1926H25.1284L24.4521 33.2013C24.3958 33.3676 24.3422 33.52 24.2895 33.6577C24.2378 33.7963 24.1805 33.9154 24.1186 34.0162C24.0558 34.1169 23.9865 34.1945 23.9117 34.2499C23.8359 34.3054 23.7454 34.3322 23.6419 34.3322C23.4876 34.3322 23.3638 34.3072 23.2724 34.2564L23.3795 33.7935C23.4239 33.8111 23.4682 33.8203 23.5126 33.8203C23.5809 33.8203 23.6465 33.7917 23.7112 33.7334C23.7749 33.6752 23.823 33.5708 23.8553 33.4193L22.925 31.1926H23.6197L24.029 32.4445ZM26.0818 32.4972H25.9256V33.4193H25.3473V31.1926H25.9256V32.1415L26.0642 32.0786L26.5853 31.1926H27.2033L26.6647 32.0389L26.4384 32.208L26.6869 32.3817L27.2883 33.4193H26.625L26.0818 32.4972ZM29.6968 33.9275H29.2746L29.2071 33.4193H27.5239V31.1926H28.1031V32.9074H28.7932V31.1926H29.3725V32.9074H29.6968V33.9275ZM31.3541 32.4048L31.3763 32.0879H31.3634L31.1712 32.4131L30.3785 33.4193H30.0127V31.1926H30.592V32.2524L30.5652 32.5554H30.5836L30.7666 32.2394L31.5675 31.1926H31.9324V33.4193H31.3541V32.4048ZM33.7801 32.4048L33.8023 32.0879H33.7894L33.5981 32.4131L32.8055 33.4193H32.4396V31.1926H33.0189V32.2524L32.9921 32.5554H33.0106L33.1926 32.2394L33.9944 31.1926H34.3594V33.4193H33.7801V32.4048ZM37.1046 24.2485H37.7254V21.8647H37.3337L36.4755 22.9836L36.2806 23.3236H36.2612L36.2898 22.9993V21.8647H35.6699V24.2485H36.0607L36.9106 23.1721L37.1157 22.8238H37.1305L37.1046 23.162V24.2485ZM34.723 22.4117H35.3955V21.8647H33.4102V22.4117H34.0827V24.2485H34.723V22.4117ZM32.5612 24.316C32.7044 24.316 32.8448 24.2966 32.9788 24.2615C33.1146 24.2227 33.2291 24.1709 33.3243 24.1016L33.1811 23.6286C33.1256 23.6655 33.0582 23.6997 32.9871 23.7274C32.9113 23.7533 32.8226 23.7662 32.7192 23.7662C32.624 23.7662 32.539 23.7496 32.4688 23.7126C32.3977 23.6757 32.3385 23.6258 32.2951 23.5639C32.2499 23.4983 32.2175 23.4234 32.1935 23.3384C32.1722 23.2525 32.1612 23.1592 32.1612 23.0557C32.1612 22.809 32.2046 22.6298 32.2951 22.5152C32.3838 22.4025 32.5141 22.3471 32.685 22.3471C32.7774 22.3471 32.8596 22.3554 32.9307 22.3748C33.0019 22.3942 33.0758 22.42 33.1469 22.457L33.2956 21.9507C33.2097 21.9054 33.1146 21.8684 33.0065 21.8407C32.9012 21.813 32.7598 21.7982 32.5852 21.7982C32.2388 21.7982 31.9755 21.9082 31.7935 22.1262C31.6124 22.3424 31.5219 22.6538 31.5219 23.0557C31.5219 23.2442 31.5413 23.417 31.5782 23.5722C31.6152 23.7274 31.6734 23.8595 31.7556 23.9695C31.8387 24.0804 31.945 24.1644 32.0771 24.2245C32.2092 24.2855 32.3709 24.316 32.5612 24.316ZM30.089 24.316C30.4437 24.316 30.72 24.206 30.9167 23.9898C31.1117 23.7718 31.2078 23.4622 31.2078 23.0557C31.2078 22.8691 31.1865 22.6963 31.1385 22.5411C31.0932 22.3877 31.0248 22.2537 30.9315 22.1438C30.8382 22.0357 30.7237 21.9507 30.5842 21.8888C30.4437 21.8278 30.2784 21.7982 30.089 21.7982C29.7324 21.7982 29.4552 21.9082 29.2585 22.1262C29.0617 22.3424 28.9628 22.6538 28.9628 23.0557C28.9628 23.2442 28.9869 23.417 29.034 23.5722C29.0792 23.7274 29.1485 23.8595 29.2418 23.9695C29.3361 24.0804 29.4534 24.1644 29.592 24.2245C29.7324 24.2855 29.8959 24.316 30.089 24.316ZM27.9143 24.2485H28.5351V21.8647H27.9143V22.7619H27.1383V21.8647H26.5165V24.2485H27.1383V23.3089H27.9143V24.2485ZM25.3793 24.316C25.5215 24.316 25.6601 24.2966 25.7941 24.2615C25.9308 24.2227 26.0454 24.1709 26.1396 24.1016L25.9973 23.6286C25.941 23.6655 25.8763 23.6997 25.8024 23.7274C25.7285 23.7533 25.6407 23.7662 25.5345 23.7662C25.4393 23.7662 25.3552 23.7496 25.286 23.7126C25.2121 23.6757 25.1566 23.6258 25.1114 23.5639C25.0679 23.4983 25.0337 23.4234 25.0116 23.3384C24.9876 23.2525 24.9774 23.1592 24.9774 23.0557C24.9774 22.809 25.0227 22.6298 25.1114 22.5152C25.1991 22.4025 25.3312 22.3471 25.5021 22.3471C25.5954 22.3471 25.6749 22.3554 25.747 22.3748C25.8199 22.3942 25.8911 22.42 25.965 22.457L26.1119 21.9507C26.025 21.9054 25.9308 21.8684 25.8246 21.8407C25.7165 21.813 25.576 21.7982 25.4005 21.7982C25.055 21.7982 24.7908 21.9082 24.6116 22.1262C24.4305 22.3424 24.339 22.6538 24.339 23.0557C24.339 23.2442 24.3566 23.417 24.3935 23.5722C24.4305 23.7274 24.4887 23.8595 24.5728 23.9695C24.655 24.0804 24.7612 24.1644 24.8924 24.2245C25.0264 24.2855 25.1871 24.316 25.3793 24.316ZM23.3819 23.9242L23.4817 24.2531H23.987C23.9482 24.1386 23.9242 24.0175 23.9131 23.8882C23.9048 23.7607 23.9011 23.6286 23.903 23.49C23.9048 23.3541 23.9094 23.2137 23.9205 23.0733C23.9288 22.9328 23.9353 22.7915 23.9353 22.651C23.9353 22.5235 23.9205 22.4089 23.8937 22.3101C23.866 22.2084 23.8207 22.1198 23.7561 22.0458C23.6886 21.9729 23.6027 21.9165 23.49 21.8758C23.3801 21.8389 23.2415 21.8167 23.0752 21.8167C22.8849 21.8167 22.7038 21.8342 22.5283 21.8675C22.3528 21.9017 22.2022 21.947 22.0738 22.0033L22.2234 22.4653C22.3121 22.4246 22.4239 22.3923 22.5625 22.3655C22.7011 22.3406 22.8332 22.3276 22.956 22.3276C23.1223 22.3276 23.2286 22.3655 23.2757 22.444C23.3237 22.5217 23.3367 22.651 23.3145 22.8284C23.1057 22.8183 22.9145 22.8266 22.7445 22.8506C22.5736 22.8718 22.4295 22.9171 22.3057 22.9781C22.1846 23.0381 22.0895 23.1222 22.0248 23.2202C21.9592 23.3218 21.9269 23.4447 21.9269 23.5898C21.9269 23.6951 21.9444 23.7902 21.9795 23.8752C22.0137 23.9584 22.0636 24.0305 22.1283 24.0951C22.1902 24.1552 22.2669 24.2033 22.3555 24.2356C22.4461 24.2698 22.5459 24.2883 22.6558 24.2883C22.835 24.2883 22.9801 24.2513 23.0928 24.1792C23.2045 24.1081 23.2932 24.024 23.3579 23.9242H23.3819ZM20.9264 24.2485H21.5463V21.8647H19.5517V24.2485H20.1725V22.4117H20.9264V24.2485ZM18.0024 24.316C18.359 24.316 18.6352 24.206 18.8302 23.9898C19.027 23.7718 19.124 23.4622 19.124 23.0557C19.124 22.8691 19.0999 22.6963 19.0547 22.5411C19.0076 22.3877 18.9401 22.2537 18.8477 22.1438C18.7544 22.0357 18.638 21.9507 18.4994 21.8888C18.359 21.8278 18.1946 21.7982 18.0024 21.7982C17.6477 21.7982 17.3714 21.9082 17.1747 22.1262C16.976 22.3424 16.8781 22.6538 16.8781 23.0557C16.8781 23.2442 16.9021 23.417 16.9474 23.5722C16.9927 23.7274 17.0619 23.8595 17.1571 23.9695C17.2504 24.0804 17.3687 24.1644 17.5072 24.2245C17.6477 24.2855 17.8121 24.316 18.0024 24.316ZM16.3136 24.0915C16.3986 24.0259 16.4605 23.9529 16.5021 23.8642C16.5428 23.7773 16.5631 23.6821 16.5631 23.5805C16.5631 23.4188 16.528 23.2913 16.4587 23.1943C16.3894 23.0973 16.2711 23.0298 16.1021 22.991V22.9707C16.1649 22.9476 16.2185 22.9199 16.2665 22.8783C16.3118 22.8395 16.3506 22.7915 16.3829 22.7416C16.4153 22.6907 16.4374 22.6381 16.4522 22.5817C16.4679 22.5263 16.4716 22.4718 16.4716 22.4182C16.4716 22.2241 16.4051 22.0763 16.2711 21.9747C16.1353 21.8731 15.9312 21.8213 15.6596 21.8213C15.4803 21.8213 15.3131 21.8435 15.1561 21.8814C14.9981 21.923 14.8725 21.9682 14.7754 22.0227L14.9094 22.4939C14.9676 22.4588 15.0434 22.4265 15.1385 22.3942C15.2337 22.3618 15.3436 22.3471 15.4674 22.3471C15.5986 22.3471 15.6965 22.3655 15.7584 22.4025C15.8212 22.4376 15.8536 22.4986 15.8536 22.5845C15.8536 22.6584 15.8166 22.7166 15.7473 22.7619C15.6743 22.8053 15.5838 22.8284 15.4729 22.8284H15.1819V23.2608H15.4147C15.6189 23.2608 15.7566 23.2821 15.8323 23.319C15.9081 23.3588 15.9441 23.417 15.9441 23.4983C15.9441 23.684 15.8 23.7755 15.5099 23.7755C15.3852 23.7755 15.2679 23.7625 15.1644 23.7385C15.0628 23.7126 14.9741 23.6785 14.9002 23.6387L14.7671 24.1192C14.853 24.1691 14.9593 24.2097 15.0886 24.2467C15.2161 24.2836 15.3695 24.3012 15.545 24.3012C15.7178 24.3012 15.8693 24.2836 15.9968 24.2448C16.1242 24.206 16.2296 24.1552 16.3136 24.0915ZM14.4493 23.2137C14.4641 23.1315 14.477 23.0511 14.4835 22.9753C14.4928 22.9005 14.4964 22.8284 14.4964 22.7619C14.4964 22.578 14.4687 22.4219 14.4142 22.299C14.3597 22.1761 14.2886 22.0763 14.1999 22.0033C14.1121 21.9313 14.0105 21.8777 13.896 21.8472C13.7814 21.8148 13.6641 21.7982 13.543 21.7982C13.18 21.7982 12.8991 21.9036 12.6977 22.1133C12.4991 22.323 12.3975 22.6381 12.3975 23.0557C12.3975 23.4493 12.4862 23.7533 12.6663 23.9787C12.8428 24.2033 13.1236 24.316 13.5089 24.316C13.6918 24.316 13.8673 24.2901 14.0318 24.2356C14.1944 24.1866 14.3237 24.1192 14.4188 24.0434L14.2156 23.6387C14.162 23.6785 14.0835 23.7209 13.98 23.7607C13.8756 23.7986 13.7611 23.8207 13.6317 23.8207C13.422 23.8207 13.2705 23.769 13.1781 23.6655C13.0848 23.5657 13.0331 23.4142 13.0229 23.2137H14.4493ZM10.9729 24.316C11.3258 24.316 11.5984 24.2033 11.7924 23.9824C11.9873 23.7579 12.0843 23.4336 12.0843 23.0058C12.0843 22.6316 11.9975 22.36 11.8293 22.1826C11.6584 22.0052 11.4275 21.9183 11.1401 21.9183C10.9628 21.9183 10.8094 21.9488 10.6838 22.0116C10.5581 22.0726 10.451 22.1743 10.3577 22.3119H10.3447C10.3613 22.1456 10.3918 22.0117 10.4306 21.9082C10.4722 21.8038 10.5258 21.7262 10.5905 21.6707C10.6579 21.6116 10.7383 21.5728 10.8307 21.5515C10.9221 21.5275 11.0274 21.5127 11.1485 21.5053C11.3489 21.4905 11.5078 21.4711 11.6261 21.4499C11.7425 21.4277 11.833 21.3889 11.8968 21.3307L11.8746 20.7819C11.8164 20.8373 11.7296 20.8743 11.6113 20.8983C11.4949 20.9242 11.3517 20.9436 11.1873 20.9611C11.0598 20.9722 10.9387 20.987 10.8242 21.0073C10.7096 21.0258 10.6034 21.0581 10.5018 21.1062C10.4029 21.1487 10.3124 21.2143 10.232 21.2937C10.1498 21.3723 10.0805 21.4794 10.0223 21.6116C9.96133 21.7455 9.91606 21.91 9.88649 22.105C9.85416 22.299 9.83846 22.5309 9.83846 22.8053C9.83846 23.3218 9.93638 23.7043 10.1285 23.9482C10.3225 24.1949 10.6034 24.316 10.9729 24.316ZM13.1781 22.4394C13.2539 22.3424 13.3721 22.2944 13.5347 22.2944C13.6752 22.2944 13.774 22.3406 13.8414 22.433C13.9043 22.5235 13.9329 22.6584 13.92 22.8284H13.0377C13.0525 22.6667 13.0978 22.5365 13.1781 22.4394ZM10.6034 22.6131C10.6884 22.4986 10.8177 22.4422 10.9914 22.4422C11.1549 22.4422 11.2695 22.4958 11.3388 22.6085C11.4099 22.7203 11.4441 22.8783 11.4441 23.0862C11.4441 23.3135 11.4071 23.4881 11.3323 23.6092C11.2565 23.732 11.1355 23.7902 10.9628 23.7902C10.7983 23.7902 10.6745 23.7256 10.5951 23.5898C10.5175 23.4576 10.4759 23.2895 10.4759 23.0862C10.4759 22.8848 10.5193 22.7296 10.6034 22.6131ZM17.6458 22.4939C17.7327 22.3812 17.8509 22.323 18.0024 22.323C18.1798 22.323 18.3027 22.3923 18.3738 22.5263C18.4496 22.6621 18.4837 22.8377 18.4837 23.0557C18.4837 23.3107 18.4459 23.4964 18.3655 23.6156C18.2851 23.732 18.1669 23.7902 18.0024 23.7902C17.9183 23.7902 17.8444 23.7736 17.7816 23.7366C17.7197 23.6997 17.6689 23.648 17.632 23.5805C17.5941 23.514 17.5654 23.4364 17.546 23.3477C17.5266 23.259 17.5156 23.162 17.5156 23.0557C17.5156 22.797 17.559 22.6085 17.6458 22.4939ZM29.7296 22.4939C29.8165 22.3812 29.9356 22.323 30.089 22.323C30.2636 22.323 30.3874 22.3923 30.4604 22.5263C30.5343 22.6621 30.5685 22.8377 30.5685 23.0557C30.5685 23.3107 30.5297 23.4964 30.4493 23.6156C30.3717 23.732 30.2507 23.7902 30.089 23.7902C30.0022 23.7902 29.9292 23.7736 29.8663 23.7366C29.8035 23.6997 29.7536 23.648 29.7167 23.5805C29.6779 23.514 29.6502 23.4364 29.6308 23.3477C29.6104 23.259 29.6021 23.162 29.6021 23.0557C29.6021 22.797 29.6455 22.6085 29.7296 22.4939ZM22.6271 23.3384C22.6687 23.2978 22.7251 23.2654 22.7944 23.2414C22.8655 23.2202 22.9459 23.2072 23.0364 23.2008C23.1269 23.1943 23.2203 23.1961 23.3191 23.2045V23.514C23.2849 23.5768 23.2304 23.6387 23.1565 23.6932C23.0835 23.7496 22.9865 23.7755 22.8609 23.7755C22.7703 23.7755 22.6964 23.7533 22.6447 23.7025C22.593 23.6544 22.5653 23.5833 22.5653 23.4946C22.5653 23.4318 22.5865 23.38 22.6271 23.3384ZM10.2052 10.6927C9.51134 11.0798 8.91448 11.586 8.3675 12.1542C7.27355 13.2933 6.45401 14.6134 5.82573 16.0546C5.46446 16.8805 5.16788 17.7296 4.9526 18.6054C4.58949 20.0835 4.51742 21.5856 4.61444 23.097C4.69667 24.3609 4.9526 25.5877 5.48387 26.7444C5.62616 27.052 5.786 27.3476 5.98557 27.622C5.16418 24.6269 5.25843 21.6309 6.04655 18.6571C6.82913 15.6962 8.13189 12.9903 10.2052 10.6927ZM39.4887 12.1745C38.9418 11.6073 38.3467 11.101 37.651 10.7148C39.7243 13.0115 41.028 15.7202 41.8106 18.6802C42.5969 21.6522 42.6921 24.6482 41.8707 27.6433C42.0693 27.3689 42.2292 27.0723 42.3724 26.7684C42.9055 25.6099 43.1587 24.3821 43.2409 23.1174C43.3388 21.6069 43.2668 20.1047 42.9046 18.6285C42.6893 17.7517 42.3918 16.9036 42.0305 16.0759C41.4013 14.6347 40.5845 13.3136 39.4887 12.1745Z" fill="#6E0A78"/>
</svg>
