<svg width="361" height="448" viewBox="0 0 361 448" fill="none" xmlns="http://www.w3.org/2000/svg">
<path fill-rule="evenodd" clip-rule="evenodd" d="M133.271 23.0194C133.27 21.322 132.883 19.6471 132.137 18.122C131.392 16.5969 130.309 15.2617 128.971 14.2181C127.632 13.1745 126.073 12.4498 124.412 12.0993C122.751 11.7487 121.033 11.7814 119.386 12.195C117.788 8.04656 114.788 4.58819 110.907 2.41942C107.026 0.250653 102.509 -0.491788 98.1382 0.3208C93.7673 1.13339 89.8186 3.44978 86.9765 6.86842C84.1344 10.2871 82.5781 14.5924 82.5774 19.0382C81.5062 17.9701 80.2291 17.1309 78.8236 16.5716C77.418 16.0123 75.9135 15.7447 74.4013 15.7849C72.8891 15.8251 71.4009 16.1723 70.0271 16.8055C68.6533 17.4386 67.4225 18.3445 66.4096 19.468C65.3967 20.5916 64.6228 21.9093 64.1349 23.3412C63.6471 24.773 63.4554 26.2891 63.5716 27.7974C63.6878 29.3056 64.1094 30.7745 64.8109 32.1147C65.5123 33.455 66.4789 34.6386 67.652 35.5937L67.6715 35.606C69.0767 36.7477 70.7396 37.5288 72.5155 37.8813C78.2467 39.7021 87.0328 40.5404 97.8205 40.5404C110.529 40.5404 119.572 39.1937 127.789 32.6316C129.05 31.8844 130.153 30.8972 131.034 29.7257C131.082 29.6781 131.13 29.631 131.179 29.584L131.179 29.5838L131.179 29.5835C131.227 29.5366 131.275 29.4897 131.323 29.4422C131.336 29.4295 131.346 29.4142 131.352 29.3974C131.359 29.3806 131.362 29.3626 131.362 29.3445V29.2785C132.612 27.4311 133.277 25.2501 133.271 23.0194ZM39.4997 93.8487H39.0573C36.4227 92.3408 32.9474 91.4218 29.1348 91.4218C20.9034 91.4218 14.2264 95.6963 14.2264 100.97C14.2264 106.245 20.8985 110.519 29.1348 110.519C30.3882 110.521 31.6396 110.419 32.8765 110.216C34.9961 111 37.2398 111.395 39.4997 111.382C46.8488 111.382 52.8048 107.457 52.8048 102.613C52.8048 97.7689 46.8463 93.8487 39.4997 93.8487ZM397.625 139.378C399.187 142.575 399.999 146.085 400 149.642C400.009 154.318 398.609 158.888 395.984 162.757C395.999 162.803 395.999 162.85 395.999 162.896C395.999 162.907 395.999 162.918 395.998 162.929C395.998 162.933 395.997 162.936 395.997 162.94C395.995 162.951 395.993 162.962 395.991 162.972C395.988 162.984 395.984 162.995 395.98 163.006C395.966 163.041 395.945 163.072 395.918 163.099C395.716 163.302 395.515 163.495 395.312 163.695C393.465 166.151 391.154 168.22 388.511 169.786C371.268 183.541 352.34 186.363 325.7 186.363C303.093 186.363 284.676 184.606 272.666 180.791C268.944 180.052 265.459 178.416 262.513 176.023L262.474 175.996C258.727 172.948 256.015 168.814 254.712 164.163C253.409 159.511 253.577 154.571 255.195 150.019C256.813 145.467 259.8 141.528 263.747 138.743C267.693 135.957 272.405 134.462 277.236 134.463C277.845 134.463 278.448 134.486 279.045 134.531C280.929 124.667 290.148 117.179 301.238 117.179H301.888C306.186 111.522 311.917 107.115 318.487 104.412C325.058 101.71 332.231 100.811 339.265 101.807C346.299 102.803 352.94 105.66 358.502 110.08C364.063 114.501 368.344 120.327 370.902 126.955C374.352 126.088 377.954 126.02 381.435 126.755C384.916 127.49 388.183 129.009 390.989 131.196C393.794 133.384 396.064 136.182 397.625 139.378ZM271.766 66.5103V66.4883C271.793 66.2072 271.813 65.9237 271.813 65.6402C271.813 58.4549 262.975 52.6284 252.07 52.6284H251.415C251.343 52.5876 251.269 52.5475 251.194 52.5073C251.135 52.4754 251.075 52.4434 251.017 52.4109C251.054 52.0467 251.078 51.6777 251.078 51.3087C251.078 43.4684 242.908 37.114 232.829 37.114C222.75 37.114 214.58 43.4684 214.58 51.3087C214.586 53.2542 215.085 55.1663 216.031 56.8663C215.023 56.7337 214.008 56.6668 212.991 56.6659C202.912 56.6659 194.742 63.0203 194.742 70.8606C194.764 73.3951 195.601 75.8554 197.129 77.8772C198.064 79.3363 199.33 80.5539 200.825 81.4308C204.053 83.6793 208.316 85.0479 212.991 85.0479C213.6 85.0479 214.201 85.0235 214.795 84.9795C219.424 85.3157 224.204 85.2094 228.262 85.1192C229.926 85.0822 231.468 85.0479 232.829 85.0479C241.493 85.0479 262.983 80.6487 269.75 71.4105C270.835 70.0224 271.526 68.3676 271.749 66.6202C271.754 66.5934 271.761 66.5518 271.766 66.5103ZM227.156 244.96C228.861 244.889 230.575 244.853 232.301 244.853C289.344 244.853 335.589 284.015 335.589 332.316C335.589 380.616 289.346 419.774 232.301 419.774C219.889 419.799 207.549 417.894 195.722 414.128C178.797 434.555 150.618 447.929 118.714 447.929C66.9555 447.929 24.9947 412.728 24.9947 369.306C24.9947 355.485 29.2447 342.497 36.7111 331.211C14.1434 309.772 0 279.02 0 244.853C0 180.065 50.852 127.541 113.579 127.541C176.307 127.541 227.156 180.065 227.156 244.853V244.96Z" fill="white"/>
<path d="M162.505 333.816H70.4306C64.4193 333.818 58.5948 331.727 53.9569 327.902C49.319 324.078 46.1569 318.758 45.0132 312.857H187.916C186.772 318.757 183.611 324.076 178.975 327.9C174.338 331.724 168.516 333.816 162.505 333.816Z" fill="#94319F"/>
<path d="M50.4097 308.284H182.747L192.972 255.831H40.1743L50.4097 308.284Z" fill="#E9ECFF"/>
<path d="M32.7275 249.423L45.0208 312.857H187.916L200.209 249.423H32.7275ZM176.906 280.396H157.715L158.962 267.418C159.16 265.345 160.124 263.419 161.666 262.018C163.207 260.618 165.215 259.841 167.298 259.842H187.31L185.186 273.32C184.876 275.293 183.872 277.09 182.354 278.388C180.836 279.685 178.905 280.397 176.908 280.396H176.906ZM155.176 306.791L156.183 296.318C156.381 294.245 157.345 292.32 158.887 290.919C160.428 289.518 162.437 288.742 164.52 288.742H182.749L181.021 299.718C180.711 301.689 179.707 303.484 178.19 304.78C176.673 306.077 174.744 306.789 172.748 306.788L155.176 306.791ZM148.348 272.631C148.194 274.741 147.247 276.714 145.698 278.155C144.149 279.595 142.112 280.396 139.997 280.396H121.422L121.564 268.124C121.589 265.92 122.482 263.815 124.05 262.265C125.617 260.716 127.733 259.847 129.937 259.847H149.271L148.348 272.631ZM121.129 306.788L121.241 297.012C121.267 294.808 122.16 292.703 123.727 291.153C125.295 289.604 127.41 288.734 129.615 288.735H147.175L146.424 299.016C146.271 301.126 145.324 303.1 143.775 304.54C142.225 305.98 140.188 306.781 138.073 306.781L121.129 306.788ZM85.7621 288.735H103.322C105.526 288.734 107.642 289.604 109.209 291.153C110.777 292.703 111.67 294.808 111.695 297.012L111.808 306.788H94.8635C92.7481 306.788 90.7111 305.988 89.1619 304.547C87.6127 303.107 86.6661 301.134 86.5124 299.024L85.7621 288.735ZM83.6529 259.837H102.992C105.196 259.837 107.312 260.706 108.879 262.256C110.447 263.805 111.34 265.911 111.365 268.115L111.507 280.386H92.9327C90.8173 280.386 88.7804 279.585 87.2311 278.145C85.6819 276.705 84.7354 274.731 84.5816 272.621L83.6529 259.837ZM50.1874 288.735H68.4171C70.5001 288.734 72.5084 289.51 74.0499 290.911C75.5913 292.312 76.5553 294.237 76.7535 296.311L77.7604 306.783H60.1882C58.1933 306.785 56.2635 306.074 54.7463 304.778C53.2292 303.483 52.2244 301.688 51.9128 299.718L50.1874 288.735ZM45.6342 259.847H65.6383C67.7212 259.846 69.7296 260.622 71.271 262.023C72.8125 263.424 73.7765 265.35 73.9747 267.423L75.2211 280.401H56.0285C54.033 280.4 52.1032 279.687 50.5869 278.39C49.0705 277.093 48.0673 275.297 47.7581 273.325L45.6342 259.847Z" fill="#B55CBF"/>
<path fill-rule="evenodd" clip-rule="evenodd" d="M29.428 230.644H203.508C206.451 230.644 208.836 233.029 208.836 235.971V244.095C208.836 247.038 206.451 249.423 203.508 249.423H134.588C134.028 250.603 133.22 251.648 132.22 252.488L125.997 257.708C124.141 259.265 121.742 260.021 119.329 259.81C116.915 259.599 114.685 258.437 113.127 256.581L107.12 249.423H29.428C26.4855 249.423 24.1001 247.038 24.1001 244.095V235.971C24.1001 233.029 26.4855 230.644 29.428 230.644Z" fill="#6D0978"/>
<path d="M130.43 242.055L55.8057 153.13C55.356 152.594 54.8051 152.151 54.1843 151.828C53.5636 151.505 52.8852 151.307 52.188 151.246C51.4908 151.185 50.7883 151.262 50.1208 151.472C49.4534 151.683 48.8339 152.023 48.2978 152.473L42.0754 157.693C41.5391 158.143 41.0967 158.694 40.7734 159.314C40.4501 159.935 40.2523 160.614 40.1912 161.311C40.1302 162.008 40.2071 162.71 40.4176 163.378C40.6281 164.045 40.968 164.665 41.418 165.201L116.043 254.135C116.492 254.671 117.043 255.114 117.664 255.437C118.285 255.76 118.963 255.958 119.66 256.019C120.358 256.08 121.06 256.004 121.728 255.793C122.395 255.583 123.015 255.243 123.551 254.793L129.773 249.572C130.311 249.122 130.754 248.571 131.079 247.949C131.403 247.328 131.601 246.648 131.662 245.95C131.723 245.251 131.646 244.548 131.434 243.879C131.223 243.211 130.882 242.591 130.43 242.055Z" fill="#B55CBF"/>
<path d="M119.528 243.677C121.541 241.988 121.804 238.987 120.115 236.973C118.425 234.96 115.424 234.698 113.411 236.387C111.398 238.076 111.135 241.078 112.824 243.091C114.514 245.104 117.515 245.366 119.528 243.677Z" fill="#6D0978"/>
<path d="M245.398 359.268C278.198 359.268 304.787 354.597 304.787 348.835C304.787 343.072 278.198 338.401 245.398 338.401C212.599 338.401 186.009 343.072 186.009 348.835C186.009 354.597 212.599 359.268 245.398 359.268Z" fill="#94319F"/>
<path d="M304.787 298.134H186.019V348.835H304.787V298.134Z" fill="#94319F"/>
<path d="M240.759 346.022C208.909 346.022 186.955 338.87 186.014 338.58V334.381C186.234 334.452 209.594 342.031 240.759 342.031C281.506 342.031 304.792 334.381 304.792 334.381V338.592C303.861 338.87 282.195 346.022 240.759 346.022Z" fill="#E9ECFF"/>
<path d="M245.657 288.708C212.852 288.708 186.024 292.757 186.024 297.804L186.124 329.603C186.12 329.873 186.193 330.139 186.334 330.368C186.476 330.598 186.68 330.783 186.923 330.901C187.269 331.066 187.647 331.151 188.03 331.151C188.414 331.151 188.792 331.066 189.138 330.901C194.424 328.237 193.427 322.97 193.766 318.023C194.106 313.077 199.603 310.322 203.523 313.135C207.443 315.948 205.828 321.225 208.631 324.028C212.541 326.961 217.41 325.025 218.375 321.095C219.372 316.208 222.774 309.066 229.595 309.066C247.251 309.066 236.788 340.916 250.951 340.916C262.53 340.916 257.405 315.242 267.15 316.22C271.06 316.22 272.737 330.524 279.208 330.524C286.391 330.524 285.751 314.225 291.787 314.225C299.686 314.225 293.662 329.337 300.874 329.337C307.737 329.337 305.073 297.787 305.073 297.787C305.066 292.757 278.47 288.708 245.657 288.708Z" fill="black"/>
<path d="M245.657 288.708C212.852 288.708 186.024 292.757 186.024 297.804L186.124 329.603C186.12 329.873 186.193 330.139 186.334 330.368C186.476 330.598 186.68 330.783 186.923 330.901C187.269 331.066 187.647 331.151 188.03 331.151C188.414 331.151 188.792 331.066 189.138 330.901C194.424 328.237 193.427 322.97 193.766 318.023C194.106 313.077 199.603 310.322 203.523 313.135C207.443 315.948 205.828 321.225 208.631 324.028C212.541 326.961 217.41 325.025 218.375 321.095C219.372 316.208 222.774 309.066 229.595 309.066C247.251 309.066 236.788 340.916 250.951 340.916C262.53 340.916 257.405 315.242 267.15 316.22C271.06 316.22 272.737 330.524 279.208 330.524C286.391 330.524 285.751 314.225 291.787 314.225C299.686 314.225 293.662 329.337 300.874 329.337C307.737 329.337 305.073 297.787 305.073 297.787C305.066 292.757 278.47 288.708 245.657 288.708Z" fill="#B55CBF"/>
<path d="M245.398 308.567C278.198 308.567 304.787 303.896 304.787 298.134C304.787 292.372 278.198 287.701 245.398 287.701C212.599 287.701 186.009 292.372 186.009 298.134C186.009 303.896 212.599 308.567 245.398 308.567Z" fill="#D075DA"/>
<path d="M245.398 302.272C269.477 302.272 288.996 298.843 288.996 294.612C288.996 290.382 269.477 286.953 245.398 286.953C221.319 286.953 201.8 290.382 201.8 294.612C201.8 298.843 221.319 302.272 245.398 302.272Z" fill="#94319F"/>
<path d="M288.996 257.388H201.797V294.615H288.996V257.388Z" fill="#94319F"/>
<path d="M245.398 265.047C269.477 265.047 288.996 261.618 288.996 257.388C288.996 253.158 269.477 249.729 245.398 249.729C221.319 249.729 201.8 253.158 201.8 257.388C201.8 261.618 221.319 265.047 245.398 265.047Z" fill="#FFFBC4"/>
<path d="M241.996 284.717C218.534 284.717 202.844 279.428 202.145 279.198L202.389 275.229C202.589 275.288 219.206 280.726 241.982 280.726C271.906 280.726 288.794 275.239 288.962 275.18V279.259C288.32 279.447 272.529 284.717 241.996 284.717Z" fill="#E9ECFF"/>
<path d="M245.618 249.726C221.52 249.726 201.8 252.718 201.8 256.44L201.88 279.799C201.863 280.006 201.91 280.213 202.015 280.392C202.121 280.571 202.28 280.712 202.469 280.796C202.723 280.917 203.001 280.98 203.282 280.98C203.563 280.98 203.841 280.917 204.095 280.796C207.944 278.871 207.272 275.002 207.497 271.37C207.537 270.556 207.792 269.767 208.236 269.083C208.68 268.4 209.298 267.846 210.026 267.479C210.754 267.112 211.566 266.945 212.38 266.994C213.193 267.044 213.979 267.308 214.658 267.76C217.48 269.755 216.354 273.746 218.419 275.74C218.985 276.223 219.663 276.556 220.392 276.708C221.12 276.861 221.875 276.829 222.587 276.614C223.3 276.4 223.947 276.01 224.47 275.481C224.993 274.951 225.374 274.299 225.58 273.584C226.337 269.984 228.811 264.766 233.818 264.766C246.786 264.766 239.095 288.168 249.509 288.168C258.016 288.168 254.248 269.305 261.409 270.023C264.271 270.023 265.507 280.533 270.266 280.533C275.542 280.533 275.073 268.557 279.511 268.557C285.306 268.557 280.887 279.66 286.174 279.66C291.22 279.66 289.265 256.479 289.265 256.479C289.268 252.73 269.726 249.726 245.618 249.726Z" fill="black"/>
<path d="M245.618 249.726C221.52 249.726 201.8 252.718 201.8 256.44L201.88 279.799C201.863 280.006 201.91 280.213 202.015 280.392C202.121 280.571 202.28 280.712 202.469 280.796C202.723 280.917 203.001 280.98 203.282 280.98C203.563 280.98 203.841 280.917 204.095 280.796C207.944 278.871 207.272 275.002 207.497 271.37C207.537 270.556 207.792 269.767 208.236 269.083C208.68 268.4 209.298 267.846 210.026 267.479C210.754 267.112 211.566 266.945 212.38 266.994C213.193 267.044 213.979 267.308 214.658 267.76C217.48 269.755 216.354 273.746 218.419 275.74C218.985 276.223 219.663 276.556 220.392 276.708C221.12 276.861 221.875 276.829 222.587 276.614C223.3 276.4 223.947 276.01 224.47 275.481C224.993 274.951 225.374 274.299 225.58 273.584C226.337 269.984 228.811 264.766 233.818 264.766C246.786 264.766 239.095 288.168 249.509 288.168C258.016 288.168 254.248 269.305 261.409 270.023C264.271 270.023 265.507 280.533 270.266 280.533C275.542 280.533 275.073 268.557 279.511 268.557C285.306 268.557 280.887 279.66 286.174 279.66C291.22 279.66 289.265 256.479 289.265 256.479C289.268 252.73 269.726 249.726 245.618 249.726Z" fill="#B55CBF"/>
<path d="M289.246 256C289.246 259.421 269.694 262.173 245.596 262.173C221.499 262.173 201.949 259.407 201.949 256C201.949 252.593 221.501 249.804 245.599 249.804C269.697 249.804 289.246 252.6 289.246 256Z" fill="#D075DA"/>
<path d="M209.628 254.854C211.28 254.854 212.62 253.514 212.62 251.862C212.62 250.21 211.28 248.871 209.628 248.871C207.976 248.871 206.637 250.21 206.637 251.862C206.637 253.514 207.976 254.854 209.628 254.854Z" fill="#6D0978"/>
<path d="M245.159 260.03C246.938 260.03 248.38 258.588 248.38 256.809C248.38 255.03 246.938 253.588 245.159 253.588C243.38 253.588 241.938 255.03 241.938 256.809C241.938 258.588 243.38 260.03 245.159 260.03Z" fill="#6D0978"/>
<path d="M280.689 254.854C282.341 254.854 283.681 253.514 283.681 251.862C283.681 250.21 282.341 248.871 280.689 248.871C279.037 248.871 277.698 250.21 277.698 251.862C277.698 253.514 279.037 254.854 280.689 254.854Z" fill="#6D0978"/>
<path d="M244.702 236.189C244.572 236.189 244.448 236.137 244.356 236.046C244.264 235.954 244.213 235.83 244.213 235.7V225.589C244.213 225.457 244.265 225.33 244.359 225.237C244.452 225.143 244.579 225.091 244.711 225.091C244.844 225.091 244.971 225.143 245.064 225.237C245.158 225.33 245.21 225.457 245.21 225.589V235.7C245.21 235.83 245.159 235.954 245.067 236.046C244.975 236.137 244.851 236.189 244.721 236.189" fill="white"/>
<path d="M239.794 252.923H249.605V230.771H239.794V252.923Z" fill="#B55CBF"/>
<path d="M249.605 231.054L239.794 235.646V237.306L249.605 232.711V231.054Z" fill="#94319F"/>
<path d="M239.794 244.359L249.605 239.767V238.107L239.794 242.702V244.359Z" fill="#94319F"/>
<path d="M239.794 251.415L249.605 246.823V245.163L239.794 249.758V251.415Z" fill="#94319F"/>
<path d="M246.22 252.923H249.605V230.771H246.22V252.923Z" fill="#94319F"/>
<path d="M249.04 224.028C249.04 225.179 248.583 226.283 247.769 227.097C246.955 227.911 245.851 228.368 244.699 228.368C243.548 228.368 242.444 227.911 241.63 227.097C240.816 226.283 240.359 225.179 240.359 224.028C240.359 221.632 244.699 214.151 244.699 214.151C244.699 214.151 249.04 221.632 249.04 224.028Z" fill="#FFD200"/>
<path d="M247.525 225.543C247.525 226.292 247.227 227.01 246.698 227.539C246.168 228.068 245.45 228.366 244.702 228.366C243.953 228.366 243.235 228.068 242.706 227.539C242.176 227.01 241.879 226.292 241.879 225.543C241.879 223.984 244.702 219.118 244.702 219.118C244.702 219.118 247.525 223.984 247.525 225.543Z" fill="#FF8D00"/>
<path d="M263.161 236.189C263.032 236.189 262.907 236.137 262.816 236.046C262.724 235.954 262.672 235.83 262.672 235.7V225.589C262.672 225.457 262.725 225.33 262.818 225.237C262.912 225.143 263.039 225.091 263.171 225.091C263.303 225.091 263.43 225.143 263.523 225.237C263.617 225.33 263.669 225.457 263.669 225.589V235.7C263.669 235.83 263.618 235.954 263.526 236.046C263.435 236.137 263.31 236.189 263.181 236.189" fill="white"/>
<path d="M258.256 252.923H268.066V230.771H258.256V252.923Z" fill="#B55CBF"/>
<path d="M268.066 231.054L258.256 235.646V237.306L268.066 232.711V231.054Z" fill="#94319F"/>
<path d="M258.256 244.359L268.066 239.767V238.107L258.256 242.702V244.359Z" fill="#94319F"/>
<path d="M258.256 251.415L268.066 246.823V245.163L258.256 249.758V251.415Z" fill="#94319F"/>
<path d="M264.681 252.923H268.066V230.771H264.681V252.923Z" fill="#94319F"/>
<path d="M267.501 224.028C267.501 225.179 267.044 226.283 266.23 227.097C265.416 227.911 264.312 228.368 263.161 228.368C262.01 228.368 260.906 227.911 260.092 227.097C259.278 226.283 258.82 225.179 258.82 224.028C258.82 221.632 263.161 214.151 263.161 214.151C263.161 214.151 267.501 221.632 267.501 224.028Z" fill="#FFD200"/>
<path d="M265.984 225.543C265.984 226.292 265.687 227.01 265.157 227.539C264.628 228.068 263.91 228.366 263.161 228.366C262.413 228.366 261.695 228.068 261.165 227.539C260.636 227.01 260.338 226.292 260.338 225.543C260.338 223.984 263.161 219.118 263.161 219.118C263.161 219.118 265.984 223.984 265.984 225.543Z" fill="#FF8D00"/>
<path d="M264.141 258.527C265.92 258.527 267.362 257.085 267.362 255.306C267.362 253.527 265.92 252.084 264.141 252.084C262.362 252.084 260.92 253.527 260.92 255.306C260.92 257.085 262.362 258.527 264.141 258.527Z" fill="#6D0978"/>
<path d="M227.164 236.189C227.034 236.189 226.91 236.137 226.818 236.046C226.726 235.954 226.675 235.83 226.675 235.7V225.589C226.675 225.457 226.727 225.33 226.821 225.237C226.914 225.143 227.041 225.091 227.173 225.091C227.306 225.091 227.432 225.143 227.526 225.237C227.619 225.33 227.672 225.457 227.672 225.589V235.7C227.672 235.83 227.62 235.954 227.529 236.046C227.437 236.137 227.313 236.189 227.183 236.189" fill="white"/>
<path d="M222.259 252.923H232.069V230.771H222.259V252.923Z" fill="#B55CBF"/>
<path d="M232.067 231.054L222.259 235.646V237.306L232.067 232.711V231.054Z" fill="#94319F"/>
<path d="M222.259 244.359L232.067 239.767V238.107L222.259 242.702V244.359Z" fill="#94319F"/>
<path d="M222.259 251.415L232.067 246.823V245.163L222.259 249.758V251.415Z" fill="#94319F"/>
<path d="M228.681 252.923H232.069V230.771H228.681V252.923Z" fill="#94319F"/>
<path d="M231.502 224.028C231.502 225.179 231.045 226.283 230.231 227.097C229.417 227.911 228.313 228.368 227.161 228.368C226.01 228.368 224.906 227.911 224.092 227.097C223.278 226.283 222.821 225.179 222.821 224.028C222.821 221.632 227.161 214.151 227.161 214.151C227.161 214.151 231.502 221.632 231.502 224.028Z" fill="#FFD200"/>
<path d="M229.986 225.543C229.986 226.292 229.689 227.01 229.16 227.539C228.63 228.068 227.912 228.366 227.164 228.366C226.415 228.366 225.697 228.068 225.168 227.539C224.638 227.01 224.341 226.292 224.341 225.543C224.341 223.984 227.164 219.118 227.164 219.118C227.164 219.118 229.986 223.984 229.986 225.543Z" fill="#FF8D00"/>
<path d="M226.186 258.527C227.965 258.527 229.407 257.085 229.407 255.306C229.407 253.527 227.965 252.084 226.186 252.084C224.407 252.084 222.965 253.527 222.965 255.306C222.965 257.085 224.407 258.527 226.186 258.527Z" fill="#6D0978"/>
<path fill-rule="evenodd" clip-rule="evenodd" d="M200.83 312.158L195.517 292.567L176.336 292.625L156.733 292.686L151.54 312.309L151.698 364.452C151.711 366.628 152.585 368.711 154.129 370.246C155.672 371.78 157.76 372.641 159.937 372.641L192.799 372.541C194.977 372.53 197.062 371.657 198.598 370.114C200.134 368.57 200.996 366.48 200.996 364.303L200.83 312.158Z" fill="#D075DA"/>
<path fill-rule="evenodd" clip-rule="evenodd" d="M196.379 284.864L155.884 284.991L155.908 292.46L150.684 312.199L150.843 364.454L150.843 364.457C150.857 366.859 151.821 369.159 153.525 370.852C155.229 372.546 157.534 373.497 159.937 373.497L192.801 373.397H192.803C195.207 373.385 197.508 372.421 199.204 370.717C200.899 369.013 201.851 366.707 201.851 364.303L201.685 312.042L196.403 292.567L196.379 284.864ZM157.392 293.54L152.395 312.419L152.554 364.447L152.554 364.448C152.565 366.398 153.348 368.264 154.732 369.639C156.115 371.014 157.986 371.786 159.937 371.786L192.794 371.686C194.746 371.676 196.615 370.894 197.991 369.51C199.367 368.127 200.14 366.255 200.14 364.304V364.303L199.975 312.273L194.863 293.424L157.392 293.54Z" fill="white"/>
<path fill-rule="evenodd" clip-rule="evenodd" d="M152.414 312.454L199.957 312.27L195.035 293.083L176.336 292.625L157.229 293.197L152.414 312.454Z" fill="#94319F"/>
<path fill-rule="evenodd" clip-rule="evenodd" d="M157.229 293.197L195.035 293.083L194.649 286.594L157.53 286.745L157.229 293.197Z" fill="#D075DA"/>
<path fill-rule="evenodd" clip-rule="evenodd" d="M184.846 332.453C178.321 326.734 169.913 325.411 165.003 329.016C167.637 332.4 171.671 335.175 175.909 338.09C181.401 341.868 187.235 345.881 190.807 351.76C193.815 346.427 191.413 338.206 184.846 332.453ZM168.422 351.191C175.011 356.966 183.519 358.256 188.407 354.522C184.811 348.971 179.193 345.107 173.894 341.461C169.401 338.37 165.136 335.437 162.528 331.766C159.421 337.099 161.833 345.416 168.422 351.191Z" fill="#6D0978"/>
<path d="M85.3467 199.165L177.057 216.368L184.357 177.445L92.6493 160.242L85.3467 199.165ZM104.703 182.648C103.945 186.683 100.304 189.389 96.5866 188.69C92.8693 187.991 90.4546 184.154 91.2098 180.119C91.965 176.084 95.609 173.378 99.3263 174.077C103.044 174.776 105.453 178.613 104.703 182.648Z" fill="white"/>
<path fill-rule="evenodd" clip-rule="evenodd" d="M92.5513 160.099L184.5 177.348L177.154 216.511L85.2036 199.263L92.5513 160.099ZM92.7465 160.385L85.4889 199.067L176.959 216.226L184.214 177.543L92.7465 160.385ZM99.3033 174.197C95.6611 173.513 92.074 176.164 91.3295 180.141C90.585 184.119 92.9664 187.885 96.6087 188.57C100.251 189.255 103.835 186.604 104.582 182.626C105.322 178.648 102.945 174.882 99.3033 174.197ZM91.0893 180.096C91.8552 176.004 95.556 173.244 99.3484 173.957C103.141 174.67 105.584 178.579 104.823 182.671C104.054 186.763 100.356 189.523 96.5636 188.81C92.7713 188.097 90.3234 184.189 91.0893 180.096Z" fill="#6D0978"/>
<path d="M91.2024 180.116C90.4447 184.152 92.852 187.991 96.5791 188.688C100.306 189.384 103.938 186.681 104.696 182.646C105.453 178.611 103.046 174.771 99.3188 174.075C95.5918 173.378 91.96 176.081 91.2024 180.116ZM102.098 182.16C101.633 184.64 99.4093 186.314 97.107 185.875C94.8048 185.435 93.336 183.083 93.8003 180.603C94.2647 178.122 96.4887 176.448 98.7909 176.888C101.093 177.328 102.564 179.679 102.098 182.162V182.16Z" fill="#94319F"/>
<path d="M87.1062 178.408C86.7909 178.276 86.461 178.176 86.1701 178.068C85.0524 177.65 83.9208 177.272 82.7754 176.934C80.4805 176.257 76.1767 175.497 73.8133 175.167C73.8133 175.167 74.8251 176.323 74.9718 176.548C77.0736 176.844 79.74 177.259 81.7881 177.826C82.8145 178.11 83.8312 178.429 84.8382 178.782C85.3465 178.961 85.8524 179.149 86.3559 179.347L86.4536 179.383C86.4162 179.504 86.39 179.627 86.3754 179.752C85.8034 179.834 85.2274 179.884 84.65 179.904C83.5929 179.984 82.5325 180.011 81.4728 179.985C79.4736 179.936 53.5111 175.749 48.4496 174.811C48.3656 174.795 48.279 174.8 48.197 174.824C48.1151 174.849 48.0402 174.892 47.9785 174.952C47.9169 175.011 47.8703 175.084 47.8425 175.165C47.8148 175.246 47.8068 175.332 47.8191 175.417L47.8362 175.534C47.8572 175.686 47.9262 175.826 48.033 175.936C48.1399 176.046 48.2791 176.118 48.4301 176.143C52.9686 176.893 79.5567 181.075 81.7441 181.116C82.8712 181.137 83.9987 181.098 85.1217 180.999C85.6253 180.967 86.127 180.909 86.6247 180.825C86.925 181.25 87.373 181.547 87.8809 181.659L87.9542 181.676H87.9836H88.0153L88.6166 181.776L88.8243 180.664L88.162 180.554C88.028 180.527 87.897 180.487 87.7709 180.434C87.8849 180.375 87.9951 180.309 88.1009 180.236C88.2057 180.161 88.2851 180.055 88.3288 179.933C88.3724 179.812 88.3781 179.679 88.3453 179.554C88.3022 179.419 88.2396 179.291 88.1595 179.173C88.3809 179.162 88.6028 179.174 88.8219 179.207C89.6528 179.308 90.4789 179.466 91.2927 179.62C91.8402 179.725 92.72 179.963 93.2479 180.121C93.6658 180.246 94.2255 180.312 94.5823 180.583C94.6384 180.628 94.6809 180.688 94.7051 180.756C94.7292 180.824 94.7341 180.897 94.7192 180.967L94.685 181.155C94.6141 181.414 94.1106 181.4 93.7221 181.353C93.7096 181.735 93.7424 182.116 93.8198 182.49C94.6288 182.507 95.4011 182.314 95.687 181.429C95.6976 181.403 95.7066 181.376 95.7139 181.348C95.7139 181.326 95.7139 181.304 95.7286 181.282C96.0341 179.931 94.9954 179.466 93.9591 179.154C92.5296 178.723 91.0708 178.396 89.5942 178.176C88.7999 178.059 87.7905 177.917 87.1062 178.408Z" fill="#6D0978"/>
<path d="M116.265 181.92C115.986 181.754 115.719 181.628 115.468 181.525C116.53 180.675 117.502 179.577 117.835 178.594C118.582 176.394 117.508 174.654 114.675 176.109C112.526 177.205 112.155 178.818 112.108 179.08C112.006 179.64 112.602 179.652 112.592 179.284C112.59 178.762 113.397 177.402 114.828 176.542C116.369 175.605 117.778 176.248 116.677 178.268C116.035 179.465 115.242 180.537 114.537 181.336C112.618 181.161 111.197 182.603 112.051 183.009C112.603 183.264 113.838 182.735 115.041 181.853C115.278 181.934 115.507 182.053 115.686 182.24C116.76 183.343 115.851 186.325 114.543 187.787C113.234 189.249 110.966 191 108.784 189.618C106.601 188.237 107.611 186.084 108.513 185.688C109.415 185.291 110.2 185.434 110.622 185.878C111.043 186.321 110.682 186.931 110.651 187.099C110.62 187.268 111.499 187.427 111.535 186.7C111.57 185.973 111.247 185.624 110.997 185.405C110.748 185.186 109.437 184.639 108.294 185.3C107.15 185.961 106.156 188.562 108.497 190.03C110.837 191.497 114.004 190.856 115.935 188.523C117.865 186.189 118.033 183.033 116.265 181.92ZM112.598 182.548C112.154 182.332 113.096 181.827 114.112 181.761C113.459 182.376 112.899 182.699 112.598 182.548Z" fill="#6D0978"/>
<path d="M118.925 191.576C120.162 191.569 121.069 189.977 121.857 188.826C121.883 188.792 122.007 188.641 122.156 188.668C122.213 188.678 122.258 188.745 122.241 188.838C122.202 189.159 122.126 189.474 122.068 189.791C122.027 190.016 122.002 190.262 121.977 190.509C121.926 191.001 122.028 191.715 122.476 192.009C123.253 192.517 124.351 192.427 125.379 191.339C126.166 190.516 127.265 188.611 127.348 188.472C127.435 188.314 127.562 188.144 127.618 187.942C127.632 187.867 127.589 187.782 127.515 187.768C127.462 187.739 127.443 187.736 127.402 187.748C127.27 187.84 127.171 187.957 127.103 188.118C126.488 189.378 124.602 191.893 123.644 191.429C123.467 191.339 123.348 191.144 123.399 190.864C123.552 190.022 123.701 189.2 123.869 188.381C124.005 187.633 124.141 186.885 124.221 186.127C124.251 185.959 124.2 185.815 124.153 185.651C124.053 185.459 123.825 185.437 123.648 185.56C123.32 185.77 123.307 186.058 123.108 186.62C123.006 186.756 122.923 186.896 122.824 187.013C122.544 187.387 122.241 187.776 121.924 188.143C121.049 189.239 120.45 190.193 119.62 190.621C119.343 190.764 118.885 190.623 118.882 190.217C118.843 188.839 119.44 186.611 120.693 185.351C121.4 184.649 122.071 184.462 122.616 184.754C122.995 184.9 122.09 185.952 122.557 186.037C122.632 186.051 122.688 186.061 122.821 185.969C123.065 185.686 123.14 185.487 123.204 185.132C123.276 184.739 123.113 184.362 122.745 184.256C121.763 183.923 120.45 184.457 119.654 185.22C117.998 186.793 117.244 189.031 117.534 190.513C117.72 191.087 118.306 191.58 118.925 191.576Z" fill="#6D0978"/>
<path d="M135.015 189.131C134.962 189.102 134.944 189.099 134.903 189.111C134.77 189.202 134.672 189.32 134.604 189.481C133.989 190.74 132.28 193.558 130.83 193.14C130.115 192.933 130.933 189.915 130.915 189.274C130.906 188.79 130.529 188.316 130.236 188.224C131.035 187.655 131.761 187.169 131.99 187.075C132.452 186.869 132.896 186.448 133.139 186.704C133.382 186.961 133.58 186.611 133.417 186.446C133.045 186.05 132.275 186.355 131.806 186.598C130.632 187.215 128.873 188.71 128.681 188.811L128.235 189.038C128.515 188.24 128.838 187.313 129.023 186.613C129.079 186.411 129.111 185.915 129.062 185.655C128.956 185.385 128.785 185.373 128.513 185.381C128.241 185.39 128.113 185.56 128.056 185.665C127.755 186.151 127.216 187.521 127.031 188.009C126.6 189.108 125.947 190.573 125.693 191.975C125.547 192.779 126.313 193.343 127.013 192.679C127.226 192.466 127.484 191.258 127.676 190.52C127.793 190.407 127.92 190.237 128.114 190.021C128.384 189.703 128.868 189.27 129.409 188.846C129.47 188.935 129.473 189.128 129.404 189.618C129.28 190.406 128.527 192.741 129.515 193.365C130.295 193.854 131.852 193.79 132.88 192.702C133.666 191.879 134.765 189.974 134.849 189.835C134.935 189.676 135.063 189.507 135.119 189.304C135.132 189.229 135.09 189.145 135.015 189.131Z" fill="#6D0978"/>
<path d="M134.836 194.467C136.073 194.46 136.981 192.867 137.769 191.717C137.795 191.683 137.919 191.532 138.068 191.559C138.124 191.569 138.17 191.635 138.153 191.729C138.114 192.05 138.038 192.364 137.98 192.682C137.939 192.906 137.914 193.153 137.888 193.399C137.837 193.892 137.939 194.606 138.388 194.9C139.165 195.408 140.263 195.317 141.291 194.23C142.077 193.407 143.177 191.502 143.26 191.363C143.346 191.204 143.474 191.034 143.53 190.832C143.544 190.757 143.501 190.673 143.426 190.659C143.374 190.63 143.355 190.627 143.314 190.639C143.182 190.73 143.083 190.848 143.015 191.009C142.4 192.268 140.514 194.784 139.556 194.32C139.379 194.23 139.26 194.035 139.311 193.754C139.464 192.913 139.613 192.09 139.781 191.271C139.917 190.524 140.053 189.776 140.133 189.018C140.163 188.85 140.112 188.705 140.065 188.542C139.964 188.35 139.736 188.328 139.56 188.45C139.232 188.661 139.218 188.948 139.02 189.511C138.918 189.647 138.834 189.786 138.736 189.903C138.455 190.277 138.153 190.667 137.835 191.034C136.96 192.13 136.362 193.083 135.531 193.512C135.254 193.655 134.797 193.514 134.794 193.107C134.754 191.729 135.352 189.501 136.604 188.242C137.311 187.54 137.983 187.353 138.528 187.645C138.907 187.791 138.001 188.843 138.469 188.928C138.544 188.942 138.6 188.952 138.732 188.86C138.977 188.576 139.052 188.377 139.116 188.022C139.187 187.63 139.024 187.252 138.657 187.147C137.675 186.814 136.361 187.348 135.566 188.111C133.909 189.683 133.155 191.921 133.446 193.403C133.631 193.978 134.218 194.47 134.836 194.467Z" fill="#6D0978"/>
<path d="M141.841 203.618C142.219 203.88 142.756 203.9 143.366 203.625C144.146 203.265 145.447 201.84 146.123 200.244C146.592 199.152 147.156 197.748 147.526 195.923C148.096 195.447 148.855 194.774 149.593 193.691C149.8 193.4 150.09 192.97 150.155 192.828C150.238 192.688 150.257 192.479 150.114 192.415C150.027 192.36 149.852 192.579 149.82 192.651C149.421 193.254 148.298 195.078 147.401 195.34C147.225 194.709 146.829 194.232 146.328 193.909C145.74 193.532 145.477 193.6 145.324 193.379C145.278 193.313 145.223 193.187 145.315 193.107C145.793 192.711 146.957 191.725 147.296 190.493C147.471 189.849 147.182 189.314 146.749 189.042C146.315 188.77 145.588 188.734 144.849 189.083C143.981 189.504 143.252 190.222 142.686 191.529C142.553 191.833 142.801 191.955 142.936 191.748C143.233 191.28 143.298 191.138 143.541 190.757C144.026 189.996 144.635 189.623 145.112 189.44C145.445 189.307 145.726 189.358 145.977 189.462C146.39 189.633 146.404 189.983 146.081 190.485C145.023 192.166 144.78 192.334 143.434 193.576C143.225 193.77 143.048 193.892 142.839 194.086C142.678 194.231 142.554 194.382 142.683 194.734C142.765 194.922 142.997 195.023 143.344 194.815C143.517 194.711 144.119 194.377 144.204 194.334C144.544 194.164 144.406 194.178 144.785 194.111C145.196 193.974 146.056 194.767 145.812 196.113C145.433 196.604 144.553 197.41 143.89 198.081C142.4 199.587 140.573 202.731 141.841 203.618ZM142.023 203.149C141.437 202.657 142.456 200.447 143.448 199.237C143.547 199.12 145.513 196.909 145.63 197.007C145.739 197.046 145.695 197.289 145.341 198.171C144.696 199.811 143.945 201.393 143.275 202.527C142.914 203.137 142.477 203.521 142.023 203.149Z" fill="#6D0978"/>
<path d="M150.127 197.245C151.364 197.238 152.272 195.645 153.06 194.495C153.086 194.461 153.21 194.309 153.359 194.337C153.415 194.347 153.461 194.413 153.444 194.506C153.405 194.828 153.329 195.142 153.271 195.46C153.23 195.684 153.205 195.931 153.179 196.177C153.128 196.67 153.23 197.384 153.679 197.678C154.456 198.186 155.554 198.095 156.582 197.008C157.368 196.185 158.468 194.28 158.551 194.14C158.637 193.982 158.765 193.812 158.821 193.61C158.835 193.535 158.792 193.45 158.717 193.437C158.665 193.408 158.646 193.404 158.605 193.416C158.473 193.508 158.374 193.625 158.306 193.787C157.691 195.046 155.805 197.562 154.847 197.098C154.67 197.008 154.551 196.812 154.602 196.532C154.755 195.691 154.904 194.868 155.072 194.049C155.208 193.301 155.344 192.554 155.424 191.796C155.454 191.627 155.403 191.483 155.356 191.32C155.255 191.128 155.027 191.106 154.851 191.228C154.523 191.439 154.509 191.726 154.311 192.289C154.209 192.425 154.125 192.564 154.027 192.681C153.746 193.055 153.444 193.444 153.126 193.811C152.251 194.908 151.653 195.861 150.822 196.29C150.545 196.432 150.088 196.291 150.085 195.885C150.045 194.507 150.643 192.279 151.895 191.02C152.602 190.318 153.274 190.131 153.819 190.423C154.198 190.569 153.292 191.621 153.76 191.706C153.835 191.719 153.891 191.73 154.023 191.638C154.268 191.354 154.343 191.155 154.407 190.8C154.478 190.407 154.315 190.03 153.948 189.925C152.966 189.592 151.652 190.126 150.857 190.889C149.2 192.461 148.446 194.699 148.737 196.181C148.922 196.755 149.509 197.248 150.127 197.245Z" fill="#6D0978"/>
<path d="M157.388 198.544C157.504 198.546 157.626 198.51 157.733 198.453C157.891 198.327 158.049 198.201 158.139 198.024L159.14 195.599C159.254 195.292 159.466 195.079 159.685 194.829C159.879 194.613 161.371 192.992 162.061 192.808C162.406 192.716 162.513 192.871 162.411 193.007C162.333 193.225 162.217 193.435 162.136 193.672C161.647 195.089 160.824 197.064 160.658 198.405C160.627 198.573 160.689 198.874 160.955 198.999C161.117 199.067 161.678 199.169 161.831 198.965C161.97 198.836 162.142 198.636 162.198 198.433C162.485 197.597 162.753 196.545 163.185 195.87C163.315 195.682 163.529 195.354 163.691 195.209C164.223 194.727 165.698 193.199 166.121 193.527C166.272 193.651 166.058 194.191 165.824 194.631C165.596 195.034 165.292 195.964 165.093 196.526C164.813 197.325 164.534 198.221 164.57 198.768C164.604 199.218 165.129 199.835 165.765 199.95C165.952 199.984 166.086 199.989 166.22 199.994C166.944 200.049 167.724 199.051 168.513 197.9C168.669 197.678 169.602 196.264 169.765 196.004C169.816 195.936 169.785 195.892 169.799 195.817C169.805 195.779 169.812 195.742 169.778 195.717C169.72 195.609 169.608 195.589 169.535 195.672C169.309 195.96 168.682 196.966 168.475 197.256C167.93 198.026 167.208 198.919 166.932 199.158C166.363 199.634 166.052 199.327 166.188 198.579C166.305 198.04 166.404 197.498 166.543 196.944C166.631 196.458 167.322 194.459 167.297 193.856C167.227 193.071 166.617 192.709 166.068 192.86C165.579 193.003 164.85 193.508 164.472 193.884C164.263 194.077 164.066 194.312 163.842 194.484C163.71 194.575 163.4 194.79 163.337 194.604C163.278 194.4 163.494 193.957 163.565 193.777C163.832 193.053 163.84 192.475 163.196 192.088C162.973 191.931 162.426 191.967 161.887 192.275C161.393 192.552 160.849 192.994 160.139 193.714C159.661 194.11 159.571 194.075 159.525 193.796C159.551 193.55 159.554 193.318 159.598 193.075C159.663 192.72 160.004 191.373 159.777 191.138C159.712 191.068 159.498 190.972 159.416 190.995C159.109 191.094 158.799 191.308 158.648 191.609C158.472 191.944 157.683 194.369 157.634 194.534C157.283 195.725 156.91 196.391 156.81 197.899C156.802 198.052 156.85 198.215 156.963 198.332C157.077 198.449 157.217 198.533 157.388 198.544Z" fill="#6D0978"/>
<path d="M170.397 200.869C171.133 200.752 171.389 200.509 171.95 199.761C172.179 199.455 172.431 198.921 172.711 198.335C172.711 198.335 172.747 198.245 172.881 198.25C174.052 198.289 174.613 198.391 175.824 196.931C175.85 196.897 175.919 196.832 175.911 196.773C175.921 196.717 175.935 196.642 175.863 196.609C175.821 196.525 175.709 196.504 175.62 196.565C175.513 196.623 175.328 196.898 175.156 197.099C174.635 197.738 174.064 197.905 173.426 197.905C173.02 197.908 172.867 197.9 172.769 197.805C172.769 197.805 172.789 197.48 172.787 197.383C172.786 196.861 172.886 196.204 172.407 195.866C172.184 195.709 171.813 195.623 171.558 195.75C171.2 195.917 171.056 196.18 170.977 196.61C170.916 196.947 171.035 197.355 171.282 197.592C171.448 197.739 171.634 197.888 171.841 198.022C172.048 198.157 172.12 198.189 172.109 198.245C172.031 198.675 171.929 199.023 171.455 199.613C171.182 199.95 170.67 200.32 170.254 200.167C170.036 200.089 169.644 200.018 169.54 199.632C169.289 198.679 169.628 198.084 169.841 197.234C169.956 196.811 170.106 196.413 170.258 195.997C170.557 195.201 170.788 194.355 171.096 193.619C171.296 193.154 170.78 192.809 170.294 192.933C170.193 192.953 170.037 193.176 169.983 193.263C169.561 193.881 168.943 195.372 168.552 196.884C168.172 198.341 168.587 199.671 168.721 199.889C169.121 200.56 169.821 200.957 170.397 200.869ZM172.424 197.684C172.361 197.711 172.018 197.475 171.814 197.11C171.649 196.848 171.735 196.478 171.968 196.365C172.179 196.268 172.332 196.489 172.373 196.69C172.449 197.013 172.512 197.623 172.424 197.684Z" fill="#6D0978"/>
</svg>
