<svg width="46" height="46" viewBox="0 0 46 46" fill="none" xmlns="http://www.w3.org/2000/svg">
<path fill-rule="evenodd" clip-rule="evenodd" d="M21.7126 7.08467L21.3059 6.80352L21.2374 6.36157L21.252 0L21.8391 0.149391L21.9263 0.583043L21.7748 5.8719L21.8869 6.42174L22.1877 6.49125L22.7542 6.54935L22.7801 6.26198L22.7407 0.879749L22.8278 0.125532L23.4119 0.631803L23.4077 6.54105L24.1381 6.51823L24.3072 6.43938L24.3477 5.74222L24.496 4.39459L24.4856 0.353767L25.1434 0.363103L25.0718 5.7277L25.0324 6.09703L25.0407 6.55039L24.8716 6.99026L24.4815 7.16662L23.7055 7.26829L22.7376 7.25584L22.085 7.17389L21.7126 7.08467ZM17.2277 2.11741L17.6967 3.12062L17.9093 3.83437L18.0753 4.14457L18.1303 4.35828L17.7506 4.5668L17.4248 4.66121L17.2059 4.75977L16.959 4.79815L16.4258 2.86022L16.3739 2.09355L16.4424 1.83315L16.5918 1.65679L16.8221 1.68584L17.0358 1.85287L17.2277 2.11741ZM15.7131 2.63821L16.8812 6.77447L16.9258 7.16351L17.0285 7.51105L17.1074 8.08994L17.6956 8.11069L17.6842 7.40731L17.2744 5.65611L17.1655 5.35526L18.3295 4.95999L19.1864 7.51105L19.7944 7.25377L17.9093 1.74601L17.6738 1.4244L17.4342 1.16089L16.9985 0.95963L16.5658 0.930582L16.211 1.03951L15.849 1.2719L15.7151 1.71904L15.7131 2.63821ZM12.5676 5.64781L12.4804 5.30027L12.0935 4.36554L11.9057 4.14145L11.6858 4.03771L11.4181 4.03252L11.1836 4.07506L14.0044 8.6429L14.2026 9.16162L14.7607 8.8701L14.8499 8.62526L14.823 8.29536L14.5896 7.6314L14.4236 7.3544L14.1746 7.16143L13.3208 6.72675L12.7429 6.49125L12.5448 6.06071L12.5676 5.64781ZM13.8229 9.99468L13.5739 9.32242L10.6245 4.22756L10.1659 3.74515L10.89 3.45259L11.3403 3.41629L11.6412 3.35404L12.0769 3.41629L12.4089 3.63207L12.7004 3.91322L13.0739 4.59066L13.1994 5.00045L13.2067 5.42373L13.1714 5.85841L13.2367 6.02337L13.5656 6.17068L13.909 6.28169L14.269 6.47465L14.5885 6.73609L14.8292 7.05977L15.3811 8.0194L15.5035 8.46031L15.4558 8.81511L15.2867 9.23424L14.6736 9.63884L13.8229 9.99468ZM6.79735 7.84614L11.1484 12.2791L11.4731 11.6909L10.9834 11.3008L9.91382 10.1119L10.3838 10.4937L11.0104 10.9387L11.4171 11.0964L12.6195 11.2489L12.6246 10.6566L11.5052 10.4325L11.1878 10.2945L10.8392 10.0113L10.5446 9.83595L10.2002 9.56207L9.85883 9.38155L9.52893 9.14294L9.24052 9.10145L8.64399 7.09193L8.40746 6.75683L7.82753 6.11363L7.25901 6.41033L7.82442 7.04835L8.00597 7.30668L8.41472 8.61592L6.86271 7.08155L6.27449 6.80559L6.2195 7.40005L6.79735 7.84614ZM6.61265 14.3758L4.05329 12.7719L3.17976 12.0384L2.96709 11.6598L2.91003 11.1774L3.16005 10.78L3.50863 10.4263L3.85721 10.2737L4.16118 10.2478L4.97972 10.4553L5.66962 10.889L5.38639 11.4243L4.76186 11.0985L4.15081 10.9408L3.93606 11.056L3.79496 11.2801L3.74206 11.5467L3.77837 11.7314L5.12185 12.7999L8.02564 14.5148L8.29641 14.6185L8.60349 14.6102L8.83173 14.5148L9.02262 14.3146L9.11598 14.05L9.12014 13.745L8.94792 13.3238L9.61499 13.0033L9.79758 13.9131L9.76335 14.3851L9.55586 14.715L9.27886 15.0304L8.97593 15.1756L8.49352 15.2649L6.61265 14.3758ZM22.6214 32.1896C22.7158 32.118 22.834 32.0838 22.9523 32.09C24.4836 32.1969 25.8333 31.6585 26.8624 30.5318C27.1404 30.2258 27.3427 29.8959 27.5782 29.4622L27.8739 28.9196C32.7322 20.0363 32.8616 19.9118 32.9695 19.8081L32.9698 19.8078C33.0912 19.6947 33.2613 19.6491 33.4252 19.6875C33.473 19.6989 33.5248 19.7176 33.6016 19.7497L33.8278 19.8431C34.2645 20.0205 34.4181 19.9914 34.4627 19.9696C34.5104 19.9479 34.5436 19.8597 34.5561 19.8213C34.5851 19.7341 34.554 19.6595 34.4668 19.5972C34.2635 19.4914 31.2829 18.2465 26.0169 16.1C21.2167 14.1413 17.1956 12.5271 16.8657 12.4223C16.736 12.4098 16.6903 12.5478 16.68 12.608C16.6613 12.7107 16.6488 12.7802 17.042 12.94C17.1157 12.9711 17.1893 13.0012 17.2744 13.0281L17.5224 13.1257L17.5224 13.1257C17.5774 13.1485 17.6323 13.1713 17.6832 13.1962C17.901 13.2958 18.0162 13.5448 17.9456 13.7761C17.6334 14.8136 15.7255 21.1067 15.3085 22.4751L15.1103 23.1048C14.7617 24.1962 14.436 25.2295 14.5024 26.1808C14.6134 27.7421 15.7712 29.012 16.0762 29.2672C16.1996 29.3056 16.3397 29.4757 16.3594 29.6749C16.3781 29.8585 16.3013 30.0401 16.1374 30.2009C16.1249 30.3098 16.1644 30.3969 16.3293 30.509L22.0466 32.836C22.1161 32.8546 22.28 32.8162 22.3506 32.7561C22.3547 32.6129 22.3869 32.367 22.6214 32.1896ZM28.4404 29.9218C28.1737 30.4104 27.9289 30.8109 27.5855 31.1875C26.4423 32.4376 24.9608 33.0881 23.2874 33.0787C23.2812 33.1015 23.2718 33.1233 23.2625 33.142C22.9834 33.7136 22.2437 33.9211 21.7209 33.7562L21.6815 33.7427L15.8158 31.3431C15.2369 30.9706 15.0315 30.4281 15.2255 29.8066C14.8095 29.3771 13.6486 28.0305 13.523 26.2544C13.4432 25.1185 13.7969 24.0011 14.1714 22.8205C14.2472 22.5861 14.3073 22.3931 14.3654 22.196C14.7472 20.9583 16.3469 15.6809 16.8781 13.9255L16.6634 13.8446L16.6582 13.8425C16.3769 13.7262 15.5399 13.3802 15.7131 12.4358C15.8178 11.8849 16.3241 11.3589 17.0607 11.4668C17.3045 11.5042 22.2718 13.5157 26.3945 15.1974C30.2071 16.7505 34.7957 18.6355 35.0198 18.787C35.4711 19.094 35.6526 19.6159 35.4877 20.118C35.3767 20.4718 35.1692 20.7187 34.8725 20.8546C34.4129 21.0673 33.9045 20.9251 33.5031 20.7654C32.9584 21.6928 31.3576 24.5873 28.736 29.3834L28.4404 29.9218ZM31.7176 20.091L30.3326 19.5267C30.1065 19.4333 29.9986 19.177 30.0909 18.953C30.1843 18.7299 30.4447 18.622 30.6708 18.7154L32.0558 19.2808C32.283 19.3721 32.3888 19.6283 32.2965 19.8524C32.2031 20.0755 31.9438 20.1834 31.7176 20.091ZM25.0075 17.3263C25.0158 18.2651 25.5895 19.1169 26.4599 19.4717C27.3407 19.8306 28.3574 19.6252 29.0317 18.9644C29.2423 19.0225 29.4695 18.9135 29.5567 18.7071C29.6511 18.4809 29.5453 18.2257 29.3212 18.1344L28.8948 17.9612C28.7796 17.9134 28.6468 17.956 28.5784 18.0587C28.5161 18.1521 28.4466 18.235 28.3709 18.3077C27.9569 18.7071 27.35 18.8264 26.822 18.6116C26.297 18.3979 25.9526 17.8885 25.9443 17.3159C25.9433 17.2101 25.9526 17.1032 25.9734 16.9984C26.0003 16.877 25.936 16.7536 25.8209 16.7069L19.1678 13.994C18.9447 13.9027 18.6854 14.0106 18.5909 14.2347C18.4976 14.4588 18.6055 14.7161 18.8296 14.8074L25.0075 17.3263ZM17.6614 17.4725C19.0277 17.9114 21.1804 18.926 22.9389 21.2664C24.5614 23.4285 27.5721 24.2761 29.3502 24.6018C29.288 24.717 29.2278 24.8269 29.1583 24.9504C27.6156 24.7222 24.2678 23.9773 22.5571 21.7032C20.8567 19.4406 18.7621 18.483 17.4799 18.0836L17.4952 18.0326L17.4952 18.0326L17.4956 18.0314L17.4956 18.0313L17.4958 18.0305C17.5568 17.8278 17.6118 17.6454 17.6614 17.4725ZM22.1296 21.7084C20.5631 19.6263 18.6158 18.7361 17.4415 18.3658C16.8615 20.2933 16.0938 22.8361 15.8625 23.5996L15.6944 24.136C15.3987 25.0687 15.1228 25.9474 15.1861 26.7628C15.2877 28.1 16.2961 29.1925 16.5607 29.4093C16.6675 29.4435 16.7879 29.5919 16.8097 29.76C16.8252 29.9166 16.7598 30.0733 16.6188 30.2081C16.6084 30.3025 16.6416 30.3762 16.7858 30.4737L21.7447 32.4915C21.8039 32.505 21.947 32.477 22.0062 32.4251C22.0083 32.3017 22.0363 32.0921 22.2354 31.9417C22.3195 31.8794 22.4191 31.8493 22.5239 31.8587C23.8466 31.9562 25.0137 31.5018 25.8966 30.5443C26.1362 30.2859 26.3095 30.0017 26.5118 29.6323L26.7659 29.1686C27.6758 27.5108 28.3833 26.2275 28.9466 25.2087C28.1208 25.0749 26.9568 24.8207 25.7586 24.3321C24.4307 23.7905 23.0716 22.9627 22.1296 21.7084ZM27.433 4.48277L26.7068 6.90104L26.6943 7.2019L26.8624 7.63762L27.2525 7.80776L27.6809 7.842L28.0336 7.55462L28.264 7.27348L28.2868 7.23717L28.1861 7.56293L28.1156 8.10032L28.8076 8.19991L28.763 7.60961L30.7362 1.46901L30.0784 1.247L29.0773 4.60934L28.5742 5.51606L28.3293 5.86049L27.8064 6.77862L27.5087 6.99233L27.433 6.66347L28.099 4.24312L29.1479 1.04263L28.5036 0.890124L28.0077 2.76996L27.433 4.48277ZM34.1193 3.94019L33.9678 3.75553L31.2601 8.39184L30.8939 8.81096L31.4199 9.15539L31.6813 9.11389L31.9593 8.93234L32.4417 8.41362L32.6046 8.13663L32.6565 7.82851L32.6357 6.87925L32.5673 6.26509L32.8557 5.88746L33.2333 5.70902L33.502 5.46834L34.1452 4.68507L34.2531 4.41326L34.2406 4.17465L34.1193 3.94019ZM31.8027 9.73117L31.3472 9.78615L30.6957 9.44588L29.9705 8.87944L30.4498 8.34308L33.5642 3.34366L33.7728 2.71498L34.3807 3.20257L34.6286 3.57813L34.8278 3.80844L34.9783 4.2535L34.9471 4.60726L34.8382 4.99527L34.6349 5.34073L34.4139 5.64159L34.1099 5.94763L33.7385 6.1572L33.336 6.3346L33.2198 6.46947L33.2447 6.82531L33.3142 7.177L33.3132 7.58264L33.2343 7.98516L33.0611 8.34826L32.4728 9.28507L32.1419 9.60253L31.8027 9.73117ZM38.6861 7.27141L38.7691 7.48615L38.7224 7.74966L38.5782 8.04222L37.9122 8.93027L37.3779 9.45625L37.1829 9.74984L37.0169 9.89716L36.6507 9.66996L36.4131 9.43135L36.2212 9.28922L36.0687 9.09418L37.5377 7.70298L38.1923 7.29215L38.4558 7.22679L38.6861 7.27141ZM34.0934 10.9688L35.4566 9.77578L35.6703 9.54028L36.5791 10.3588L34.7221 12.3237L35.2387 12.7273L36.0593 11.7365L37.6694 10.1254L39.2339 8.45823L39.4102 8.09928L39.5285 7.76522L39.4995 7.29111L39.3179 6.90208L39.0513 6.64583L38.6705 6.44353L38.211 6.54209L37.3914 6.97885L34.2739 9.97186L33.9492 10.1939L33.6898 10.4501L33.2105 10.7956L33.4751 11.3153L34.0934 10.9688ZM36.4556 14.8966L36.1392 14.1973L36.4016 13.7357L42.2362 10.446L42.5256 10.8309L43.1605 12.0436L42.9613 12.5281L42.4136 12.7688L42.3067 12.0986L42.0069 11.4118L41.9457 11.3765L39.8428 12.5893L39.8521 12.6287L39.9932 12.857L40.097 13.2294L40.4871 13.6558L39.8594 13.994L39.2411 12.9244L38.2503 13.4805L37.3374 14.078L36.9089 14.2783L37.0096 14.5407L37.1558 14.7835L37.5003 15.2441L37.382 15.6954L36.8093 15.4952L36.4556 14.8966ZM44.1721 16.3179L44.1866 16.3583L43.7498 16.5015L38.7017 17.8751L38.1363 17.8533L38.0823 18.2319L38.2618 18.6376L38.9216 18.6023L44.3931 16.8999L44.4366 17.0129L44.418 17.4829L44.7883 17.707L45.4398 17.6862L45.0622 16.8667L44.9522 16.5098L44.8008 16.211L44.6348 15.1227L43.865 15.5336L44.0995 15.9527L44.1721 16.3179ZM38.6923 21.6046L39.1 21.2581L41.1095 20.9739L44.1399 20.9023L45.279 21.0351L45.667 21.2312L45.9855 21.6015L46 22.0705L45.9326 22.5207L45.7064 22.8724L45.4668 23.0612L44.67 23.3392L43.8525 23.3548L43.7892 22.7531L44.4905 22.6846L45.0881 22.4792L45.2012 22.2655L45.1929 22.0009L45.0881 21.7509L44.9522 21.6181L43.2352 21.4646L39.8542 21.6347L39.572 21.6949L39.322 21.8702L39.1851 22.0756L39.1394 22.3454L39.21 22.6182L39.378 22.8745L39.7567 23.1286L39.3843 23.7636L38.7213 23.1058L38.4817 22.6493L38.5014 21.9283L38.6923 21.6046ZM41.898 27.3355L41.9115 27.0948L42.0775 26.9381L42.4583 26.8354L42.7799 26.8157L44.557 27.24L44.7635 27.3666L44.7624 27.5772L44.6556 28.0492L42.0288 27.3604L41.898 27.3355ZM42.7083 26.2659L42.3141 26.2835L41.8389 26.3623L41.593 26.547L41.4654 26.4059L41.0951 26.1932L40.7641 26.1092L40.3896 25.9339L39.3916 25.6444L39.2215 25.5044L38.8594 25.0417L38.433 25.439L38.6488 25.8613L39.0648 26.1507L39.4673 26.2295L39.7993 26.3499L40.484 26.6622L41.121 26.8676L41.3057 27.0564L41.2994 27.2867L38.4807 26.7711L37.8219 27.3012L38.5191 27.5035L39.9591 27.7857L40.3585 27.7888L40.7423 27.8708L41.0722 27.8822L41.5069 27.9776L41.8482 28.0212L44.78 28.737L45.0954 28.6157L45.3278 27.544L45.2842 27.1425L44.8527 26.797L43.81 26.4713L42.7083 26.2659ZM4.86876 20.3037L5.86159 20.5558L6.15415 20.5382L6.36889 20.4261L6.53385 20.2176L6.63967 20.006L1.24499 19.5194L0.705518 19.3659L0.609038 19.9821L0.756355 20.1989L1.04061 20.3722L1.71806 20.5859L2.04278 20.617L2.34778 20.5361L3.21197 20.119L3.74625 19.8016L4.17471 19.869L4.53574 20.1636L4.86876 20.3037ZM5.09284 21.1949L4.68513 21.0527L4.33655 20.8037L4.00353 20.5174L3.83236 20.4707L3.51594 20.645L3.22027 20.8515L2.84887 21.0206L2.4453 21.1191L2.03759 21.116L0.930644 20.9801L0.529156 20.8442L0.23971 20.5672L-0.000976562 20.1294L0.0384466 19.454L0.255271 18.566L0.949317 18.7714L6.85027 19.4717L7.51423 19.3949L7.32126 20.1439L7.07954 20.5226L6.95297 20.7986L6.60439 21.1202L6.26723 21.2415L5.8647 21.3059L5.4601 21.2675L5.09284 21.1949ZM2.01057 28.1996L5.24115 27.212L6.94566 26.9402L7.10958 27.0377L7.27349 27.2535L7.34819 27.5077L7.29113 27.7432L6.76619 28.0855L6.10223 28.3262L6.31386 28.8927L7.10024 28.6769L7.80467 28.2152L7.99036 27.9714L8.1076 27.6124L8.0744 27.1228L7.94264 26.6736L7.54219 26.3935L7.11477 26.2949L5.97566 26.4453L3.06046 27.2545L1.1827 28.0202L0.876651 28.4559L0.783282 28.7754L0.93475 29.5193L1.27814 29.9042L2.08527 30.3793L2.28861 29.6718L1.85703 29.5172L1.63191 29.3087L1.49289 29.0638L1.47318 28.792L1.55202 28.5586L1.75018 28.3293L2.01057 28.1996ZM9.25292 32.1481L9.16785 31.6844L9.10457 31.5827L4.12072 34.3921L3.48165 34.5633L3.22126 34.2064L3.19117 33.8226L3.74931 33.7271L8.38977 31.3275L8.78296 31.0962L8.76221 31.0599L8.6149 30.7185L8.29225 30.3575L8.95829 29.7963L9.35355 30.8254L9.56519 31.0827L9.74986 31.4105L10.2924 32.1305L9.60876 32.2705L9.25292 32.1481ZM11.1297 34.6598L11.3548 34.7106L11.4336 34.9254L11.3776 35.1899L11.2241 35.4773L10.53 36.3456L9.9781 36.8519L9.77684 37.1403L9.60566 37.2824L9.24671 37.0448L9.0164 36.799L8.82758 36.6496L8.68027 36.4504L10.1939 35.1069L10.862 34.7148L11.1297 34.6598ZM12.1692 34.7562L11.999 34.361L11.7417 34.0964L11.3683 33.8827L10.9056 33.9647L10.0715 34.3776L6.8606 37.271L6.52758 37.4837L6.26096 37.7316L5.77129 38.0615L6.02028 38.5906L6.64793 38.2618L8.04951 37.1123L8.27048 36.882L9.1523 37.7306L7.23097 39.6353L7.7362 40.0555L8.58897 39.0907L10.2489 37.5314L11.8683 35.913L12.0519 35.5603L12.1806 35.2293L12.1692 34.7562ZM14.3468 38.0283L14.5522 37.7876L15.0232 37.0811L15.4672 37.5407L14.99 38.2669L14.7255 38.5792L12.9214 39.6799L12.9411 40.0067L12.8124 40.3429L12.7263 40.7174L12.551 41.1178L12.4566 41.4436L12.274 41.8502L12.2221 42.1885L12.2999 43.3161L11.721 43.4666L11.5519 42.2808L11.5965 41.8534L11.8663 41.1365L12.0271 40.8024L12.1142 40.5898L11.2366 41.9218L10.9865 42.4935L10.3257 42.3399L13.5002 37.0189L13.659 36.6662L13.7824 36.3529L14.38 36.245L14.2648 36.8799L13.1797 38.7628L14.3468 38.0283ZM17.0846 41.8015L16.8553 41.706L17.4404 39.7816L17.8056 39.1031L18.0038 38.9174L18.2247 38.8469L18.4042 38.9911L18.4945 39.2452L18.5173 39.5689L18.3793 40.6665L18.177 41.3824L18.1542 41.7341L18.0826 41.9436L17.6521 41.9229L17.3253 41.8316L17.0846 41.8015ZM19.2684 39.2141L19.2051 38.8655L18.9437 38.4682L18.5889 38.2161L18.2299 38.1238L17.7994 38.1321L17.4477 38.4412L16.9518 39.2203L15.7338 43.3421L15.5616 43.6959L15.4631 44.0444L15.2193 44.5787L15.71 44.9003L16.0741 44.2976L16.6634 42.5962L16.7329 42.286L17.513 42.4883L17.9311 42.5567L17.2941 45.1721L17.9467 45.2717L19.2933 39.6104L19.2684 39.2141ZM22.9927 38.7659L23.6536 39.0803L23.5519 44.9605L23.6764 45.7904L23.0446 45.8164L22.9212 45.3122L22.971 42.7912L22.9035 42.5028L22.3661 42.4945L22.002 42.4146L22.0383 42.8483L21.9646 43.2197L21.918 44.3453L21.9916 44.5839L21.9688 46L21.2084 45.8039L21.338 45.4076L21.3453 45.0673L21.3069 44.6762L21.3297 39.4579L21.2592 38.6093L21.865 38.5626L21.9906 39.0523L21.9429 40.1789L22.0196 41.2911L21.9812 41.7558L22.1088 41.7652L22.7489 41.8534L22.9004 41.8088L22.9927 38.7659ZM28.3397 41.9478L28.3086 41.5255L27.5544 38.5284L27.296 38.0512L26.741 38.3095L27.0356 39.0253L27.7048 41.9882L27.2794 42.092L27.0585 42.0339L26.824 41.9146L26.713 41.6635L26.4246 40.5846L25.7305 38.2192L25.2461 38.7608L25.7928 41.0504L26.3385 42.3793L26.6839 42.6802L27.1819 42.7383L27.5139 42.6906L27.8594 42.5775L27.9652 42.9323L28.0222 43.3141L28.1415 43.6803L28.4403 45.28L29.0265 45.1452L28.4393 42.3181L28.3397 41.9478ZM30.2891 36.9442L30.9157 36.6423L33.9035 42.3679L34.3579 42.7539L33.7956 43.1668L33.4626 42.7383L33.3008 42.4374L33.3112 42.4789L33.3485 42.8389L33.3039 43.2871L32.9989 43.5423L32.5777 43.7145L32.1762 43.5517L31.9417 43.2985L30.7279 41.0805L29.9115 39.4683L28.9176 37.7897L29.484 37.4484L31.0309 40.4456L32.2872 42.6242L32.5134 42.8026L32.5746 42.8047L32.6316 42.4468L32.3474 41.4332L32.2737 41.0162L31.9843 40.0223L30.2891 36.9442ZM37.3779 39.875L38.5689 40.0897L38.6083 39.4973L37.5014 39.2152L37.1922 39.0596L36.8613 38.7597L36.5749 38.5699L36.2461 38.2784L35.9141 38.0792L35.5966 37.825L35.3113 37.7669L34.8248 35.7304L34.6069 35.3829L34.0602 34.7085L33.4792 34.9762L34.0094 35.6433L34.1753 35.912L34.5125 37.2368L33.0466 35.6246L32.4739 35.3165L32.3889 35.9109L32.9387 36.3861L37.048 41.04L37.4028 40.4674L36.9349 40.0555L35.9328 38.8137L36.9816 39.6945L37.3779 39.875ZM41.0017 36.0935L41.3056 35.6059L41.7756 35.5468L41.7995 36.1443L40.8284 37.244L40.3419 37.2067L35.0354 33.0486L35.2895 32.6378L36.1931 31.6066H36.7253L37.1528 32.0226L36.5625 32.3681L36.0292 32.8982L36.0188 32.9667L37.9423 34.445L37.9723 34.4212L38.1363 34.2043L38.4485 33.973L38.7017 33.4574L39.2557 33.9066L38.4807 34.8704L39.3698 35.5738L40.2713 36.19L40.6199 36.5085L40.8294 36.3176L41.0017 36.0935Z" fill="#6E0A78"/>
</svg>
