<svg width="46" height="46" viewBox="0 0 46 46" fill="none" xmlns="http://www.w3.org/2000/svg">
<path d="M22.9995 46C35.6994 46 45.999 35.7014 45.999 22.9995C45.999 10.2986 35.6994 0 22.9995 0C10.2957 0 0 10.2986 0 22.9995C0 35.7014 10.2957 46 22.9995 46Z" fill="#6E0A78"/>
<path d="M31.6866 37.7112L31.7119 37.7035V37.7074V37.7112V37.7161L31.7918 37.7327L31.7119 37.7483V37.7522V37.756V37.7599V37.7658V37.7677V37.7726V37.7814V37.7843V37.794V37.7969V37.8057V37.8096V37.8145V37.8174V37.8223V37.8271V37.8301V37.8339V37.8388V37.8427V37.8466V37.8554V37.8583V37.8632V37.867V37.8709V37.8748V37.8797V37.8836V37.8875V37.8924V37.8963V37.9041V37.9079V37.9118V37.9167V37.9196V37.9245V37.9294V37.9323V37.9411V37.945V37.9498V37.9537V37.9566V37.9615V37.9664V37.9693V37.9732V37.9771V37.981V37.9858V37.9888V37.9946V37.9985V38.0024V38.0063V38.0141V38.019V38.0267V38.0306V38.0384V38.0433V38.0511V38.056V38.0589V38.0638V38.0677V38.0716V38.0754V38.0803V38.0832V38.0881V38.092V38.0959V38.0998V38.1037V38.1124V38.1163V38.1251V38.129V38.1329V38.1358V38.1417V38.1446V38.1494V38.1543V38.1572V38.1611V38.166V38.1699V38.1738V38.1777V38.1855V38.1894V38.1981V38.202V38.2069V38.2108V38.2157V38.2196V38.2234V38.2264V38.2322V38.2351V38.239V38.2478V38.2507V38.2595V38.2653V38.2673V38.2721V38.2751V38.2809V38.2848V38.2887V38.2936V38.2965V38.3004V38.3043V38.3091V38.313V38.3218V38.3257V38.3345V38.3374V38.3403V38.3461V38.3491V38.3549V38.3588V38.3617V38.3676V38.3705V38.3744V38.3822V38.3871V38.3958V38.3997V38.4026V38.4075V38.4114V38.4153V38.4201V38.424V38.4279V38.4328V38.4357V38.4396V38.4445V38.4484V38.4552V38.4611V38.4688V38.4727V38.4766V38.4805V38.4854V38.4893V38.4932V38.5097C25.9482 40.1583 19.9858 40.0814 14.2152 38.5097V38.0754C14.2152 37.9449 14.1957 37.8631 14.1957 37.7356L14.1802 37.7327L14.1957 37.7278V37.7035L14.2522 37.7161C16.5513 37.2594 20.5457 35.8153 21.4757 33.6983H21.5156C20.7463 33.2806 20.1815 32.6798 20.0539 31.6768L21.4591 30.6504C21.4591 28.3659 19.8446 27.9979 18.122 27.1263C9.48268 22.8534 11.5967 13.6961 15.5064 7.01893C15.6379 6.75309 15.7586 6.50674 15.8667 6.28082H30.2503H30.298C40.9696 26.7135 24.4836 26.0269 24.4836 30.6504L25.9258 31.6768C25.7943 32.6798 25.2149 33.2806 24.4272 33.6983H24.4671H24.4963C25.6697 36.3743 29.816 37.3266 31.6866 37.7112V37.7112Z" fill="white"/>
</svg>
