<svg width="20" height="20" viewBox="0 0 20 20" fill="none" xmlns="http://www.w3.org/2000/svg">
<path d="M0 8.22711L18.8077 1.40894C19.5991 3.5949 20.0026 5.9023 20 8.22711H0Z" fill="#CF80D8"/>
<path d="M13.3079 4.22943L15.9785 4.78244L15.2727 3.7079L16.4394 2.55693L15.104 2.28045L15.4727 0.5L12.7864 2.26471L13.3079 4.22943Z" fill="#2DB055"/>
<path d="M0 8.55371H20V18.0992H0V8.55371Z" fill="#6D0978"/>
<path d="M0 13.6819H20V15.5001H0V13.6819Z" fill="white"/>
<path d="M8.63647 10.9546H9.54557V11.8637H8.63647V10.9546Z" fill="#8F149D"/>
<path d="M11.3638 11.4089H12.2729V12.318H11.3638V11.4089Z" fill="#8F149D"/>
<path d="M14.0911 10.9546H15.0002V11.8637H14.0911V10.9546Z" fill="#8F149D"/>
<path d="M16.8184 11.4089H17.7274V12.318H16.8184V11.4089Z" fill="#8F149D"/>
<path d="M7.35174 4.91605C7.47399 5.34393 7.7323 5.72034 8.08756 5.98832C8.44283 6.2563 8.87572 6.40127 9.32072 6.40127H11.2291C11.6882 6.4013 12.1372 6.26662 12.5205 6.01391C12.9038 5.76121 13.2046 5.40159 13.3854 4.97963L13.5141 4.67957C13.6988 4.24861 13.7501 3.7722 13.6614 3.31179C13.5727 2.85139 13.3482 2.42811 13.0166 2.09656C12.6789 1.75888 12.2462 1.53229 11.7763 1.44708C11.3064 1.36186 10.8217 1.42208 10.3869 1.61969L8.47334 2.48929C8.02666 2.69232 7.66772 3.04899 7.46188 3.49438C7.25603 3.93977 7.21695 4.44427 7.35174 4.91605V4.91605Z" fill="#FF0000"/>
<path d="M10.9766 2.31812H11.8857V3.22721H10.9766V2.31812Z" fill="#DE0000"/>
<path d="M9.61279 3.68188H10.5219V4.59098H9.61279V3.68188Z" fill="#DE0000"/>
<path d="M11.4312 4.13623H12.3402V5.04531H11.4312V4.13623Z" fill="#DE0000"/>
<path d="M0 10.0671H1.17653C1.71902 10.0671 2.23929 10.2826 2.62289 10.6662C3.00648 11.0498 3.22199 11.57 3.22199 12.1125V14.1565C3.22199 14.3329 3.25674 14.5076 3.32426 14.6706C3.39177 14.8336 3.49074 14.9818 3.61549 15.1065C3.74025 15.2313 3.88836 15.3302 4.05136 15.3977C4.21437 15.4653 4.38907 15.5 4.56551 15.5C4.92184 15.5 5.26357 15.3585 5.51554 15.1065C5.76751 14.8546 5.90907 14.5128 5.90909 14.1565V12.094C5.90909 11.8251 5.9621 11.5589 6.06509 11.3105C6.16808 11.0621 6.31902 10.8365 6.50929 10.6465C6.69956 10.4566 6.92542 10.306 7.17394 10.2033C7.42247 10.1007 7.68879 10.0481 7.95766 10.0485L20 10.0671V8.22729H0V10.0671Z" fill="#B55CBF"/>
<path d="M0 18.0991H20V19.4628H0V18.0991Z" fill="#B55CBF"/>
</svg>
