<svg width="21" height="20" viewBox="0 0 21 20" fill="none" xmlns="http://www.w3.org/2000/svg">
<path fill-rule="evenodd" clip-rule="evenodd" d="M13.1411 5.17128L10.7424 1.67127C10.5859 1.44291 10.2488 1.44291 10.0923 1.67127L7.69362 5.17128C7.25229 5.81523 6.60247 6.28736 5.85366 6.50809L1.78371 7.70784C1.51816 7.78612 1.41401 8.10664 1.58284 8.32606L4.1703 11.6889C4.64636 12.3076 4.89457 13.0716 4.8731 13.8519L4.75645 18.0934C4.74884 18.3702 5.02149 18.5683 5.28234 18.4755L9.28019 17.0539C10.0157 16.7923 10.819 16.7923 11.5545 17.0539L15.5524 18.4755C15.8132 18.5683 16.0859 18.3702 16.0782 18.0934L15.9616 13.8519C15.9401 13.0716 16.1883 12.3076 16.6644 11.6889L19.2519 8.32606C19.4207 8.10664 19.3165 7.78612 19.051 7.70784L14.981 6.50809C14.2322 6.28735 13.5824 5.81523 13.1411 5.17128ZM11.9797 0.823292C11.2274 -0.274431 9.60734 -0.274431 8.85502 0.823293L6.45631 4.3233C6.21003 4.68265 5.8474 4.94612 5.42953 5.0693L1.35958 6.26905C0.0831052 6.64533 -0.417506 8.18605 0.394012 9.24077L2.98147 12.6036C3.24713 12.9489 3.38565 13.3752 3.37367 13.8107L3.25701 18.0522C3.22043 19.3825 4.53105 20.3347 5.78491 19.8888L9.78276 18.4672C10.1932 18.3212 10.6415 18.3212 11.0519 18.4672L15.0498 19.8888C16.3036 20.3347 17.6143 19.3825 17.5777 18.0522L17.461 13.8107C17.449 13.3752 17.5876 12.9489 17.8532 12.6036L20.4407 9.24077C21.2522 8.18605 20.7516 6.64533 19.4751 6.26905L15.4052 5.0693C14.9873 4.94612 14.6247 4.68265 14.3784 4.3233L11.9797 0.823292Z" fill="#FFC700"/>
</svg>
