<svg width="30" height="30" viewBox="0 0 30 30" fill="none" xmlns="http://www.w3.org/2000/svg">
<path d="M15 30C23.2843 30 30 23.2843 30 15C30 6.71573 23.2843 0 15 0C6.71573 0 0 6.71573 0 15C0 23.2843 6.71573 30 15 30Z" fill="#6D0978"/>
<path d="M24.8267 12.6613V19.0393C24.8267 20.3149 23.7873 21.3542 22.5118 21.3542V24.3542L18.8503 21.3542H12.1653C10.8897 21.3542 9.85034 20.3149 9.85034 19.0393V17.7165L11.1259 16.6535H17.8346C19.1102 16.6535 20.1496 15.6141 20.1496 14.3385V10.3228H22.5118C23.7873 10.3464 24.8267 11.3857 24.8267 12.6613Z" fill="#E5D2F1"/>
<path d="M17.8348 5.64575H7.4883C6.21271 5.64575 5.17334 6.68512 5.17334 7.96071V14.3387C5.17334 15.6143 6.21271 16.6536 7.4883 16.6536V19.6536L11.1497 16.6536H17.8348C19.1103 16.6536 20.1497 15.6143 20.1497 14.3387V7.96071C20.1497 6.68512 19.1103 5.64575 17.8348 5.64575Z" fill="white"/>
<path d="M8.36209 12.6614C9.1579 12.6614 9.80303 12.0163 9.80303 11.2205C9.80303 10.4247 9.1579 9.77954 8.36209 9.77954C7.56628 9.77954 6.92114 10.4247 6.92114 11.2205C6.92114 12.0163 7.56628 12.6614 8.36209 12.6614Z" fill="#6D0978"/>
<path d="M12.6614 12.6614C13.4572 12.6614 14.1023 12.0163 14.1023 11.2205C14.1023 10.4247 13.4572 9.77954 12.6614 9.77954C11.8656 9.77954 11.2205 10.4247 11.2205 11.2205C11.2205 12.0163 11.8656 12.6614 12.6614 12.6614Z" fill="#6D0978"/>
<path d="M16.9368 12.6614C17.7326 12.6614 18.3777 12.0163 18.3777 11.2205C18.3777 10.4247 17.7326 9.77954 16.9368 9.77954C16.141 9.77954 15.4958 10.4247 15.4958 11.2205C15.4958 12.0163 16.141 12.6614 16.9368 12.6614Z" fill="#6D0978"/>
</svg>
