<svg width="30" height="30" viewBox="0 0 30 30" fill="none" xmlns="http://www.w3.org/2000/svg">
<path fill-rule="evenodd" clip-rule="evenodd" d="M15 30C23.2843 30 30 23.2843 30 15C30 6.71573 23.2843 0 15 0C6.71573 0 0 6.71573 0 15C0 23.2843 6.71573 30 15 30Z" fill="#6D0978"/>
<path fill-rule="evenodd" clip-rule="evenodd" d="M22.6319 8.10831L19.7691 22.7273C19.7691 22.7273 19.3686 23.7413 18.2676 23.2546L11.6609 18.1246L9.25865 16.9486L5.21465 15.5701C5.21465 15.5701 4.59365 15.3473 4.53365 14.8606C4.47365 14.3738 5.23415 14.1106 5.23415 14.1106L21.3111 7.72356C21.3104 7.72281 22.6319 7.13481 22.6319 8.10831Z" fill="white"/>
<path fill-rule="evenodd" clip-rule="evenodd" d="M11.1526 22.5622C11.1526 22.5622 10.9598 22.5442 10.7191 21.7732C10.4791 21.0029 9.25732 16.9477 9.25732 16.9477L18.9676 10.7024C18.9676 10.7024 19.5278 10.3574 19.5083 10.7024C19.5083 10.7024 19.6081 10.7632 19.3081 11.0474C19.0081 11.3317 11.6798 18.0022 11.6798 18.0022" fill="#E5D2F1"/>
<path fill-rule="evenodd" clip-rule="evenodd" d="M14.1938 20.0911L11.5808 22.5038C11.5808 22.5038 11.3768 22.6606 11.1533 22.5623L11.6536 18.0803" fill="#CAB5E4"/>
</svg>
