<svg width="31" height="30" viewBox="0 0 31 30" fill="none" xmlns="http://www.w3.org/2000/svg">
<path fill-rule="evenodd" clip-rule="evenodd" d="M15.4934 30C12.8019 29.9989 10.1621 29.2761 7.85925 27.9099L7.31151 27.5849L1.63466 29.0736L3.14994 23.5405L2.79324 22.9733C1.29184 20.5858 0.498788 17.8266 0.500001 14.9935C0.503295 6.72604 7.23194 0 15.5054 0C19.5117 0.00156027 23.2776 1.5633 26.1095 4.39743C28.9414 7.23166 30.5001 10.999 30.4985 15.0055C30.4951 23.2734 23.7666 30 15.4994 30H15.4934Z" fill="#6D0978"/>
<path fill-rule="evenodd" clip-rule="evenodd" d="M20.3002 17.0739C20.0334 16.9404 18.7219 16.2953 18.4773 16.2063C18.2328 16.1173 18.055 16.0729 17.8771 16.3398C17.6993 16.6067 17.188 17.2075 17.0324 17.3854C16.8769 17.5634 16.7213 17.5857 16.4545 17.4521C16.1877 17.3186 15.3282 17.0371 14.3093 16.1285C13.5162 15.4214 12.9808 14.5481 12.8252 14.2811C12.6696 14.0141 12.8086 13.8698 12.9422 13.7368C13.0622 13.6174 13.209 13.4254 13.3423 13.2696C13.4757 13.1139 13.5202 13.0026 13.6091 12.8247C13.698 12.6467 13.6536 12.491 13.5869 12.3575C13.5202 12.224 12.9867 10.9114 12.7643 10.3774C12.5478 9.85741 12.3279 9.92777 12.1642 9.91962C12.0087 9.91188 11.8307 9.91024 11.6529 9.91024C11.4751 9.91024 11.186 9.97695 10.9415 10.2439C10.697 10.5109 10.0079 11.1561 10.0079 12.4687C10.0079 13.7813 10.9637 15.0494 11.0972 15.2274C11.2305 15.4054 12.9782 18.099 15.6542 19.2542C16.2906 19.529 16.7876 19.693 17.175 19.816C17.8141 20.0189 18.3956 19.9902 18.8552 19.9216C19.3677 19.8451 20.4336 19.2764 20.6559 18.6535C20.8781 18.0306 20.8781 17.4966 20.8115 17.3854C20.7447 17.2742 20.5669 17.2075 20.3002 17.0739ZM15.4327 23.7178H15.4292C13.8369 23.7171 12.2751 23.2895 10.9127 22.4812L10.5886 22.289L7.23013 23.1697L8.12659 19.8962L7.91557 19.5606C7.02731 18.1482 6.55813 16.5158 6.55885 14.8397C6.5608 9.94854 10.5416 5.96931 15.4363 5.96931C17.8064 5.97024 20.0344 6.89418 21.7098 8.5709C23.3852 10.2477 24.3074 12.4765 24.3064 14.8468C24.3044 19.7382 20.3237 23.7178 15.4327 23.7178ZM22.985 7.2968C20.9693 5.27941 18.2886 4.16788 15.4326 4.16675C9.54803 4.16675 4.75859 8.95429 4.75629 14.839C4.75547 16.72 5.24711 18.5562 6.18136 20.1747L4.66675 25.7054L10.3264 24.2213C11.8858 25.0715 13.6415 25.5196 15.4284 25.5203H15.4327H15.4328C21.3168 25.5203 26.1066 20.7322 26.109 14.8475C26.1101 11.9957 25.0006 9.31413 22.985 7.2968Z" fill="white"/>
</svg>
