<?xml version="1.0" encoding="UTF-8"?>
<svg width="82px" height="82px" viewBox="0 0 82 82" version="1.1" xmlns="http://www.w3.org/2000/svg" xmlns:xlink="http://www.w3.org/1999/xlink">
    <!-- Generator: Sketch 51.2 (57519) - http://www.bohemiancoding.com/sketch -->
    <title>face-id</title>
    <desc>Created with Sketch.</desc>
    <defs></defs>
    <g id="Symbols" stroke="none" stroke-width="1" fill="none" fill-rule="evenodd">
        <g id="Glyphs/Face-ID" transform="translate(-4.000000, -4.000000)" fill="#222748" fill-rule="nonzero">
            <g id="face-id" transform="translate(4.806452, 4.806452)">
                <g transform="translate(23.225806, 56.612903)" id="Shape">
                    <path d="M0.508897849,2.50801632 C0.089993291,2.14810326 0.0421712385,1.51674683 0.402084306,1.09784227 C0.761997373,0.678937711 1.3933538,0.631115658 1.81225836,0.991028725 C5.93401121,4.53234304 11.0601677,6.41519251 16.3365995,6.41519251 C21.6115839,6.41519251 26.7388516,4.53179068 30.8610297,0.990952209 C31.2799765,0.631088333 31.9113273,0.67898452 32.2711912,1.09793134 C32.6310551,1.51687815 32.5831589,2.14822896 32.1642121,2.50809284 C27.6778013,6.3617972 22.0877529,8.41519251 16.3365995,8.41519251 C10.5839762,8.41519251 4.99495354,6.36233118 0.508897849,2.50801632 Z"></path>
                </g>
                <rect id="Rectangle-11" x="21.3225806" y="22.7741935" width="2" height="7.25806452" rx="1"></rect>
                <rect id="Rectangle-11-Copy" x="59.0645161" y="22.7741935" width="2" height="7.25806452" rx="1"></rect>
                <path d="M40.6451613,25.6774194 C40.6451613,25.1251346 41.0928765,24.6774194 41.6451613,24.6774194 C42.197446,24.6774194 42.6451613,25.1251346 42.6451613,25.6774194 L42.6451613,38.0967742 C42.6451613,41.4104827 39.9588698,44.0967742 36.6451613,44.0967742 L32.9354839,44.0967742 C32.3831991,44.0967742 31.9354839,43.6490589 31.9354839,43.0967742 C31.9354839,42.5444894 32.3831991,42.0967742 32.9354839,42.0967742 L36.6451613,42.0967742 C38.8543003,42.0967742 40.6451613,40.3059132 40.6451613,38.0967742 L40.6451613,25.6774194 Z" id="Path-7"></path>
                <path d="M24.2258065,0 C24.7780912,0 25.2258065,0.44771525 25.2258065,1 C25.2258065,1.55228475 24.7780912,2 24.2258065,2 L9,2 C5.13400675,2 2,5.13400675 2,9 L2,24.2258065 C2,24.7780912 1.55228475,25.2258065 1,25.2258065 C0.44771525,25.2258065 0,24.7780912 0,24.2258065 L0,9 C-6.66133815e-16,4.02943725 4.02943725,8.8817842e-16 9,0 L24.2258065,0 Z" id="Path-14"></path>
                <path d="M79.3870968,0 C79.9393815,0 80.3870968,0.44771525 80.3870968,1 C80.3870968,1.55228475 79.9393815,2 79.3870968,2 L64.1612903,2 C60.2952971,2 57.1612903,5.13400675 57.1612903,9 L57.1612903,24.2258065 C57.1612903,24.7780912 56.7135751,25.2258065 56.1612903,25.2258065 C55.6090056,25.2258065 55.1612903,24.7780912 55.1612903,24.2258065 L55.1612903,9 C55.1612903,4.02943725 59.1907276,8.8817842e-16 64.1612903,0 L79.3870968,0 Z" id="Path-14-Copy" transform="translate(67.774194, 12.612903) scale(-1, 1) translate(-67.774194, -12.612903) "></path>
                <path d="M24.2258065,55.1612903 C24.7780912,55.1612903 25.2258065,55.6090056 25.2258065,56.1612903 C25.2258065,56.7135751 24.7780912,57.1612903 24.2258065,57.1612903 L9,57.1612903 C5.13400675,57.1612903 2,60.2952971 2,64.1612903 L2,79.3870968 C2,79.9393815 1.55228475,80.3870968 1,80.3870968 C0.44771525,80.3870968 0,79.9393815 0,79.3870968 L0,64.1612903 C-6.66133815e-16,59.1907276 4.02943725,55.1612903 9,55.1612903 L24.2258065,55.1612903 Z" id="Path-14-Copy-2" transform="translate(12.612903, 67.774194) scale(1, -1) translate(-12.612903, -67.774194) "></path>
                <path d="M79.3870968,55.1612903 C79.9393815,55.1612903 80.3870968,55.6090056 80.3870968,56.1612903 C80.3870968,56.7135751 79.9393815,57.1612903 79.3870968,57.1612903 L64.1612903,57.1612903 C60.2952971,57.1612903 57.1612903,60.2952971 57.1612903,64.1612903 L57.1612903,79.3870968 C57.1612903,79.9393815 56.7135751,80.3870968 56.1612903,80.3870968 C55.6090056,80.3870968 55.1612903,79.9393815 55.1612903,79.3870968 L55.1612903,64.1612903 C55.1612903,59.1907276 59.1907276,55.1612903 64.1612903,55.1612903 L79.3870968,55.1612903 Z" id="Path-14-Copy-3" transform="translate(67.774194, 67.774194) scale(-1, -1) translate(-67.774194, -67.774194) "></path>
            </g>
        </g>
    </g>
</svg>