<svg width="311" height="123" viewBox="0 0 311 123" fill="none" xmlns="http://www.w3.org/2000/svg">
<g filter="url(#filter0_i)">
<path d="M134 68C134 66.8954 134.895 66 136 66H174C175.105 66 176 66.8954 176 68V101C176 102.105 175.105 103 174 103H136C134.895 103 134 102.105 134 101V68Z" fill="#B55CBF"/>
</g>
<g filter="url(#filter1_i)">
<path fill-rule="evenodd" clip-rule="evenodd" d="M158 85.1973C159.793 84.1599 161 82.2208 161 80C161 76.6863 158.314 74 155 74C151.686 74 149 76.6863 149 80C149 82.2208 150.207 84.1599 152 85.1973V92C152 93.6569 153.343 95 155 95C156.657 95 158 93.6569 158 92V85.1973Z" fill="#6D0978"/>
</g>
<path d="M167 66V62C167 55.3726 161.627 50 155 50V50C148.373 50 143 55.3726 143 62V66" stroke="#6D0978" stroke-width="6"/>
<rect x="120" y="99" width="70" height="24" rx="12" fill="#F5F7FA"/>
<g clip-path="url(#clip0)">
<path d="M138.75 109.993C138.917 109.896 139.038 109.737 139.088 109.551C139.138 109.365 139.112 109.167 139.015 109C138.919 108.833 138.76 108.712 138.574 108.662C138.388 108.612 138.19 108.638 138.023 108.735L136.552 109.584C136.524 109.6 136.493 109.608 136.461 109.608C136.429 109.608 136.397 109.6 136.37 109.583C136.342 109.567 136.319 109.544 136.303 109.517C136.287 109.489 136.279 109.457 136.279 109.425V107.727C136.279 107.534 136.202 107.349 136.066 107.213C135.93 107.077 135.745 107 135.552 107C135.359 107 135.174 107.077 135.038 107.213C134.901 107.349 134.825 107.534 134.825 107.727V109.425C134.825 109.457 134.816 109.489 134.8 109.517C134.785 109.544 134.762 109.567 134.734 109.583C134.706 109.6 134.675 109.608 134.643 109.608C134.611 109.608 134.58 109.6 134.552 109.584L133.081 108.735C132.915 108.641 132.719 108.617 132.535 108.666C132.351 108.716 132.194 108.836 132.097 109C132.001 109.167 131.975 109.365 132.025 109.551C132.074 109.737 132.196 109.896 132.363 109.993L133.834 110.842C133.862 110.858 133.885 110.881 133.901 110.908C133.917 110.936 133.926 110.968 133.926 111C133.926 111.032 133.917 111.064 133.901 111.092C133.885 111.119 133.862 111.142 133.834 111.158L132.363 112.007C132.196 112.104 132.074 112.263 132.025 112.449C131.975 112.635 132.001 112.833 132.097 113C132.194 113.167 132.353 113.288 132.539 113.338C132.725 113.388 132.923 113.362 133.09 113.265L134.561 112.416C134.589 112.4 134.62 112.392 134.652 112.392C134.684 112.392 134.715 112.4 134.743 112.417C134.771 112.433 134.794 112.456 134.81 112.483C134.825 112.511 134.834 112.543 134.834 112.575V114.273C134.834 114.466 134.91 114.651 135.047 114.787C135.183 114.923 135.368 115 135.561 115C135.754 115 135.939 114.923 136.075 114.787C136.212 114.651 136.288 114.466 136.288 114.273V112.575C136.288 112.543 136.296 112.511 136.312 112.483C136.328 112.456 136.351 112.433 136.379 112.417C136.406 112.4 136.438 112.392 136.47 112.392C136.502 112.392 136.533 112.4 136.561 112.416L138.032 113.265C138.198 113.359 138.394 113.383 138.578 113.334C138.762 113.284 138.919 113.164 139.015 113C139.112 112.833 139.138 112.635 139.088 112.449C139.038 112.263 138.917 112.104 138.75 112.007L137.279 111.158C137.251 111.142 137.228 111.119 137.212 111.092C137.195 111.064 137.187 111.032 137.187 111C137.187 110.968 137.195 110.936 137.212 110.908C137.228 110.881 137.251 110.858 137.279 110.842L138.75 109.993Z" fill="black"/>
<path d="M151.862 109.993C152.029 109.896 152.151 109.737 152.2 109.551C152.25 109.365 152.224 109.167 152.128 109C152.031 108.833 151.872 108.712 151.686 108.662C151.5 108.612 151.302 108.638 151.135 108.735L149.664 109.584C149.636 109.6 149.605 109.608 149.573 109.608C149.541 109.608 149.51 109.6 149.482 109.583C149.454 109.567 149.431 109.544 149.416 109.517C149.4 109.489 149.391 109.457 149.391 109.425V107.727C149.391 107.534 149.315 107.349 149.178 107.213C149.042 107.077 148.857 107 148.664 107C148.471 107 148.286 107.077 148.15 107.213C148.014 107.349 147.937 107.534 147.937 107.727V109.425C147.937 109.457 147.929 109.489 147.913 109.517C147.897 109.544 147.874 109.567 147.846 109.583C147.819 109.6 147.787 109.608 147.755 109.608C147.723 109.608 147.692 109.6 147.664 109.584L146.193 108.735C146.027 108.641 145.831 108.617 145.647 108.666C145.463 108.716 145.306 108.836 145.21 109C145.113 109.167 145.087 109.365 145.137 109.551C145.187 109.737 145.308 109.896 145.475 109.993L146.946 110.842C146.974 110.858 146.997 110.881 147.013 110.908C147.03 110.936 147.038 110.968 147.038 111C147.038 111.032 147.03 111.064 147.013 111.092C146.997 111.119 146.974 111.142 146.946 111.158L145.475 112.007C145.308 112.104 145.187 112.263 145.137 112.449C145.087 112.635 145.113 112.833 145.21 113C145.306 113.167 145.465 113.288 145.651 113.338C145.837 113.388 146.035 113.362 146.202 113.265L147.673 112.416C147.701 112.4 147.732 112.392 147.764 112.392C147.796 112.392 147.828 112.4 147.855 112.417C147.883 112.433 147.906 112.456 147.922 112.483C147.938 112.511 147.946 112.543 147.946 112.575V114.273C147.946 114.466 148.023 114.651 148.159 114.787C148.295 114.923 148.48 115 148.673 115C148.866 115 149.051 114.923 149.188 114.787C149.324 114.651 149.401 114.466 149.401 114.273V112.575C149.4 112.543 149.409 112.511 149.425 112.483C149.441 112.456 149.463 112.433 149.491 112.417C149.519 112.4 149.55 112.392 149.582 112.392C149.614 112.392 149.646 112.4 149.673 112.416L151.144 113.265C151.31 113.359 151.506 113.383 151.69 113.334C151.874 113.284 152.031 113.164 152.128 113C152.224 112.833 152.25 112.635 152.2 112.449C152.151 112.263 152.029 112.104 151.862 112.007L150.391 111.158C150.363 111.142 150.34 111.119 150.324 111.092C150.308 111.064 150.299 111.032 150.299 111C150.299 110.968 150.308 110.936 150.324 110.908C150.34 110.881 150.363 110.858 150.391 110.842L151.862 109.993Z" fill="black"/>
<path d="M164.976 109.993C165.142 109.896 165.264 109.737 165.314 109.551C165.363 109.365 165.337 109.167 165.241 109C165.145 108.833 164.986 108.712 164.8 108.662C164.613 108.612 164.415 108.638 164.248 108.735L162.777 109.584C162.75 109.6 162.718 109.608 162.686 109.608C162.654 109.608 162.623 109.6 162.595 109.583C162.568 109.567 162.545 109.544 162.529 109.517C162.513 109.489 162.505 109.457 162.505 109.425V107.727C162.505 107.534 162.428 107.349 162.292 107.213C162.155 107.077 161.97 107 161.777 107C161.585 107 161.4 107.077 161.263 107.213C161.127 107.349 161.05 107.534 161.05 107.727V109.425C161.05 109.457 161.042 109.489 161.026 109.517C161.01 109.544 160.987 109.567 160.96 109.583C160.932 109.6 160.901 109.608 160.869 109.608C160.837 109.608 160.805 109.6 160.777 109.584L159.307 108.735C159.14 108.641 158.944 108.617 158.76 108.666C158.577 108.716 158.419 108.836 158.323 109C158.227 109.167 158.201 109.365 158.25 109.551C158.3 109.737 158.422 109.896 158.588 109.993L160.059 110.842C160.087 110.858 160.111 110.881 160.127 110.908C160.143 110.936 160.151 110.968 160.151 111C160.151 111.032 160.143 111.064 160.127 111.092C160.111 111.119 160.087 111.142 160.059 111.158L158.588 112.007C158.422 112.104 158.3 112.263 158.25 112.449C158.201 112.635 158.227 112.833 158.323 113C158.419 113.167 158.578 113.288 158.764 113.338C158.95 113.388 159.149 113.362 159.316 113.265L160.787 112.416C160.814 112.4 160.846 112.392 160.878 112.392C160.91 112.392 160.941 112.4 160.969 112.417C160.996 112.433 161.019 112.456 161.035 112.483C161.051 112.511 161.059 112.543 161.059 112.575V114.273C161.059 114.466 161.136 114.651 161.272 114.787C161.409 114.923 161.594 115 161.787 115C161.979 115 162.164 114.923 162.301 114.787C162.437 114.651 162.514 114.466 162.514 114.273V112.575C162.514 112.543 162.522 112.511 162.538 112.483C162.554 112.456 162.577 112.433 162.604 112.417C162.632 112.4 162.663 112.392 162.695 112.392C162.727 112.392 162.759 112.4 162.787 112.416L164.257 113.265C164.423 113.359 164.62 113.383 164.804 113.334C164.987 113.284 165.145 113.164 165.241 113C165.337 112.833 165.363 112.635 165.314 112.449C165.264 112.263 165.142 112.104 164.976 112.007L163.505 111.158C163.477 111.142 163.453 111.119 163.437 111.092C163.421 111.064 163.413 111.032 163.413 111C163.413 110.968 163.421 110.936 163.437 110.908C163.453 110.881 163.477 110.858 163.505 110.842L164.976 109.993Z" fill="black"/>
<path d="M178.088 109.993C178.255 109.896 178.376 109.737 178.426 109.551C178.476 109.365 178.45 109.167 178.353 109C178.257 108.833 178.098 108.712 177.912 108.662C177.726 108.612 177.528 108.638 177.361 108.735L175.89 109.584C175.862 109.6 175.831 109.608 175.799 109.608C175.767 109.608 175.735 109.6 175.708 109.583C175.68 109.567 175.657 109.544 175.641 109.517C175.625 109.489 175.617 109.457 175.617 109.425V107.727C175.617 107.534 175.54 107.349 175.404 107.213C175.268 107.077 175.083 107 174.89 107C174.697 107 174.512 107.077 174.375 107.213C174.239 107.349 174.162 107.534 174.162 107.727V109.425C174.163 109.457 174.154 109.489 174.138 109.517C174.122 109.544 174.1 109.567 174.072 109.583C174.044 109.6 174.013 109.608 173.981 109.608C173.949 109.608 173.917 109.6 173.89 109.584L172.419 108.735C172.253 108.641 172.057 108.617 171.873 108.666C171.689 108.716 171.532 108.836 171.435 109C171.339 109.167 171.313 109.365 171.363 109.551C171.412 109.737 171.534 109.896 171.701 109.993L173.172 110.842C173.2 110.858 173.223 110.881 173.239 110.908C173.255 110.936 173.264 110.968 173.264 111C173.264 111.032 173.255 111.064 173.239 111.092C173.223 111.119 173.2 111.142 173.172 111.158L171.701 112.007C171.534 112.104 171.412 112.263 171.363 112.449C171.313 112.635 171.339 112.833 171.435 113C171.532 113.167 171.691 113.288 171.877 113.338C172.063 113.388 172.261 113.362 172.428 113.265L173.899 112.416C173.927 112.4 173.958 112.392 173.99 112.392C174.022 112.392 174.053 112.4 174.081 112.417C174.109 112.433 174.132 112.456 174.147 112.483C174.163 112.511 174.172 112.543 174.172 112.575V114.273C174.172 114.466 174.248 114.651 174.385 114.787C174.521 114.923 174.706 115 174.899 115C175.092 115 175.277 114.923 175.413 114.787C175.549 114.651 175.626 114.466 175.626 114.273V112.575C175.626 112.543 175.634 112.511 175.65 112.483C175.666 112.456 175.689 112.433 175.717 112.417C175.744 112.4 175.776 112.392 175.808 112.392C175.84 112.392 175.871 112.4 175.899 112.416L177.37 113.265C177.536 113.359 177.732 113.383 177.916 113.334C178.1 113.284 178.257 113.164 178.353 113C178.45 112.833 178.476 112.635 178.426 112.449C178.376 112.263 178.255 112.104 178.088 112.007L176.617 111.158C176.589 111.142 176.566 111.119 176.55 111.092C176.533 111.064 176.525 111.032 176.525 111C176.525 110.968 176.533 110.936 176.55 110.908C176.566 110.881 176.589 110.858 176.617 110.842L178.088 109.993Z" fill="black"/>
</g>
<rect x="134" y="97" width="42" height="2" fill="#6D0978" fill-opacity="0.5"/>
<path d="M56.6669 53.6016C77.2819 61.5803 106.255 58.0098 119.828 49.6122C129.543 43.6282 127.737 25.3469 108.698 25.3469C108.03 25.3469 106.793 9.96793 86.5871 11.055C67.9668 12.0524 63.3192 31.6601 63.3192 31.6601C49.3564 28.3389 47.4415 50.0311 56.6669 53.6016Z" fill="#F5F7FA"/>
<path d="M56.4508 7.53866C56.4508 11.528 52.3218 14.7395 47.2254 14.7395C42.129 14.7395 38 11.518 38 7.53866C38 3.55927 42.4082 -1.33767 47.2254 0.337858C52.2919 2.10315 56.4508 3.55927 56.4508 7.53866Z" fill="#F5F7FA"/>
<path d="M224.335 55.6762C233.125 69.8362 284.335 72.1462 290.775 56.1862C293.115 50.4262 291.085 33.9162 278.835 35.0562C275.955 35.3162 269.635 42.1862 268.445 43.6862C268.445 43.8062 264.805 36.4962 259.125 36.2262C252.385 35.8962 248.215 43.3662 248.215 43.3662C248.215 43.3662 246.915 36.9962 236.855 37.1062C227.715 37.2162 217.245 44.2462 224.335 55.6762Z" fill="#F5F7FA"/>
<defs>
<filter id="filter0_i" x="134" y="66" width="42" height="37" filterUnits="userSpaceOnUse" color-interpolation-filters="sRGB">
<feFlood flood-opacity="0" result="BackgroundImageFix"/>
<feBlend mode="normal" in="SourceGraphic" in2="BackgroundImageFix" result="shape"/>
<feColorMatrix in="SourceAlpha" type="matrix" values="0 0 0 0 0 0 0 0 0 0 0 0 0 0 0 0 0 0 127 0" result="hardAlpha"/>
<feOffset dx="-2" dy="2"/>
<feComposite in2="hardAlpha" operator="arithmetic" k2="-1" k3="1"/>
<feColorMatrix type="matrix" values="0 0 0 0 0.858824 0 0 0 0 0.556863 0 0 0 0 0.890196 0 0 0 1 0"/>
<feBlend mode="normal" in2="shape" result="effect1_innerShadow"/>
</filter>
<filter id="filter1_i" x="149" y="74" width="12" height="21" filterUnits="userSpaceOnUse" color-interpolation-filters="sRGB">
<feFlood flood-opacity="0" result="BackgroundImageFix"/>
<feBlend mode="normal" in="SourceGraphic" in2="BackgroundImageFix" result="shape"/>
<feColorMatrix in="SourceAlpha" type="matrix" values="0 0 0 0 0 0 0 0 0 0 0 0 0 0 0 0 0 0 127 0" result="hardAlpha"/>
<feOffset dx="2" dy="1"/>
<feComposite in2="hardAlpha" operator="arithmetic" k2="-1" k3="1"/>
<feColorMatrix type="matrix" values="0 0 0 0 0.329412 0 0 0 0 0.0196078 0 0 0 0 0.364706 0 0 0 1 0"/>
<feBlend mode="normal" in2="shape" result="effect1_innerShadow"/>
</filter>
<clipPath id="clip0">
<rect width="46.4511" height="8" fill="white" transform="translate(132 107)"/>
</clipPath>
</defs>
</svg>
