<?xml version="1.0" encoding="UTF-8"?>
<svg width="90px" height="90px" viewBox="0 0 90 90" version="1.1" xmlns="http://www.w3.org/2000/svg" xmlns:xlink="http://www.w3.org/1999/xlink">
    <!-- Generator: Sketch 51.2 (57519) - http://www.bohemiancoding.com/sketch -->
    <title>touch-id</title>
    <desc>Created with Sketch.</desc>
    <defs></defs>
    <g id="Symbols" stroke="none" stroke-width="1" fill="none" fill-rule="evenodd">
        <g id="Glyphs/Touch-ID" fill="#222748" fill-rule="nonzero">
            <g id="touch-id">
                <path d="M88.9945739,36.0633249 C89.1037336,36.6047145 88.7533422,37.1320888 88.2119527,37.2412485 C87.6705632,37.3504083 87.1431888,37.0000168 87.0340291,36.4586273 C82.3468725,13.2121661 59.7050135,-1.83159978 36.4594232,2.85557531 C35.9180346,2.96473938 35.3906574,2.61435215 35.2814933,2.07296352 C35.1723293,1.53157488 35.5227165,1.00419772 36.0641051,0.895033645 C60.3924917,-4.01047341 84.0890992,11.7340914 88.9945739,36.0633249 Z M29.5456791,2.72331236 C30.0647611,2.53470623 30.6384558,2.80260988 30.8270619,3.32169193 C31.015668,3.84077398 30.7477644,4.4144686 30.2286823,4.60307474 C10.4005794,11.8075272 -1.35660877,32.5407179 2.85570824,53.4321608 C2.96486797,53.9735503 2.6144765,54.5009246 2.07308699,54.6100844 C1.53169749,54.7192441 1.00432313,54.3688526 0.895163403,53.8274631 C-3.51343601,31.9625364 8.79090746,10.2644657 29.5456791,2.72331236 Z M89.8872622,43.4680234 C89.9060285,44.0199893 89.4737849,44.4826591 88.9218191,44.5014254 C88.3698533,44.5201918 87.9071835,44.0879482 87.8884171,43.5359824 C87.8080459,41.1720617 87.5317055,38.805842 87.0576311,36.4541929 C86.9484904,35.9127996 87.2989003,35.3854375 87.8402937,35.2762968 C88.381687,35.167156 88.9090491,35.517566 89.0181898,36.0589593 C89.5140326,38.5185908 89.803157,40.9942753 89.8872622,43.4680234 Z M0.918970097,53.8234578 C0.80962866,53.282105 1.1598431,52.754613 1.70119593,52.6452716 C2.24254877,52.5359302 2.7700407,52.8861446 2.87938214,53.4274974 C3.00471496,54.0480241 3.14158687,54.6587328 3.29024997,55.2600845 C3.42279283,55.796229 3.09560913,56.3383071 2.55946471,56.47085 C2.0233203,56.6033928 1.48124215,56.2762091 1.34869929,55.7400647 C1.19308994,55.1106149 1.04994091,54.4718983 0.918970097,53.8234578 Z" id="Stroke-1"></path>
                <path d="M34.3533299,88.0579758 C33.9888023,88.4728711 33.3569553,88.5137022 32.94206,88.1491747 C32.5271647,87.7846471 32.4863336,87.1528 32.8508612,86.7379048 C34.5125779,84.8465843 36.0258047,82.8284277 37.3761139,80.7032413 C37.6722969,80.2370932 38.2902884,80.0993092 38.7564365,80.3954922 C39.2225846,80.6916752 39.3603686,81.3096667 39.0641856,81.7758148 C37.6585172,83.9881283 36.0832431,86.089036 34.3533299,88.0579758 Z M41.031592,78.3989511 C40.7721466,78.8865027 40.166586,79.0714193 39.6790344,78.8119739 C39.1914828,78.5525286 39.0065662,77.9469679 39.2660116,77.4594163 C44.4997188,67.6241966 46.224711,56.291234 43.9764503,45.140847 C43.8672896,44.5994577 44.2176801,44.0720827 44.7590694,43.962922 C45.3004587,43.8537613 45.8278337,44.2041518 45.9369944,44.7455411 C48.2776702,56.3542666 46.4809486,68.1584816 41.031592,78.3989511 Z" id="Stroke-7"></path>
                <path d="M40.5409746,89.1975856 C40.2009054,89.6327538 39.5724513,89.7098468 39.1372831,89.3697776 C38.7021149,89.0297084 38.6250219,88.4012543 38.9650911,87.9660861 C43.4691557,82.2024772 46.7706395,75.5778995 48.6450614,68.5096196 C48.7866274,67.9757868 49.3341463,67.6577916 49.8679792,67.7993576 C50.401812,67.9409236 50.7198071,68.4884426 50.5782412,69.0222754 C48.6343396,76.352557 45.2110526,83.2215383 40.5409746,89.1975856 Z M51.6604464,64.0254753 C51.5684796,64.570049 51.0524615,64.9369594 50.5078878,64.8449925 C49.963314,64.7530257 49.5964037,64.2370076 49.6883705,63.6924339 C50.7781233,57.2395564 50.6825133,50.6103866 49.3595436,44.0497815 C48.8808986,41.6028969 46.5011712,40.0173543 44.0519582,40.5112861 C41.6043531,41.0050021 40.0203066,43.389387 40.5134422,45.8349375 C43.5252174,60.5733073 38.958261,75.5673601 28.6382341,86.1504078 C28.2526543,86.5458147 27.6195394,86.5537811 27.2241325,86.1682013 C26.8287256,85.7826214 26.8207592,85.1495066 27.206339,84.7540997 C37.0688068,74.6402726 41.4314872,60.3168906 38.5534207,46.232818 C37.8414391,42.7019945 40.1261819,39.262887 43.6565373,38.5507652 C47.1916363,37.8378432 50.6305006,40.1290577 51.3212105,43.660129 C52.6916462,50.4560294 52.7908169,57.3320834 51.6604464,64.0254753 Z" id="Stroke-9"></path>
                <path d="M47.1740038,89.4264959 C46.8621094,89.8822813 46.239782,89.9989281 45.7839966,89.6870337 C45.3282112,89.3751393 45.2115645,88.7528119 45.5234589,88.2970265 C47.4217525,85.5229638 49.0836126,82.5931265 50.4893694,79.5407927 C50.7204006,79.0391524 51.3143482,78.8197803 51.8159885,79.0508115 C52.3176289,79.2818427 52.5370009,79.8757903 52.3059698,80.3774307 C50.8531569,83.5319378 49.1357372,86.559726 47.1740038,89.4264959 Z M53.7462096,76.9870573 C53.5455741,77.5016093 52.9658,77.7560889 52.4512479,77.5554534 C51.9366958,77.3548178 51.6822162,76.7750437 51.8828518,76.2604916 C55.9819122,65.7479984 57.0239142,54.2737473 54.7443032,42.9679526 C53.6636207,37.5478314 48.3878221,34.0387273 42.9673317,35.1319631 C42.4259481,35.2411524 41.8985546,34.8907898 41.7893653,34.3494063 C41.6801759,33.8080228 42.0305385,33.2806292 42.5719221,33.1714399 C49.0763924,31.8595808 55.4085982,36.0713355 56.7052718,42.5747635 C59.0607579,54.256851 57.983414,66.1202787 53.7462096,76.9870573 Z M38.4424223,34.8441881 C38.9066995,34.545081 39.5255448,34.6789778 39.824652,35.143255 C40.1237591,35.6075323 39.9898623,36.2263776 39.5255851,36.5254848 C36.0906425,38.7384209 34.3125587,42.8488157 35.1333844,46.918673 C37.0895202,56.4418233 35.4489895,66.1438054 30.6833377,74.4148451 C30.4076135,74.893379 29.7961666,75.0577887 29.3176328,74.7820645 C28.8390989,74.5063403 28.6746892,73.8948934 28.9504134,73.4163596 C33.4745685,65.5644501 35.030964,56.3600376 33.1735742,47.3175854 C32.1879533,42.4306717 34.3211954,37.4992578 38.4424223,34.8441881 Z M27.1081746,76.3024129 C27.4261497,75.8508486 28.0499847,75.7425532 28.5015489,76.0605283 C28.9531132,76.3785034 29.0614086,77.0023384 28.7434335,77.4539026 C27.1813588,79.6722432 25.3954632,81.7257314 23.4144253,83.5791096 C23.0111227,83.9564231 22.3783083,83.9353547 22.0009948,83.5320521 C21.6236814,83.1287495 21.6447497,82.4959352 22.0480523,82.1186217 C23.9289838,80.3588989 25.6248084,78.4089778 27.1081746,76.3024129 Z" id="Stroke-11"></path>
                <path d="M54.2167992,88.5718662 C53.9373543,89.0482369 53.3246448,89.2078768 52.8482741,88.928432 C52.3719034,88.6489872 52.2122635,88.0362776 52.4917083,87.5599069 C60.5170384,73.879096 63.3278486,57.7484147 60.1288214,41.8842755 L60.0267994,41.3783431 C58.1159772,33.2750504 50.1038302,28.0947221 41.882728,29.7525436 C33.8124727,31.3798864 28.4812858,39.0023586 29.5917385,47.0476759 L29.7848274,48.0019504 C32.2337904,60.1487147 27.8948009,72.4709072 18.696302,80.4374984 C18.2788243,80.7990655 17.6472836,80.753741 17.2857165,80.3362632 C16.9241494,79.9187855 16.969474,79.2872448 17.3869517,78.9256777 C25.8044781,71.6354674 29.8979857,60.473801 28.0022747,49.3541248 L27.7940799,48.4025377 C25.8835642,38.9293607 32.0141031,29.7022658 41.4873844,27.7920071 C50.9600391,25.8818045 60.1870089,32.012511 62.0972391,41.4856511 L62.2595502,42.2905777 C65.2898008,58.3862571 62.3525535,74.7028146 54.2167992,88.5718662 Z" id="Stroke-13"></path>
                <path d="M61.6076197,86.3973931 C61.3657425,86.8938948 60.7671683,87.1003087 60.2706666,86.8584316 C59.7741649,86.6165545 59.567751,86.0179802 59.8096281,85.5214785 C66.5247797,71.7372733 68.6070004,56.1438519 65.5129822,40.7987205 C63.22517,29.4355019 52.1599737,22.0820634 40.7982999,24.3730167 C29.4365296,26.6641764 22.0838149,37.7306124 24.3741013,49.0899349 C26.5076739,59.5369347 22.6160807,70.1373572 14.5039487,76.7818292 C14.0766917,77.1317862 13.4466352,77.0691221 13.0966783,76.6418651 C12.7467213,76.2146081 12.8093853,75.5845517 13.2366424,75.2345947 C20.7805318,69.0555579 24.39797,59.2019138 22.4140517,49.4876776 C19.9049573,37.0431326 27.9584418,24.9219809 40.4029634,22.4124787 C52.8476236,19.9031535 64.9677619,27.9576596 67.4735829,40.4036953 C70.6550509,56.1825436 68.5132426,72.2222069 61.6076197,86.3973931 Z" id="Stroke-15"></path>
                <path d="M10.8562732,72.6658245 C10.4257167,73.0117139 9.79628284,72.9430776 9.45039344,72.512521 C9.10450403,72.0819644 9.17314033,71.4525306 9.6036969,71.1066412 C15.1173758,66.6772044 18.0846986,59.7362193 17.3677337,52.6349046 C17.3122558,52.0854134 17.7127328,51.594989 18.2622241,51.5395111 C18.8117153,51.4840332 19.3021397,51.8845102 19.3576176,52.4340014 C20.1431577,60.2145318 16.8935941,67.8157178 10.8562732,72.6658245 Z M18.6106978,47.6633947 C18.6680869,48.2126897 18.2693185,48.7045043 17.7200235,48.7618934 C17.1707286,48.8192825 16.678914,48.420514 16.6215248,47.8712191 C15.10364,33.3429175 24.8987716,19.9407319 39.3179288,17.0332176 C47.9813018,15.2862752 56.7924702,17.644667 63.3982707,23.2587746 C63.8191041,23.6164305 63.8703195,24.2475207 63.5126636,24.668354 C63.1550077,25.0891874 62.5239174,25.1404028 62.1030841,24.7827469 C55.9593139,19.5613076 47.769529,17.3692349 39.713261,18.9937564 C26.307248,21.6969778 17.1997205,34.1583493 18.6106978,47.6633947 Z M65.1032597,27.776586 C64.744789,27.3564464 64.7947816,26.7252582 65.2149211,26.3667875 C65.6350607,26.0083169 66.2662489,26.0583094 66.6247196,26.478449 C69.7374365,30.126657 71.8872882,34.5119155 72.8562069,39.316628 C74.233392,46.1432287 74.6902061,53.0328227 74.2433932,59.8539323 C74.2072934,60.4050359 73.731271,60.8225291 73.1801674,60.7864294 C72.6290637,60.7503296 72.2115705,60.2743072 72.2476702,59.7232035 C72.6829686,53.0778781 72.2378874,46.365238 70.8956887,39.7120627 C69.9944128,35.2427799 67.9966319,31.1677148 65.1032597,27.776586 Z M71.9284756,63.2919645 C71.9907498,62.7432019 72.4860929,62.3488252 73.0348555,62.4110994 C73.5836181,62.4733736 73.9779949,62.9687168 73.9157207,63.5174793 C73.1775661,70.0221251 71.6173831,76.394943 69.2837186,82.4958286 C69.0864052,83.0116638 68.5082841,83.2698767 67.992449,83.0725633 C67.4766139,82.87525 67.2184009,82.2971289 67.4157143,81.7812938 C69.6894173,75.8371654 71.2093859,69.6286091 71.9284756,63.2919645 Z" id="Stroke-17"></path>
                <path d="M77.1003536,76.1524392 C76.9580799,76.6860839 76.4101398,77.0033527 75.8764951,76.861079 C75.3428504,76.7188053 75.0255816,76.1708651 75.1678553,75.6372205 C77.4999395,66.889968 78.3593919,57.7991594 77.6708878,48.6796382 C77.6293099,48.1289208 78.042049,47.6487704 78.5927664,47.6071925 C79.1434839,47.5656145 79.6236342,47.9783536 79.6652122,48.529071 C80.3707001,57.8735509 79.4899744,67.1893766 77.1003536,76.1524392 Z M79.1327389,43.5042819 C79.2074633,44.0514882 78.824441,44.5556626 78.2772348,44.630387 C77.7300285,44.7051114 77.2258541,44.3220891 77.1511297,43.7748829 C76.9164112,42.0560402 76.6265482,40.3398828 76.2814795,38.6284465 C72.786299,21.3232114 55.93152,10.1256804 38.628672,13.6142683 C38.0872815,13.723423 37.5599104,13.3730267 37.4507556,12.8316362 C37.3416009,12.2902457 37.6919972,11.7628746 38.2333877,11.6537198 C56.6188649,7.94685305 74.5281105,19.8449226 78.2419597,38.2328238 C78.59543,39.9859289 78.8923168,41.7436721 79.1327389,43.5042819 Z M32.7081783,13.2596387 C33.2236026,13.0612547 33.8022586,13.3182666 34.0006426,13.833691 C34.1990266,14.3491153 33.9420146,14.9277713 33.4265903,15.1261553 C18.9894593,20.6829277 10.5235342,35.9290117 13.6146009,51.2596839 C14.9067408,57.5776806 12.6125534,63.9933526 7.77477893,68.0925492 C7.35341702,68.4495822 6.72240324,68.3974334 6.36537021,67.9760715 C6.00833717,67.5547096 6.06048603,66.9236958 6.48184794,66.5666627 C10.7682022,62.9347016 12.7992991,57.2547598 11.6546077,51.6577028 C8.36945939,35.3644702 17.3646259,19.1652877 32.7081783,13.2596387 Z" id="Stroke-19"></path>
                <path d="M84.7181186,65.7206304 C84.6498889,66.2686844 84.1502922,66.6576588 83.6022383,66.589429 C83.0541843,66.5211993 82.6652099,66.0216027 82.7334396,65.4735487 C83.2509238,61.3168673 83.4665341,57.1205259 83.3746326,52.9109984 C83.3625781,52.3588453 83.8004146,51.9014646 84.3525678,51.8894101 C84.904721,51.8773556 85.3621016,52.3151921 85.3741561,52.8673453 C85.4681831,57.1742317 85.2475804,61.4677386 84.7181186,65.7206304 Z M85.0550575,47.0415695 C85.1033489,47.5917389 84.6964963,48.0768872 84.1463269,48.1251786 C83.5961575,48.1734699 83.1110092,47.7666174 83.0627178,47.216448 C82.7790184,43.9843432 82.3136032,40.756322 81.6656383,37.5429763 C80.6704198,32.6201545 78.7346299,28.0297776 75.9799769,23.9619137 C75.6703058,23.5046148 75.7899818,22.8828628 76.2472807,22.5731918 C76.7045795,22.2635207 77.3263315,22.3831967 77.6360026,22.8404956 C80.5384307,27.1265825 82.5780741,31.9632293 83.6260777,37.1471516 C84.2888381,40.4338698 84.7648651,43.7354924 85.0550575,47.0415695 Z M73.9040723,18.1454807 C74.2796459,18.550404 74.2558532,19.1831218 73.8509299,19.5586954 C73.4460066,19.934269 72.8132888,19.9104764 72.4377152,19.505553 C63.6220501,10.0009756 50.485496,5.62562534 37.5441517,8.23500275 C25.3705116,10.6896243 15.4077305,18.9081123 10.5642283,30.0916073 C10.344738,30.5984035 9.75596637,30.831311 9.24917011,30.6118207 C8.74237385,30.3923304 8.50946637,29.8035588 8.72895668,29.2967625 C13.8299967,17.5186209 24.3264581,8.85988983 37.1488422,6.27445936 C50.7801435,3.52596515 64.6195576,8.13541468 73.9040723,18.1454807 Z M6.71345946,35.1857934 C6.85042649,34.6507621 7.39518876,34.3280673 7.93022005,34.4650343 C8.46525134,34.6020014 8.78794617,35.1467637 8.65097913,35.6817949 C7.26715494,41.0873967 7.10744246,46.7533817 8.23465248,52.3436983 C9.02143772,56.1751367 7.88647246,60.0770459 5.27166136,62.8980759 C4.89622241,63.3031241 4.26351257,63.3271272 3.85846437,62.9516882 C3.45341617,62.5762493 3.42941313,61.9435394 3.80485208,61.5384912 C5.98608792,59.1852307 6.93084944,55.937225 6.27482173,52.7425099 C5.08708522,46.8520504 5.25538447,40.8814394 6.71345946,35.1857934 Z" id="Stroke-21"></path>
            </g>
        </g>
    </g>
</svg>