<?xml version="1.0" encoding="UTF-8"?>
<svg width="58px" height="58px" viewBox="0 0 58 58" version="1.1" xmlns="http://www.w3.org/2000/svg" xmlns:xlink="http://www.w3.org/1999/xlink">
    <!-- Generator: sketchtool 51.1 (57501) - http://www.bohemiancoding.com/sketch -->
    <title>571B2C54-36D2-4FCB-88E9-4D30739F6EBE</title>
    <desc>Created with sketchtool.</desc>
    <defs></defs>
    <g id="Design" stroke="none" stroke-width="1" fill="none" fill-rule="evenodd">
        <g id="Settings-upload-docs-success" transform="translate(-131.000000, -188.000000)" fill="#26B677" fill-rule="nonzero">
            <g id="popup/result" transform="translate(16.000000, 156.000000)">
                <g id="content">
                    <g transform="translate(19.000000, 32.000000)">
                        <g id="Icon&amp;Text">
                            <g id="Icons/48x48/Topup" transform="translate(96.000000, 0.000000)">
                                <g id="successfull">
                                    <path d="M29,56 C43.9116882,56 56,43.9116882 56,29 C56,14.0883118 43.9116882,2 29,2 C14.0883118,2 2,14.0883118 2,29 C2,43.9116882 14.0883118,56 29,56 Z M29,58 C12.9837423,58 0,45.0162577 0,29 C0,12.9837423 12.9837423,0 29,0 C45.0162577,0 58,12.9837423 58,29 C58,45.0162577 45.0162577,58 29,58 Z" id="Combined-Shape"></path>
                                    <polygon id="Path-3" points="38 23 39.4142136 24.4142136 27 36.8284271 19.5857864 29.4142136 21 28 27 34"></polygon>
                                </g>
                            </g>
                        </g>
                    </g>
                </g>
            </g>
        </g>
    </g>
</svg>