<svg width="36" height="36" viewBox="0 0 36 36" fill="none" xmlns="http://www.w3.org/2000/svg">
<path fill-rule="evenodd" clip-rule="evenodd" d="M23.7602 20.4886C23.44 20.3284 21.8662 19.5542 21.5727 19.4474C21.2793 19.3407 21.0659 19.2873 20.8525 19.6077C20.6391 19.928 20.0256 20.6489 19.8389 20.8623C19.6522 21.076 19.4655 21.1027 19.1453 20.9425C18.8252 20.7823 17.7938 20.4444 16.5711 19.3541C15.6194 18.5056 14.9769 17.4576 14.7902 17.1372C14.6035 16.8168 14.7703 16.6436 14.9306 16.4841C15.0746 16.3407 15.2507 16.1103 15.4107 15.9234C15.5708 15.7366 15.6242 15.6031 15.7308 15.3895C15.8375 15.1759 15.7842 14.989 15.7042 14.8289C15.6242 14.6687 14.984 13.0935 14.7171 12.4528C14.4573 11.8288 14.1935 11.9132 13.997 11.9034C13.8104 11.8942 13.5968 11.8922 13.3834 11.8922C13.17 11.8922 12.8232 11.9722 12.5298 12.2926C12.2363 12.613 11.4094 13.3873 11.4094 14.9623C11.4094 16.5375 12.5564 18.0592 12.7165 18.2728C12.8766 18.4864 14.9738 21.7187 18.185 23.105C18.9487 23.4346 19.5451 23.6315 20.0099 23.7791C20.7768 24.0226 21.4746 23.9882 22.0262 23.9058C22.6412 23.814 23.9202 23.1316 24.187 22.3841C24.4537 21.6366 24.4537 20.9959 24.3737 20.8623C24.2936 20.7289 24.0802 20.6489 23.7602 20.4886M17.9192 28.4612H17.9149C16.0041 28.4604 14.13 27.9473 12.4951 26.9774L12.1063 26.7466L8.07606 27.8036L9.15181 23.8754L8.89858 23.4727C7.83268 21.7777 7.26966 19.8188 7.27052 17.8075C7.27286 11.9382 12.0498 7.16307 17.9234 7.16307C20.7676 7.16418 23.4412 8.27292 25.4517 10.285C27.4622 12.2971 28.5687 14.9717 28.5676 17.8161C28.5652 23.6858 23.7884 28.4612 17.9192 28.4612M26.9818 8.75606C24.563 6.3352 21.3463 5.00135 17.9191 5C10.8575 5 5.11022 10.745 5.10745 17.8066C5.10646 20.0639 5.69643 22.2673 6.81754 24.2095L5 30.8463L11.7916 29.0654C13.6629 30.0857 15.7697 30.6234 17.914 30.6243H17.9192H17.9193C24.9801 30.6243 30.7279 24.8785 30.7307 17.8169C30.7321 14.3947 29.4007 11.1769 26.9818 8.75606" fill="white"/>
<circle cx="18" cy="18" r="18" fill="#6D0978"/>
<path fill-rule="evenodd" clip-rule="evenodd" d="M14.1197 8.3999H21.8801C25.034 8.3999 27.5999 10.9658 27.5999 14.1197V21.8801C27.5999 25.034 25.034 27.5999 21.8801 27.5999H14.1197C10.9658 27.5999 8.3999 25.034 8.3999 21.8801V14.1197C8.3999 10.9658 10.9658 8.3999 14.1197 8.3999ZM21.8801 25.6684C23.9723 25.6684 25.6683 23.9723 25.6683 21.8801V14.1197C25.6683 12.0275 23.9723 10.3314 21.8801 10.3314H14.1196C12.0275 10.3314 10.3314 12.0275 10.3314 14.1197V21.8801C10.3314 23.9723 12.0275 25.6684 14.1196 25.6684H21.8801ZM13.1999 17.9999C13.1999 15.3532 15.3532 13.1999 17.9999 13.1999C20.6466 13.1999 22.7999 15.3532 22.7999 17.9999C22.7999 20.6466 20.6466 22.7999 17.9999 22.7999C15.3532 22.7999 13.1999 20.6466 13.1999 17.9999ZM15.0669 17.9999C15.0669 19.6198 16.38 20.9329 17.9999 20.9329C19.6197 20.9329 20.9328 19.6197 20.9328 17.9999C20.9328 16.3801 19.6197 15.0669 17.9999 15.0669C16.38 15.0669 15.0669 16.3801 15.0669 17.9999ZM24.3999 12.7999C24.3999 13.4626 23.8627 13.9999 23.1999 13.9999C22.5372 13.9999 21.9999 13.4626 21.9999 12.7999C21.9999 12.1372 22.5372 11.5999 23.1999 11.5999C23.8627 11.5999 24.3999 12.1372 24.3999 12.7999Z" fill="white"/>
</svg>
