<?xml version="1.0" encoding="UTF-8"?>
<svg width="30px" height="30px" viewBox="0 0 30 30" version="1.1" xmlns="http://www.w3.org/2000/svg" xmlns:xlink="http://www.w3.org/1999/xlink">
    <!-- Generator: Sketch 57.1 (83088) - https://sketch.com -->
    <title>Logo/online chat</title>
    <desc>Created with Sketch.</desc>
    <g id="Logo/online-chat" stroke="none" stroke-width="1" fill="none" fill-rule="evenodd">
        <g id="chat" fill-rule="nonzero">
            <circle id="Oval" fill="#347E95" cx="15" cy="15" r="15"></circle>
            <path d="M24.8267717,12.6614173 L24.8267717,19.0393701 C24.8267717,20.3149606 23.7874016,21.3543307 22.511811,21.3543307 L22.511811,21.3543307 L22.511811,24.3543307 L18.8503937,21.3543307 L12.1653543,21.3543307 C10.8897638,21.3543307 9.8503937,20.3149606 9.8503937,19.0393701 L9.8503937,17.7165354 L11.1259843,16.6535433 L17.8346457,16.6535433 C19.1102362,16.6535433 20.1496063,15.6141732 20.1496063,14.3385827 L20.1496063,10.3228346 L22.511811,10.3228346 C23.7874016,10.3464567 24.8267717,11.3858268 24.8267717,12.6614173 Z" id="Path" fill="#3B506E"></path>
            <path d="M17.8346457,5.64566929 L7.48818898,5.64566929 C6.21259843,5.64566929 5.17322835,6.68503937 5.17322835,7.96062992 L5.17322835,14.3385827 C5.17322835,15.6141732 6.21259843,16.6535433 7.48818898,16.6535433 L7.48818898,16.6535433 L7.48818898,19.6535433 L11.1496063,16.6535433 L17.8346457,16.6535433 C19.1102362,16.6535433 20.1496063,15.6141732 20.1496063,14.3385827 L20.1496063,7.96062992 C20.1496063,6.68503937 19.1102362,5.64566929 17.8346457,5.64566929 Z" id="Path" fill="#FFFFFF"></path>
            <g id="Group" transform="translate(6.909449, 9.744094)" fill="#15A3EA">
                <circle id="Oval" cx="1.45275591" cy="1.47637795" r="1.44094488"></circle>
                <circle id="Oval" cx="5.7519685" cy="1.47637795" r="1.44094488"></circle>
                <circle id="Oval" cx="10.0275591" cy="1.47637795" r="1.44094488"></circle>
            </g>
        </g>
    </g>
</svg>