<?xml version="1.0" encoding="UTF-8"?>
<svg width="30px" height="30px" viewBox="0 0 30 30" version="1.1" xmlns="http://www.w3.org/2000/svg" xmlns:xlink="http://www.w3.org/1999/xlink">
    <!-- Generator: Sketch 57.1 (83088) - https://sketch.com -->
    <title>fishka/active</title>
    <desc>Created with Sketch.</desc>
    <g id="fishka/active" stroke="none" stroke-width="1" fill="none" fill-rule="evenodd">
        <g id="fishka-active" fill-rule="nonzero">
            <path d="M15,30 C23.2842712,30 30,23.2842712 30,15 C30,6.71572875 23.2842712,0 15,0 C6.71572875,0 0,6.71572875 0,15 C0,23.2842712 6.71572875,30 15,30 Z" id="Path" fill="#6D0978"></path>
            <path d="M15,28.3333333 C7.63117008,28.3333333 1.66666667,22.3586084 1.66666667,15 C1.66666667,7.64139164 7.63117008,1.66666667 15,1.66666667 C22.3688299,1.66666667 28.3333333,7.64139164 28.3333333,15 C28.3333333,22.3586084 22.3688299,28.3333333 15,28.3333333 Z" id="Path" fill="#FFFFFF"></path>
            <path d="M14.1520487,23.9471427 C14.3250305,23.6022225 14.3797341,22.7355375 13.1171152,22.1699268 C11.9343339,21.6423159 9.63678136,21.8001607 9.6338244,21.9857746 C9.6338244,22.0705431 12.5907775,21.9930822 12.6188686,23.3727629 C12.6410457,24.6969056 13.6715439,24.9029808 14.1520487,23.9471427 Z M16.2086096,23.9471427 C16.0356279,23.6022225 15.9809242,22.7355375 17.2435432,22.1699268 C18.4263245,21.6423159 20.723877,21.8001607 20.726834,21.9857746 C20.726834,22.0705431 17.7698809,21.9930822 17.7432683,23.3727629 C17.7196127,24.6969056 16.687636,24.9029808 16.2086096,23.9471427 Z M18.8772598,17.4535819 C19.4612581,18.0878842 20.0408209,18.1741143 20.1058738,18.184345 C20.3838274,18.2179601 19.6031918,17.8657323 19.4789998,16.9654321 C19.4154253,16.4992053 19.3474154,15.2086777 18.6495744,15.6471355 C18.1542848,15.9569791 18.2444718,16.76228 18.8772598,17.4535819 Z M20.0570841,9.71626229 C20.3480242,9.74014316 20.6105114,9.89832172 20.7652744,10.1430279 C21.0373141,10.5610244 20.7283125,11.1368657 20.3926983,11.009713 C20.0570841,10.8825602 20.221195,10.6341007 20.2197165,10.3227957 C20.2197165,10.0114906 19.9639401,9.75280044 20.0570841,9.71626229 Z M14.2895471,8.81888522 C14.5275818,8.6727326 14.6931712,8.23427475 14.764138,8.29273579 C14.8235606,8.58422872 14.7931747,8.88663997 14.6769079,9.16088234 C14.4832275,9.5774173 13.789822,9.67241651 13.7395538,9.34649617 C13.6892856,9.02057583 14.0529908,8.97088394 14.2895471,8.81888522 Z M22.2674066,12.9666965 C22.0781616,12.2768562 22.1195589,11.987474 22.1609562,11.9933201 C22.2023536,11.9991662 22.3871632,12.4317779 22.8794958,12.9199277 C23.1323153,13.1727717 23.7399692,13.6477677 23.2594643,13.9356884 C22.9194147,14.1388405 22.4743933,13.7164594 22.2674066,12.9666965 Z M25.4771791,12.7518522 C25.6376781,12.5109302 25.9043242,12.3596106 26.1957188,12.3440864 C26.6969223,12.3090097 27.0591491,12.8526975 26.7871094,13.0748494 C26.5150697,13.2970014 26.3746144,13.048542 26.0937039,12.8994663 C25.8157503,12.7518522 25.4653513,12.8468514 25.4771791,12.7518522 Z M15.7768945,20.9890137 C15.4220601,21.1673199 15.2712555,21.5955471 15.1751545,21.5122401 C15.0373668,21.1740352 15.069722,20.7913085 15.2623846,20.4804026 C15.5876495,19.9410994 16.4185533,19.9600993 16.4629076,20.4058648 C16.5072619,20.8516302 16.1317289,20.8107075 15.7768945,20.9890137 Z M16.6639804,5.42814449 C16.3304157,5.61427646 16.1056106,5.94545013 16.057805,6.32113698 C15.967618,6.96713155 16.6491956,7.49035792 16.9833313,7.15128385 C17.3174671,6.81220978 16.9833313,6.61051916 16.8103496,6.23929151 C16.6418033,5.86660234 16.8014787,5.42229838 16.6639804,5.42814449 Z M13.4793419,5.42814449 C13.8129066,5.61427646 14.0377118,5.94545013 14.0855173,6.32113698 C14.1757044,6.96713155 13.4941267,7.49035792 13.1614695,7.15128385 C12.8288122,6.81220978 13.159991,6.61051916 13.3300158,6.23929151 C13.5029975,5.86660234 13.3433221,5.42229838 13.4793419,5.42814449 Z M15.0568764,5.6692963 C15.2217076,6.05605194 15.2103982,6.49418996 15.0258284,6.87213235 C14.8535697,6.48899164 14.8670664,6.04764008 15.0568764,5.6692963 Z M19.4183822,5.037917 C19.2394866,4.10546329 17.475664,3.71085123 16.3875053,4.05869446 C15.9001483,4.21971551 15.4558936,4.48750903 15.0879244,4.84207249 C14.7343296,4.49198865 14.2921587,4.24214428 13.8075637,4.11861703 C12.30691,3.75323549 10.9481901,4.31446154 10.7175477,5.25422287 C10.4869054,6.1939842 12.400054,5.95283238 12.400054,5.95283238 C12.0067793,5.74821872 12.8894298,4.37292259 14.103259,4.84499554 C14.3470199,4.93498996 14.5701841,5.07212324 14.7597026,5.24837677 C14.4447871,5.75406482 14.3649494,6.39859787 14.829191,7.16005301 C14.3176381,7.81627826 13.0254496,8.9577302 11.5321883,9.24418934 C9.78315053,9.58180188 9.68261413,8.60111782 9.90586409,8.13489097 C10.129114,7.66866412 10.6451024,7.39243567 11.0768175,7.57074186 C11.5085327,7.74904806 10.7973854,8.51050319 10.7973854,8.51050319 C12.2093306,8.60696392 12.5878206,7.65843343 12.2329862,6.98905444 C11.8781518,6.31967545 10.1793823,6.62513442 9.33665062,7.80897063 C8.49391898,8.99280683 9.71514061,9.44003384 9.71514061,9.44003384 C9.71514061,9.44003384 12.0481766,10.3067189 14.4462656,8.02673803 C14.648298,7.83677278 14.8356061,7.6320701 15.0066082,7.41435856 C15.1669111,7.62337267 15.3444417,7.81891049 15.5373813,7.99896903 C17.8112782,10.1591047 20.1975394,9.16818997 20.1975394,9.16818997 C20.1975394,9.16818997 21.4468521,8.65957886 20.6691734,7.51666539 C19.8914947,6.37375192 18.2075099,6.15306147 17.8142352,6.84290183 C17.4209604,7.53274218 17.7462253,8.46227283 19.1655627,8.29273579 C19.1655627,8.29273579 18.4928559,7.5619727 18.9378774,7.36758972 C19.3828988,7.17320674 19.8870593,7.41728161 20.0792613,7.87181625 C20.2714632,8.3263509 20.1162232,9.31434259 18.3819702,9.06588314 C16.9034936,8.85396185 15.6674872,7.77243247 15.1928962,7.13959164 C15.7014922,6.35475208 15.6660087,5.71168056 15.3850982,5.21914624 C15.5805134,5.03779184 15.8073885,4.89273159 16.0548481,4.79091907 C17.2923329,4.26623117 18.0951457,5.59914305 17.6944786,5.82421808 C17.695957,5.82421808 19.5972779,5.9703707 19.4183822,5.037917 Z M16.2618348,2.41447751 L16.2618348,2.57816844 C15.8097773,2.55636226 15.3807054,2.77625194 15.1381926,3.15400975 C15.6364392,2.88216588 15.6867074,3.5193913 15.6867074,3.5193913 C15.6867074,3.5193913 15.6305253,4.15953976 15.0480055,4.14200145 C14.4654858,4.12446314 14.2998964,3.58369845 14.5024477,3.26508574 C14.5471515,3.18770478 14.6223359,3.13213323 14.7100615,3.11163077 C14.7977872,3.09112831 14.8901859,3.1075338 14.9652109,3.15693281 C15.2104755,2.67738949 15.7190057,2.3862018 16.2618348,2.41447751 Z M8.29136769,7.12351485 L8.29136769,7.10743806 L8.29136769,7.08989975 L8.29136769,7.12351485 Z M8.35050675,6.84582488 C8.3235776,6.92530748 8.303788,7.00698182 8.29136769,7.08989975 C8.30561553,7.0007651 8.32838757,6.91316807 8.35937761,6.82828656 L8.35050675,6.84582488 Z M15.1381926,24.606291 C14.7759659,24.0216805 14.9681678,23.5364538 15.0627903,23.2163796 C15.0775751,23.1681492 15.1012307,23.0921499 15.1381926,22.9986122 C15.1751545,23.0921499 15.1988101,23.1681492 15.2135949,23.2163796 C15.303782,23.5364538 15.4959839,24.020219 15.1381926,24.606291 Z M22.3827277,20.1910204 C22.3827277,20.1910204 21.859347,20.0448678 21.8090788,19.6487942 C21.7588106,19.2527206 22.2319231,18.4795733 23.0583915,19.0027996 C23.8848599,19.526026 22.8809743,20.8297073 21.8534331,20.97586 C20.8258919,21.1220126 19.5736223,20.97586 18.3686639,20.9027837 C17.4431376,20.8516302 15.9587471,21.0927821 15.1337572,22.3774636 C14.3072888,21.0927821 12.8258553,20.8516302 11.8988505,20.9027837 C10.702763,20.97586 9.44162245,21.1220126 8.41408125,20.97586 C7.38654004,20.8297073 6.37969751,19.526026 7.20468743,19.0013381 C8.02967734,18.4766502 8.50426832,19.2541821 8.45400011,19.6473327 C8.40373191,20.0404832 7.88035121,20.1895589 7.88035121,20.1895589 C7.88035121,20.1895589 9.45197179,20.8574763 9.45197179,19.4894878 C9.45197179,18.1214993 7.27713278,17.5515041 6.64286633,18.5438804 C6.00859989,19.5362567 6.93856165,20.5417867 7.23425696,20.7946307 C7.52995227,21.0474747 8.15978328,21.6832386 11.2971105,21.256473 C13.6138833,20.9422449 14.5822854,21.953621 14.9755602,22.6566151 C14.7959015,23.0187359 14.6723012,23.4054855 14.608898,23.8039131 C14.5387767,24.2134845 14.6128808,24.63444 14.8188417,24.9965185 C14.1239577,25.6805127 13.2620059,25.7053587 12.3793554,25.1105175 C11.4730492,24.4995996 12.0393058,23.236841 12.0393058,23.236841 C12.0393058,23.236841 11.7894432,22.9445357 11.0191569,23.4473007 C10.2488706,23.9500657 10.5401305,25.2142859 10.5401305,25.2142859 C10.8994003,27.1683464 13.8785306,26.8219647 15.1337572,25.4364379 C16.3889838,26.8219647 19.368114,27.1712694 19.7214699,25.2142859 C19.7214699,25.2142859 20.0171652,23.9500657 19.2454005,23.4458392 C18.4736357,22.9416127 18.2252517,23.2353794 18.2252517,23.2353794 C18.2252517,23.2353794 18.7915082,24.4981381 17.885202,25.109056 C16.9981161,25.7038971 16.1405997,25.6790512 15.4471942,24.995057 C15.6520781,24.6326015 15.7256238,24.2118548 15.6556594,23.8024516 C15.5934829,23.4037397 15.4698251,23.0168104 15.2889972,22.6551535 C15.682272,21.9521594 16.6506741,20.9407833 18.9674469,21.2550115 C22.1047741,21.6817771 22.7360836,21.0460132 23.0303005,20.7931692 C23.3245173,20.5403252 24.254479,19.5347952 23.6216911,18.5424189 C22.9889031,17.5500426 20.8125856,18.1185763 20.8125856,19.4880263 C20.8125856,20.8574763 22.3827277,20.1910204 22.3827277,20.1910204 Z M14.5763715,19.0554146 C15.4531081,19.248336 15.1988101,18.1463453 14.7508318,17.206584 C14.3383368,16.3413605 14.0455984,16.0812088 14.0115935,16.1250546 C13.9775885,16.1689004 14.1594411,16.7666646 14.0825604,17.6932722 C14.0352491,18.1711912 14.103259,18.9516462 14.5763715,19.0554146 Z M9.15923343,25.5782059 C9.63973831,25.6381285 9.99457268,25.0374412 9.93839057,24.217525 C9.88516542,23.4604545 9.72696843,23.1944567 9.67670022,23.2178411 C9.62643202,23.2412255 9.5835562,23.739606 9.20210925,24.4250617 C9.00547187,24.775828 8.48504812,25.4948989 9.15923343,25.5782059 Z M20.8894664,25.5782059 C20.41044,25.6381285 20.0556056,25.0374412 20.1117877,24.217525 C20.1650129,23.4604545 20.3232099,23.1944567 20.3734781,23.2178411 C20.4237463,23.2412255 20.4666221,23.739606 20.8480691,24.4250617 C21.0520988,24.775828 21.5680871,25.4948989 20.8894664,25.5782059 Z M6.66504348,13.9356884 C7.00657157,14.140302 7.45011453,13.717921 7.65710125,12.968158 C7.84634625,12.2783177 7.80494891,11.9889355 7.76503004,11.9947816 C7.72511117,12.0006277 7.53734465,12.4332395 7.04501196,12.9213892 C6.79219247,13.1727717 6.1845386,13.6477677 6.66504348,13.9356884 Z M3.83967479,19.806639 C3.34438514,19.1357985 3.65338674,18.1361146 4.56117135,17.5792731 C5.39946755,17.0662774 5.82231185,17.0940464 5.84153204,17.1861226 C5.86075224,17.2781987 5.38024736,17.7341949 5.00914974,18.8405702 C4.81694779,19.4091039 4.5389942,20.7522465 3.83967479,19.806639 Z M25.4269109,17.6201959 C24.5900932,17.1072002 24.1672489,17.1349692 24.1480287,17.2285068 C24.1288085,17.3220445 24.6093134,17.7765792 24.9818895,18.8829545 C25.172613,19.4514882 25.4505666,20.7931692 26.149886,19.8475618 C26.6451756,19.1767212 26.336174,18.1784989 25.4269109,17.6201959 Z M18.390841,20.4979409 L20.2714632,20.4979409 L20.2714632,19.9337918 C19.5026554,19.8534079 19.0458061,19.6911785 18.5874784,18.7645709 C18.0981027,17.8116558 17.7210911,16.8923558 17.4594008,16.4071291 C16.9034936,15.3562918 16.2337437,14.9353723 15.3496148,14.726374 L15.3496148,14.6912974 C15.6127836,14.5626831 16.3150599,14.0935332 16.9360201,12.8673127 C17.6560382,11.4452478 18.0315712,11.154404 18.6525314,11.154404 L18.9482267,11.154404 C19.27497,11.1397888 19.6505031,10.9614826 19.6505031,10.5697936 C19.6505031,10.1313357 19.27497,9.74549281 18.6525314,9.7615696 C17.8689388,9.7615696 17.2627634,10.2643346 16.7305119,11.4584015 C16.1923464,12.7182371 15.8434259,13.3963852 15.3570071,13.8479968 C14.7951861,14.3989922 14.1890107,14.5232219 13.3891548,14.5451448 L13.3891548,12.2929329 C13.3891548,10.7422537 13.4867343,10.6618697 14.7197837,10.565409 L14.7197837,9.99979837 L9.82454788,9.99979837 L9.82454788,10.565409 C11.0516834,10.6618697 11.1980526,10.7422537 11.1980526,12.2929329 L11.1980526,18.2369599 C11.1980526,19.7554856 11.0502049,19.8373311 9.82454788,19.9337918 L9.82454788,20.4979409 L14.7138698,20.4979409 L14.7138698,19.9337918 C13.5029975,19.8373311 13.3832409,19.7569471 13.3832409,18.2062679 L13.3832409,15.1692165 C14.2008385,15.1516781 14.8617175,15.476137 15.3274376,16.7681261 C15.6881859,17.7210412 16.0149292,18.5438804 16.2440931,19.0130303 C16.7083347,19.9980989 17.1814472,20.4979409 18.390841,20.4979409 Z M4.44732865,12.7518522 C4.28682967,12.5109302 4.02018365,12.3596106 3.72878905,12.3440864 C3.2275855,12.3090097 2.86535874,12.8526975 3.13739843,13.0748494 C3.40943811,13.2970014 3.55432881,13.048542 3.83080393,12.8994663 C4.10875752,12.7518522 4.45915647,12.8468514 4.44732865,12.7518522 Z M25.2066179,20.6864778 C25.4605087,20.8280908 25.6315974,21.0801553 25.6679026,21.3660875 C25.737391,21.8586218 25.2140103,22.2532338 24.9641478,22.0003898 C24.7142852,21.7475458 24.9656263,21.589701 25.0972107,21.3061649 C25.2273166,21.0197057 25.1060815,20.6820932 25.2066179,20.6864778 Z M4.77407197,21.1366278 C4.64544451,20.8530918 4.76667959,20.5140177 4.66466471,20.5198638 C4.40850526,20.6601098 4.23506563,20.9124035 4.19746612,21.1994735 C4.12797772,21.6920078 4.65135842,22.0866199 4.90269943,21.8323143 C5.15404045,21.5780087 4.90565638,21.4143178 4.77407197,21.1366278 Z M9.20950163,13.5220765 C9.44014397,13.8801504 9.38691882,14.3405311 9.50519694,14.3229928 C9.7781139,14.0868878 9.91304145,13.7312061 9.86446674,13.3759238 C9.81419854,12.7196986 9.09270198,12.2607794 8.86649507,12.6232379 C8.64028816,12.9856963 8.98033777,13.159618 9.20950163,13.5220765 Z M15.9424839,8.99134531 C15.5181611,8.7341167 15.3244807,8.2094288 15.2165519,8.29273579 C15.2165519,8.29273579 14.953383,8.83496201 15.3555287,9.51164863 C15.7576743,10.1883352 16.7926079,10.2818729 16.9315847,9.78641555 C17.1016095,9.18280524 16.3668066,9.25442002 15.9424839,8.99134531 Z M20.4252248,14.3229928 C20.1514971,14.0861197 20.0160449,13.729421 20.0644765,13.3730008 C20.1147447,12.7167755 20.8362412,12.2578563 21.0624482,12.6203148 C21.2886551,12.9827733 20.9515624,13.159618 20.7209201,13.5220765 C20.4917562,13.8801504 20.5435029,14.3405311 20.4252248,14.3229928 Z M5.43051556,16.8499716 C5.62222329,16.7478043 5.80649378,16.6325516 5.98198732,16.5050514 C5.80372014,16.6289011 5.62011343,16.7445353 5.43051556,16.8499716 Z M9.71218366,11.4613245 C9.21098011,11.2567109 8.87684441,11.5943234 8.52053156,12.2081644 C8.5367948,12.1058576 8.55305804,12.0050123 8.56636433,11.90709 C8.6091189,11.6383933 8.63725043,11.3676213 8.65063749,11.095943 C8.65063749,11.040405 8.65802988,10.9834055 8.66098683,10.929329 C8.66394378,10.8752525 8.66098683,10.7831764 8.66098683,10.704254 C8.65893961,10.5395301 8.64709133,10.3750679 8.62550339,10.2117197 C8.60184777,9.979337 8.56636433,9.70749313 8.51018222,9.39034195 C8.49539746,9.33041938 8.47913421,9.26611223 8.46287097,9.19595897 C8.42886601,9.04980635 8.39338257,8.86857711 8.36677,8.66834802 C8.30954433,8.41485823 8.27246929,8.15733098 8.25588425,7.89812373 L8.25588425,7.85866252 C8.24317102,7.61436492 8.25655128,7.36942309 8.29580312,7.12789943 C8.3147879,7.01914348 8.34096376,6.91173464 8.37416238,6.80636367 C8.61071863,6.07560058 9.16514734,5.70583446 9.8733376,5.88852523 C9.85116046,5.01160952 8.72751828,4.86545691 8.04741906,5.34191444 C7.36731985,5.81837197 7.4900334,7.23020626 7.4900334,7.23020626 C7.35253018,6.84959266 6.96968758,6.61117306 6.5630286,6.65290342 C6.31907997,7.2828212 6.85872391,7.75050958 6.85872391,7.75050958 C6.76727265,7.74174728 6.67517854,7.74174728 6.58372727,7.75050958 C6.26850818,7.79667263 5.96353257,7.89551825 5.68185658,8.04281482 C5.46219997,8.16148551 5.25978593,8.30897451 5.08011662,8.48127267 C4.71766054,8.84949862 4.43272563,9.2851653 4.24182041,9.76303113 C4.23749042,9.77194325 4.23402512,9.78124121 4.23147108,9.79080013 L4.22407869,9.80833844 C4.22407869,9.81856912 4.22407869,9.82879981 4.21372936,9.83756896 L4.20338002,9.86387643 C4.08705362,10.1846941 4.02574129,10.5158283 4.0156135,10.8504066 C4.00617193,11.4142292 4.2261702,11.9581826 4.62622432,12.3601631 C4.62622432,12.3601631 5.19248084,13.051465 6.26733329,12.629084 L6.38561141,12.5823151 C8.00158629,11.8939363 7.98828,10.1824891 7.59796219,9.56134052 C7.20764438,8.94019189 6.14314126,8.90803831 5.5857556,9.85364575 C5.02836994,10.7992532 5.88145091,11.2742492 5.88145091,11.2742492 C5.81344099,10.4894096 6.81880504,9.61249393 7.00509309,10.7101001 C7.03037585,10.8548709 7.03584596,11.0023456 7.02135633,11.1485579 C7.02187855,11.2034692 7.01692637,11.2582977 7.00657157,11.3122489 C7.00657157,11.3122489 6.9917868,11.3721714 6.98439442,11.3970174 C6.97700204,11.4218633 6.96813118,11.4496323 6.95778184,11.4759398 C6.90487484,11.6186792 6.82567162,11.7504926 6.72418255,11.8647058 C6.59483633,12.0256805 6.43326814,12.1585282 6.24959157,12.2549333 C6.16531841,12.3060867 6.10174392,12.3323941 6.09435153,12.3382403 C5.02836994,12.7971595 4.64248756,11.4452478 4.61587498,11.3473255 C4.53687197,10.9864623 4.54243497,10.6125146 4.63213822,10.2541039 C4.66960967,10.0246364 4.74768371,9.80348907 4.86278056,9.60080172 C5.3270222,8.78673164 5.88145091,8.50173404 6.30873063,8.41550399 C6.5125888,8.36938008 6.72435415,8.36938008 6.92821231,8.41550399 L6.99622223,8.43304231 C7.51221055,8.57919492 8.01193562,9.03080651 8.25144883,9.92964511 C8.57671367,11.1558656 8.18639586,12.5603922 7.92174855,13.3379242 C7.50994445,14.1808151 6.9885629,14.9669414 6.37082665,15.676366 C6.00006802,16.1063623 5.513556,16.4236066 4.9677524,16.5912814 C4.90269943,16.6117428 4.84060342,16.6278196 4.78146435,16.6438964 C4.54639114,16.7248131 4.29367594,16.7419723 4.04961846,16.6935883 C3.70956885,16.6102813 3.36804077,16.3325913 3.32368647,15.5682131 C3.25124112,14.3405311 4.17233201,13.828997 4.5833485,13.6682291 C4.64968699,13.6382892 4.71842591,13.6138464 4.78885674,13.5951528 C5.1067292,13.5162304 5.39355365,13.6083065 5.51774568,14.0336106 C5.58227484,14.2282373 5.57174336,14.4395753 5.48817615,14.6269902 C5.44377445,14.7194019 5.38149156,14.8023212 5.30484505,14.8710651 C4.9928865,15.2101392 4.71345443,15.1282937 4.55377896,15.0172177 C4.48711641,14.9846089 4.43122053,14.9339162 4.39262502,14.8710651 C4.31916688,14.7062489 4.31916688,14.518501 4.39262502,14.3536849 C4.39262502,14.3536849 3.53510862,14.7570661 3.8012344,15.6354433 C3.97273768,16.2010539 4.50646772,16.2069 4.93966135,16.0315169 C4.93966135,16.0315169 5.77795755,15.7947497 6.0588681,14.5305295 C6.21071217,14.0441728 6.01754862,13.517273 5.5857556,13.2400019 C4.96331697,12.8015441 4.31574424,13.1157722 3.83819631,13.5439993 C3.27213819,13.9772891 2.92419992,14.6321258 2.88457894,15.3387535 C2.83084142,15.7338467 2.87863719,16.1359557 3.02355573,16.5079744 C3.06427086,16.6084021 3.11955379,16.702438 3.18766663,16.7871259 C3.20673653,16.8132552 3.22747754,16.838152 3.24976264,16.8616638 C3.28672456,16.901125 3.63416655,17.2299684 4.33052901,17.1408153 C4.72335304,17.0639446 5.10055638,16.923189 5.4467788,16.7242803 C5.62799329,16.6173139 5.80320382,16.5007076 5.97163798,16.3749756 C6.54480705,15.9069083 7.03456065,15.3471847 7.420545,14.7190664 C7.16181161,15.3285228 6.79367094,16.1425929 6.43292266,16.8514331 C5.86518767,17.9665776 4.97958021,19.9294072 5.33145763,21.4216254 C5.68333505,22.9138437 6.78627856,24.4513692 7.66892906,24.5390608 C8.55157957,24.6267524 9.02912749,24.1736792 9.0158212,23.2076104 C9.00251491,22.2415416 8.37416238,22.0383895 7.88774359,22.0866199 C7.40132481,22.1348502 7.3702768,22.650769 7.3702768,22.650769 C8.0636823,22.7530758 7.65562277,23.4122241 7.65562277,23.4122241 C7.65562277,23.4122241 7.22095067,24.1006029 6.35160645,22.7238453 C5.48226224,21.3470876 5.686292,19.5786409 5.94354693,18.7134174 C6.20080185,17.8481939 7.07605997,16.2010539 7.97940914,14.1315329 C8.15315654,13.7260498 8.29116727,13.3064955 8.3919041,12.8775434 C8.4755878,12.6821588 8.57086893,12.4918292 8.67725007,12.3075482 C9.12079304,11.6337846 9.74027471,11.8018601 10.0197068,12.2286258 C10.2991389,12.6553914 10.3597564,13.9283807 10.2000809,15.0961402 C10.0404055,16.2638996 9.16514734,16.7038189 8.83988249,16.1630543 C8.51461765,15.6222896 9.5392019,14.8886034 9.5392019,14.8886034 C8.61958949,13.9970725 7.47968406,15.0230638 7.77537937,16.9829704 C8.07107469,18.942877 9.87925151,17.1700458 10.1793823,16.2083616 C10.479513,15.2466773 10.9127066,11.9494743 9.71218366,11.4613245 Z M14.2274511,11.9143977 C14.2061726,12.5782153 14.1474351,13.2403418 14.0515123,13.8976887 C14.0515123,13.8976887 14.8424973,13.4051544 15.2446429,12.7547752 C15.6645303,12.0678579 15.7680236,11.3882482 15.2446429,11.2406341 C14.7212622,11.0930199 14.2274511,11.401402 14.2274511,11.9143977 Z M9.71514061,18.5014961 C10.1143293,18.5833416 10.4750776,18.1375761 10.5090825,17.49012 C10.5401305,16.8938173 10.4322017,16.6716654 10.3878474,16.6877422 C10.3434931,16.7038189 10.2577415,17.0911234 9.86594522,17.5997345 C9.66782936,17.8628092 9.14888409,18.3874971 9.71514061,18.5014961 Z M18.0493129,12.5954689 C18.0493129,12.5954689 18.2607351,12.0415504 18.74124,11.9991662 C19.1273814,11.9605377 19.4946638,12.172477 19.6505031,12.5238541 C19.7643457,12.0722425 19.9609831,11.7258608 20.2758986,11.5914004 C20.7637959,11.3838637 21.0861038,11.737553 21.4335458,12.3733169 C21.4039762,12.2140105 21.3803206,12.0590888 21.3581435,11.90709 C21.3153889,11.6383933 21.2872574,11.3676213 21.2738703,11.095943 C21.2738703,11.040405 21.2738703,10.9834055 21.263521,10.929329 C21.2531716,10.8752525 21.263521,10.7831764 21.263521,10.704254 C21.2643403,10.5395314 21.275698,10.3750249 21.2975259,10.2117197 C21.3211816,9.979337 21.356665,9.70749313 21.4128471,9.39034195 C21.4276319,9.33041938 21.4438951,9.26611223 21.4601584,9.19595897 C21.4956418,9.04980635 21.5281683,8.86857711 21.5562593,8.66834802 C21.613485,8.41485823 21.65056,8.15733098 21.6671451,7.89812373 C21.6671451,7.87912389 21.6671451,7.8630471 21.6671451,7.84989336 C21.6798583,7.60559576 21.666478,7.36065393 21.6272262,7.11913027 C21.6154281,7.01006935 21.5911235,6.90268822 21.5547809,6.79905604 C21.3197031,6.06829295 20.7637959,5.69852683 20.0556056,5.8812176 C20.0792613,5.00430189 21.201425,4.85814928 21.8815242,5.33460681 C22.5616234,5.81106434 22.4389098,7.22289863 22.4389098,7.22289863 C22.5787838,6.84633381 22.9593134,6.61160569 23.3629577,6.65290342 C23.6083848,7.2828212 23.0672624,7.75050958 23.0672624,7.75050958 C23.1587136,7.74174728 23.2508077,7.74174728 23.342259,7.75050958 C23.9084253,7.82824544 24.4352305,8.08095482 24.8473481,8.47250351 C25.2087998,8.84151968 25.4935979,9.27697721 25.6856443,9.75426197 L25.6945152,9.78203097 L25.7019076,9.79956928 C25.7019076,9.80979997 25.7019076,9.82003065 25.7122569,9.82879981 C25.7163423,9.83731147 25.7198011,9.84610346 25.7226063,9.85510728 L25.7226063,9.86826101 C25.8323447,10.1848685 25.8936382,10.5159012 25.9044589,10.8504066 C25.9139004,11.4142292 25.6939022,11.9581826 25.2938481,12.3601631 C25.2938481,12.3601631 24.7305485,13.048542 23.6571745,12.6261609 L23.5388964,12.5793921 C21.9229215,11.8939363 21.9391848,10.1824891 22.330981,9.56134052 C22.7227773,8.94019189 23.7843235,8.90803831 24.3417092,9.85364575 C24.8990948,10.7992532 24.0460138,11.2742492 24.0460138,11.2742492 C24.1140238,10.4894096 23.1086597,9.61249393 22.9223717,10.7101001 C22.8970889,10.8548709 22.8916188,11.0023456 22.9061084,11.1485579 C22.90691,11.20299 22.9123503,11.2572585 22.9223717,11.3107874 C22.9223717,11.3107874 22.9371564,11.3707099 22.9445488,11.3955559 C22.9519412,11.4204018 22.9622905,11.4481708 22.9726399,11.4744783 C23.0250392,11.6171363 23.1037431,11.748953 23.2047607,11.8632442 C23.3341069,12.0242189 23.4956751,12.1570667 23.6793517,12.2534717 C23.7636248,12.3046252 23.8271993,12.3309326 23.8345917,12.3367787 C24.9005733,12.7956979 25.2864557,11.4437862 25.3130683,11.345864 C25.3920713,10.9850008 25.3865083,10.6110531 25.296805,10.2526424 C25.2600051,10.0230074 25.1818907,9.80174565 25.0661627,9.5993402 C25.0654644,9.59695321 25.0654644,9.59441955 25.0661627,9.59203257 C24.6004426,8.78527012 24.0460138,8.50027251 23.6187341,8.41404247 C23.414876,8.36791855 23.2031106,8.36791855 22.9992524,8.41404247 L22.9282856,8.43158078 C22.4122973,8.5777334 21.9125722,9.02934499 21.673059,9.92818359 C21.2487362,11.5270932 22.0426781,13.4241542 22.1831334,13.856766 C22.5329077,14.5549323 22.9641036,15.2102525 23.4679295,15.8093649 C23.8166768,16.2422504 24.2858892,16.5648505 24.8177786,16.737434 C24.8779033,16.7578954 24.9370424,16.7754337 24.9951958,16.790049 C25.2182161,16.8681435 25.4588251,16.8833254 25.6900798,16.8338948 C26.0153446,16.7505878 26.3420879,16.4728978 26.3834853,15.7099811 C26.4530038,14.8811165 25.9636086,14.1055162 25.1800054,13.8026895 C25.1203055,13.7758554 25.058499,13.7538602 24.9951958,13.7369208 C24.6906296,13.6565369 24.4171115,13.748613 24.2988333,14.1753787 C24.2361541,14.3701337 24.2461197,14.5806411 24.3269244,14.7687583 C24.3687586,14.8603936 24.4279816,14.9432482 24.5013846,15.0128332 C24.7970799,15.3519072 25.0617272,15.2700618 25.2199242,15.1589858 C25.2819207,15.1247079 25.3330965,15.0741188 25.3677719,15.0128332 C25.4380858,14.8473766 25.4380858,14.6609094 25.3677719,14.4954529 C25.3677719,14.4954529 26.1883264,14.8988341 25.9340284,15.7786729 C25.7699175,16.342822 25.2598431,16.3486681 24.8458697,16.1732849 C24.8458697,16.1732849 24.0460138,15.9365177 23.7769311,14.6722976 C23.6289471,14.1886163 23.8120369,13.6656888 24.2308234,13.3759238 C24.822214,12.937466 25.4431742,13.2502326 25.9000234,13.6784598 C26.4420217,14.1246758 26.7679856,14.7765613 26.7974587,15.4732139 C26.8500319,15.8677371 26.8048759,16.26898 26.6658743,16.6424348 C26.6272653,16.7423496 26.574499,16.8363383 26.5091558,16.9215863 C26.4899356,16.9478938 26.4707154,16.9727398 26.4500167,16.9975857 C26.429318,17.0224317 26.0818761,17.3658903 25.4150831,17.2752757 C25.0382644,17.1977451 24.6777027,17.0568547 24.3491015,16.8587407 C24.1798973,16.7499691 24.0170082,16.6318866 23.8612043,16.5050514 C23.4405603,16.1516617 23.0713855,15.7424542 22.7641747,15.2890616 C22.9859462,15.7889036 23.2476365,16.3472066 23.5034129,16.8514331 C24.0711479,17.9665776 24.9582339,19.9294072 24.604878,21.4216254 C24.2515221,22.9138437 23.1500571,24.4513692 22.2659281,24.5390608 C21.3817991,24.6267524 20.9086866,24.1736792 20.9205144,23.2076104 C20.9323422,22.2415416 21.5621732,22.0383895 22.048592,22.0866199 C22.5350108,22.1348502 22.5645803,22.650769 22.5645803,22.650769 C21.8726533,22.7530758 22.2807128,23.4122241 22.2807128,23.4122241 C22.2807128,23.4122241 22.7153849,24.1006029 23.5847292,22.7238453 C24.4540734,21.3470876 24.2500436,19.5786409 23.9927887,18.7134174 C23.7355338,17.8481939 22.8602756,16.2010539 21.9569265,14.1315329 C21.822463,13.8196164 21.7103159,13.4987534 21.6213123,13.1713102 C21.4734646,12.8336976 21.3581435,12.5706229 21.2753488,12.4405471 C20.8569399,11.7667835 20.2611139,11.934859 19.9920311,12.3616247 C19.7229484,12.7883903 19.6682448,14.0613796 19.8205279,15.2306006 C19.9728109,16.3998215 20.8155426,16.8382794 21.1215872,16.2960531 C21.4276319,15.7538269 20.4518373,15.0216023 20.4518373,15.0216023 C21.3389233,14.1300713 22.9445488,15.3416765 22.1373006,17.1159693 C21.0550558,19.4938724 20.1265725,17.3030447 19.8397481,16.3413605 C19.6451189,15.5762622 19.5394633,14.7917044 19.5248325,14.0029186 C19.2667192,14.4512959 18.8873559,14.8197307 18.4292814,15.0669096 C17.165184,15.7976727 16.9936807,14.5977597 17.1134373,14.3171467 C17.1134373,14.3171467 17.3677353,13.2034638 18.0330497,13.1099261 C18.6983642,13.0163884 18.9541406,13.6463062 18.865432,13.6463062 C18.4991511,13.6429984 18.1397238,13.7445145 17.8304984,13.9386114 C17.4224389,14.1812248 17.3071177,14.6182211 17.602813,14.8491422 C17.8985083,15.0800634 18.865432,14.8608344 19.3074965,13.8173047 C19.749561,12.7737751 18.8876092,12.5647768 18.4337168,12.6816989 C17.9798245,12.798621 18.0493129,12.5954689 18.0493129,12.5954689 Z" id="k-symbol" fill="#6D0978"></path>
        </g>
    </g>
</svg>