<?xml version="1.0" encoding="UTF-8"?>
<svg width="60px" height="60px" viewBox="0 0 60 60" version="1.1" xmlns="http://www.w3.org/2000/svg" xmlns:xlink="http://www.w3.org/1999/xlink">
    <!-- Generator: Sketch 57 (83077) - https://sketch.com -->
    <title>bird</title>
    <desc>Created with Sketch.</desc>
    <g id="bird" stroke="none" stroke-width="1" fill="none" fill-rule="evenodd">
        <path d="M8.91509861,28.7052375 C12.5800331,27.6176523 16.7023159,26.3876394 18.950866,25.6942198 C23.6095989,24.2577049 30.8630855,24.0653617 30.5929095,30.1069554 C30.32297,36.1489092 24.3274275,35.4450505 21.7669631,35.5130846 C20.6596553,35.542362 16.7338857,34.6785573 12.6346595,33.6890035 C18.1308789,39.9411789 24.7387809,43.2959667 30.6735485,44.8564308 C32.7391829,45.3992635 34.7041961,45.7511928 36.5432847,45.89914 C40.3524707,46.2057133 43.6489727,45.6488418 46.2151126,44.1163352 C48.7594966,42.5967876 50.6002405,40.100885 51.5245144,36.5172771 C51.8134904,35.3965747 52.013669,34.176641 52.1177192,32.8549561 C52.8092989,24.1043583 41.6806488,22.8609066 31.0659836,21.6752898 C27.4164201,21.2678053 23.8258579,20.8664403 20.7583848,20.1700209 C11.0937695,17.976612 3.99576709,9.70993202 1.38280452,6.24559376 C2.60622294,15.7216484 5.34948483,23.063209 8.91509861,28.7052375 Z M53.2518672,35.3492988 C53.2484383,35.3251809 53.2474924,35.3004631 53.2497389,35.2755053 C53.264637,35.0974408 53.4197666,34.9650923 53.5960608,34.980211 C54.7758491,35.0808822 55.8601002,34.8094659 56.7721955,34.3651446 C57.9476089,33.7917145 58.8306174,32.9382288 59.260416,32.2268108 C59.3525241,32.0741841 59.5502196,32.0254683 59.7016837,32.1184602 C59.8529114,32.2113322 59.9011529,32.4109948 59.8089265,32.5637415 C59.3256839,33.3639518 58.3448918,34.3177487 57.0517124,34.9480538 C56.8061301,35.0673234 56.5501428,35.174834 56.2841051,35.2684259 C56.5551088,35.347379 56.8167716,35.4415708 57.0674382,35.5476416 C58.3908867,36.1082327 59.4194474,37.0088743 59.9440736,37.7835268 C60.0439855,37.930874 60.0063855,38.1323364 59.8603604,38.2332476 C59.7144535,38.3341589 59.5146297,38.2962422 59.414836,38.148895 C58.9490928,37.4608749 58.0231636,36.656105 56.8193728,36.1462694 C55.8844575,35.7503039 54.7864906,35.5362426 53.6145061,35.6994283 C53.4391577,35.7235462 53.2774069,35.599477 53.2535226,35.4227324 C53.2502119,35.3978946 53.2498572,35.3731768 53.2518672,35.3492988 Z M1.08933545,4.16953458 L0,2.5 L0.208455269,4.48654697 C1.3016926,14.8973202 4.15988275,22.8959435 7.95547129,28.9896128 C4.44519334,30.0301621 1.57778055,30.8746486 1.57778055,30.8746486 C1.57778055,30.8746486 6.18945433,32.1056214 11.038079,33.2993974 C12.7909714,35.439051 14.6695518,37.2720114 16.6137549,38.8353552 C16.0664268,41.3185389 13.6043371,53.7574955 18.3467832,57.4333753 C18.4871328,57.5419659 18.6884938,57.5149682 18.795973,57.3731406 C18.9035704,57.2314329 18.8767302,57.0280506 18.7363805,56.9194601 C14.4589683,53.6039089 16.5393826,42.2641766 17.1752717,39.2783566 C18.8241138,40.5524057 20.5158767,41.6371112 22.2155617,42.5544313 C21.6143166,44.1252145 19.8916933,49.1834939 23.0677098,56.7951509 C23.1365248,56.9596566 23.324643,57.0365699 23.4876945,56.9673359 C23.650746,56.897862 23.7270102,56.7077985 23.6581951,56.5431729 C20.6285585,49.2824853 22.1864749,44.4493062 22.7879564,42.8570449 C25.3686397,44.1924086 27.9585457,45.1478854 30.4341146,45.7987087 C32.5413692,46.3524605 34.5614817,46.7129091 36.4699765,46.8663757 C40.4752027,47.1889076 43.9627788,46.5905197 46.7058042,44.9524224 C49.4701127,43.3013662 51.4650402,40.6094007 52.4580109,36.7589361 C52.7578649,35.5967173 52.9660837,34.3207484 53.0759277,32.9289896 C53.792101,23.8692987 43.6917752,22.1475687 33.3280129,20.9515129 C32.5243428,13.2657023 22.996057,4.44695042 22.996057,4.44695042 C21.0715998,11.6788405 22.4624446,17.5366103 23.1193802,19.6489063 C22.3774308,19.5188377 21.658065,19.37701 20.9675495,19.2203037 C9.04728976,16.5151393 1.11251028,4.2049315 1.08933545,4.16953458 Z M41.2301584,35.1703944 C41.0875623,35.0642037 41.0575296,34.8608214 41.1628805,34.7168339 C41.2681132,34.5730864 41.4694741,34.5426091 41.6120703,34.6489198 C41.6225935,34.6567192 45.2903658,37.4360371 47.1704833,34.5717666 C47.2682669,34.4229795 47.4669084,34.3824231 47.6144706,34.4809345 C47.7617963,34.5795659 47.8019975,34.7801884 47.7042139,34.9289754 C45.4471506,38.3676359 41.2423371,35.1793936 41.2301584,35.1703944 L41.2301584,35.1703944 Z" fill="#FFFFFE" transform="translate(30.000000, 30.000000) scale(-1, 1) translate(-30.000000, -30.000000) "></path>
    </g>
</svg>