<?xml version="1.0" encoding="UTF-8"?>
<svg width="16px" height="16px" viewBox="0 0 16 16" version="1.1" xmlns="http://www.w3.org/2000/svg" xmlns:xlink="http://www.w3.org/1999/xlink">
    <!-- Generator: Sketch 55.2 (78181) - https://sketchapp.com -->
    <title>Icon/16x16/cake</title>
    <desc>Created with Sketch.</desc>
    <g id="Icon/16x16/cake" stroke="none" stroke-width="1" fill="none" fill-rule="evenodd">
        <path d="M1.5,7 L14.5,7 C14.7761424,7 15,7.22385763 15,7.5 C15,7.77614237 14.7761424,8 14.5,8 L1.5,8 C1.22385763,8 1,7.77614237 1,7.5 C1,7.22385763 1.22385763,7 1.5,7 Z M3.5,4 L12.5,4 C12.7761424,4 13,4.22385763 13,4.5 C13,4.77614237 12.7761424,5 12.5,5 L3.5,5 C3.22385763,5 3,4.77614237 3,4.5 C3,4.22385763 3.22385763,4 3.5,4 Z M8,0 C8.55228475,-1.01453063e-16 9,0.44771525 9,1 C9,1.55228475 8.55228475,2 8,2 C7.44771525,2 7,1.55228475 7,1 C7,0.44771525 7.44771525,1.01453063e-16 8,0 Z M2,10 L14,10 L12.9607768,15.1961161 C12.8672919,15.6635403 12.4568771,16 11.9801961,16 L4.0198039,16 C3.54312288,16 3.13270807,15.6635403 3.03922323,15.1961161 L2,10 Z" id="cake" fill="#FFFFFF" fill-rule="nonzero"></path>
    </g>
</svg>