<svg width="16" height="17" viewBox="0 0 16 17" fill="none" xmlns="http://www.w3.org/2000/svg">
<path fill-rule="evenodd" clip-rule="evenodd" d="M4.25103 12.6778C4.41458 11.7435 5.21191 11.0526 6.15999 11.0236C7.10806 10.9947 7.94609 11.6356 8.16638 12.5582C8.32342 13.2159 9.12505 14.0625 10.5195 14.0625C11.0218 14.0625 11.9225 13.7643 12.7199 13.0187C13.4697 12.3176 14 11.3377 14 10.1103C14 9.73618 13.9551 9.40633 13.8794 9.11516C13.1879 9.81128 12.2171 10.3107 11.1051 10.3107C10.3559 10.3107 9.62627 10.1575 8.98638 9.78255C8.33159 9.39881 7.88613 8.84913 7.62778 8.25761C7.16189 7.19089 7.30453 6.00877 7.73641 5.22206C7.86611 4.98579 8.02413 4.76473 8.10711 4.64864C8.11723 4.63447 8.12624 4.62187 8.13394 4.611C8.22836 4.47769 8.27164 4.41071 8.30509 4.34711C8.3401 4.28056 8.41428 4.13182 8.42829 3.76638C8.40883 3.72967 8.37472 3.67152 8.31752 3.59067C8.26293 3.51349 8.19868 3.43173 8.12591 3.34647C7.8549 3.74747 7.52472 4.16247 7.12281 4.5758C6.61854 5.09438 5.95321 5.57171 5.41729 5.9562C5.38368 5.98031 5.35058 6.00405 5.31806 6.02742C4.70391 6.46876 4.13914 6.87991 3.62908 7.35399C2.662 8.25284 2 9.2714 2 10.8161C2 12.0482 2.69936 12.8094 3.77143 13.3702C3.88109 13.4275 3.99162 13.4808 4.10182 13.5302L4.25103 12.6778ZM5.68894 16.0625C5.68894 16.0625 5.52371 16.042 5.24957 15.9856C4.89253 15.9121 4.35074 15.7775 3.74864 15.5477C2.10035 14.9187 0 13.5756 0 10.8161C0 7.38584 2.36756 5.68469 4.18925 4.37576C4.77948 3.95166 5.31241 3.56874 5.68894 3.18152C6.0854 2.7738 6.38829 2.36911 6.61952 1.99296C7.28567 0.909299 7.35698 0.0625 7.35698 0.0625C7.35698 0.0625 8.25108 0.657788 9.07483 1.44669C9.77838 2.12049 10.4306 2.93551 10.4306 3.64153C10.4306 4.8316 10.0482 5.36985 9.73365 5.8126C9.6431 5.94006 9.55817 6.0596 9.48961 6.1845C9.18285 6.74328 9.1805 8.31066 11.1051 8.31066C11.7736 8.31066 12.3941 7.88801 12.7335 7.37574C12.8095 7.26103 12.8713 7.14183 12.9165 7.02187C13.2504 6.13509 12.9165 5.15492 12.9165 5.15492C12.9165 5.15492 14.1066 5.63357 15.0081 6.88696C15.5577 7.65109 16 8.70317 16 10.1103C16 13.8255 12.7224 16.0625 10.5195 16.0625C9.49605 16.0625 8.58168 15.7662 7.85602 15.2818C7.01981 14.7235 6.43421 13.9153 6.22107 13.0227L5.68894 16.0625Z" fill="#6D0978"/>
</svg>
