<svg width="16" height="16" viewBox="0 0 16 16" fill="none" xmlns="http://www.w3.org/2000/svg">
<g id="Icon/16x16/cart">
<path id="cart" fill-rule="evenodd" clip-rule="evenodd" d="M8 3C9.10457 3 10 3.89543 10 5H6C6 3.89543 6.89543 3 8 3ZM4 5C4 2.79086 5.79086 1 8 1C10.2091 1 12 2.79086 12 5H15C15.5523 5 16 5.44772 16 6C16 6.55228 15.5523 7 15 7H14.8175L13.8193 13.1218C13.6616 14.0894 12.8257 14.8 11.8454 14.8H4.15431C3.17396 14.8 2.33812 14.0894 2.18038 13.1218L1.18234 7H1C0.447715 7 0 6.55228 0 6C0 5.44772 0.447715 5 1 5H4ZM3.20875 7L4.15432 12.8H7V7H4H3.20875ZM9 7V12.8H11.8454L12.791 7H12H9Z" fill="white"/>
</g>
</svg>
