<svg width="16" height="16" viewBox="0 0 16 16" fill="none" xmlns="http://www.w3.org/2000/svg">
<path fill-rule="evenodd" clip-rule="evenodd" d="M7.32292 2.76054L8 2.23428L8.67709 2.76054C9.27142 3.22249 10.0094 3.44722 10.748 3.40929L11.5979 3.36564L11.8002 4.09197C12.0082 4.83898 12.4921 5.46257 13.1308 5.85858L13.7605 6.24903L13.5064 6.88042C13.217 7.59954 13.217 8.40046 13.5064 9.11958L13.7605 9.75097L13.1308 10.1414C12.4921 10.5374 12.0082 11.161 11.8002 11.908L11.5979 12.6344L10.748 12.5907C10.0094 12.5528 9.27142 12.7775 8.67709 13.2395L8 13.7657L7.32291 13.2395C6.72858 12.7775 5.99059 12.5528 5.25204 12.5907L4.40211 12.6344L4.19984 11.908C3.9918 11.161 3.50786 10.5374 2.86922 10.1414L2.23955 9.75097L2.49363 9.11958C2.78301 8.40046 2.78301 7.59954 2.49363 6.88042L2.23955 6.24903L2.86922 5.85858C3.50786 5.46257 3.9918 4.83898 4.19984 4.09197L4.40211 3.36564L5.25204 3.40929C5.99059 3.44722 6.72858 3.22249 7.32292 2.76054ZM0.49461 11.0223L1.81524 11.8412C2.04074 11.981 2.20394 12.1961 2.27316 12.4446L2.67852 13.9002C2.81057 14.3743 3.27163 14.6951 3.78347 14.6688L5.35462 14.5881C5.6229 14.5743 5.88696 14.6564 6.09555 14.8186L7.3171 15.768C7.71506 16.0773 8.28495 16.0773 8.6829 15.768L9.90445 14.8186C10.113 14.6564 10.3771 14.5743 10.6454 14.5881L12.2165 14.6688C12.7284 14.6951 13.1894 14.3743 13.3215 13.9002L13.7268 12.4446C13.7961 12.1961 13.9593 11.981 14.1848 11.8412L15.5054 11.0223C15.9356 10.7555 16.1117 10.2366 15.9274 9.77863L15.3618 8.37294C15.2652 8.13291 15.2652 7.86709 15.3618 7.62706L15.9274 6.22137C16.1117 5.76343 15.9356 5.24451 15.5054 4.97773L14.1848 4.15884C13.9593 4.01901 13.7961 3.80395 13.7268 3.5554L13.3215 2.09984C13.1894 1.62566 12.7284 1.30495 12.2165 1.33124L10.6454 1.41193C10.3771 1.4257 10.113 1.34356 9.90445 1.18143L8.6829 0.231981C8.28495 -0.0773268 7.71506 -0.077327 7.3171 0.231981L6.09555 1.18143C5.88697 1.34356 5.6229 1.4257 5.35462 1.41193L3.78347 1.33124C3.27163 1.30495 2.81057 1.62566 2.67852 2.09984L2.27316 3.5554C2.20394 3.80395 2.04074 4.01901 1.81524 4.15884L0.49461 4.97773C0.0643833 5.24451 -0.111723 5.76343 0.0725567 6.22137L0.638222 7.62706C0.734813 7.86709 0.734813 8.13291 0.638222 8.37294L0.0725569 9.77863C-0.111723 10.2366 0.0643831 10.7555 0.49461 11.0223ZM9.57219 5.62566L7.4653 8.03353L6.2872 7.09105C5.81282 6.71154 5.12059 6.78846 4.74108 7.26284C4.36157 7.73723 4.43849 8.42945 4.91288 8.80896L6.91287 10.409C7.37253 10.7767 8.04023 10.7174 8.42787 10.2744L11.2279 7.07437C11.6279 6.61717 11.5816 5.92223 11.1244 5.52218C10.6672 5.12213 9.97224 5.16846 9.57219 5.62566Z" fill="#6D0978"/>
</svg>
