<?xml version="1.0" encoding="UTF-8"?>
<svg width="16px" height="16px" viewBox="0 0 16 16" version="1.1" xmlns="http://www.w3.org/2000/svg" xmlns:xlink="http://www.w3.org/1999/xlink">
    <!-- Generator: Sketch 57.1 (83088) - https://sketch.com -->
    <title>Icon/16x16/close</title>
    <desc>Created with Sketch.</desc>
    <g id="Icon/16x16/close" stroke="none" stroke-width="1" fill="none" fill-rule="evenodd">
        <path d="M3.29289322,3.29289322 C3.68341751,2.90236893 4.31658249,2.90236893 4.70710678,3.29289322 L4.70710678,3.29289322 L8,6.585 L11.2928932,3.29289322 C11.6834175,2.90236893 12.3165825,2.90236893 12.7071068,3.29289322 C13.0976311,3.68341751 13.0976311,4.31658249 12.7071068,4.70710678 L9.415,8 L12.7071068,11.2928932 C13.0675907,11.6533772 13.0953203,12.2206082 12.7902954,12.6128994 L12.7071068,12.7071068 C12.3165825,13.0976311 11.6834175,13.0976311 11.2928932,12.7071068 L11.2928932,12.7071068 L8,9.415 L4.70710678,12.7071068 C4.31658249,13.0976311 3.68341751,13.0976311 3.29289322,12.7071068 C2.90236893,12.3165825 2.90236893,11.6834175 3.29289322,11.2928932 L6.585,8 L3.29289322,4.70710678 C2.93240926,4.34662282 2.90467972,3.77939176 3.20970461,3.38710056 Z" id="close" fill="#FFFFFF" fill-rule="nonzero"></path>
    </g>
</svg>