<?xml version="1.0" encoding="UTF-8"?>
<svg width="20px" height="20px" viewBox="0 0 20 20" version="1.1" xmlns="http://www.w3.org/2000/svg" xmlns:xlink="http://www.w3.org/1999/xlink">
    <!-- Generator: Sketch 55.2 (78181) - https://sketchapp.com -->
    <title>Icon/20x20/close</title>
    <desc>Created with Sketch.</desc>
    <g id="Icon/20x20/close" stroke="none" stroke-width="1" fill="none" fill-rule="evenodd">
        <path d="M10,8.58578644 L13.2928932,5.29289322 C13.6834175,4.90236893 14.3165825,4.90236893 14.7071068,5.29289322 C15.0976311,5.68341751 15.0976311,6.31658249 14.7071068,6.70710678 L11.4142136,10 L14.7071068,13.2928932 C15.0976311,13.6834175 15.0976311,14.3165825 14.7071068,14.7071068 C14.3165825,15.0976311 13.6834175,15.0976311 13.2928932,14.7071068 L10,11.4142136 L6.70710678,14.7071068 C6.31658249,15.0976311 5.68341751,15.0976311 5.29289322,14.7071068 C4.90236893,14.3165825 4.90236893,13.6834175 5.29289322,13.2928932 L8.58578644,10 L5.29289322,6.70710678 C4.90236893,6.31658249 4.90236893,5.68341751 5.29289322,5.29289322 C5.68341751,4.90236893 6.31658249,4.90236893 6.70710678,5.29289322 L10,8.58578644 Z" id="close" fill="#FFFFFF" fill-rule="nonzero"></path>
    </g>
</svg>