<svg width="16" height="16" viewBox="0 0 16 16" fill="none" xmlns="http://www.w3.org/2000/svg">
<path fill-rule="evenodd" clip-rule="evenodd" d="M10.2372 0.324293C10.0063 0.0724024 9.66274 -0.0441497 9.32623 0.0152339L0.831233 1.51435C0.80933 1.5181 0.787549 1.52258 0.76593 1.52779C0.609192 1.56545 0.467731 1.63937 0.350269 1.73984C0.282011 1.79817 0.222538 1.8649 0.172924 1.93791C0.0925552 2.05608 0.0369895 2.19216 0.0131197 2.33848C0.00445147 2.39145 0 2.44545 0 2.50001L0 2.5005L0 11C0 11.4465 0.295977 11.8389 0.725279 11.9615L14.7253 15.9615C15.027 16.0478 15.3517 15.9873 15.6022 15.7984C15.8527 15.6094 16 15.3138 16 15V7.00803V7.00001C16 6.89686 15.9842 6.79652 15.9545 6.70168M10.2372 0.324293L15.7344 6.32132L10.2372 0.324293ZM11.7117 4.89268L9.13356 2.08014L5.14913 2.78327L11.7117 4.89268ZM14 7.72897L2 3.87182V6.23204L14 9.80764V7.72897ZM14 11.8945L2 8.31894V10.2457L14 13.6743V11.8945Z" fill="#6D0978"/>
</svg>
