<?xml version="1.0" encoding="UTF-8"?>
<svg width="200px" height="103px" viewBox="0 0 200 103" version="1.1" xmlns="http://www.w3.org/2000/svg" xmlns:xlink="http://www.w3.org/1999/xlink">
    <!-- Generator: Sketch 55.2 (78181) - https://sketchapp.com -->
    <title>download-photo</title>
    <desc>Created with Sketch.</desc>
    <defs>
        <polygon id="path-1" points="0.202639432 0.371751412 40.0182351 0.371751412 40.0182351 36.2719449 0.202639432 36.2719449"></polygon>
        <polygon id="path-3" points="0 0.0887680922 51.4173635 0.0887680922 51.4173635 35.2077366 0 35.2077366"></polygon>
    </defs>
    <g id="des" stroke="none" stroke-width="1" fill="none" fill-rule="evenodd">
        <g id="Profile-no-photo" transform="translate(-106.000000, -68.000000)">
            <g id="download-photo" transform="translate(106.000000, 68.000000)">
                <g id="Group-3" transform="translate(1.883239, 0.004896)">
                    <mask id="mask-2" fill="white">
                        <use xlink:href="#path-1"></use>
                    </mask>
                    <g id="Clip-2"></g>
                    <path d="M8.99913371,3.1787194 C9.31062147,2.92410546 9.62210923,2.93126177 9.93359699,3.19981168 C10.2454614,3.46873823 10.4149529,3.9 10.4420716,4.49359699 C10.5230508,5.62504708 10.0759699,6.77043315 9.10082863,7.92975518 C8.72116761,7.16591337 8.53171375,6.04915254 8.53171375,4.57834275 C8.53171375,3.9 8.6872693,3.43333333 8.99913371,3.1787194 M28.5690019,9.75386064 C28.6503578,10.1497175 28.6571375,10.4819209 28.5897175,10.7508475 C28.5219209,11.0193974 28.4066667,11.1677966 28.2439548,11.1960452 C28.0816196,11.2242938 27.9392467,11.1677966 27.8172128,11.026177 C27.6955556,10.8849341 27.5938606,10.559887 27.5125047,10.0506591 C27.4582674,9.65480226 27.5531827,9.11770245 27.7968738,8.4386064 C28.2032768,8.86308851 28.460904,9.30112994 28.5690019,9.75386064 M28.7727684,17.347081 C28.3931073,17.23371 28.3659887,16.9934087 28.6914124,16.6258004 C29.2872693,15.9188324 30.2763465,15.3813559 31.6582674,15.0137476 C30.4119397,16.76742 29.4499812,17.5448211 28.7727684,17.347081 M6.29630885,10.43258 C7.16335217,10.43258 8.0439548,10.1497175 8.93811676,9.58399247 C10.1030885,10.5455744 11.6477213,10.9700565 13.5716384,10.8566855 C15.1158945,10.7719397 17.053371,10.2487759 19.3836911,9.28719397 C21.7140113,8.32561205 23.326064,7.78813559 24.220226,7.67514124 L25.1143879,7.59039548 C25.6563842,7.59039548 26.2119397,7.67514124 26.780678,7.84500942 C26.6996987,8.07099812 26.6047834,8.4386064 26.4963089,8.94783427 C26.2793597,10.0789077 26.4081733,10.8992467 26.8823729,11.4080979 C27.3565725,11.9173258 27.8782298,12.1576271 28.4473446,12.1293785 C28.826629,12.1007533 29.1855744,11.9241055 29.5241808,11.5990584 C29.8631638,11.2740113 30.045838,10.7719397 30.0729567,10.0932203 C30.1000753,9.01826742 29.4770998,8.15574388 28.2032768,7.50564972 C28.2303955,7.42052731 28.2778531,7.27928437 28.3456497,7.08116761 C28.3543126,7.05630885 28.3595857,7.04011299 28.3674953,7.01676083 C29.0303955,5.63446328 29.9641055,4.38286252 31.1705085,3.26346516 C32.1189077,2.386629 33.0537476,1.8992467 33.9750282,1.79981168 C34.8963089,1.70112994 35.5332203,2.02617702 35.8853861,2.77570621 C36.2375518,3.52485876 36.1833145,4.70564972 35.7226742,6.31770245 C34.9098682,8.94783427 33.7987571,11.4789077 32.3900942,13.9109228 C31.7125047,13.96742 31.0488512,14.1229755 30.3983804,14.3775895 C28.8808663,14.9715631 27.8514878,15.819774 27.3094915,16.9225989 C26.8759699,17.8276836 27.0386817,18.379096 27.7972505,18.5772128 C28.420226,18.7467043 29.267307,18.4781544 30.3373635,17.7711864 C31.4077966,17.0642185 32.5117514,16.0883239 33.6499812,14.8442561 C34.2733333,14.9290019 34.774275,15.1271186 35.1535593,15.4378531 C36.4273823,16.5693032 36.9893409,18.4642185 36.840565,21.1222222 C36.6914124,23.7806026 36.034162,26.0996234 34.8691902,28.0792844 C34.3814313,28.8992467 33.8665537,29.6627119 33.3245574,30.3696798 C32.7829379,31.0770245 32.132467,31.7979284 31.3738983,32.5335217 C30.6153296,33.2687382 29.8428249,33.8201507 29.0571375,34.1877589 C28.2710734,34.5553672 27.3840678,34.8028249 26.3949906,34.9301318 C25.4059134,35.0574388 24.4236158,34.8804143 23.4480979,34.3998117 C22.2560075,33.8909605 21.3550659,33.2050847 20.7456497,32.3425612 C20.1354802,31.4800377 19.8307721,30.6242938 19.8307721,29.7760829 C19.8307721,28.9274953 19.973145,28.1429379 20.2578908,27.4216573 C20.5418832,26.7007533 20.9147646,26.1843691 21.3754049,25.873258 C22.2153296,25.279661 23.0552542,24.9542373 23.8951789,24.8977401 C24.7351036,24.8412429 25.3991337,25.0250471 25.8868927,25.4491525 C26.1305838,25.6472693 26.306855,25.8875706 26.4153296,26.1700565 C26.5234275,26.452919 26.5708851,26.707533 26.5573258,26.9338983 C26.5441431,27.159887 26.5170245,27.4077213 26.4759699,27.6762712 C26.4356685,27.9448211 26.4153296,28.0932203 26.4153296,28.1218456 C26.4153296,28.3478343 26.6590207,28.4043315 27.1467797,28.2913371 C27.9053484,28.1497175 28.2307721,27.6834275 28.1222976,26.8913371 C27.9867043,25.7320151 27.4450847,24.8551789 26.4966855,24.2615819 C26.2254991,24.0917137 25.8055367,23.9572505 25.2364218,23.8585687 C24.6676836,23.7595104 23.9426365,23.8016949 23.0620339,23.9858757 C22.1814313,24.1693032 21.4160829,24.5444444 20.7656121,25.1097928 C20.1964972,25.6190207 19.7565725,26.3259887 19.4447081,27.2306968 C19.1332203,28.1357815 18.9840678,29.0973635 18.9976271,30.1154426 C19.0111864,31.1335217 19.3569492,32.1372881 20.034162,33.1271186 C20.7113748,34.1169492 21.700452,34.8804143 23.0010169,35.4178908 C25.7377401,36.5775895 28.5422599,36.5561205 31.4145763,35.3542373 C34.286516,34.152354 36.5087382,32.080791 38.080113,29.139548 C39.6789831,26.1986817 40.2883992,23.2431262 39.9091149,20.2740113 C39.5298305,17.3045198 38.3102448,15.3813559 36.2511111,14.5048964 C35.6819962,14.2785311 35.07258,14.0947269 34.4221092,13.9531073 C36.6710734,11.2382298 37.9580791,8.7779661 38.2835028,6.57231638 C38.527194,4.81864407 38.3780414,3.36967985 37.8364218,2.22429379 C37.2944256,1.07890772 36.4206026,0.463841808 35.2149529,0.378719397 C34.0089266,0.293973635 32.4981921,0.958757062 30.6827495,2.37269303 C29.7343503,3.13615819 28.9418832,3.94934087 28.3053484,4.81186441 C27.7162712,5.60960452 27.3034652,6.35009416 27.0503578,7.03898305 L27.0247458,7.03898305 C25.7512994,6.67099812 24.3693785,6.69246704 22.8789831,7.10225989 C21.3889642,7.51242938 19.7900942,8.04990584 18.0831262,8.71431262 C16.3757815,9.37909605 14.8857627,9.75386064 13.6123164,9.8386064 C11.959209,9.98022599 10.6722034,9.65480226 9.75092279,8.86308851 C10.8891525,7.61864407 11.4172128,6.0913371 11.3362335,4.28154426 C11.2819962,3.1787194 10.9091149,2.45028249 10.2183427,2.09698682 C9.52719397,1.7433145 8.82964218,1.79981168 8.12531073,2.26685499 C7.42060264,2.73314501 7.02775895,3.41902072 6.94640301,4.32410546 C6.81080979,6.04915254 7.21758945,7.53389831 8.1659887,8.7779661 C7.51551789,9.20244821 6.87898305,9.4566855 6.25563089,9.54180791 C5.44282486,9.65480226 4.67032015,9.5346516 3.93887006,9.18135593 C3.20741996,8.82768362 2.67220339,8.4740113 2.33359699,8.12071563 C1.99461394,7.76704331 1.5407533,7.25103578 0.971638418,6.57231638 C0.646591337,6.34595104 0.41645951,6.34595104 0.28086629,6.57231638 C0.14527307,6.79830508 0.185951036,7.08116761 0.402900188,7.42052731 C1.64922787,9.4566855 3.61382298,10.4608286 6.29630885,10.43258" id="Fill-1" fill="#FEFEFE" mask="url(#mask-2)"></path>
                </g>
                <path d="M74.0650471,44.8399623 C73.6315254,48.572919 72.9674953,50.439209 72.0733333,50.439209 C71.5045951,50.439209 71.1317137,49.9586064 70.9558192,48.9970245 C70.779548,48.0354426 70.7524294,46.9891149 70.8744633,45.8580414 C70.9964972,44.7265913 71.1791714,43.6663277 71.4232392,42.6764972 C72.0465913,40.2162335 73.0895292,37.699096 74.552806,35.125838 L74.7155179,35.0407156 C74.7964972,35.2109605 74.8371751,35.380452 74.8371751,35.5499435 C74.8371751,37.5013559 74.5799247,40.5977778 74.0650471,44.8399623 M114.831149,38.6041808 C114.072957,42.6482486 113.178795,46.1126554 112.14904,48.9970245 C111.498945,50.807194 110.699322,51.4290395 109.750923,50.8636911 C109.100829,50.2979661 108.965235,49.046742 109.34452,47.1092655 C109.723804,45.1721657 110.360716,43.3695292 111.254501,41.7009793 C111.579925,41.1070056 112.257137,39.9759322 113.287269,38.3073823 C114.316648,36.6388324 114.885763,35.846742 114.993861,35.9318644 C115.237928,35.960113 115.183691,36.8508851 114.831149,38.6041808 M98.8582674,38.5616196 C98.0996987,42.6056874 97.2055367,46.0704708 96.1757815,48.9548399 C95.5256874,50.7646328 94.726064,51.386855 93.7776648,50.8211299 C93.1275706,50.2557815 92.9919774,49.0041808 93.3712618,47.067081 C93.7509228,45.1299812 94.3874576,43.326968 95.2816196,41.6584181 C95.6066667,41.0648211 96.2842561,39.933371 97.3140113,38.2648211 C98.3433898,36.5962712 98.9125047,35.8045574 99.0209793,35.8893032 C99.2646704,35.9179284 99.2108098,36.8087006 98.8582674,38.5616196 M83.5961205,29.4840301 C83.5554426,29.9363842 83.4808663,30.3322411 83.3723917,30.6716008 C83.1015819,31.4633145 82.7222976,32.0855367 82.2345386,32.5382674 C81.7467797,32.9906215 81.2183427,33.0331827 80.6492279,32.6655744 C80.2970621,32.3544633 80.2360452,31.9514501 80.4665537,31.4565348 C80.6966855,30.9616196 81.0963089,30.459548 81.6654237,29.9506968 C82.7765348,29.0173635 83.4130697,28.6354426 83.5757815,28.8053107 C83.6300188,28.8053107 83.6367985,29.0312994 83.5961205,29.4840301 M64.1697552,24.4098305 C64.2194727,24.3164218 64.2665537,24.1992844 64.3106215,24.054275 C64.6899058,22.7815819 65.353936,21.4384557 66.3023352,20.0241431 C67.2507345,18.6102072 68.1042185,17.9032392 68.8627872,17.9032392 C69.133597,17.9032392 69.3166478,18.079887 69.4115631,18.4335593 C69.5061017,18.7872316 69.4047834,19.5081356 69.1064783,20.5970245 C68.8085499,21.6855367 68.280113,23.0783804 67.5215443,24.7755556 C66.2752166,27.4904331 65.7874576,29.75258 66.0582674,31.5627495 C66.3290772,33.3725424 67.3452731,34.4188701 69.1064783,34.7017326 C69.8111864,34.8147269 70.6172128,34.6309228 71.5249341,34.1503202 C72.4326554,33.6693409 73.2793597,32.8068173 74.0650471,31.5627495 C74.3162712,31.1736723 74.5916008,30.6663277 74.8899058,30.0433522 C74.7109981,30.6260264 74.5045951,31.2444821 74.2684369,31.9017326 C73.9430132,32.8068173 73.5637288,33.8038041 73.1302072,34.892693 C72.6966855,35.9812053 72.3987571,36.7657627 72.2360452,37.246742 C70.8812429,41.0361959 70.0819962,44.1469303 69.8379284,46.5789454 C69.8379284,47.1164218 69.8243691,47.7812053 69.7972505,48.572919 C69.7705085,49.3650094 69.946403,50.1209416 70.3256874,50.8425989 C70.7053484,51.5638795 71.2740866,51.9243315 72.0326554,51.9243315 C73.5230508,51.9243315 74.7155179,50.9909981 75.6096798,49.1243315 C75.8262524,48.6437288 76.0296422,48.1134087 76.219096,47.533371 C76.4089266,46.95371 76.5712618,46.4166102 76.706855,45.9216949 C76.8424482,45.4267797 76.9712618,44.8184934 77.092919,44.0975895 C77.2149529,43.3763089 77.3030885,42.7898682 77.3573258,42.3371375 C77.4115631,41.8847834 77.4722034,41.2625612 77.5403766,40.4704708 C77.6077966,39.6787571 77.6484746,39.1273446 77.6620339,38.8162335 C77.6755932,38.5054991 77.7094915,37.95371 77.7637288,37.1619962 C77.8179661,36.3702825 77.8450847,35.9179284 77.8450847,35.8045574 C77.8718267,34.560113 78.1294539,32.0361959 78.6172128,28.2324294 C79.1049718,24.4290395 79.5656121,22.1167985 79.9991337,21.2968362 C80.3512994,20.6463653 80.7916008,20.0384557 81.3200377,19.4727307 C81.8484746,18.9070056 82.3430132,18.6245198 82.8036535,18.6245198 C83.426629,18.6245198 83.8398117,18.9213183 84.0432015,19.5152919 C84.2462147,20.1092655 84.320791,21.126968 84.2665537,22.5695292 C84.2123164,23.7288512 83.9821846,25.2844068 83.5757815,27.2358192 C83.5486629,27.3488136 83.426629,27.5183051 83.2100565,27.7446704 C82.6680603,28.0840301 82.2209793,28.3808286 81.8688136,28.6354426 C81.5166478,28.8900565 81.0895292,29.2433522 80.5882109,29.6960829 C80.0872693,30.1484369 79.7215443,30.6365725 79.4910358,31.1593597 C79.2605273,31.6825235 79.1863277,32.2128437 79.2676836,32.7503202 C79.4300188,33.9096422 80.1072316,34.5107721 81.2996987,34.5529567 C82.4921657,34.5955179 83.5757815,34.0651977 84.5512994,32.9623729 C84.7407533,32.7077589 84.9238041,32.4038041 85.1000753,32.0501318 C85.2759699,31.6968362 85.4183427,31.3928814 85.5268173,31.1382674 C85.6349153,30.8836535 85.7705085,30.5371375 85.9332203,30.099096 C86.0955556,29.660678 86.2175895,29.3567232 86.2989454,29.186855 C86.3803013,28.7345009 86.5426365,28.4377024 86.7867043,28.2960829 C87.5995104,27.6738606 88.1686252,27.193258 88.4936723,26.8538983 C89.0710734,26.2365725 89.5946139,25.5913748 90.0695669,24.9201883 C90.0172128,25.2143503 89.9659887,25.492693 89.9166478,25.7510734 C89.8081733,26.3164218 89.692919,27.0448588 89.5712618,27.9356309 C89.4492279,28.826403 89.3610923,29.5898682 89.306855,30.226403 C89.2526177,30.8625612 89.239435,31.4847834 89.266177,32.092693 C89.2932957,32.7009793 89.3746516,33.1322411 89.5102448,33.3864783 C89.9708851,34.2915631 90.8379284,34.6166102 92.1113748,34.3623729 C92.8160829,34.2207533 93.4797363,33.8248964 94.1030885,33.1744256 C94.9701318,32.4674576 95.6134463,31.8241431 96.0334087,31.2444821 C96.453371,30.6644444 96.9479096,29.7951412 97.5174011,28.6354426 L100.281243,23.0361959 C100.19951,26.4015443 99.793484,30.007194 99.0612806,33.853145 C98.8718267,34.2207533 98.6010169,34.6802637 98.2484746,35.2316761 C97.8963089,35.7834652 97.4563842,36.4550282 96.9275706,37.246742 C96.3995104,38.0384557 96.0130697,38.6041808 95.7693785,38.9435405 C94.8480979,40.3292279 94.0556309,41.9201883 93.3919774,43.7160452 C92.7279473,45.5115254 92.3415066,47.2015443 92.2334087,48.7853484 C92.1249341,50.3687759 92.5720151,51.4151036 93.5746516,51.9243315 C94.6857627,52.4614313 95.7558192,52.2633145 96.7855744,51.3299812 C98.6010169,49.6900565 99.9287006,46.8478719 100.768625,42.8038041 C100.822863,42.5209416 101.033032,41.5522034 101.39838,39.8979661 C101.764482,38.2437288 102.028512,36.9073823 102.191224,35.8893032 C102.516271,33.9947646 102.719661,32.9201883 102.80064,32.6655744 C102.936234,32.4957062 103.220603,32.1563465 103.654501,31.6474953 C104.088023,31.1382674 104.446968,30.7070056 104.731337,30.35371 C105.016083,30.0000377 105.34791,29.519435 105.727194,28.9111488 C106.106478,28.3032392 106.431902,27.6881733 106.702335,27.065951 C107.190094,25.9631262 107.47484,25.2561582 107.556196,24.9450471 C107.605913,24.8120904 107.636045,24.6941996 107.648475,24.5902448 C107.698945,24.4550282 107.749793,24.3220716 107.799887,24.1812053 C107.962599,23.7288512 108.097815,23.347307 108.206667,23.0361959 C108.8029,21.4806403 109.737363,20.3070056 111.011186,19.5152919 C111.552806,19.1759322 112.162222,19.0768738 112.839812,19.2184934 C113.761469,19.4162335 113.964482,20.1514501 113.449605,21.4241431 C112.907608,22.8380791 112.446968,23.926968 112.067307,24.6904331 C111.634162,25.5672693 110.631525,27.0941996 109.060151,29.2719774 C108.924557,29.4414689 108.748286,29.6678343 108.531714,29.9506968 C108.315141,30.2331827 108.13887,30.459548 108.0029,30.6294162 C107.651111,31.1100188 107.623992,31.6049341 107.922298,32.1137853 C108.247345,32.6230132 108.721544,32.5947646 109.34452,32.0290395 C109.994991,31.4354426 110.53661,30.9687759 110.970132,30.6294162 C111.105725,30.5442938 111.220603,30.4523917 111.315518,30.35371 C111.410433,30.2546516 111.47145,30.1977778 111.498945,30.1838418 C111.525687,30.1695292 111.586704,30.1416573 111.68162,30.099096 L112.108362,29.9081356 C112.324934,29.7382674 112.596121,29.7382674 112.921168,29.9081356 C113.246215,30.0780038 113.564859,30.3039925 113.876347,30.586855 C114.187834,30.8697175 114.459021,31.3149153 114.689153,31.9232015 C114.919661,32.5311111 115.034539,33.1883616 115.034539,33.8957062 C114.845085,34.2633145 114.574275,34.7228249 114.221733,35.2746139 C113.869567,35.8256497 113.429266,36.4975895 112.900829,37.2893032 C112.372392,38.0810169 111.986704,38.646742 111.74226,38.9861017 C110.821356,40.3717891 110.028512,41.9623729 109.364859,43.7582298 C108.700829,45.5540866 108.315141,47.2437288 108.206667,48.827533 C108.097815,50.4109605 108.545273,51.4572881 109.54791,51.966516 C110.496309,52.4188701 111.566365,52.2211299 112.758456,51.372919 C113.571638,50.7789454 114.431902,49.6546516 115.339623,48.0004143 C116.247345,46.3458004 116.890659,44.6279096 117.269944,42.8463653 C118.08275,39.1699058 118.516648,35.8188701 118.570508,32.7928814 C119.723804,31.3529567 120.672203,29.9047458 121.418719,28.4486252 C121.343013,28.9424105 121.26806,29.5593597 121.192731,30.3111488 C121.097815,31.2584181 121.050358,32.0998493 121.050358,32.8350659 C121.050358,33.3156685 121.307985,33.725838 121.822863,34.0651977 C122.33774,34.4045574 123.001394,34.4896798 123.8142,34.3198117 C124.68162,34.1216949 125.372392,33.7540866 125.887269,33.2169868 C126.564859,32.566516 127.255631,31.5201883 127.960339,30.0780038 C128.149793,29.6535217 128.529077,28.8757439 129.098192,27.7446704 C129.20629,27.5465537 129.389341,27.2004143 129.646591,26.7054991 C129.904218,26.2105838 130.141507,25.7650094 130.358079,25.3691525 C130.574652,24.9732957 130.791601,24.6482486 131.00855,24.3936347 C131.143766,24.2237665 131.2658,24.1672693 131.374275,24.2237665 C131.455254,24.2520151 131.495932,24.3653861 131.495932,24.5631262 C131.495932,25.7510734 131.367495,27.1367608 131.109868,28.720565 C130.852618,30.3039925 130.778041,31.3785687 130.886516,31.9442938 C131.07597,33.0753672 131.536987,33.8248964 132.26806,34.1925047 C133.13548,34.6452354 134.117401,34.6520151 135.21533,34.2139736 C136.312505,33.7755556 137.281243,32.8915631 138.120791,31.5627495 C138.906855,30.3465537 139.923051,27.9849718 141.169379,24.4783804 C141.413446,23.7431638 141.535104,23.3186817 141.535104,23.2056874 C141.535104,22.979322 141.440565,22.8663277 141.250734,22.8663277 C141.14226,22.8380791 141.060904,22.8380791 141.006667,22.8663277 C140.762976,23.1209416 140.600264,23.4320527 140.519284,23.799661 C140.221356,24.9307345 139.74,26.2177401 139.07597,27.6599247 C138.412316,29.1021092 137.640188,30.35371 136.759586,31.4139736 C135.878983,32.4746139 135.126817,32.8211299 134.503842,32.453145 C134.097439,32.2271563 133.880866,31.8098305 133.853371,31.2019209 C133.826252,30.5940113 133.921168,29.6678343 134.138117,28.4233898 C134.517401,25.9348776 134.775028,22.8523917 134.910245,19.1759322 C134.910245,18.7514501 134.733974,18.3838418 134.381808,18.0731073 C134.27371,17.9314878 134.049981,17.8821469 133.710998,17.9247081 C133.372392,17.9668927 133.14904,18.0870433 133.040565,18.2851601 C132.905348,18.5393974 132.647721,18.9638795 132.26806,19.5574765 C131.970132,19.9819586 131.672203,20.5051224 131.374275,21.126968 C131.07597,21.7491902 130.80516,22.3431638 130.561469,22.9088889 C130.317401,23.4742373 130.154689,23.8279096 130.07371,23.9691525 L127.147533,29.5687759 C126.686516,30.4173635 126.320791,31.0320527 126.049981,31.4139736 C125.778795,31.7958945 125.467307,32.0855367 125.114765,32.2836535 C124.925311,32.3966478 124.74904,32.3683992 124.586704,32.1989077 C124.315518,31.6896798 124.383691,30.2757439 124.789718,27.9567232 C125.494426,24.4501318 125.900829,21.8482486 126.009303,20.1514501 C126.06354,19.4162335 125.968625,18.7092655 125.724557,18.0305461 C125.480866,17.6346893 125.060904,17.5073823 124.46467,17.6486252 C124.031149,17.7337476 123.746403,18.0022976 123.611186,18.4546516 C123.177665,19.6139736 122.757702,21.3250847 122.350923,23.5876083 C122.33209,23.7265913 122.261657,24.1017326 122.14226,24.7024859 C120.492166,28.7390207 119.13887,31.0256497 118.08275,31.5627495 C117.514011,30.3183051 116.579171,29.4132203 115.278606,28.8478719 C114.817966,28.6497552 114.350546,28.5081356 113.876347,28.4233898 C113.402147,28.3386441 113.097439,28.2256497 112.961846,28.0840301 C112.744896,27.8580414 112.704595,27.6599247 112.839812,27.4904331 C114.790847,25.0580414 115.847721,22.8806403 116.010056,20.9574765 C116.118531,19.5152919 115.549793,18.5254614 114.303089,17.9879849 C113.083879,17.4791337 111.755819,17.7619962 110.320038,18.8365725 C108.641318,20.1107721 107.48275,22.0290395 106.830395,24.574049 C106.813446,24.6139736 106.792354,24.6561582 106.784068,24.6904331 C105.375028,28.1405273 104.088023,30.1627495 102.922674,30.7563465 C102.732844,30.8414689 102.617966,30.8554049 102.577288,30.7989077 C102.53661,30.7424105 102.529831,30.586855 102.556949,30.3322411 C102.637928,29.0599247 102.753559,27.4972128 102.902335,25.6448588 C103.051488,23.7925047 103.125687,22.6685876 103.125687,22.272354 C103.234162,20.7454237 103.112505,19.5009793 102.760339,18.5393974 C102.651488,18.2286629 102.407797,18.0305461 102.028512,17.9458004 C101.649228,17.8610546 101.350923,17.9458004 101.13435,18.2000377 C100.67371,18.7375141 100.152429,19.6354426 99.5697552,20.893823 C98.987081,22.1522034 98.4518644,23.3966478 97.9641055,24.6267797 C97.4763465,25.8569115 97.2055367,26.5284746 97.1512994,26.6418456 C97.1241808,26.7265913 96.9140113,27.1506968 96.5211676,27.914162 C96.1283239,28.6780038 95.7829379,29.300226 95.4850094,29.7808286 C95.1867043,30.2614313 94.7938606,30.7989077 94.3061017,31.3928814 C94.0895292,31.6474953 93.8183427,31.8667043 93.4932957,32.0501318 C93.1682486,32.2343126 92.9377401,32.2554049 92.8025235,32.1137853 C92.5313371,31.9725424 92.5177778,31.0957062 92.7618456,29.4840301 C93.2763465,26.2881733 93.6695669,23.1917514 93.9403766,20.1940113 C93.9403766,19.006064 93.8319021,18.2286629 93.6153296,17.8610546 C93.3983804,17.4648211 93.1411299,17.2810169 92.8428249,17.3092655 C92.4364218,17.3661394 92.1384934,17.5213183 91.9486629,17.7759322 C91.3256874,18.4829002 90.8379284,20.0810169 90.4857627,22.5695292 C90.4786064,22.5913748 90.4684369,22.6354426 90.4552542,22.700226 C89.5091149,24.5861017 88.6108098,25.7925047 87.7622222,26.3024859 C87.1659887,26.6700942 86.8273823,26.8113371 86.7460264,26.7265913 L86.7867043,25.8358192 C86.9494162,24.7329944 86.9629755,23.4459887 86.8273823,21.9755556 C86.6917891,20.5051224 86.2989454,19.3314878 85.6484746,18.4546516 C84.8627872,17.4083239 83.9008286,16.9559699 82.7629755,17.0972128 C81.7332203,17.1819586 80.8390584,17.8324294 80.0804896,19.0486252 L79.7957439,19.5152919 L79.4706968,18.4972128 C79.3351036,18.2143503 79.1388701,18.0162335 78.8812429,17.9032392 C78.6239925,17.7902448 78.346403,17.8041808 78.0480979,17.9458004 C77.6416949,18.2569115 77.3708851,18.7514501 77.2352919,19.4305461 C77.2624105,19.3454237 77.153936,19.9183051 76.9102448,21.1484369 C76.6910358,22.254275 76.4198493,23.55258 76.1023352,25.0237665 C75.6194727,26.5386441 74.9964972,28.0538983 74.2277589,29.5687759 C73.2522411,31.4919397 72.1957439,32.7928814 71.0575141,33.4712241 C70.5697552,33.725838 70.0552542,33.7827119 69.513258,33.6410923 C69.1607156,33.5280979 68.9373635,33.2806403 68.8424482,32.8987194 C68.747533,32.5167985 68.7882109,31.9725424 68.9644821,31.2655744 C69.1403766,30.5586064 69.3302072,29.9224482 69.533597,29.3567232 C69.7366102,28.7909981 70.0277589,28.027533 70.40742,27.065951 C70.7867043,26.1043691 71.0439548,25.4117137 71.179548,24.9876083 C71.8567608,23.3755556 72.1211676,21.7778154 71.9720151,20.1940113 C71.8228625,18.6102072 71.1253107,17.5356309 69.8789831,16.9699058 C69.2556309,16.6870433 68.6051601,16.7296045 67.9279473,17.0972128 C67.2507345,17.4648211 66.6273823,18.0516384 66.0582674,18.8576648 C65.4891525,19.6636911 65.0085499,20.4554049 64.6153296,21.2331827 C64.2601507,21.9367608 63.9573258,22.6098305 63.7015819,23.2554049 C63.6104331,23.4211299 63.5407533,23.6015443 63.4970621,23.799661 C62.9821846,25.6941996 62.0948023,27.6810169 60.8349153,29.7597363 C59.5746516,31.8380791 58.4571375,32.7360075 57.4816196,32.453145 C56.9938606,32.3119021 56.7501695,31.9303578 56.7501695,31.3081356 C56.7501695,28.7909981 56.7637288,26.9103955 56.7908475,25.665951 C56.7908475,23.4038041 56.7501695,21.7070056 56.6688136,20.5759322 C56.6688136,20.3495669 56.560339,20.0102072 56.3437665,19.5574765 C56.0183427,19.133371 55.6526177,19.133371 55.2462147,19.5574765 C55.1381168,19.6708475 55.0432015,19.7909981 54.9618456,19.9183051 C54.8804896,20.0456121 54.8194727,20.1940113 54.7787947,20.3635028 C54.7381168,20.533371 54.7042185,20.6817702 54.6770998,20.8090772 C54.6503578,20.9363842 54.6228625,21.1345009 54.5961205,21.4026742 C54.5690019,21.6716008 54.5418832,21.9047458 54.5147646,22.1028625 C54.487646,22.1876083 54.4198493,22.3431638 54.3113748,22.5695292 L54.0676836,23.0783804 C53.5256874,24.2098305 53.0379284,25.1570998 52.6044068,25.920565 C52.4149529,26.2599247 52.0963089,26.8893032 51.6492279,27.8083239 C51.2021469,28.7273446 50.8770998,29.3706591 50.67371,29.7382674 C50.4703202,30.1062524 50.1863277,30.5442938 49.820226,31.0535217 C49.4545009,31.5627495 49.0819962,31.9725424 48.7027119,32.2836535 C48.4315254,32.5100188 48.0996987,32.5736723 47.706855,32.4746139 C47.3140113,32.3755556 47.0767232,32.1137853 46.9953672,31.6896798 C46.6160829,30.2757439 46.5957439,28.4022976 46.9347269,26.0693409 C47.2733333,23.7360075 47.9437665,21.806064 48.946403,20.2787571 C50.1656121,18.4407156 51.439435,17.7476836 52.7671186,18.2000377 C53.0379284,18.2851601 53.0786064,18.7800753 52.8887759,19.6847834 C52.699322,20.5898682 52.780678,21.0422222 53.1328437,21.0422222 C53.3222976,21.0422222 53.4985687,20.9574765 53.6612806,20.7879849 C53.9863277,20.2222599 54.1490395,19.5574765 54.1490395,18.7940113 C54.1490395,18.3416573 54.0337853,17.9458004 53.8032768,17.6064407 C53.573145,17.267081 53.2548776,17.0832768 52.8480979,17.0546516 C51.7916008,16.8851601 50.6872693,17.139774 49.5358569,17.8184934 C48.3840678,18.4972128 47.4424482,19.3597363 46.7109981,20.406064 C45.3019586,22.385725 44.3874576,24.5845951 43.9674953,27.0022976 C43.547533,29.4203766 43.6492279,31.3785687 44.2722034,32.8776271 C44.5976271,33.4998493 45.0786064,33.980452 45.7151412,34.3198117 C46.3520527,34.6591714 46.9818079,34.7725424 47.6051601,34.6591714 C47.9573258,34.6026742 48.2959322,34.4825235 48.6213559,34.2987194 C48.946403,34.1145386 49.2578908,33.8463653 49.5561959,33.492693 C49.8541243,33.1390207 50.1049718,32.8211299 50.3079849,32.5382674 C50.5113748,32.2554049 50.7482863,31.8380791 51.019096,31.2866667 C51.2902825,30.7352542 51.4868927,30.3250847 51.6085499,30.0565348 C51.7305838,29.7879849 51.927194,29.3284746 52.1980038,28.6780038 C52.4688136,28.027533 52.6450847,27.6173635 52.7264407,27.4478719 C52.8620339,27.1367608 53.0514878,26.9812053 53.2951789,26.9812053 C53.4578908,26.9812053 53.5392467,27.0941996 53.5392467,27.320565 L53.5392467,29.4840301 C53.5392467,29.8233898 53.5663653,30.3604896 53.6206026,31.0957062 C53.6748399,31.746177 53.8371751,32.3683992 54.1083616,32.9623729 C54.3791714,33.5563465 54.7584557,33.9661394 55.2462147,34.1925047 C56.113258,34.6452354 57.0955556,34.6520151 58.1927307,34.2139736 C59.2902825,33.7755556 60.2590207,32.8915631 61.0989454,31.5627495 C61.8850094,30.3465537 62.9008286,27.9849718 64.1471563,24.4783804 C64.1550659,24.454275 64.1622222,24.4331827 64.1697552,24.4098305" id="Fill-4" fill="#FEFEFE"></path>
                <path d="M41.5488136,63.4215066 C41.2780038,63.9307345 41.3725424,64.4113371 41.8331827,64.8636911 C42.0772505,65.0900565 42.4022976,65.2316761 42.8087006,65.2877966 C43.2151036,65.3442938 43.5812053,65.2738606 43.9062524,65.0761205 C44.3940113,64.793258 44.6377024,64.3830885 44.6377024,63.8456121 C44.6377024,63.3650094 44.4075706,62.940904 43.9469303,62.572919 C43.4320527,62.3751789 42.9578531,62.3612429 42.5243315,62.5307345 C42.0094539,62.700226 41.6844068,62.9974011 41.5488136,63.4215066" id="Fill-6" fill="#FEFEFE"></path>
                <path d="M48.8241055,65.0759699 C49.3118644,64.7931073 49.5555556,64.3829379 49.5555556,63.8454614 C49.5555556,63.3648588 49.3254237,62.9407533 48.8647834,62.5727684 C48.3499058,62.3750282 47.8757062,62.3610923 47.4421846,62.5305838 C46.927307,62.7000753 46.6022599,62.9972505 46.4666667,63.4213559 C46.1958569,63.9305838 46.2903955,64.4111864 46.7514124,64.8639171 C46.9951036,65.0899058 47.3201507,65.2315254 47.7265537,65.287646 C48.1333333,65.3445198 48.4990584,65.27371 48.8241055,65.0759699" id="Fill-8" fill="#FEFEFE"></path>
                <g id="Group-12" transform="translate(0.000000, 51.229002)">
                    <mask id="mask-4" fill="white">
                        <use xlink:href="#path-3"></use>
                    </mask>
                    <g id="Clip-11"></g>
                    <path d="M41.2642938,23.433823 C41.6978154,21.8782674 42.2262524,20.6481356 42.8492279,19.7430508 C43.1746516,19.205951 43.5878343,18.7814689 44.0891525,18.4707345 C44.5904708,18.1596234 45.0850094,18.1313748 45.5723917,18.3859887 C45.9249341,18.5837288 46.1415066,18.9019962 46.2228625,19.3404143 C46.3042185,19.7788324 46.2228625,20.2240301 45.9791714,20.6767608 C45.8435782,20.9309981 45.6740866,21.1856121 45.4710734,21.440226 C45.2676836,21.6948399 45.1049718,21.89258 44.9833145,22.033823 C44.8612806,22.1754426 44.6447081,22.394275 44.3328437,22.6914501 C44.0213559,22.9882486 43.8247458,23.179209 43.7437665,23.2643315 C42.4428249,24.4236535 41.6029002,24.8760075 41.2236158,24.6213936 C41.0066667,24.4801507 41.0206026,24.0842938 41.2642938,23.433823 M35.3094915,22.9671563 C35.2416949,23.4477589 35.1535593,23.7023729 35.0454614,23.7306215 C34.9098682,23.7588701 34.7339736,23.6884369 34.5170245,23.5189454 C34.3000753,23.3487006 34.1377401,23.193145 34.0292655,23.0519021 C33.5686252,22.3449341 33.4194727,21.5249718 33.5821846,20.5916384 C33.6635405,20.167533 33.920791,19.912919 34.3543126,19.8281733 C34.5712618,19.7712994 34.7746516,19.8281733 34.9641055,19.9976648 C35.1535593,20.167533 35.2620339,20.3938983 35.2891525,20.6767608 C35.3705085,21.0439925 35.4111864,21.440226 35.4111864,21.8643315 C35.4111864,22.1189454 35.3772881,22.486177 35.3094915,22.9671563 M34.3136347,26.1908851 C33.7448964,27.7181921 33.026629,29.259435 32.1595857,30.8149906 C31.5362335,31.9743126 30.87258,32.6104708 30.1682486,32.7238418 C29.8157062,32.780339 29.5109981,32.4906968 29.253371,31.854162 C28.9961205,31.2180038 28.8537476,30.659435 28.8270056,30.1784557 C28.6642938,28.0010546 28.7863277,25.8519021 29.1927307,23.7306215 C29.8699435,20.3087759 31.0891525,18.4564218 32.8507345,18.1735593 C33.0130697,18.1453107 33.1690019,18.2089642 33.3177778,18.3645198 C33.4669303,18.5200753 33.5550659,18.6545386 33.5821846,18.767533 C33.6093032,18.8805273 33.6364218,18.9656497 33.6635405,19.0221469 C32.5253107,19.6157439 32.0514878,20.7328814 32.2409416,22.3735593 C32.2951789,22.9389077 32.4985687,23.4835405 32.8507345,24.0067043 C33.2029002,24.5294915 33.6635405,24.9042561 34.2326554,25.1306215 C34.5305838,25.2439925 34.5577024,25.5972881 34.3136347,26.1908851 M21.7949906,24.706516 C21.7407533,24.7347646 21.6322787,24.7132957 21.4699435,24.6428625 C21.3072316,24.5720527 21.1109981,24.4519021 20.8804896,24.2824105 C20.6503578,24.1125424 20.4537476,23.9144256 20.2910358,23.6884369 C20.0744633,23.433823 19.9727684,23.1294915 19.9863277,22.7761959 C19.999887,22.4225235 20.1151412,22.1611299 20.3317137,21.9916384 C20.7381168,21.7087759 21.0635405,21.89258 21.3072316,22.5430508 C21.8221092,23.7871186 21.9844444,24.5087759 21.7949906,24.706516 M17.0194727,17.6221469 C17.0872693,17.1697928 17.1546893,16.7385311 17.2224859,16.3283616 C17.2902825,15.9185687 17.3784181,15.4586817 17.4868927,14.9498305 C17.5949906,14.4406026 17.6627872,14.0729944 17.6899058,13.8470056 C18.0149529,11.9520904 18.6789831,9.43532957 19.6816196,6.29596987 C20.5486629,3.92045198 21.3750282,2.40783427 22.1607156,1.75698682 C22.4861394,1.50237288 22.8383051,1.34681733 23.2175895,1.2906968 C23.5968738,1.23419962 23.9490395,1.38975518 24.2744633,1.75698682 C24.4910358,2.15322034 24.3151412,3.41160075 23.7460264,5.53288136 C23.1769115,7.65378531 22.6620339,9.27977401 22.2013936,10.4108475 C21.9305838,11.146064 21.639435,11.8458757 21.3275706,12.5106591 C21.0160829,13.1754426 20.7652354,13.6914501 20.5757815,14.0586817 C20.385951,14.4266667 20.0676836,15.0063277 19.6206026,15.7984181 C19.1735217,16.5901318 18.8281356,17.2119774 18.5840678,17.6647081 C18.3403766,18.1453107 18.0763465,18.5554802 17.7916008,18.8948399 C17.5072316,19.2341996 17.2970621,19.3611299 17.1614689,19.2767608 C17.053371,19.1916384 16.9855744,19.0078343 16.9584557,18.7253484 C16.9313371,18.4424859 16.9516761,18.0745009 17.0194727,17.6221469 M50.6936723,23.433823 C50.6123164,23.5189454 50.5241808,23.6884369 50.4296422,23.9430508 C50.3347269,24.1972881 50.212693,24.5294915 50.0635405,24.939661 C49.9147646,25.3498305 49.7588324,25.7245951 49.5964972,26.0635782 C48.6480979,28.0432392 47.4759699,29.7400377 46.0804896,31.1543503 C44.6853861,32.5682863 43.4590207,33.0628249 42.4021469,32.6387194 C42.0228625,32.4692279 41.7181544,32.1087759 41.4880226,31.5569868 C41.2575141,31.005951 41.1422599,30.4613183 41.1422599,29.9238418 C41.1151412,29.5566102 41.1015819,28.6515254 41.1015819,27.2089642 C41.1558192,26.7283616 41.3456497,26.3464407 41.6706968,26.0635782 C42.6733333,25.3852354 43.7705085,24.4940866 44.9629755,23.3916384 C45.5863277,22.8259134 46.1008286,22.253032 46.5072316,21.673371 C46.9140113,21.09371 47.2051601,20.4432392 47.3810546,19.7223352 C47.5573258,19.000678 47.3746516,18.3859887 46.8326554,17.8767608 C45.8300188,16.8021846 44.3803013,16.9577401 42.4835028,18.3434275 C41.887646,18.8244068 41.2710734,19.5313748 40.634162,20.4643315 C40.3411299,20.8940866 40.0816196,21.320452 39.8488512,21.7441808 C39.8157062,21.779209 39.7799247,21.8187571 39.7396234,21.8643315 C39.5908475,22.033823 39.4349153,22.1893785 39.2722034,22.3306215 C38.1343503,23.3487006 37.0910358,23.9004896 36.1426365,23.9852354 C36.1158945,23.9569868 36.1158945,23.8368362 36.1426365,23.6247834 C36.1697552,23.412354 36.2036535,23.1227119 36.2443315,22.7551036 C36.2850094,22.3874953 36.3053484,22.0481356 36.3053484,21.7370245 C36.3053484,20.9166855 36.1426365,20.2240301 35.8175895,19.6586817 C35.6548776,19.347194 35.4925424,19.1494539 35.3298305,19.0643315 C35.1674953,18.9799623 34.9369868,18.7253484 34.6390584,18.3008663 C34.3407533,17.7920151 33.9343503,17.4526554 33.4194727,17.2827872 C33.1486629,17.1980414 32.7422599,17.1837288 32.2002637,17.2406026 C31.0352919,17.3818456 30.0462147,17.8906968 29.2334087,18.767533 C28.2337853,19.8394727 27.5102448,20.9389077 27.0627872,22.0662147 C26.927194,22.2217702 26.7471563,22.4319397 26.5098682,22.7125424 C25.7780414,23.5893785 25.0872693,24.140791 24.4367985,24.3671563 C23.9222976,24.5366478 23.5697552,24.6357062 23.3803013,24.6639548 L22.5671186,24.6639548 L22.4454614,23.9004896 C22.4454614,23.8439925 22.4115631,23.6176271 22.3437665,23.2217702 C22.2759699,22.8259134 22.2217326,22.5573635 22.1810546,22.4157439 C22.1407533,22.2745009 22.07258,22.0620716 21.9780414,21.779209 C21.8831262,21.4963465 21.7610923,21.2771375 21.6119397,21.1219586 C21.4631638,20.966403 21.280113,20.8323164 21.0635405,20.7189454 C20.3588324,20.3795857 19.7490395,20.4078343 19.2345386,20.8040678 C18.6383051,21.2564218 18.3403766,21.9633898 18.3403766,22.9245951 C18.3403766,23.8014313 18.6789831,24.4801507 19.3561959,24.9611299 C19.8439548,25.2722411 20.2910358,25.5125424 20.6978154,25.6820339 C21.1309605,25.8801507 21.3479096,26.0074576 21.3479096,26.0635782 C21.1309605,27.5343879 20.9211676,28.6443691 20.7177778,29.3938983 C20.5147646,30.1430508 20.1693785,30.9705461 19.6816196,31.8752542 C19.4108098,32.3844821 19.0650471,32.8157439 18.6450847,33.1694162 C18.2251224,33.5227119 17.7983804,33.6571751 17.3648588,33.5720527 C17.120791,33.5438041 16.8974388,33.36 16.6944256,33.0206403 C16.4910358,32.6816573 16.3757815,32.3705461 16.3486629,32.0876836 C16.0236158,30.5038795 15.9287006,28.6372128 16.0642938,26.4880603 C16.1185311,25.8940866 16.2537476,24.9325047 16.4706968,23.6033145 C16.6601507,22.4722411 17.120791,21.5249718 17.8526177,20.7611299 C18.9637288,19.205951 20.0676836,17.3464407 21.1652354,15.1833522 C22.2624105,13.019887 23.1701318,10.912919 23.8880226,8.86244821 C24.60629,6.81235405 25.053371,4.98787194 25.2296422,3.39013183 C25.4055367,1.79239171 25.1279473,0.767156309 24.3961205,0.31480226 C23.9083616,-0.024180791 23.2243691,0.0180037665 22.3437665,0.442109228 C21.4631638,0.866214689 20.7245574,1.47412429 20.1287006,2.26621469 C18.3671186,4.10463277 16.7279473,7.55472693 15.2108098,12.6164972 C14.3976271,15.2470056 13.7543126,18.0323164 13.280113,20.9735593 C12.8111864,23.8827872 12.5610923,25.8910734 12.5294539,27.0021846 C12.3531827,27.3279849 12.1584557,27.6775141 11.9392467,28.0575518 C10.9769115,29.7261017 10.0759699,30.8854237 9.2360452,31.5362712 C7.50195857,32.9502072 5.98482109,33.0488889 4.68387947,31.8330697 C3.76297552,30.9844821 3.45111111,29.2311864 3.74903955,26.572806 C3.93887006,24.9325047 4.33171375,23.3279849 4.92794727,21.7581168 C5.52380414,20.1886252 6.24207156,19.1633898 7.08199623,18.6827872 C7.84056497,18.2869303 8.42323917,18.2447458 8.82964218,18.5554802 C9.01947269,18.6970998 9.01947269,19.1212053 8.82964218,19.8281733 C8.7754049,20.1957815 8.82964218,20.4221469 8.99235405,20.5068927 C9.12794727,20.5633898 9.29028249,20.49258 9.48011299,20.2948399 C9.66956685,20.040226 9.79160075,19.6586817 9.84583804,19.1494539 C9.87295669,18.5837288 9.67634652,18.0816573 9.25676083,17.6436158 C8.83642185,17.2051977 8.35544256,16.9577401 7.81344633,16.9008663 C7.21758945,16.8447458 6.55355932,17.0142373 5.82210923,17.4100942 C4.98218456,17.8906968 4.21683616,18.5272316 3.52568738,19.3189454 C2.83491525,20.1110358 2.32003766,20.7965348 1.98105461,21.3765725 C1.64244821,21.9562335 1.2699435,22.6842938 0.86354049,23.5611299 C-0.111977401,25.6820339 -0.261129944,28.0010546 0.41645951,30.5181921 C0.795743879,31.9317514 1.43265537,32.9215819 2.32681733,33.487307 C3.49178908,34.2229002 4.73811676,34.5340113 6.06580038,34.4206403 C6.33698682,34.3923917 6.59423729,34.3569868 6.83830508,34.3148023 C7.08199623,34.2718644 7.29216573,34.2296798 7.46806026,34.1874953 C7.64433145,34.1445574 7.8273823,34.0741243 8.01683616,33.9750659 L8.46391714,33.7419209 C8.57239171,33.6854237 8.7147646,33.5795857 8.89065913,33.4236535 C9.06693032,33.2680979 9.18180791,33.1694162 9.2360452,33.1264783 C9.29028249,33.0842938 9.41231638,32.9641431 9.60214689,32.7660264 C9.79160075,32.5682863 9.91363465,32.4549153 9.96787194,32.4270433 C10.8040301,31.8816573 11.6658004,30.7848588 12.5520527,29.1475706 C12.6228625,29.8364595 12.7565725,30.4982298 12.9550659,31.1328814 C13.3479096,32.3912618 13.706855,33.2044444 14.0319021,33.5720527 C14.5738983,34.2229002 15.2108098,34.6891902 15.9422599,34.9720527 C16.67371,35.2549153 17.3377401,35.2831638 17.9339736,35.0567985 C18.6654237,34.8025612 19.20742,34.4771375 19.5595857,34.0812806 C19.9117514,33.6854237 20.3181544,32.9923917 20.7787947,32.0025612 C21.4835028,30.5038795 22.1064783,28.5102825 22.6484746,26.0213936 L23.1769115,25.7667797 C23.2040301,25.7667797 23.305725,25.7528437 23.4816196,25.7245951 C23.6578908,25.6963465 23.8002637,25.6680979 23.9083616,25.6394727 C24.67258,25.512919 25.487646,25.039096 26.3516761,24.22629 C26.1908475,24.8055744 26.0390584,25.4127307 25.900452,26.0635782 C25.5754049,28.2696045 25.6428249,30.1362712 26.1038418,31.6635782 C26.4017702,32.6816573 27.0183427,33.4236535 27.952806,33.8903202 C28.8880226,34.3569868 29.8021469,34.3641431 30.6963089,33.9114124 C30.913258,33.7984181 31.1166478,33.6711111 31.3061017,33.5298682 C31.4955556,33.3886252 31.6853861,33.1833522 31.8752166,32.9148023 C32.0646704,32.6458757 32.2273823,32.4270433 32.3629755,32.2571751 C32.4985687,32.0876836 32.6744633,31.7905085 32.8914124,31.366403 C33.1079849,30.9422976 33.2571375,30.6522787 33.3384934,30.4967232 C33.4194727,30.3411676 33.5889642,29.9946516 33.8465913,29.4575518 C34.1038418,28.9200753 34.2593974,28.5807156 34.3136347,28.4394727 C34.3678719,28.3261017 34.4966855,28.0082109 34.6996987,27.4850471 C34.9030885,26.9615066 35.0996987,26.5019962 35.2891525,26.106516 C35.4789831,25.7102825 35.6413183,25.4699812 35.7769115,25.3852354 C36.8706968,25.146064 37.9234275,24.6138606 38.9366102,23.7991714 C37.8247458,26.912919 37.6383051,29.5630132 38.3784181,31.7479473 C38.7305838,32.7095292 39.1644821,33.36 39.6793597,33.6993597 C40.166742,34.0387194 40.8172128,34.2511488 41.6300188,34.3355179 C42.4428249,34.4206403 43.0254991,34.3923917 43.3776648,34.2511488 C44.5972505,33.9400377 45.6198493,33.3886252 46.4465913,32.5965348 C47.2729567,31.8048211 48.1467797,30.659435 49.0680603,29.1603766 C49.3931073,28.5950282 49.8401883,27.6051977 50.4093032,26.1908851 C50.5174011,25.9080226 50.6868927,25.5125424 50.9174011,25.0033145 C51.147533,24.4940866 51.3034652,24.1125424 51.3848211,23.8579284 C51.4390584,23.6033145 51.4254991,23.419887 51.3441431,23.306516 C51.1814313,23.1087759 50.9644821,23.1509605 50.6936723,23.433823" id="Fill-10" fill="#FEFEFE" mask="url(#mask-4)"></path>
                </g>
                <path d="M184.850621,72.8619586 C185.890546,70.6054614 185.170772,65.419774 184.964369,64.1003766 C185.48113,64.2419962 186.017476,64.3640301 186.573409,64.4649718 C186.747797,65.1824859 187.325198,67.5711864 186.670584,71.1241055 C186.596008,71.5274953 186.498832,71.9516008 186.390358,72.3843691 C185.887156,72.5478343 185.361356,72.7237288 184.815217,72.9112994 C184.827269,72.8951036 184.841959,72.8815443 184.850621,72.8619586 M183.585461,63.0694915 C179.54629,61.5512241 176.907119,58.7745763 175.330471,56.079661 C174.831789,55.2280603 174.430282,54.3960452 174.135744,53.5952919 C173.554953,52.0163842 173.381695,50.5485876 173.68678,49.2687382 C173.977928,48.0499058 174.709755,46.9922787 175.944407,46.1625235 C176.023503,46.180226 176.109379,46.159887 176.175292,46.1003766 C176.186215,46.0905838 176.196384,46.0800377 176.2058,46.0683616 C176.2171,46.0570621 176.228023,46.0446328 176.237815,46.0306968 C176.255518,46.0062147 176.268324,45.9794727 176.276987,45.9516008 C176.660414,45.7222222 177.085273,45.5131827 177.55194,45.3256121 C181.026139,43.9305085 182.931224,48.5798493 184.748173,53.0145009 C185.376422,54.5482109 185.995254,56.0578154 186.671714,57.3060264 C188.725198,61.0951036 192.808437,63.1241055 194.684896,63.8905838 C191.768136,64.3542373 189.211073,64.3350282 186.979058,63.9681733 C186.898079,63.8826742 186.773032,63.8615819 186.670584,63.9146893 C185.561733,63.713936 184.534614,63.4265537 183.585461,63.0694915 M168.604294,72.8811676 C168.523315,72.4853107 168.482637,72.1320151 168.482637,71.8205273 C168.482637,71.3964218 168.563992,71.1067797 168.726328,70.9512241 C168.88904,70.7956685 169.051751,70.8024482 169.214087,70.9719397 C169.376798,71.1421846 169.458154,71.4103578 169.458154,71.7783427 C169.458154,72.0890772 169.173785,72.4570621 168.604294,72.8811676 M130.947797,74.1960452 C130.88,74.6766478 130.791864,74.9312618 130.683766,74.9595104 C130.547797,74.9881356 130.371525,74.9173258 130.154953,74.7478343 C129.93838,74.5779661 129.775669,74.4224105 129.667194,74.2811676 C129.20693,73.5741996 129.057778,72.7538606 129.22049,71.8205273 C129.301469,71.3964218 129.558719,71.1421846 129.992618,71.0570621 C130.20919,71.000565 130.41258,71.0570621 130.602034,71.2265537 C130.791864,71.3964218 130.900339,71.6227872 130.927081,71.9056497 C131.008814,72.273258 131.049115,72.6691149 131.049115,73.0932203 C131.049115,73.3478343 131.015217,73.7154426 130.947797,74.1960452 M129.951563,77.4201507 C129.382825,78.947081 128.664557,80.4883239 127.797514,82.0438795 C127.174539,83.2032015 126.510508,83.8397363 125.806177,83.9527307 C125.454011,84.0096045 125.148927,83.7195857 124.891676,83.0834275 C124.634049,82.4468927 124.492053,81.8883239 124.464934,81.4073446 C124.302222,79.2299435 124.423879,77.080791 124.830659,74.9595104 C125.507872,71.5376648 126.727458,69.6853107 128.488286,69.4024482 C128.650998,69.3741996 128.80693,69.4378531 128.956083,69.5934087 C129.104859,69.7489642 129.192994,69.8834275 129.22049,69.9967985 C129.247232,70.1094162 129.27435,70.1945386 129.301469,70.2510358 C128.163239,70.8450094 127.68904,71.9617702 127.87887,73.6024482 C127.933107,74.1677966 128.136497,74.7124294 128.488286,75.2355932 C128.840829,75.7583804 129.301469,76.1335217 129.870584,76.3595104 C130.168512,76.4728814 130.196008,76.826177 129.951563,77.4201507 M93.7161582,74.1960452 C93.6483616,74.6766478 93.5606026,74.9312618 93.4521281,74.9595104 C93.3165348,74.9881356 93.1406403,74.9173258 92.9236911,74.7478343 C92.706742,74.5779661 92.5444068,74.4224105 92.4359322,74.2811676 C91.9752919,73.5741996 91.826516,72.7538606 91.9888512,71.8205273 C92.0702072,71.3964218 92.3278343,71.1421846 92.7609793,71.0570621 C92.9779284,71.000565 93.1813183,71.0570621 93.3707721,71.2265537 C93.5606026,71.3964218 93.6690772,71.6227872 93.6958192,71.9056497 C93.7771751,72.273258 93.8178531,72.6691149 93.8178531,73.0932203 C93.8178531,73.3478343 93.7839548,73.7154426 93.7161582,74.1960452 M92.720678,77.4201507 C92.1515631,78.947081 91.4336723,80.4883239 90.5662524,82.0438795 C89.9432768,83.2032015 89.2792467,83.8397363 88.5749153,83.9527307 C88.2227495,84.0096045 87.9176648,83.7195857 87.6604143,83.0834275 C87.4027872,82.4468927 87.2604143,81.8883239 87.2336723,81.4073446 C87.0709605,79.2299435 87.1929944,77.080791 87.5993974,74.9595104 C88.2766102,71.5376648 89.4958192,69.6853107 91.2574011,69.4024482 C91.4197363,69.3741996 91.5756685,69.4378531 91.7248211,69.5934087 C91.873597,69.7489642 91.9617326,69.8834275 91.9888512,69.9967985 C92.0159699,70.1094162 92.0430885,70.1945386 92.0702072,70.2510358 C90.9319774,70.8450094 90.4581544,71.9617702 90.6476083,73.6024482 C90.7018456,74.1677966 90.9052354,74.7124294 91.2574011,75.2355932 C91.6095669,75.7583804 92.0702072,76.1335217 92.639322,76.3595104 C92.9372505,76.4728814 92.9643691,76.826177 92.720678,77.4201507 M78.2912994,80.092467 C78.2641808,80.2905838 78.2167232,80.5380414 78.1489266,80.8348399 C78.0811299,81.1320151 77.9929944,81.379096 77.8848964,81.5772128 C77.6679473,82.0581921 77.4174765,82.4679849 77.1331073,82.8073446 C76.8483616,83.147081 76.5097552,83.3870056 76.1169115,83.5286252 C75.7240678,83.6698682 75.3380038,83.5711864 74.9583427,83.2314501 C74.6604143,82.892467 74.646855,82.4894539 74.9176648,82.0224105 C75.1888512,81.5561205 75.6359322,81.1105461 76.2589077,80.6864407 C76.6385687,80.4035782 77.0517514,80.1561205 77.4984557,79.9440678 C77.9459134,79.7320151 78.2099435,79.6683616 78.2912994,79.7531073 C78.3184181,79.7813559 78.3184181,79.8947269 78.2912994,80.092467 M70.3251977,79.5410546 C69.8374388,80.2766478 69.3632392,80.926742 68.9025989,81.492467 C67.4935593,83.1610169 66.4502448,83.6838041 65.773032,83.0619586 C65.2852731,82.6096045 65.0005273,81.7681733 64.919548,80.5380414 C64.8381921,79.307533 64.9737853,78.0845574 65.325951,76.8687382 C65.732354,75.2566855 66.3417702,73.7225989 67.1549529,72.2661017 C67.9677589,70.8096045 68.8212429,69.9116761 69.7154049,69.572693 C70.5010923,69.3180791 71.0837665,69.3602637 71.4630508,69.6996234 C71.5986441,69.8408663 71.5444068,70.2649718 71.300339,70.9719397 C71.1651224,71.3116761 71.1786817,71.5376648 71.3410169,71.6510358 C71.4766102,71.7357815 71.6525047,71.6932203 71.8694539,71.5237288 L72.1135217,71.2265537 C71.6525047,73.8001883 71.0566478,76.5719397 70.3251977,79.5410546 M69.1056121,95.7455744 C68.6449718,99.4785311 67.9813183,101.344821 67.114275,101.344821 C66.5451601,101.344821 66.1726554,100.864218 65.9963842,99.9026365 C65.8204896,98.9410546 65.7929944,97.8947269 65.9154049,96.7636535 C66.0370621,95.6322034 66.220113,94.5719397 66.4638041,93.5821092 C67.0871563,91.1214689 68.1300942,88.6047081 69.593371,86.0314501 L69.7560829,85.9463277 C69.8374388,86.1161959 69.8781168,86.286064 69.8781168,86.4555556 C69.8781168,88.4065913 69.6204896,91.5033898 69.1056121,95.7455744 M192.157589,70.8661017 C190.859661,71.0713748 189.136121,71.5143126 186.992994,72.1919021 C187.897702,68.3259887 187.390358,65.6020716 187.14968,64.5610169 C189.635556,64.9372881 192.503729,64.8954802 195.796384,64.2627119 L196.880377,64.0544256 L195.825763,63.720339 C195.80806,63.7146893 189.74629,61.8435028 187.137627,57.0299435 C187.038192,56.846516 186.93951,56.6563089 186.841959,56.460452 C187.739134,56.4314501 190.356836,56.1700565 193.050245,54.2231638 C193.050245,54.2231638 188.248738,51.5760829 185.030282,52.279661 C183.175292,47.76742 181.170772,43.273258 177.360979,44.8035782 C176.857401,45.005838 176.401657,45.2310734 175.992241,45.4766478 C175.701846,45.2009416 175.496949,44.8721281 175.361356,44.5387947 C175.151186,44.0224105 175.107495,43.5026365 175.165499,43.1572505 C175.191111,43.0047081 175.093559,42.859322 174.94742,42.83258 C174.801281,42.8062147 174.661921,42.9082863 174.636685,43.0608286 C174.563616,43.493597 174.614087,44.1346516 174.867947,44.7580038 L174.877363,44.780226 L174.850998,44.7708098 C174.234802,44.553484 173.616347,44.5467043 173.2058,44.652919 C173.061921,44.6898305 172.974162,44.8416196 173.009567,44.9919021 C173.044595,45.1421846 173.189981,45.23371 173.333861,45.1967985 C173.662674,45.1116761 174.167382,45.120339 174.680753,45.3018832 C174.969266,45.4035782 175.258531,45.5602637 175.517665,45.7854991 C174.243089,46.6834275 173.479623,47.8224105 173.166629,49.1350282 C172.834049,50.5286252 173.015593,52.1086629 173.636309,53.7945386 C173.944407,54.63258 174.359473,55.4951036 174.872844,56.3715631 C176.502599,59.1564972 179.230282,62.0265537 183.40467,63.5960452 C183.726328,63.7169492 184.056271,63.8299435 184.394878,63.9346516 C184.490923,64.5052731 185.433296,70.306403 184.367759,72.6186441 C184.303729,72.7580038 184.359473,72.9256121 184.492806,72.9926554 C184.508625,73.000565 184.525198,73.0009416 184.541394,73.0054614 C183.647232,73.3150659 182.699586,73.654049 181.692053,74.0265537 C174.592994,76.6284369 170.325198,76.5011299 168.88904,73.6446328 C169.701846,73.0510358 170.094689,72.3862524 170.067571,71.6510358 C170.040829,70.9719397 169.80354,70.526742 169.35646,70.3146893 C168.909379,70.1026365 168.469077,70.1451977 168.035556,70.4419962 C167.602034,70.7387947 167.358343,71.1704331 167.303729,71.7357815 C167.249868,72.2163842 167.358343,72.7821092 167.628776,73.43258 C165.976422,74.1960452 164.21484,74.6344633 162.345537,74.7478343 C161.667947,74.7195857 161.186968,74.7263653 160.902599,74.7685499 C160.617853,74.8114878 160.157213,74.7760829 159.520678,74.6627119 C158.884143,74.5493409 158.436685,74.4789077 158.179058,74.4506591 C157.921808,74.4224105 157.461168,74.3094162 156.797514,74.1112994 C156.133484,73.9131827 155.638945,73.7647834 155.313898,73.6661017 C154.988851,73.5670433 154.446855,73.3971751 153.688286,73.1568738 C152.929341,72.9165725 152.319925,72.7256121 151.858908,72.5843691 C149.231036,71.7922787 146.954953,71.2480226 145.030659,70.9512241 C143.107119,70.654049 141.2171,70.6966102 139.361356,71.0785311 C137.505235,71.4600753 135.994501,72.3015066 134.829153,73.6024482 C134.798644,73.6363465 134.773409,73.6676083 134.74629,73.7 C133.67209,74.6254237 132.683013,75.1335217 131.780942,75.2141243 C131.753446,75.1858757 131.753446,75.0661017 131.780942,74.8536723 C131.80806,74.6416196 131.841959,74.3516008 131.88226,73.9839925 C131.923315,73.6163842 131.943277,73.2774011 131.943277,72.9659134 C131.943277,72.145951 131.780942,71.452919 131.455518,70.8875706 C131.293183,70.5764595 131.130471,70.3783427 130.967759,70.293597 C130.805424,70.2088512 130.574915,69.9542373 130.27661,69.5297552 C129.978682,69.020904 129.572279,68.6815443 129.057778,68.5116761 C128.786591,68.427307 128.380188,68.4126177 127.838192,68.4694915 C126.67322,68.6107345 125.684143,69.1195857 124.871337,69.9967985 C123.868701,71.0713748 123.14403,72.1741996 122.696573,73.3052731 C122.294313,74.3237288 121.94403,75.5105461 121.640829,76.8495292 C121.316158,77.6491525 121.118418,78.1244821 121.049492,78.2683616 C119.965499,80.6721281 119.125574,82.2702448 118.529341,83.0619586 C118.01484,83.6838041 117.588098,83.8962335 117.249492,83.6984934 C116.910508,83.5003766 116.741017,82.9629002 116.741017,82.086064 C116.741017,81.8035782 116.748173,81.4145009 116.761733,80.9199623 C116.775292,80.4246704 116.788475,79.9651601 116.802034,79.5410546 C116.815593,79.1165725 116.835932,78.7210923 116.863051,78.353484 C116.863051,78.2683616 116.957966,77.1937853 117.147797,75.1297552 C117.33725,73.0649718 117.377928,71.7783427 117.269454,71.2691149 C117.052881,70.4491525 116.646478,69.8905838 116.050245,69.5934087 C115.454011,69.2966102 114.871714,69.2898305 114.302222,69.572693 C113.246102,70.1380414 112.257024,71.0992467 111.335367,72.4570621 C111.281507,72.5418079 111.125574,72.7821092 110.867947,73.1779661 C110.610697,73.5741996 110.400527,73.8570621 110.237815,74.0265537 C109.696196,74.5922787 109.357213,74.7478343 109.221996,74.4932203 C109.113522,74.2951036 109.168136,73.6589454 109.384708,72.5843691 C109.709755,70.7177024 109.235556,69.5297552 107.961733,69.020904 C107.691299,68.879661 107.298456,68.893597 106.783202,69.0634652 C106.268324,69.2329567 105.767382,69.5297552 105.279623,69.9542373 C104.358343,70.745951 103.315028,72.0329567 102.150056,73.8141243 C101.933107,74.0687382 101.757213,74.266855 101.621243,74.4080979 C101.486026,74.5493409 101.370772,74.627307 101.275857,74.6416196 C101.180942,74.6559322 101.106742,74.6344633 101.052881,74.5779661 C100.998267,74.5214689 100.944407,74.4080979 100.890169,74.2386064 C100.890169,74.1252354 100.87661,73.9557439 100.849492,73.7297552 C100.821996,73.5033898 100.802034,73.3052731 100.788098,73.1357815 C100.774539,72.9659134 100.768136,72.7964218 100.768136,72.6265537 C100.768136,72.5418079 100.774539,72.3082863 100.788098,71.926742 C100.802034,71.5448211 100.808437,71.1911488 100.808437,70.8661017 C100.808437,70.5410546 100.802034,70.1873823 100.788098,69.805838 C100.774539,69.4239171 100.734237,69.0988701 100.666441,68.8299435 C100.599021,68.5613936 100.510508,68.3843691 100.402411,68.3 C100.104105,68.0736347 99.832919,68.0171375 99.5896045,68.1301318 C98.8574011,68.5259887 98.3971375,69.0774011 98.207307,69.7843691 C98.0012806,70.4687382 97.7752919,71.7704331 97.5304708,73.686064 C96.4506215,74.6205273 95.4562712,75.133145 94.5493032,75.2141243 C94.5225612,75.1858757 94.5225612,75.0661017 94.5493032,74.8536723 C94.5764218,74.6416196 94.6103202,74.3516008 94.6513748,73.9839925 C94.6916761,73.6163842 94.7120151,73.2774011 94.7120151,72.9659134 C94.7120151,72.145951 94.5493032,71.452919 94.2242561,70.8875706 C94.0619209,70.5764595 93.899209,70.3783427 93.7364972,70.293597 C93.574162,70.2088512 93.3436535,69.9542373 93.045725,69.5297552 C92.74742,69.020904 92.3410169,68.6815443 91.826516,68.5116761 C91.5553296,68.427307 91.1489266,68.4126177 90.6069303,68.4694915 C89.4419586,68.6107345 88.4528814,69.1195857 87.6400753,69.9967985 C86.6374388,71.0713748 85.9123917,72.1741996 85.4656874,73.3052731 C85.3534463,73.5888889 85.2453484,73.8849341 85.1410169,74.1934087 C84.9282109,74.534275 84.6781168,74.9097928 84.3877213,75.320339 C83.8189831,76.1263653 83.2905461,76.7553672 82.8027872,77.2080979 C82.585838,77.405838 82.3489266,77.6039548 82.0916761,77.8016949 C81.834049,77.9998117 81.6916761,78.0845574 81.6649341,78.0563089 L81.7865913,77.1655367 C82.3557062,73.7154426 81.9899812,71.1135593 80.6894162,69.3602637 C79.9033522,68.313936 78.9417702,67.8615819 77.8035405,68.0028249 C76.7737853,68.0875706 75.8796234,68.7380414 75.1210546,69.9542373 L74.8366855,70.420904 L74.5112618,69.4024482 C74.3756685,69.1195857 74.179435,68.9218456 73.9218079,68.8088512 C73.6645574,68.6954802 73.386968,68.7101695 73.0886629,68.8514124 C72.7907345,69.0774011 72.574162,69.4024482 72.4385687,69.8269303 C72.3843315,69.3741996 72.1877213,68.9715631 71.8491149,68.6178908 C71.5105085,68.2645951 71.1244444,68.0310734 70.6909228,67.9180791 C70.040452,67.7482109 69.3632392,67.8190207 68.6585311,68.1301318 C67.520678,68.6672316 66.4705838,69.4024482 65.5086252,70.3357815 C64.5466667,71.2691149 63.8355556,72.2024482 63.3749153,73.1357815 C62.0743503,75.8220339 61.61371,78.3252354 61.9929944,80.6438795 C62.2099435,81.8883239 62.7108851,82.8709981 63.4969492,83.5922787 C64.2826365,84.3131827 65.1225612,84.6736347 66.0167232,84.6736347 C66.5587194,84.6736347 67.1749153,84.3839925 67.866064,83.8043315 C68.5568362,83.2246704 69.14629,82.5527307 69.634049,81.7892655 C69.3632392,82.6378531 68.9293409,83.8397363 68.333484,85.3949153 L67.2766102,88.152354 C65.9218079,91.9418079 65.1225612,95.0525424 64.8788701,97.4845574 C64.8788701,98.0220339 64.8649341,98.6864407 64.8381921,99.4785311 C64.8110734,100.270621 64.986968,101.026554 65.366629,101.747834 C65.7459134,102.469115 66.3150282,102.829567 67.073597,102.829567 C68.5636158,102.829567 69.7560829,101.89661 70.6502448,100.029944 C70.867194,99.5489642 71.0702072,99.0190207 71.2600377,98.4389831 C71.4494915,97.859322 71.6122034,97.3218456 71.74742,96.827307 C71.8830132,96.3320151 72.0118267,95.7241055 72.133484,95.0032015 C72.2558945,94.2819209 72.3436535,93.6954802 72.3978908,93.2427495 C72.4521281,92.7903955 72.513145,92.1681733 72.5809416,91.3760829 C72.6487382,90.5843691 72.6890395,90.0329567 72.7025989,89.7218456 C72.7161582,89.4111111 72.7500565,88.859322 72.8042938,88.0676083 C72.8585311,87.2758945 72.8856497,86.8231638 72.8856497,86.7101695 C72.9127684,85.465725 73.1700188,82.9418079 73.6577778,79.1380414 C74.1455367,75.334275 74.606177,73.0227872 75.0396987,72.2024482 C75.3918644,71.5519774 75.8325424,70.9440678 76.3606026,70.3783427 C76.8890395,69.8126177 77.3835782,69.5297552 77.8442185,69.5297552 C78.4675706,69.5297552 78.8803766,69.8269303 79.0837665,70.420904 C79.2871563,71.0148776 79.3617326,72.0329567 79.3074953,73.4751412 C79.253258,75.1150659 78.9685122,76.6845574 78.4540113,78.1836158 C78.399774,78.3252354 78.2641808,78.480791 78.0476083,78.6502825 C77.4784934,78.933145 76.9975141,79.180226 76.6042938,79.3926554 C76.2114501,79.6047081 75.7444068,79.9086629 75.2024105,80.3048964 C74.6604143,80.7007533 74.2472316,81.145951 73.9628625,81.6408663 C73.6781168,82.1357815 73.5496798,82.6517891 73.5764218,83.1892655 C73.6306591,84.3485876 74.240452,85.013371 75.4054237,85.1828625 C76.5707721,85.3527307 77.7086252,84.9564972 78.8197363,83.9952919 C79.7138983,83.03371 80.472467,81.7045198 81.0958192,80.0077213 L81.1771751,79.7531073 C81.2039171,79.6118644 81.2445951,79.4917137 81.2988324,79.3926554 C81.3530697,79.293597 81.4344256,79.2299435 81.5429002,79.2016949 C81.5971375,79.1734463 81.7459134,79.0887006 81.9899812,78.947081 C82.2336723,78.805838 82.4980791,78.6291902 82.7824482,78.4167608 C83.067194,78.2050847 83.3176648,77.9858757 83.5342373,77.7595104 C83.8540113,77.4175141 84.153823,77.0649718 84.4423352,76.706403 C84.3971375,76.9018832 84.3500565,77.0909605 84.3071186,77.2928437 C83.9820716,79.4984934 84.0498682,81.3651601 84.5105085,82.892467 C84.8084369,83.9105461 85.4246328,84.652919 86.3598493,85.119209 C87.2943126,85.5858757 88.2091902,85.593032 89.1033522,85.140678 C89.3199247,85.027307 89.5233145,84.9 89.7127684,84.7587571 C89.9025989,84.6175141 90.0924294,84.4122411 90.2818832,84.1436911 C90.4713371,83.8747646 90.634049,83.6559322 90.7696422,83.486064 C90.9052354,83.3165725 91.0811299,83.019774 91.2980791,82.5952919 C91.5146516,82.1711864 91.6638041,81.8811676 91.7451601,81.7256121 C91.826516,81.5700565 91.9956309,81.2235405 92.2528814,80.6864407 C92.5105085,80.1493409 92.666064,79.8096045 92.720678,79.6683616 C92.7749153,79.5553672 92.9033522,79.2370998 93.106742,78.713936 C93.3097552,78.1903955 93.5063653,77.7312618 93.6958192,77.3354049 C93.8856497,76.9391714 94.0479849,76.6992467 94.1835782,76.6141243 C95.2871563,76.372693 96.3485499,75.83258 97.3703955,75.0054614 C97.3116384,75.5097928 97.2521281,76.0435028 97.1914878,76.6141243 C97.1372505,77.0947269 97.0558945,77.7312618 96.94742,78.5229755 C96.8389454,79.3150659 96.7647458,79.8947269 96.7236911,80.2619586 C96.6833898,80.6299435 96.6494915,81.2450094 96.6223729,82.107533 C96.5952542,82.9700565 96.6359322,83.7124294 96.7444068,84.3346516 C96.7986441,84.7305085 96.9609793,85.027307 97.2317891,85.2254237 C97.5568362,85.4517891 97.8822599,85.5504708 98.207307,85.5222222 C98.4513748,85.4939736 98.6818832,85.3809793 98.8984557,85.1828625 C99.2777401,84.7305085 99.5078719,84.3629002 99.5896045,84.0800377 L100.768136,78.353484 C100.821996,77.9572505 101.106742,77.3210923 101.621243,76.4446328 C103.464181,73.3335217 104.872844,71.5376648 105.848362,71.0570621 L106.417853,70.9297552 C106.715782,70.9297552 106.797137,71.0713748 106.661168,71.3538606 C106.634426,71.5237288 106.580188,71.7783427 106.498832,72.1173258 C106.417853,72.4570621 106.363239,72.7256121 106.336121,72.9237288 C106.255141,73.43258 106.112768,74.3094162 105.909379,75.553484 C105.706365,76.7979284 105.543653,77.8160075 105.42162,78.6077213 C105.299962,79.399435 105.197891,80.3048964 105.117288,81.3225989 C105.035556,82.340678 105.008814,83.2032015 105.035556,83.9105461 C105.035556,84.5323917 105.320301,84.9282486 105.88904,85.0981168 C106.051751,85.1828625 106.370395,85.1900188 106.844595,85.119209 C107.318418,85.0483992 107.609944,84.9 107.718418,84.6736347 C108.070207,84.193032 108.260038,83.7549906 108.287156,83.3587571 C108.314275,83.2175141 108.395631,82.6024482 108.531224,81.5135593 C108.666441,80.4246704 108.795254,79.5836158 108.916911,78.9896422 C109.039322,78.3956685 109.194878,77.8446328 109.384708,77.3354049 C109.791111,76.4303202 110.062298,75.8789077 110.197514,75.680791 C110.251375,75.5960452 110.48226,75.2638418 110.888286,74.6841808 C111.295066,74.1041431 111.633296,73.6378531 111.904482,73.2841808 C112.175669,72.9308851 112.507495,72.5274953 112.900339,72.0751412 C113.293183,71.6227872 113.638945,71.3045198 113.936874,71.1207156 C114.234802,70.9369115 114.478493,70.9015066 114.668324,71.0148776 C114.993371,71.2126177 114.925951,72.0612053 114.464934,73.559887 C114.302222,74.0126177 114.031789,75.4969868 113.652128,78.0141243 C113.272844,80.5308851 113.191488,82.2416196 113.408437,83.147081 C113.54403,83.6559322 113.909379,84.1369115 114.505612,84.5892655 C115.101846,85.0416196 115.725198,85.2679849 116.375292,85.2679849 C116.646478,85.2679849 116.971525,85.2393597 117.35081,85.1828625 C118.055141,85.0981168 118.719171,84.5821092 119.342147,83.6348399 C119.955706,82.7026365 120.621243,81.4062147 121.33951,79.7485876 C121.330847,80.9199623 121.463427,81.9693032 121.74177,82.892467 C122.039699,83.9105461 122.656271,84.652919 123.590734,85.119209 C124.525951,85.5858757 125.440452,85.593032 126.334614,85.140678 C126.551186,85.027307 126.754576,84.9 126.944407,84.7587571 C127.133861,84.6175141 127.323691,84.4122411 127.513145,84.1436911 C127.702599,83.8747646 127.865311,83.6559322 128.000527,83.486064 C128.136497,83.3165725 128.312768,83.019774 128.529341,82.5952919 C128.745913,82.1711864 128.895066,81.8811676 128.976045,81.7256121 C129.057778,81.5700565 129.226893,81.2235405 129.48452,80.6864407 C129.742147,80.1493409 129.897702,79.8096045 129.951563,79.6683616 C130.006177,79.5553672 130.134614,79.2370998 130.338004,78.713936 C130.541394,78.1903955 130.737627,77.7312618 130.927081,77.3354049 C131.116911,76.9391714 131.279623,76.6992467 131.41484,76.6141243 C133.095066,76.246516 134.68,75.2001883 136.170395,73.4751412 C136.177928,73.4608286 136.183202,73.4495292 136.190358,73.4355932 C136.925951,72.8107345 137.738757,72.3357815 138.629529,72.0114878 C139.835179,71.5730697 141.183202,71.4103578 142.673974,71.5237288 C144.163992,71.6367232 145.518418,71.8276836 146.73838,72.0966102 C147.957213,72.3651601 149.447608,72.7681733 151.208814,73.3052731 C151.479623,73.3900188 152.191111,73.6163842 153.3429,73.9839925 C154.494313,74.3516008 155.293559,74.5922787 155.74064,74.7052731 C156.187721,74.8182674 156.858531,74.973823 157.752693,75.1719397 C158.646855,75.3696798 159.459661,75.4969868 160.191111,75.553484 C160.922938,75.6103578 161.681507,75.6103578 162.467194,75.553484 C164.689416,75.4122411 166.531601,74.9595104 167.994878,74.1960452 C168.34742,74.8182674 168.841582,75.334275 169.478493,75.7444444 C170.115028,76.1546139 170.954953,76.479661 171.998267,76.7199623 C173.041205,76.9606403 174.403164,76.9323917 176.083013,76.6355932 C177.763239,76.3380414 179.646478,75.7655367 181.732731,74.9173258 C183.340264,74.2664783 184.853635,73.7165725 186.28113,73.2570621 C186.314275,73.3003766 186.356083,73.3372881 186.41145,73.3542373 C186.553446,73.3975518 186.702222,73.312806 186.743653,73.1644068 C186.749303,73.1451977 186.753446,73.126742 186.758719,73.1071563 C192.167382,71.4250471 196.253635,71.147081 199.006177,72.2875706 C199.168889,72.3436911 199.318041,72.3719397 199.453635,72.3719397 C199.670207,72.3719397 199.765122,72.273258 199.738004,72.0751412 C199.683766,71.7357815 199.453635,71.5094162 199.046855,71.3964218 C196.689793,70.6894539 194.393371,70.512806 192.157589,70.8661017 Z" id="Fill-13" fill="#FEFEFE"></path>
                <path d="M179.423804,52.5847834 C177.207232,53.98629 179.018908,56.6623729 180.650169,58.0552166 C182.281431,59.4476836 186.669379,63.2909981 186.669379,63.2909981 C186.669379,63.2909981 184.108927,55.5000377 183.469755,54.5550282 C182.830584,53.6107721 181.640377,51.1840301 179.423804,52.5847834" id="Fill-15" fill="#FEFEFE"></path>
                <path d="M178.350885,47.4888136 C177.471036,49.1569868 175.860113,47.4613183 175.855593,47.4567985 L175.667646,47.6560452 C175.673296,47.6616949 177.532429,49.6210169 178.58629,47.6236535 L178.350885,47.4888136 Z" id="Fill-17" fill="#FEFEFE"></path>
            </g>
        </g>
    </g>
</svg>