<?xml version="1.0" encoding="UTF-8"?>
<svg width="20px" height="20px" viewBox="0 0 20 20" version="1.1" xmlns="http://www.w3.org/2000/svg" xmlns:xlink="http://www.w3.org/1999/xlink">
    <!-- Generator: Sketch 55.2 (78181) - https://sketchapp.com -->
    <title>Icon/20x20/edit</title>
    <desc>Created with Sketch.</desc>
    <g id="Icon/20x20/edit" stroke="none" stroke-width="1" fill="none" fill-rule="evenodd">
        <path d="M0.860694351,20 C0.94636077,20 1.03202719,20 1.08913813,19.9714795 L7.05723195,18.2317291 C7.37134215,18.1461676 7.68545235,17.9750446 7.91389613,17.7183601 L18.8220867,6.82352941 C20.3926378,5.25490196 20.3926378,2.74509804 18.8220867,1.17647059 C17.2515357,-0.392156863 14.7386541,-0.392156863 13.1681031,1.17647059 L2.28846799,12.0713012 C2.06002421,12.2994652 1.88869137,12.6131907 1.77446948,12.9269162 L0.0325856401,18.8877005 C-0.0530807783,19.1729055 0.0325856401,19.5151515 0.261029423,19.7433155 C0.432362259,19.9144385 0.660806042,20 0.860694351,20 Z M12.5398827,4.25668449 L15.7666512,7.47950089 L7.28567573,15.9500891 L4.05890731,12.7272727 L12.5398827,4.25668449 Z M16.0236504,1.71836007 C16.5947599,1.71836007 17.1944248,1.94652406 17.6513124,2.37433155 C18.0796445,2.80213904 18.3080882,3.37254902 18.3080882,4 C18.3080882,4.62745098 18.0796445,5.19786096 17.6513124,5.62566845 L16.9945365,6.25311943 L13.7677681,3.03030303 L14.3959885,2.40285205 C14.852876,1.94652406 15.4239855,1.71836007 16.0236504,1.71836007 Z M3.17368765,14.2388592 L5.7436802,16.8057041 L2.11713515,17.8609626 L3.17368765,14.2388592 Z" id="edit" fill="#000000" fill-rule="nonzero"></path>
    </g>
</svg>