<svg width="16" height="16" viewBox="0 0 16 16" fill="none" xmlns="http://www.w3.org/2000/svg">
<path fill-rule="evenodd" clip-rule="evenodd" d="M7.95892 13.8261C7.88608 13.9599 7.73171 14.0273 7.58406 13.9896C7.43641 13.952 7.33313 13.819 7.33325 13.6666V9.33329H4.33322C4.22785 9.33339 4.12865 9.28359 4.06578 9.19903C4.0029 9.11448 3.98377 9.00514 4.0142 8.90426L6.01422 2.23763C6.05643 2.09668 6.1861 2.00009 6.33324 2H9.6666C9.77371 2.00015 9.87424 2.05169 9.93688 2.13857C9.99952 2.22545 10.0167 2.33711 9.98297 2.43878L9.46237 3.99998L8.79545 5.99998H11.6666C11.7842 5.99998 11.893 6.06195 11.9531 6.16304C12.0135 6.26411 12.0157 6.38966 11.959 6.49283L11.6666 7.02877L7.95892 13.8261ZM13.7138 7.45218C13.7129 7.45385 13.712 7.45551 13.7111 7.45718L9.71555 14.7823C9.71534 14.7827 9.71514 14.783 9.71494 14.7834C9.71486 14.7836 9.71501 14.7833 9.71494 14.7834C9.20436 15.7198 8.12353 16.1912 7.08996 15.9276C6.05634 15.6641 5.33312 14.7332 5.33325 13.6666C5.33325 13.6665 5.33325 13.6667 5.33325 13.6666V11.3333L4.33502 11.3333C4.33442 11.3333 4.33382 11.3333 4.33322 11.3333C3.59547 11.3334 2.9011 10.9845 2.46085 10.3924C2.02082 9.80066 1.88653 9.03574 2.09855 8.32956C2.09864 8.32927 2.09847 8.32985 2.09855 8.32956C2.09875 8.32889 2.09921 8.32737 2.09941 8.3267L4.09829 1.66385C4.39415 0.677401 5.30207 0.00064671 6.33198 3.57628e-07L9.66943 0C10.4183 0.00105917 11.1212 0.361419 11.5592 0.968873C11.9972 1.57633 12.117 2.35707 11.8814 3.06794L11.8803 3.07146L11.5706 3.99998H11.6666C12.489 4 13.2505 4.43292 13.6712 5.13935C14.0939 5.84842 14.1101 6.72812 13.7138 7.45218Z" fill="#6D0978"/>
</svg>
