<?xml version="1.0" encoding="UTF-8"?>
<svg width="46px" height="46px" viewBox="0 0 46 46" version="1.1" xmlns="http://www.w3.org/2000/svg" xmlns:xlink="http://www.w3.org/1999/xlink">
    <!-- Generator: Sketch 55.2 (78181) - https://sketchapp.com -->
    <title>Icon/46x46/exclamation</title>
    <desc>Created with Sketch.</desc>
    <g id="Icon/46x46/exclamation" stroke="none" stroke-width="1" fill="none" fill-rule="evenodd">
        <path d="M23,46 C10.2974508,46 0,35.7025492 0,23 C0,10.2974508 10.2974508,0 23,0 C35.7025492,0 46,10.2974508 46,23 C46,35.7025492 35.7025492,46 23,46 Z M22.0000253,17 L22,25 C22,25.5522816 22.4477121,26 23,26 C23.5522816,26 24,25.5522879 24,25 L24.0000253,17 C24.0000253,16.4477184 23.5523132,16 23.0000284,16 C22.4477437,16 22.000027,16.4477121 22.0000253,17 Z M23,30 C23.5522847,30 24,29.5522847 24,29 C24,28.4477153 23.5522847,28 23,28 C22.4477153,28 22,28.4477153 22,29 C22,29.5522847 22.4477153,30 23,30 Z" id="exclamation" fill="#6D0978" fill-rule="nonzero"></path>
    </g>
</svg>