<?xml version="1.0" encoding="UTF-8"?>
<svg width="20px" height="20px" viewBox="0 0 20 20" version="1.1" xmlns="http://www.w3.org/2000/svg" xmlns:xlink="http://www.w3.org/1999/xlink">
    <!-- Generator: Sketch 55.2 (78181) - https://sketchapp.com -->
    <title>Icon/20x20/eye-opened</title>
    <desc>Created with Sketch.</desc>
    <g id="Icon/20x20/eye-opened" stroke="none" stroke-width="1" fill="none" fill-rule="evenodd">
        <path d="M14.371565,6.57252905 C14.774495,7.59188454 15,8.76414474 15,10 C15,11.2358553 14.774495,12.4081155 14.371565,13.4274709 C15.4626726,12.613786 16.5342412,11.4769716 17.5880505,10 C16.5342412,8.52302839 15.4626726,7.38621402 14.371565,6.57252905 Z M5.62843503,13.4274709 C5.22550501,12.4081155 5,11.2358553 5,10 C5,8.76414474 5.22550501,7.59188454 5.62843503,6.57252905 C4.53732738,7.38621402 3.46575881,8.52302839 2.41194953,10 C3.46575881,11.4769716 4.53732738,12.613786 5.62843503,13.4274709 Z M10,17 C6.31810167,17 2.98476833,14.6666667 0,10 C2.98476833,5.33333333 6.31810167,3 10,3 C13.6818983,3 17.0152317,5.33333333 20,10 C17.0152317,14.6666667 13.6818983,17 10,17 Z M10,15 C11.5511162,15 13,12.8266743 13,10 C13,7.17332568 11.5511162,5 10,5 C8.44888379,5 7,7.17332568 7,10 C7,12.8266743 8.44888379,15 10,15 Z M10,12 C8.8954305,12 8,11.1045695 8,10 C8,8.8954305 8.8954305,8 10,8 C11.1045695,8 12,8.8954305 12,10 C12,11.1045695 11.1045695,12 10,12 Z" id="eye-opened" fill="#CECED2" fill-rule="nonzero"></path>
    </g>
</svg>