<?xml version="1.0" encoding="UTF-8"?>
<svg width="20px" height="20px" viewBox="0 0 20 20" version="1.1" xmlns="http://www.w3.org/2000/svg" xmlns:xlink="http://www.w3.org/1999/xlink">
    <!-- Generator: Sketch 55.2 (78181) - https://sketchapp.com -->
    <title>Icon/20x20/eye-closed</title>
    <desc>Created with Sketch.</desc>
    <g id="Icon/20x20/eye-closed" stroke="none" stroke-width="1" fill="none" fill-rule="evenodd">
        <path d="M14.9058085,8.62972542 C14.9677355,9.07416238 15,9.5325317 15,10 C15,11.2358553 14.774495,12.4081155 14.371565,13.4274709 C15.4626726,12.613786 16.5342412,11.4769716 17.5880505,10 C16.9816038,9.15003162 16.3692756,8.41271578 15.7507267,7.7848072 L17.1630685,6.37246536 C18.1413284,7.36330847 19.0869722,8.57248669 20,10 C17.0152317,14.6666667 13.6818983,17 10,17 C8.99349687,17 8.0130415,16.8256333 7.0586339,16.4769 L8.9019426,14.6335913 C9.24881074,14.8704938 9.62135941,15 10,15 C11.4480577,15 12.8070167,13.1058783 12.9812068,10.5543271 L14.9058085,8.62972542 Z M5.09419152,11.3702746 C5.03226453,10.9258376 5,10.4674683 5,10 C5,8.76414474 5.22550501,7.59188454 5.62843503,6.57252905 C4.53732738,7.38621402 3.46575881,8.52302839 2.41194953,10 C3.01839623,10.8499684 3.63072442,11.5872842 4.24927329,12.2151928 L2.83693145,13.6275346 C1.85867165,12.6366915 0.913027829,11.4275133 1.11022302e-16,10 C2.98476833,5.33333333 6.31810167,3 10,3 C11.0065031,3 11.9869585,3.17436666 12.9413661,3.52309999 L11.0980574,5.36640869 C10.7511893,5.12950618 10.3786406,5 10,5 C8.55194229,5 7.19298334,6.89412171 7.0187932,9.44567289 L5.09419152,11.3702746 Z M2.70710678,18.7071068 C2.31658249,19.0976311 1.68341751,19.0976311 1.29289322,18.7071068 C0.902368927,18.3165825 0.902368927,17.6834175 1.29289322,17.2928932 L17.2928932,1.29289322 C17.6834175,0.902368927 18.3165825,0.902368927 18.7071068,1.29289322 C19.0976311,1.68341751 19.0976311,2.31658249 18.7071068,2.70710678 L2.70710678,18.7071068 Z" id="eye-closed" fill="#CECED2" fill-rule="nonzero"></path>
    </g>
</svg>