<svg width="20" height="20" viewBox="0 0 20 20" fill="none" xmlns="http://www.w3.org/2000/svg">
<path fill-rule="evenodd" clip-rule="evenodd" d="M1.55954 6.80717C1.55954 7.22866 1.20126 7.58693 0.779768 7.58693C0.358272 7.58693 0 7.22866 0 6.78609V3.16122C0 1.41201 1.41201 0 3.16122 0H6.78609C7.20759 0 7.56586 0.358272 7.56586 0.779768C7.56586 1.20126 7.20759 1.55954 6.78609 1.55954H3.16122C2.27608 1.55954 1.55954 2.27608 1.55954 3.16122V6.80717ZM18.4615 13.2139C18.4615 12.7924 18.8198 12.4341 19.2412 12.4341C19.6627 12.4341 20.021 12.7924 19.9999 13.2139V16.8387C19.9999 18.5879 18.5879 19.9999 16.8387 19.9999H13.2139C12.7924 19.9999 12.4341 19.6417 12.4341 19.2202C12.4341 18.7987 12.7924 18.4404 13.2139 18.4404H16.8598C17.7449 18.4404 18.4615 17.7239 18.4615 16.8387V13.2139ZM16.8598 0H13.2139C12.7924 0 12.4341 0.358272 12.4341 0.779768C12.4341 1.20126 12.7924 1.55954 13.2139 1.55954H16.8387C17.7239 1.55954 18.4404 2.27608 18.4404 3.16122V6.78609C18.4404 7.20759 18.7987 7.56586 19.2202 7.56586C19.6417 7.56586 19.9999 7.20759 19.9999 6.78609V3.16122C20.021 1.41201 18.609 0 16.8598 0ZM3.16122 18.4615H6.80717C7.22866 18.4615 7.56586 18.7987 7.56586 19.2202C7.56586 19.6417 7.20759 19.9999 6.78609 19.9999H3.16122C1.41201 19.9999 0 18.5879 0 16.8387V13.2139C0 12.7924 0.358272 12.4341 0.779768 12.4341C1.20126 12.4341 1.55954 12.7924 1.55954 13.2139V16.8598C1.55954 17.7449 2.27608 18.4615 3.16122 18.4615ZM12.8555 13.1296C12.5605 12.8134 12.0547 12.8134 11.7596 13.1085C11.5068 13.3403 10.8745 13.5932 10.0315 13.5932C9.18852 13.5932 8.5352 13.3403 8.30338 13.1085C7.98726 12.8134 7.50254 12.8134 7.20749 13.1296C6.91244 13.4457 6.91244 13.9304 7.22856 14.2255C7.81866 14.7945 8.8724 15.1317 10.0315 15.1317C11.1906 15.1317 12.2444 14.7945 12.8345 14.2255C13.1295 13.9304 13.1506 13.4246 12.8555 13.1296ZM4.9314 7.20755V5.98521C4.9314 5.54264 5.28967 5.20544 5.71116 5.20544C6.13266 5.20544 6.49093 5.56372 6.49093 5.98521V7.20755C6.49093 7.62905 6.13266 7.98732 5.71116 7.98732C5.28967 7.98732 4.9314 7.62905 4.9314 7.20755ZM15.0896 7.20755V5.98521C15.0896 5.56372 14.7313 5.20544 14.3098 5.20544C13.8883 5.20544 13.53 5.56372 13.53 5.98521V7.20755C13.53 7.62905 13.8883 7.98732 14.3098 7.98732C14.7313 7.98732 15.0896 7.62905 15.0896 7.20755ZM9.69442 11.3172C9.6312 11.3383 9.56797 11.3383 9.50475 11.3383C9.16755 11.3383 8.85143 11.1064 8.74605 10.7482C8.64068 10.3267 8.89358 9.90518 9.31507 9.7998L9.73657 9.69443V7.67125C9.73657 7.24975 10.0948 6.89148 10.5163 6.89148C10.9378 6.89148 11.2961 7.24975 11.2961 7.67125V10.3056C11.2961 10.6639 11.0432 10.98 10.706 11.0643L9.69442 11.3172Z" fill="black"/>
</svg>
