<?xml version="1.0" encoding="UTF-8"?>
<svg width="30px" height="30px" viewBox="0 0 30 30" version="1.1" xmlns="http://www.w3.org/2000/svg" xmlns:xlink="http://www.w3.org/1999/xlink">
    <!-- Generator: Sketch 55.2 (78181) - https://sketchapp.com -->
    <title>Icon/30x30/face-id</title>
    <desc>Created with Sketch.</desc>
    <g id="Icon/30x30/face-id" stroke="none" stroke-width="1" fill="none" fill-rule="evenodd">
        <path d="M9.46884965,9.7917888 C10.033406,9.7917888 10.491081,10.2495903 10.491081,10.8140202 L10.491081,13.2060556 C10.491081,13.7707132 10.0335072,14.228287 9.46884965,14.228287 C8.9041921,14.228287 8.4466183,13.7707132 8.4466183,13.2060556 L8.4466183,10.8140202 C8.4466183,10.2493626 8.9041921,9.7917888 9.46884965,9.7917888 Z M20.5314792,14.228287 C19.9670493,14.228287 19.5092479,13.770612 19.5092479,13.2060556 L19.5092479,10.8140202 C19.5092479,10.2493626 19.9668217,9.7917888 20.5314792,9.7917888 C21.0961368,9.7917888 21.5537106,10.2493626 21.5537106,10.8140202 L21.5537106,13.2060556 C21.5537106,13.7707132 21.0961368,14.228287 20.5314792,14.228287 Z M20.657098,21.4037156 C19.1463713,22.914105 17.1369063,23.7464372 15.0008222,23.7464372 C12.8642355,23.7464372 10.8551412,22.9143103 9.34460314,21.4037722 C8.94507369,21.0046517 8.94507369,20.3572701 9.34438589,19.9583669 C9.74318192,19.5587529 10.3909484,19.5587529 10.7900086,19.958222 C11.9147881,21.0830015 13.4093753,21.7019745 15.0004933,21.7019745 C16.5914053,21.7019745 18.0862854,21.0829147 19.2109057,19.9582944 C19.6100142,19.558777 20.257011,19.558777 20.656456,19.958222 C21.0553972,20.3571633 21.05565,21.0039363 20.657098,21.4037156 Z M14.0782786,18.5384238 C13.5136211,18.5384238 13.0560473,18.08085 13.0560473,17.5161924 C13.0560473,16.9515348 13.5136211,16.493961 14.0782786,16.493961 C14.5333519,16.493961 14.7251769,16.3547168 14.7251769,15.8470627 L14.7251769,10.8140202 C14.7251769,10.2493626 15.1827508,9.7917888 15.7474083,9.7917888 C16.3120659,9.7917888 16.7696397,10.2493626 16.7696397,10.8140202 L16.7696397,15.8470627 C16.7696397,17.4477318 15.6789477,18.5384238 14.0782786,18.5384238 Z M1.02223136,11.8362515 C0.457637038,11.8362515 0,11.3787409 0,10.814349 L0,6.61340459 C0,2.96669502 2.96669502,0 6.61340459,0 L9.31920355,0 C9.88389912,0 10.3417638,0.45761178 10.3417638,1.02223136 C10.3417638,1.58688891 9.88418999,2.04446272 9.31953244,2.04446272 L6.61340459,2.04446272 C4.09403677,2.04446272 2.04446272,4.09403677 2.04446272,6.61340459 L2.04446272,10.8140202 C2.04446272,11.3786777 1.58688891,11.8362515 1.02223136,11.8362515 Z M9.31920355,27.9555373 C9.88389912,27.9555373 10.3417638,28.4131491 10.3417638,28.9777686 C10.3417638,29.5424262 9.88418999,30 9.31953244,30 L6.61340459,30 C2.96663559,30 3.87245791e-13,27.0335745 3.87245791e-13,23.3869243 L3.87245791e-13,19.1863087 C3.87245791e-13,18.6216512 0.457573806,18.1640774 1.02223136,18.1640774 C1.58688891,18.1640774 2.04446272,18.6216512 2.04446272,19.1863087 L2.04446272,23.3869243 C2.04446272,25.9058964 4.0942988,27.9555373 6.61340459,27.9555373 L9.31920355,27.9555373 Z M23.3869243,8.52651283e-14 C27.0336339,8.52651283e-14 30.0003289,2.96669502 30.0003289,6.61340459 L30.0003289,10.814349 C30.0003289,11.3790066 29.5427551,11.8365804 28.9780975,11.8365804 C28.41344,11.8365804 27.9558662,11.3790066 27.9558662,10.814349 L27.9558662,6.61340459 C27.9558662,4.09415242 25.9060789,2.04446272 23.3869243,2.04446272 L20.6807965,2.04446272 C20.1161389,2.04446272 19.6585651,1.58688891 19.6585651,1.02223136 C19.6585651,0.457573806 20.1161389,8.52651283e-14 20.6807965,8.52651283e-14 L23.3869243,8.52651283e-14 Z M28.9780975,18.1640774 C29.5427551,18.1640774 30.0003289,18.6216512 30.0003289,19.1863087 L30.0003289,23.3869243 C30.0003289,27.0335745 27.0336933,30 23.3869243,30 L20.6807965,30 C20.1161389,30 19.6585651,29.5424262 19.6585651,28.9777686 C19.6585651,28.4131111 20.1161389,27.9555373 20.6807965,27.9555373 L23.3869243,27.9555373 C25.9060301,27.9555373 27.9558662,25.9058964 27.9558662,23.3869243 L27.9558662,19.1863087 C27.9558662,18.6216512 28.41344,18.1640774 28.9780975,18.1640774 Z" id="face-id" fill="#000000" fill-rule="nonzero"></path>
    </g>
</svg>