<svg width="21" height="20" viewBox="0 0 21 20" fill="none" xmlns="http://www.w3.org/2000/svg">
<path d="M8.85502 0.823293C9.60734 -0.274431 11.2274 -0.274431 11.9797 0.823292L14.3784 4.3233C14.6247 4.68265 14.9873 4.94612 15.4052 5.0693L19.4751 6.26905C20.7516 6.64533 21.2522 8.18605 20.4407 9.24077L17.8532 12.6036C17.5876 12.9489 17.449 13.3752 17.461 13.8107L17.5777 18.0522C17.6143 19.3825 16.3036 20.3347 15.0498 19.8888L11.0519 18.4672C10.6415 18.3212 10.1932 18.3212 9.78276 18.4672L5.78491 19.8888C4.53105 20.3347 3.22043 19.3825 3.25701 18.0522L3.37367 13.8107C3.38565 13.3752 3.24713 12.9489 2.98147 12.6036L0.394012 9.24077C-0.417506 8.18605 0.0831052 6.64533 1.35958 6.26905L5.42953 5.0693C5.8474 4.94612 6.21003 4.68265 6.45631 4.3233L8.85502 0.823293Z" fill="#FFC700"/>
</svg>
