<svg width="20" height="20" viewBox="0 0 20 20" fill="none" xmlns="http://www.w3.org/2000/svg">
<g id="Icon/20x20/filters">
<path id="filters" fill-rule="evenodd" clip-rule="evenodd" d="M4 2C4 1.44772 4.44772 1 5 1H6C6.55228 1 7 1.44772 7 2V3H19C19.5523 3 20 3.44772 20 4C20 4.55228 19.5523 5 19 5H7V6C7 6.55228 6.55228 7 6 7H5C4.44772 7 4 6.55228 4 6V5H1C0.447715 5 0 4.55228 0 4C0 3.44772 0.447715 3 1 3H4V2ZM0 16C0 15.4477 0.447715 15 1 15H13V14C13 13.4477 13.4477 13 14 13H15C15.5523 13 16 13.4477 16 14V15H19C19.5523 15 20 15.4477 20 16C20 16.5523 19.5523 17 19 17H16V18C16 18.5523 15.5523 19 15 19H14C13.4477 19 13 18.5523 13 18V17H1C0.447715 17 0 16.5523 0 16ZM1 9C0.447715 9 0 9.44772 0 10C0 10.5523 0.447715 11 1 11H19C19.5523 11 20 10.5523 20 10C20 9.44772 19.5523 9 19 9H1Z" fill="black"/>
</g>
</svg>
