<svg width="20" height="20" viewBox="0 0 20 20" fill="none" xmlns="http://www.w3.org/2000/svg">
<g id="Icon/20x20/home">
<path id="home" fill-rule="evenodd" clip-rule="evenodd" d="M10.0069 2.6979L18.4469 8.69817C18.8899 9.01308 19.5039 8.90876 19.8184 8.46518C20.1328 8.02159 20.0287 7.40671 19.5857 7.0918L10.5694 0.681817C10.225 0.436996 9.76302 0.439643 9.42147 0.688395L0.405143 7.25507C-0.0341838 7.57504 -0.131314 8.19107 0.188196 8.63103C0.507707 9.07098 1.12287 9.16825 1.56219 8.84828L10.0069 2.6979ZM4.42627 11.1275V16.545C4.42627 17.089 4.86664 17.53 5.40987 17.53H7V12.1543C7 11.0497 7.89543 10.1543 9 10.1543H11C12.1046 10.1543 13 11.0497 13 12.1543V17.53H14.5901C15.1334 17.53 15.5737 17.089 15.5737 16.545V11.1275C15.5737 10.5835 16.0141 10.1425 16.5573 10.1425C17.1005 10.1425 17.5409 10.5835 17.5409 11.1275V16.545C17.5409 18.177 16.2198 19.5 14.5901 19.5H5.40987C3.78018 19.5 2.45907 18.177 2.45907 16.545V11.1275C2.45907 10.5835 2.89944 10.1425 3.44267 10.1425C3.98589 10.1425 4.42627 10.5835 4.42627 11.1275ZM11 17V12.1543H9V17H11Z" fill="#6D0978"/>
</g>
</svg>
