<?xml version="1.0" encoding="UTF-8"?>
<svg width="20px" height="20px" viewBox="0 0 20 20" version="1.1" xmlns="http://www.w3.org/2000/svg" xmlns:xlink="http://www.w3.org/1999/xlink">
    <!-- Generator: Sketch 55.2 (78181) - https://sketchapp.com -->
    <title>Icon/20x20/home</title>
    <desc>Created with Sketch.</desc>
    <g id="Icon/20x20/home" stroke="none" stroke-width="1" fill="none" fill-rule="evenodd">
        <path d="M4.4262661,11.6274903 L4.4262661,17.0449966 C4.4262661,17.5889977 4.86663849,18.0299977 5.40986536,18.0299977 L14.5901252,18.0299977 C15.1333521,18.0299977 15.5737245,17.5889977 15.5737245,17.0449966 L15.5737245,11.6274903 C15.5737245,11.0834892 16.0140969,10.6424892 16.5573237,10.6424892 C17.1005506,10.6424892 17.540923,11.0834892 17.540923,11.6274903 L17.540923,17.0449966 C17.540923,18.6769999 16.2198058,20 14.5901252,20 L5.40986536,20 C3.78018474,20 2.45906756,18.6769999 2.45906756,17.0449966 L2.45906756,11.6274903 C2.45906756,11.0834892 2.89943995,10.6424892 3.44266683,10.6424892 C3.9858937,10.6424892 4.4262661,11.0834892 4.4262661,11.6274903 Z M10.006926,2.19790473 L1.56219391,8.34828137 C1.12286673,8.66824743 0.507707111,8.57097852 0.188196437,8.1310252 C-0.131314237,7.69107188 -0.0341837701,7.0750355 0.405143406,6.75506945 L9.42147003,0.188395213 C9.76301725,-0.0603567911 10.2250115,-0.0630042287 10.5693791,0.181817171 L19.5857057,6.59179847 C20.0286607,6.90670864 20.1328248,7.5215915 19.8183628,7.96517778 C19.5039008,8.40876406 18.8898931,8.51307665 18.4469381,8.19816647 L10.006926,2.19790473 Z" id="home" fill="#6D0978" fill-rule="nonzero"></path>
    </g>
</svg>