<?xml version="1.0" encoding="UTF-8"?>
<svg width="50px" height="50px" viewBox="0 0 50 50" version="1.1" xmlns="http://www.w3.org/2000/svg" xmlns:xlink="http://www.w3.org/1999/xlink">
    <!-- Generator: Sketch 55.2 (78181) - https://sketchapp.com -->
    <title>k-symbol</title>
    <desc>Created with Sketch.</desc>
    <g id="k-symbol" stroke="none" stroke-width="1" fill="none" fill-rule="evenodd">
        <path d="M23.540962,44.5542491 C23.8940231,43.8406211 24.0056749,42.0474797 21.4286303,40.8772508 C19.0145369,39.7856419 14.3251606,40.1122174 14.3191254,40.496246 C14.3191254,40.6716292 20.3543587,40.5113653 20.4116935,43.3658771 C20.4569577,46.1054827 22.5602365,46.5318452 23.540962,44.5542491 Z M27.7384668,44.5542491 C27.3854056,43.8406211 27.2737538,42.0474797 29.8507985,40.8772508 C32.2648918,39.7856419 36.9542681,40.1122174 36.9603034,40.496246 C36.9603034,40.6716292 30.92507,40.5113653 30.8707529,43.3658771 C30.822471,46.1054827 28.7161746,46.5318452 27.7384668,44.5542491 Z M32.7205519,27.3818204 C31.7096503,28.0228761 31.893725,29.6890159 33.1852649,31.1192957 C34.3772235,32.4316454 35.5601292,32.6100524 35.6929044,32.6312193 C36.2602163,32.7007678 34.6669147,31.9720206 34.4134349,30.1093307 C34.2836774,29.1447234 34.144867,26.4746663 32.7205519,27.3818204 L32.7205519,27.3818204 Z M35.9252609,16.3659449 C35.9252609,15.7218654 35.4032132,15.1866444 35.593323,15.1110482 C36.1871408,15.1604569 36.7228853,15.4877229 37.0387614,15.9940116 C37.5940029,16.858832 36.963321,18.0502278 36.278322,17.7871531 C35.593323,17.5240784 35.9282785,17.0100243 35.9252609,16.3659449 L35.9252609,16.3659449 Z M23.8216003,13.254406 C24.3074366,12.9520213 24.6454097,12.0448671 24.7902553,12.165821 C24.9115385,12.7689098 24.84952,13.3945883 24.6122159,13.9619863 C24.2169081,14.8237828 22.8016459,15.0203328 22.6990469,14.3460149 C22.5964479,13.6716969 23.3387817,13.5688861 23.8216003,13.254406 Z M42.1294808,23.8378714 C41.4354289,24.2612101 40.5271263,23.3873182 40.10466,21.8360846 C39.718405,20.4088286 39.8028983,19.8101069 39.8873916,19.8222023 C39.9718848,19.8342977 40.3490869,20.7293565 41.3539533,21.7393214 C41.8699657,22.262447 43.1102062,23.2451974 42.1294808,23.8408953 L42.1294808,23.8378714 Z M47.914252,21.6939637 C47.34694,21.391579 46.6317649,21.5881291 46.6559058,21.391579 C46.9834892,20.8931199 47.527722,20.5800448 48.1224675,20.5479256 C49.1454396,20.4753533 49.8847556,21.6002245 49.3295142,22.0598493 C48.7742727,22.519474 48.4875991,22.00542 47.914252,21.6969876 L47.914252,21.6939637 Z M26.8573227,38.4339822 C26.1330947,38.8028916 25.8252978,39.6888788 25.6291527,39.5165195 C25.3479237,38.8167852 25.4139616,38.024937 25.8071921,37.3816833 C26.4710678,36.2658837 28.1669684,36.3051937 28.2574969,37.2274671 C28.3480254,38.1497405 27.5815507,38.0650728 26.8573227,38.4339822 Z M28.9696544,7.9173156 C28.6226285,7.14623455 28.9485311,6.22698498 28.6678927,6.23908037 C27.9870768,6.624181 27.5282424,7.30936791 27.4306699,8.08665105 C27.2465953,9.42319154 28.6377166,10.5057289 29.3196979,9.80419629 C30.0016793,9.10266373 29.3196979,8.68537281 28.9666368,7.9173156 L28.9696544,7.9173156 Z M21.8661847,7.9173156 C22.2162282,7.14623455 21.8903256,6.22698498 22.1679464,6.23908037 C22.8487623,6.624181 23.3075966,7.30936791 23.4051692,8.08665105 C23.5892438,9.42319154 22.1981225,10.5057289 21.5191588,9.80419629 C20.840195,9.10266373 21.5161412,8.68537281 21.8631671,7.9173156 L21.8661847,7.9173156 Z M25.312303,9.23873685 L25.312303,9.23873685 C24.972788,8.43393655 25.0003352,7.5207954 25.3877434,6.73801517 C25.7241689,7.53819923 25.7010862,8.4446917 25.3243734,9.22664147 L25.312303,9.23873685 Z M30.7741892,7.05854298 C30.7741892,7.05854298 34.6548442,7.3609277 34.2897126,5.43171315 C33.924581,3.5024986 30.3245643,2.68605983 28.1035984,3.40573548 C27.1088876,3.73888249 26.20215,4.29293805 25.4511133,5.02651762 C24.7294153,4.30220624 23.8269308,3.78528684 22.8378573,3.52971322 C19.7749763,2.7737514 17.0017866,3.93490875 16.5310384,5.87924254 C16.0602902,7.82357634 19.9650862,7.32464154 19.9650862,7.32464154 C19.1624002,6.90130292 20.9639173,4.05586264 23.4413806,5.03256531 C23.9389042,5.21876067 24.3943893,5.50248469 24.7812024,5.86714716 C24.1384501,6.91339831 23.9754988,8.24691495 24.9230304,9.82233938 C23.878935,11.1800468 21.2415381,13.5416715 18.1937452,14.1343456 C14.6239047,14.8328543 14.4187067,12.8038528 14.8743668,11.8392455 C15.330027,10.8746382 16.3831752,10.3031311 17.2643193,10.6720405 C18.1454633,11.0409498 16.6939897,12.6163742 16.6939897,12.6163742 C19.5758136,12.8159482 20.3483235,10.8534713 19.6240955,9.46854925 C18.8998675,8.0836272 15.4326259,8.71561128 13.7125844,11.1649276 C11.9925429,13.6142438 14.4850943,14.5395411 14.4850943,14.5395411 C14.4850943,14.5395411 19.2468934,16.3326825 24.1414677,11.6154808 C24.5538222,11.2224493 24.9361239,10.7989265 25.2851444,10.3484888 C25.6123277,10.7809318 25.9746731,11.1854928 26.3684688,11.5580277 C31.0095633,16.027274 35.8799966,13.9771055 35.8799966,13.9771055 C35.8799966,13.9771055 38.4298827,12.9248067 36.8426163,10.5601581 C35.2553499,8.19550955 31.8182845,7.73890861 31.0155985,9.16616452 C30.2129125,10.5934204 30.8767881,12.5165873 33.7737002,12.165821 C33.7737002,12.165821 32.4006846,10.6538974 33.3089872,10.2517257 C34.2172898,9.849554 35.2462971,10.3545365 35.6385873,11.294953 C36.0308774,12.2353695 35.7140277,14.2794902 32.1743633,13.7654362 C29.1567466,13.3269784 26.6340191,11.0893314 25.6653641,9.78000552 C26.7034243,8.15619953 26.6310015,6.82570674 26.0576543,5.80667021 C26.4565029,5.4314542 26.919562,5.13132954 27.4246346,4.92068296 C29.9503798,3.83512179 31.5889457,6.5928705 30.7711716,7.05854298 L30.7741892,7.05854298 Z M25.2006511,1.54002172 C25.701244,0.547863128 26.73917,-0.0545941517 27.847101,0.00390731068 L27.847101,0.342578204 C26.9244375,0.297461973 26.0486884,0.752406134 25.5537123,1.53397403 C26.5706491,0.971538435 26.6732481,2.28993584 26.6732481,2.28993584 C26.6732481,2.28993584 26.5585787,3.61438094 25.3696377,3.57809478 C24.1806967,3.54180861 23.8427236,2.42298512 24.2561371,1.76378642 C24.347379,1.60368787 24.5008328,1.48871225 24.6798835,1.44629337 C24.8589342,1.40387449 25.0475228,1.43781689 25.2006511,1.54002172 L25.2006511,1.54002172 Z M11.5791294,9.7467432 L11.5791294,9.7467432 L11.5791294,9.7467432 L11.5791294,9.71348088 L11.5791294,9.71348088 L11.5791294,9.71348088 L11.5791294,9.71348088 L11.5791294,9.71348088 L11.5791294,9.71348088 L11.5791294,9.67719471 L11.5791294,9.67719471 L11.5791294,9.7467432 Z M11.6998341,9.17221222 C11.6448709,9.33665897 11.6044797,9.50564037 11.5791294,9.67719471 C11.6082097,9.49277819 11.6546881,9.31154297 11.7179398,9.13592605 L11.6998341,9.17221222 Z M25.5537123,45.9180042 C24.8143962,44.7084653 25.2066864,43.704548 25.3998138,43.0423254 C25.42999,42.9425385 25.4782719,42.7852984 25.5537123,42.5917722 C25.6291527,42.7852984 25.6774346,42.9425385 25.7076107,43.0423254 C25.8916854,43.704548 26.2839755,44.7054414 25.5537123,45.9180042 Z M40.3400341,36.7829616 C40.3400341,36.7829616 39.2717978,36.4805769 39.1691988,35.6611142 C39.0665998,34.8416516 40.0322372,33.2420364 41.7190849,34.3245738 C43.4059326,35.4071111 41.3569709,38.1043828 39.2597273,38.4067676 C37.1624837,38.7091523 34.6065624,38.4067676 32.1472048,38.2555752 C30.2581767,38.1497405 27.2284896,38.6486753 25.5446594,41.3066371 C23.8578117,38.6486753 20.8341598,38.1497405 18.9421141,38.2555752 C16.5008622,38.4067676 13.9268352,38.7091523 11.8295916,38.4067676 C9.73234801,38.1043828 7.67735104,35.4071111 9.36118115,34.3215499 C11.0450113,33.2359887 12.0136662,34.8446755 11.9110673,35.6580904 C11.8084683,36.4715053 10.740232,36.7799377 10.740232,36.7799377 C10.740232,36.7799377 13.9479585,38.1618359 13.9479585,35.3315149 C13.9479585,32.5011939 9.50904437,31.3218934 8.21448681,33.3750857 C6.91992925,35.428278 8.81801015,37.5086849 9.42153349,38.0318105 C10.0250568,38.5549361 11.3105615,39.8703096 17.7139441,38.9873462 C22.4425495,38.3372191 24.4190884,40.4297214 25.2217745,41.8841919 C24.8550855,42.6334075 24.6028134,43.433579 24.4734055,44.257912 C24.3302857,45.105301 24.4815345,45.9762436 24.9019071,46.7253714 C23.4836273,48.1405319 21.7243567,48.1919373 19.9228396,46.9612315 C18.0730405,45.6972633 19.2287877,43.0846593 19.2287877,43.0846593 C19.2287877,43.0846593 18.7188105,42.4798898 17.1466322,43.5200933 C15.5744539,44.5602967 16.1689244,47.1759246 16.1689244,47.1759246 C16.9022053,51.2188084 22.9827029,50.5021566 25.5446594,47.6355494 C28.106616,50.5021566 34.1871136,51.2248561 34.908324,47.1759246 C34.908324,47.1759246 35.5118474,44.5602967 33.9366515,43.5170694 C32.3614555,42.4738421 31.8544959,43.0816354 31.8544959,43.0816354 C31.8544959,43.0816354 33.0102431,45.6942395 31.1604441,46.9582076 C29.3498741,48.1889135 27.5996564,48.1375081 26.1843942,46.7223475 C26.6025686,45.9724397 26.7526777,45.1019292 26.6098781,44.2548882 C26.482974,43.429967 26.2305846,42.6294237 25.8615092,41.8811681 C26.6641952,40.4266975 28.6407342,38.3341952 33.3693395,38.9843224 C39.7727221,39.8672858 41.0612445,38.5519122 41.6617502,38.0287867 C42.2622559,37.5056611 44.1603368,35.4252542 42.8687969,33.3720619 C41.5772569,31.3188696 37.1353251,32.4951462 37.1353251,35.328491 C37.1353251,38.1618359 40.3400341,36.7829616 40.3400341,36.7829616 Z M24.407018,34.4334323 C26.1964647,34.8325801 25.6774346,32.5525993 24.7630967,30.6082655 C23.9211817,28.8181479 23.3236936,28.2799031 23.2542884,28.3706185 C23.1848832,28.4613339 23.5560501,29.6980874 23.399134,31.6152066 C23.3025702,32.6040047 23.4413806,34.2187391 24.407018,34.4334323 Z M13.3504704,47.9288626 C14.3311958,48.0528403 15.0554238,46.8100391 14.9407544,45.1136608 C14.8321202,43.5473079 14.5092352,42.9969677 14.4066363,43.0453493 C14.3040373,43.0937308 14.2165264,44.1248627 13.4379813,45.5430471 C13.0366383,46.2687704 11.9744372,47.7565033 13.3504704,47.9288626 Z M37.2922412,47.9288626 C36.3145334,48.0528403 35.5903054,46.8100391 35.7049748,45.1136608 C35.813609,43.5473079 36.136494,42.9969677 36.239093,43.0453493 C36.341692,43.0937308 36.4292028,44.1248627 37.2077479,45.5430471 C37.624179,46.2687704 38.6773273,47.7565033 37.2922412,47.9288626 Z M8.25975106,23.8408953 C8.95682052,24.2642339 9.86210552,23.3903421 10.2845719,21.8391084 C10.6708268,20.4118525 10.5863335,19.8131307 10.5048579,19.8252261 C10.4233822,19.8373215 10.0401449,20.7323803 9.03527855,21.7423453 C8.5192661,22.262447 7.27902564,23.2451974 8.25975106,23.8408953 Z M2.49308557,35.9876898 C1.48218398,34.5997439 2.11286587,32.5314323 3.96568252,31.3793465 C5.67667118,30.3179761 6.53970955,30.3754292 6.57893857,30.5659316 C6.61816759,30.756434 5.63744216,31.6998743 4.88002037,33.9889267 C4.4877302,35.1652033 3.92041827,37.9441189 2.49308557,35.9876898 Z M48.0289214,36.0753813 C49.039823,34.6844116 48.4091411,32.6191239 46.5533068,31.4640142 C44.8453358,30.4026439 43.9822974,30.460097 43.9430684,30.6536232 C43.9038394,30.8471494 44.8845648,31.7875659 45.6450042,34.0766183 C46.0342768,35.2528949 46.6015887,38.0287867 48.0289214,36.0723575 L48.0289214,36.0753813 Z M32.192469,37.4179695 L36.0308774,37.4179695 L36.0308774,36.2507645 C34.4617168,36.0844529 33.5292732,35.7488058 32.593812,33.8316867 C31.5949809,31.8601382 30.8254887,29.9581383 30.2913705,28.954221 C29.1567466,26.7800748 27.7897663,25.9092068 25.9852315,25.4767967 L25.9852315,25.4042243 C26.5223673,25.1381258 27.9557352,24.1674708 29.2231342,21.6304629 C30.6927135,18.6882596 31.4591882,18.0865139 32.7265872,18.0865139 L33.3301105,18.0865139 C33.9970038,18.0562755 34.7634784,17.6873661 34.7634784,16.876975 C34.7634784,15.9698209 33.9970038,15.1715252 32.7265872,15.2047875 C31.1272503,15.2047875 29.8900275,16.244991 28.8036855,18.7154742 C27.705273,21.3220305 26.9931155,22.7250957 26.0003196,23.6594645 C24.8536252,24.7994549 23.6164024,25.0564819 21.9838718,25.1018396 L21.9838718,20.442091 C21.9838718,17.233789 22.1830345,17.0674774 24.6997268,16.8679035 L24.6997268,15.6976746 L14.7083979,15.6976746 L14.7083979,16.8679035 C17.2130198,17.0674774 17.5117638,17.233789 17.5117638,20.442091 L17.5117638,32.7400778 C17.5117638,35.8818551 17.2100022,36.0511905 14.7083979,36.2507645 L14.7083979,37.4179695 L24.6876563,37.4179695 L24.6876563,36.2507645 C22.2162282,36.0511905 21.9718013,35.8848789 21.9718013,32.676577 L21.9718013,26.3930224 C23.6405433,26.3567362 24.989418,27.0280303 25.9399672,29.7011113 C26.6762657,31.6726597 27.343159,33.3750857 27.8108896,34.3457407 C28.7584212,36.3838137 29.7240586,37.4179695 32.192469,37.4179695 Z M2.47497987,21.6939637 C3.04229181,21.391579 3.75746697,21.5881291 3.73332603,21.391579 C3.40574261,20.8931199 2.86150978,20.5800448 2.26676432,20.5479256 C1.24379226,20.4753533 0.504476177,21.6002245 1.05971765,22.0598493 C1.61495912,22.519474 1.91068555,22.00542 2.47497987,21.6969876 L2.47497987,21.6939637 Z M45.8803783,39.0871332 C46.1459286,38.497483 45.898484,37.7989743 46.1036819,37.8080458 C46.6218809,38.1010383 46.9710782,38.6225511 47.0451783,39.2141348 C47.1870063,40.2331713 46.11877,41.0496101 45.6087928,40.5264845 C45.0988156,40.0033589 45.6118104,39.6767834 45.8803783,39.090157 L45.8803783,39.0871332 Z M4.40021932,38.7393908 C4.13768667,38.1527644 4.38513124,37.4512318 4.17691569,37.4633272 C3.65408627,37.7534914 3.30009059,38.2754783 3.22334881,38.8694162 C3.08152083,39.8884527 4.14975713,40.7048915 4.66275197,40.1787421 C5.17574681,39.6525926 4.66878721,39.3139217 4.40021932,38.7393908 Z M13.4530694,22.9851465 C13.9238176,23.7259891 13.8151834,24.678501 14.0565927,24.6422148 C14.6136247,24.1537216 14.8890161,23.4178285 14.7898736,22.6827618 C14.6872746,21.3250544 13.2146777,20.3755663 12.7529823,21.1254804 C12.291287,21.8753946 12.9853388,22.2352324 13.4530694,22.9851465 Z M27.1952958,13.61122 C26.3292398,13.0790229 25.933932,11.9934617 25.713646,12.165821 C25.713646,12.165821 25.1765102,13.2876683 25.997302,14.6877096 C26.8180937,16.0877509 28.9304254,16.2812771 29.2140813,15.2561929 C29.5611073,14.007344 28.0613518,14.1555125 27.1952958,13.61122 Z M36.9482329,22.9851465 C36.4805023,23.7259891 36.5861189,24.678501 36.3447096,24.6422148 C35.7860228,24.1521326 35.5095608,23.4141352 35.6084111,22.6767141 C35.7110101,21.3190067 37.183607,20.3695186 37.6453024,21.1194328 C38.1069977,21.8693469 37.4189811,22.2352324 36.9482329,22.9851465 L36.9482329,22.9851465 Z M6.86259454,29.1537949 C6.50176329,29.4130597 6.12701628,29.6523027 5.74004113,29.8704467 C6.13132258,29.6590661 6.50742439,29.4206122 6.86561215,29.1568188 L6.86259454,29.1537949 Z M14.4790591,18.7215219 C13.456087,18.2981833 12.7741056,18.996692 12.04686,20.2667078 C12.0800538,20.0550385 12.1132476,19.8463931 12.1404061,19.6437953 C12.2276695,19.087871 12.2850869,18.5276531 12.3124103,17.9655601 C12.3124103,17.8506539 12.3274984,17.7327238 12.3335336,17.6208415 C12.3395688,17.5089591 12.3335336,17.3184567 12.3335336,17.155169 C12.3293551,16.8143609 12.3051724,16.4740943 12.2611108,16.1361325 L12.2611108,16.1361325 C12.2128289,15.6553407 12.1404061,15.0929052 12.0257367,14.4367303 C11.9955605,14.3127526 11.9623667,14.1797033 11.929173,14.0345586 C11.8597678,13.7321739 11.787345,13.3572168 11.7330279,12.9429498 L11.7330279,12.9429498 C11.6162285,12.4184881 11.5405572,11.8856731 11.5067066,11.3493822 L11.5067066,11.3493822 L11.5067066,11.3493822 L11.5067066,11.2677384 L11.5067066,11.2677384 C11.4807585,10.7622951 11.508068,10.2555189 11.5881823,9.75581474 L11.5881823,9.75581474 C11.6269308,9.53080242 11.6803565,9.30857723 11.748116,9.09056834 L11.748116,9.09056834 C12.2309346,7.57864471 13.3625409,6.81361135 14.8079793,7.19159226 C14.762715,5.3772839 12.4693263,5.07489917 11.0812227,6.06067338 C9.69311899,7.04644759 9.94358117,9.96748405 9.94358117,9.96748405 C9.66293282,9.18000764 8.88153916,8.68672569 8.05153551,8.77306438 C7.55362876,10.0763425 8.65505885,11.0439737 8.65505885,11.0439737 C8.46840397,11.0258448 8.28043702,11.0258448 8.09378215,11.0439737 C7.45041016,11.1394834 6.82794545,11.3439916 6.25303597,11.6487431 C5.80471,11.8942687 5.39157664,12.1994184 5.02486597,12.5558973 C4.28508182,13.3177441 3.70352081,14.2191234 3.31387731,15.2078114 C3.30503965,15.2262502 3.29796689,15.2454874 3.292754,15.2652645 L3.27766591,15.3015506 C3.27766591,15.3227176 3.27766591,15.3438845 3.2565426,15.3620276 L3.23541928,15.4164568 C3.23189507,15.4200958 3.22782186,15.4231571 3.22334881,15.4255284 C2.99799346,16.0802174 2.87285309,16.7653228 2.85218196,17.4575537 C2.83291143,18.6240832 3.28193475,19.749504 4.09845765,20.5811879 C4.09845765,20.5811879 5.25420484,22.0114677 7.44801217,21.1375758 L7.68942151,21.0408127 C10.9876765,19.6165807 10.960518,16.0756555 10.1638672,14.7905204 C9.36721639,13.5053853 7.19453237,13.4388607 6.05689088,15.3952899 C4.91924939,17.3517191 6.66041422,18.3344694 6.66041422,18.3344694 C6.52160385,16.7106634 8.5735832,14.8963551 8.9538029,17.1672644 C9.00540579,17.4667901 9.01657047,17.7719102 8.98699668,18.0744186 C8.98806255,18.188028 8.977955,18.3014663 8.95682052,18.4130895 C8.95682052,18.4130895 8.92664435,18.5370672 8.91155627,18.5884726 C8.89646818,18.639878 8.87836248,18.6973311 8.85723917,18.7517603 C8.74925434,19.0470832 8.5875981,19.3198006 8.38045573,19.5561037 C8.11645608,19.8891548 7.78669038,20.1640123 7.41180077,20.3634709 C7.23979662,20.4693056 7.11003911,20.5237348 7.09495102,20.5358302 L7.09495102,20.5358302 C4.91924939,21.4853183 4.13165143,18.6882596 4.07733433,18.4856618 C3.91608672,17.7390482 3.927441,16.9653634 4.11052812,16.223824 C4.18700851,15.7490637 4.34636006,15.2915174 4.58127632,14.8721643 L4.58127632,14.8721643 L4.58127632,14.8721643 L4.58127632,14.8721643 L4.58127632,14.8721643 C4.58127632,14.8721643 4.58127632,14.8721643 4.58127632,14.8570451 C5.52880796,13.1878814 6.66041422,12.5982312 7.53250544,12.4198242 C7.9485863,12.3243954 8.38080597,12.3243954 8.79688683,12.4198242 L8.79688683,12.4198242 L8.9356972,12.4561103 L8.9356972,12.4561103 L8.9356972,12.4561103 C9.98884543,12.7584951 11.0087999,13.6928639 11.4976538,15.5525299 C12.1615294,18.0895378 11.3648786,20.995455 10.8247252,22.6041418 C9.98422025,24.3480541 8.92006427,25.9745223 7.65924534,27.4422974 C6.90251543,28.3319447 5.90952924,28.9883123 4.79552711,29.3352258 C4.66275197,29.3775596 4.53601207,29.410822 4.4153074,29.4440843 C3.93551565,29.6114982 3.41971606,29.647 2.92158714,29.5468951 C2.22753531,29.3745358 1.53046585,28.8000048 1.43993735,27.2185327 C1.29207413,24.678501 3.17204933,23.6201544 4.01094677,23.2875312 C4.1463457,23.2255866 4.28664398,23.1750154 4.43039549,23.1363389 L4.43039549,23.1363389 C5.07918307,22.9730511 5.66460071,23.1635535 5.91808051,24.0434931 C6.04978655,24.446169 6.02829147,24.88342 5.85772818,25.271175 C5.76710294,25.4623716 5.63998161,25.6339288 5.48354371,25.7761575 C4.84682659,26.4776901 4.27649704,26.3083547 3.95059443,26.0785423 C3.81453408,26.0110758 3.70044886,25.9061944 3.62167421,25.7761575 C3.47174386,25.4351586 3.47174386,25.0467146 3.62167421,24.7057156 C3.62167421,24.7057156 1.87145654,25.5402975 2.41462754,27.3576297 C2.76467108,28.5278586 3.8540307,28.5399539 4.73819239,28.1770923 C4.73819239,28.1770923 6.44918105,27.687229 7.02252822,25.0716011 C7.33244669,24.0653458 6.93819388,22.9752082 6.05689088,22.401544 C4.78647426,21.4943898 3.46475815,22.144517 2.49006796,23.0305042 C1.33472569,23.9269657 0.62457286,25.2818003 0.543705193,26.7437887 C0.434025244,27.5612229 0.531577902,28.3931725 0.827361162,29.1628665 C0.910462006,29.3706478 1.02329619,29.5652048 1.16231661,29.7404213 C1.20123887,29.7944819 1.24357192,29.8459924 1.28905652,29.8946375 C1.36449693,29.9762814 2.07363685,30.656647 3.49493431,30.4721923 C4.29670041,30.3131496 5.06658417,30.0219311 5.77323491,29.6103959 C6.14309933,29.3890861 6.50070948,29.1478317 6.84448884,28.8876964 C8.01434475,27.9192814 9.0139471,26.7612326 9.80175319,25.4616774 C9.27367027,26.7226217 8.52228371,28.4069047 7.78598524,29.8734706 C6.62722044,32.180666 4.81966804,36.2416929 5.53786081,39.329041 C6.25605358,42.416389 8.50719563,45.5974764 10.3087128,45.7789072 C12.11023,45.960338 13.0849201,45.0229454 13.0577616,43.0241823 C13.030603,41.0254193 11.748116,40.6051045 10.7553201,40.7048915 C9.76252417,40.8046784 9.69915422,41.8720965 9.69915422,41.8720965 C11.1144164,42.0837658 10.2815542,43.447521 10.2815542,43.447521 C10.2815542,43.447521 9.39437494,44.871753 7.62001633,42.0232889 C5.84565771,39.1748248 6.26208882,35.5159696 6.78715412,33.725852 C7.31221942,31.9357344 9.0986485,28.5278586 10.9424123,24.2460908 C11.2970362,23.4071602 11.5787204,22.539117 11.7843274,21.6516299 C11.9551284,21.2473859 12.1496002,20.8536005 12.3667274,20.4723294 C13.2720124,19.0783359 14.5363938,19.4260783 15.1067233,20.3090417 C15.6770529,21.1920051 15.8007752,23.8257761 15.4748726,26.24183 C15.14897,28.657884 13.3625409,29.568062 12.6986652,28.4492385 C12.0347895,27.330415 14.1259979,25.8124437 14.1259979,25.8124437 C12.2490403,23.9678969 9.92245786,26.0906377 10.5259812,30.1456168 C11.1295045,34.200596 14.8200497,30.5326693 15.4326259,28.5429778 C16.0452021,26.5532863 16.9293638,19.7314869 14.4790591,18.7215219 Z M23.6948604,19.6589145 C23.6514305,21.0323303 23.5315453,22.4022472 23.335764,23.7622753 C23.335764,23.7622753 24.950189,22.7432387 25.7709807,21.3976267 C26.6279838,19.9764185 26.839217,18.5703295 25.7709807,18.2649209 C24.7027444,17.9595124 23.6948604,18.5975441 23.6948604,19.6589145 Z M14.4850943,33.2873941 C15.2998508,33.4567296 16.0361493,32.5344562 16.1055545,31.1948918 C16.1689244,29.9611622 15.9486384,29.5015374 15.8581099,29.5347997 C15.7675814,29.568062 15.5925596,30.3693815 14.7928912,31.4216804 C14.3885306,31.9659729 13.3293471,33.0515341 14.4850943,33.2873941 Z M31.4953996,21.0680274 C31.4953996,21.0680274 31.9269187,19.9219892 32.9076442,19.8342977 C33.6957708,19.7543767 34.4454056,20.1928718 34.7634784,20.9198588 C34.9958349,19.98549 35.3971779,19.2688382 36.0399303,18.9906443 C37.0357438,18.561258 37.6935842,19.293029 38.4027242,20.6084026 C38.3423718,20.2788032 38.29409,19.9582754 38.2488257,19.6437953 C38.1615623,19.087871 38.104145,18.5276531 38.0768216,17.9655601 C38.0768216,17.8506539 38.0768216,17.7327238 38.0556982,17.6208415 C38.0345749,17.5089591 38.0556982,17.3184567 38.0556982,17.155169 C38.0573705,16.8143636 38.0805519,16.4740053 38.1251034,16.1361325 L38.1251034,16.1361325 C38.1733853,15.6553407 38.2458081,15.0929052 38.3604775,14.4367303 C38.3906537,14.3127526 38.4238475,14.1797033 38.4570413,14.0345586 C38.5294641,13.7321739 38.5958516,13.3572168 38.6531863,12.9429498 L38.6531863,12.9429498 C38.7699857,12.4184881 38.845657,11.8856731 38.8795076,11.3493822 C38.8795076,11.3100722 38.8795076,11.2768099 38.8795076,11.2495953 L38.8795076,11.2495953 C38.9054557,10.744152 38.8781462,10.2373758 38.7980319,9.73767165 C38.7739516,9.51202837 38.7243452,9.28986051 38.6501687,9.0754491 L38.6501687,9.0754491 C38.1703677,7.56352547 37.0357438,6.79849211 35.5903054,7.17647302 C35.6385873,5.36216466 37.9289583,5.05977994 39.317062,6.04555414 C40.7051657,7.03132835 40.4547035,9.95236481 40.4547035,9.95236481 C40.7401907,9.17326517 41.5168633,8.68762078 42.3407139,8.77306438 C42.8416383,10.0763425 41.7371906,11.0439737 41.7371906,11.0439737 C41.9238455,11.0258448 42.1118124,11.0258448 42.2984673,11.0439737 C43.4540303,11.2048065 44.5292561,11.7276535 45.3704011,12.5377542 C46.1081352,13.3012359 46.689417,14.2021825 47.0813897,15.1896683 L47.0994954,15.2471214 L47.1145835,15.2834075 C47.1145835,15.3045745 47.1145835,15.3257414 47.1357068,15.3438845 C47.1440453,15.3614948 47.1511047,15.3796851 47.1568302,15.3983137 L47.1568302,15.4255284 C47.3808097,16.0805784 47.5059117,16.7654735 47.527997,17.4575537 C47.5472675,18.6240832 47.0982442,19.749504 46.2817213,20.5811879 C46.2817213,20.5811879 45.1320094,22.00542 42.9412197,21.1315281 L42.6998103,21.034765 C39.4015553,19.6165807 39.4347491,16.0756555 40.2344175,14.7905204 C41.0340859,13.5053853 43.2007347,13.4388607 44.3383762,15.3952899 C45.4760177,17.3517191 43.7348528,18.3344694 43.7348528,18.3344694 C43.8736632,16.7106634 41.8216839,14.8963551 41.4414642,17.1672644 C41.3898613,17.4667901 41.3786966,17.7719102 41.4082704,18.0744186 C41.4099065,18.1870366 41.4210103,18.2993162 41.4414642,18.4100656 C41.4414642,18.4100656 41.4716403,18.5340433 41.4867284,18.5854487 C41.5018165,18.6368542 41.5229398,18.6943072 41.5440631,18.7487365 C41.6510119,19.0438909 41.811649,19.3166152 42.0178289,19.5530799 C42.2818286,19.886131 42.6115943,20.1609884 42.9864839,20.3604471 C43.1584881,20.4662817 43.2882456,20.520711 43.3033337,20.5328064 L43.3033337,20.5328064 C45.4790353,21.4822944 46.2666332,18.6852357 46.3209503,18.4826379 C46.482198,17.7360244 46.4708437,16.9623396 46.2877566,16.2208002 C46.2126468,15.7456933 46.0532128,15.2879104 45.8170084,14.8691405 L45.8170084,14.8691405 C45.8170084,14.8691405 45.8170084,14.8691405 45.8170084,14.8691405 C45.8155833,14.8642019 45.8155833,14.8589598 45.8170084,14.8540212 C44.8664591,13.1848575 43.7348528,12.5952073 42.8627616,12.4168003 C42.4466808,12.3213715 42.0144611,12.3213715 41.5983802,12.4168003 L41.4535346,12.4530865 C40.4003864,12.7554712 39.380432,13.68984 38.8915781,15.5495061 C38.0255221,18.857595 39.6459822,22.7825488 39.9326558,23.6776075 C40.646556,25.1220897 41.5266404,26.4779245 42.5549647,27.7174675 C43.2667688,28.6130926 44.2244459,29.2805411 45.3100488,29.6376105 C45.4327652,29.6799444 45.5534698,29.7162305 45.6721628,29.746469 C46.1273542,29.9080438 46.6184447,29.9394547 47.0904426,29.8371844 C47.7543183,29.6648251 48.4212116,29.0902941 48.5057048,27.5118459 C48.6475943,25.7969536 47.6487234,24.1922632 46.0493648,23.5657252 C45.9275156,23.5102065 45.8013666,23.4646991 45.6721628,23.4296521 C45.0505337,23.2633405 44.4922746,23.4538428 44.2508653,24.3368062 C44.1229351,24.7397476 44.1432752,25.1752802 44.3082,25.5644882 C44.393585,25.7540786 44.5144608,25.9255018 44.6642788,26.0694707 C45.2678021,26.7710033 45.8079555,26.6016678 46.1308405,26.3718555 C46.2573772,26.3009358 46.3618286,26.1962687 46.4326022,26.0694707 C46.5761151,25.7271469 46.5761151,25.3413527 46.4326022,24.9990288 C46.4326022,24.9990288 48.1073794,25.8336106 47.5883494,27.6539667 C47.2533939,28.8211717 46.2123161,28.8332671 45.3673835,28.4704055 C45.3673835,28.4704055 43.7348528,27.9805422 43.1856466,25.3649143 C42.8836066,24.3641945 43.2572985,23.2822755 44.1120549,22.6827618 C45.3191016,21.7756076 46.5865006,22.4227109 47.5189442,23.3086982 C48.6251796,24.2319038 49.290482,25.5806324 49.3506375,27.0219826 C49.457941,27.8382375 49.3657763,28.6683952 49.0820696,29.4410604 C49.0032674,29.6477806 48.8955699,29.84224 48.7622022,30.0186153 C48.7229732,30.0730445 48.6837442,30.1244499 48.6414976,30.1758553 C48.5992509,30.2272607 47.890111,30.9378648 46.5291659,30.7503863 C45.7600671,30.5899781 45.0241496,30.2984808 44.3534643,29.8885898 C44.0081131,29.6635451 43.6756515,29.4192365 43.3576508,29.1568188 C42.4991034,28.4256677 41.7456061,27.5790314 41.1185792,26.6409779 C41.5712217,27.6751336 42.1053398,28.8302433 42.6273875,29.8734706 C43.7861523,32.180666 45.5967223,36.2416929 44.8755119,39.329041 C44.1543016,42.416389 41.9061771,45.5974764 40.1016423,45.7789072 C38.2971076,45.960338 37.3314702,45.0229454 37.3556112,43.0241823 C37.3797521,41.0254193 38.6652568,40.6051045 39.6580527,40.7048915 C40.6508486,40.8046784 40.7112009,41.8720965 40.7112009,41.8720965 C39.2989563,42.0837658 40.1318185,43.447521 40.1318185,43.447521 C40.1318185,43.447521 41.0189978,44.871753 42.7933564,42.0232889 C44.567715,39.1748248 44.1512839,35.5159696 43.6262186,33.725852 C43.1011533,31.9357344 41.3147243,28.5278586 39.4709605,24.2460908 C39.1965163,23.6007463 38.9676207,22.936892 38.7859615,22.2594232 C38.4841998,21.5609145 38.2488257,21.0166219 38.0798392,20.7474995 C37.2258536,19.353506 36.0097541,19.7012484 35.4605479,20.5842118 C34.9113416,21.4671752 34.7996898,24.1009462 35.1105043,26.520024 C35.4213189,28.9391018 37.1413604,29.846256 37.766007,28.7244086 C38.3906537,27.6025613 36.3990267,26.0876138 36.3990267,26.0876138 C38.2095967,24.243067 41.4867284,26.7498364 39.8391097,30.4207869 C37.6302143,35.3405864 35.735151,30.8078394 35.1497334,28.8181479 C34.7524892,27.235186 34.5368428,25.6119629 34.506981,23.9799923 C33.9801636,24.9076695 33.2058713,25.6699484 32.270927,26.1813531 C29.6908648,27.6932767 29.3408212,25.2106981 29.5852482,24.6301194 C29.5852482,24.6301194 30.1042783,22.3259478 31.4622058,22.1324216 C32.8201333,21.9388954 33.342181,23.2421735 33.161124,23.2421735 C32.4135332,23.2353298 31.679931,23.4453632 31.0487923,23.846943 C30.2159301,24.3489016 29.980556,25.253032 30.5840793,25.7307998 C31.1876027,26.2085677 33.161124,25.7549906 34.0633914,23.5959637 C34.9656587,21.4369367 33.2063882,21.0045266 32.2799799,21.2464343 C31.3535716,21.4883421 31.4953996,21.0680274 31.4953996,21.0680274 Z" fill="#6D0978" fill-rule="nonzero"></path>
    </g>
</svg>