<?xml version="1.0" encoding="UTF-8"?>
<svg width="20px" height="20px" viewBox="0 0 20 20" version="1.1" xmlns="http://www.w3.org/2000/svg" xmlns:xlink="http://www.w3.org/1999/xlink">
    <!-- Generator: Sketch 56.3 (81716) - https://sketch.com -->
    <title>Icon/20x20/location</title>
    <desc>Created with Sketch.</desc>
    <g id="Icon/20x20/location" stroke="none" stroke-width="1" fill="none" fill-rule="evenodd">
        <path d="M10,9.16666667 C8.61928813,9.16666667 7.5,8.04737854 7.5,6.66666667 C7.5,5.28595479 8.61928813,4.16666667 10,4.16666667 C11.3807119,4.16666667 12.5,5.28595479 12.5,6.66666667 C12.5,7.32970789 12.2366079,7.96559267 11.767767,8.43443362 C11.298926,8.90327457 10.6630412,9.16666667 10,9.16666667 Z M10,5.83333333 C9.53976271,5.83333333 9.16666667,6.20642938 9.16666667,6.66666667 C9.16666667,7.12690396 9.53976271,7.5 10,7.5 C10.4602373,7.5 10.8333333,7.12690396 10.8333333,6.66666667 C10.8333333,6.20642938 10.4602373,5.83333333 10,5.83333333 Z M7.5,18.3333333 L12.5,18.3333333 C12.9602373,18.3333333 13.3333333,18.7064294 13.3333333,19.1666667 C13.3333333,19.626904 12.9602373,20 12.5,20 L7.5,20 C7.03976271,20 6.66666667,19.626904 6.66666667,19.1666667 C6.66666667,18.7064294 7.03976271,18.3333333 7.5,18.3333333 Z M10,16.6491699 C9.81997929,16.6489201 9.64621597,16.5854397 9.51120049,16.4705985 C9.25939468,16.2563128 3.33455211,11.6928571 3.33455211,6.7 C3.26424843,3.07743815 6.24425982,0.081979082 10,0 C13.7557402,0.081979082 16.7357516,3.07743815 16.6654479,6.7 C16.6654479,11.7 10.7406053,16.2563128 10.4887995,16.4705985 C10.353784,16.5854397 10.1800207,16.6489201 10,16.6491699 Z M10.182109,14.106324 C10.8280616,13.5235056 11.4643081,12.8823225 12.0548231,12.1937552 C13.7072631,10.2669348 14.6654479,8.35947582 14.6658244,6.66119296 C14.7144131,4.15754876 12.6254773,2.05778446 10.043645,1.99952372 C7.37452267,2.05778446 5.28558692,4.15754876 5.33455211,6.7 C5.33455211,8.3562249 6.29290743,10.2634986 7.94551598,12.1915315 C8.53618858,12.8806458 9.17261278,13.5225336 9.8186666,14.1060559 C9.88031631,14.1617385 9.94088163,14.2158281 10.000441,14.2684431 C10.0599667,14.2159149 10.1204957,14.1619153 10.182109,14.106324 Z" id="location" fill="#CECED2" fill-rule="nonzero"></path>
    </g>
</svg>