<?xml version="1.0" encoding="UTF-8"?>
<svg width="16px" height="16px" viewBox="0 0 16 16" version="1.1" xmlns="http://www.w3.org/2000/svg" xmlns:xlink="http://www.w3.org/1999/xlink">
    <!-- Generator: Sketch 57.1 (83088) - https://sketch.com -->
    <title>Icon/16x16/news-notification</title>
    <desc>Created with Sketch.</desc>
    <g id="Icon/16x16/news-notification" stroke="none" stroke-width="1" fill="none" fill-rule="evenodd">
        <path d="M2,11.2740407 C2.08862775,11.2740407 2.17686221,11.2858228 2.26238475,11.3090774 L4.26238475,11.8529006 C4.69780818,11.9712973 5,12.3666308 5,12.817864 L5,14.0267334 C5,15.1165384 4.11653845,16 3.0267334,16 L3,16 C1.8954305,16 1,15.1045695 1,14 L1,12.2740407 C1,11.721756 1.44771525,11.2740407 2,11.2740407 Z M10,0 C10.5522847,-1.01453063e-16 11,0.44771525 11,1 L11,9 C11,9.55228475 10.5522847,10 10,10 L5,10 C2.23857625,10 3.38176876e-16,7.76142375 0,5 C-3.38176876e-16,2.23857625 2.23857625,5.07265313e-16 5,0 L10,0 Z M15.5117188,1.5 C15.7571786,1.5 15.9613271,1.67687516 16.0036631,1.91012437 L16.0117188,2 L16.0117188,8 C16.0117188,8.27614237 15.7878611,8.5 15.5117188,8.5 C15.2662589,8.5 15.0621104,8.32312484 15.0197744,8.08987563 L15.0117188,8 L15.0117188,2 C15.0117188,1.72385763 15.2355764,1.5 15.5117188,1.5 Z M13,3.5 C13.2761424,3.5 13.5,3.72385763 13.5,4 L13.5,4 L13.5,6 C13.5,6.27614237 13.2761424,6.5 13,6.5 C12.7238576,6.5 12.5,6.27614237 12.5,6 L12.5,6 L12.5,4 C12.5,3.72385763 12.7238576,3.5 13,3.5 Z" id="news-notification" fill="#FFFFFF" fill-rule="nonzero"></path>
    </g>
</svg>