<?xml version="1.0" encoding="UTF-8"?>
<svg width="20px" height="20px" viewBox="0 0 20 20" version="1.1" xmlns="http://www.w3.org/2000/svg" xmlns:xlink="http://www.w3.org/1999/xlink">
    <!-- Generator: Sketch 55.2 (78181) - https://sketchapp.com -->
    <title>Icon/20x20/news</title>
    <desc>Created with Sketch.</desc>
    <g id="Icon/20x20/news" stroke="none" stroke-width="1" fill="none" fill-rule="evenodd">
        <path d="M4.9386747,7.29955187 L7.65024353,2.22158621 C8.16297383,1.26139414 9.3570119,0.89637151 10.3172022,1.40628535 C10.632309,1.57362438 10.8957615,1.82345606 11.0793926,2.12906951 L15.9435778,10.2244332 C16.5031366,11.1556955 16.1998544,12.3654207 15.2661779,12.9264301 C14.9597722,13.1105372 14.6092206,13.2081244 14.2520025,13.2087582 L8.45519972,13.2190422 L4.8976234,15.3591887 L6.71492647,18.5259505 C6.98542237,18.9973061 6.82235786,19.5998127 6.3507117,19.8716865 C5.87906553,20.1435603 5.27744052,19.9818484 5.00694462,19.5104927 L2.86350887,15.7754249 C2.43530405,15.6323836 2.05421481,15.3421716 1.80350723,14.9254202 L0.283182091,12.3941709 C-0.274908338,11.4633468 0.0276725279,10.2550774 0.959552143,9.69328219 L4.9386747,7.29955187 Z M5.55686596,9.22336091 L1.97441065,11.3784662 L3.49372415,13.9080315 L7.07662211,11.7526599 L5.55686596,9.22336091 Z M9.2729817,11.2490656 L14.2530071,11.2402306 L9.38882184,3.14486689 L7.04304069,7.53782053 L9.2729817,11.2490656 Z M16.2446678,5.90834294 C15.7871514,6.20304395 15.1767394,6.072015 14.8812744,5.6156816 C14.5858094,5.15934819 14.7171781,4.5505145 15.1746945,4.25581349 L17.6395382,2.66812842 C18.0970546,2.37342741 18.7074666,2.50445636 19.0029316,2.96078977 C19.2983966,3.41712317 19.167028,4.02595686 18.7095116,4.32065787 L16.2446678,5.90834294 Z M14.9594274,3.02268426 C14.7095874,3.50537591 14.1147388,3.69466318 13.6307958,3.4454692 C13.1468529,3.19627523 12.9570749,2.6029647 13.2069149,2.12027306 L14.0286967,0.532587988 C14.2785367,0.0498963406 14.8733853,-0.139390924 15.3573282,0.10980305 C15.8412712,0.358997024 16.0310492,0.952307548 15.7812092,1.4349992 L14.9594274,3.02268426 Z M17.3702983,8.67654634 C16.8256692,8.67654634 16.3841601,8.23617886 16.3841601,7.69295803 C16.3841601,7.14973721 16.8256692,6.70936972 17.3702983,6.70936972 L19.0138619,6.70936972 C19.5584909,6.70936972 20,7.14973721 20,7.69295803 C20,8.23617886 19.5584909,8.67654634 19.0138619,8.67654634 L17.3702983,8.67654634 Z" id="news" fill="#CECED2" fill-rule="nonzero"></path>
    </g>
</svg>