<?xml version="1.0" encoding="UTF-8"?>
<svg width="58px" height="58px" viewBox="0 0 58 58" version="1.1" xmlns="http://www.w3.org/2000/svg" xmlns:xlink="http://www.w3.org/1999/xlink">
    <!-- Generator: Sketch 55.2 (78181) - https://sketchapp.com -->
    <title>Avatar/no-avatar</title>
    <desc>Created with Sketch.</desc>
    <g id="Avatar/no-avatar" stroke="none" stroke-width="1" fill="none" fill-rule="evenodd">
        <g id="no-avatar" fill="#FFFFFF" fill-rule="nonzero">
            <path d="M29,58.25 C45.1543289,58.25 58.25,45.1543289 58.25,29 C58.25,12.8456711 45.1543289,-0.25 29,-0.25 C12.8456711,-0.25 -0.25,12.8456711 -0.25,29 C-0.25,45.1543289 12.8456711,58.25 29,58.25 Z M29,57.75 C13.1218134,57.75 0.25,44.8781866 0.25,29 C0.25,13.1218134 13.1218134,0.25 29,0.25 C44.8781866,0.25 57.75,13.1218134 57.75,29 C57.75,44.8781866 44.8781866,57.75 29,57.75 Z" id="Oval" opacity="0.2"></path>
            <path d="M14.2573733,16 C14.2636265,16.0044231 16.4714697,17.5974375 17.6776543,16.0303608 L18,16.1571008 C16.5560406,18.0331371 14.0073208,16.1925946 14,16.1874616 L14.2573733,16 Z M26.6228641,22.3795876 C31.0715095,21.4581288 37.7064541,24.9255916 37.7064541,24.9255916 C33.9845245,27.4758594 30.3669388,27.8181895 29.1268851,27.8561839 C29.2618324,28.1124746 29.3980868,28.361532 29.5357253,28.6022899 C33.1408544,34.9075291 41.5178871,37.3582045 41.5420315,37.3654379 L43,37.8034773 L41.5013551,38.0764429 C36.9512109,38.9050858 32.9878373,38.9598312 29.5522573,38.4670464 C29.9121935,39.9423552 30.7086514,43.9961801 28.9912459,49.7366812 C28.9337299,49.930917 28.7276566,50.0420829 28.5315025,49.9850533 C28.3353484,49.9280998 28.2230077,49.7241941 28.2806006,49.5298822 C30.0782824,43.5206032 29.0373048,39.4388345 28.7556457,38.3413376 C27.9874075,38.2090045 27.2463126,38.0491844 26.5322072,37.8640856 C26.8173265,39.5922587 27.8121684,46.3844198 26.3750379,49.3406717 C26.2862264,49.5230295 26.0645439,49.5995512 25.8803851,49.5116083 C25.6961494,49.4235893 25.618872,49.2041508 25.7077603,49.0217169 C27.1801078,45.9929788 25.8780014,38.394484 25.7448996,37.6464745 C25.2770056,37.5092683 24.8211069,37.3613263 24.3770498,37.2031052 C18.6077668,35.1474495 14.8380866,31.3879859 12.5858133,27.739612 C11.8769366,26.591329 11.3026995,25.4616244 10.8767122,24.3644321 C10.0192013,22.1559614 9.76814562,20.0861434 10.2277352,18.2608905 C10.660566,16.5413975 11.715615,15.04949 13.4770803,13.8734917 C13.1190664,13.5781406 12.7192996,13.3728644 12.3207631,13.2395414 C11.6108099,13.0020575 10.9133902,12.9907125 10.4591063,13.1022591 C10.2604916,13.1506848 10.059647,13.030382 10.01082,12.8337097 C9.96191602,12.6370374 10.083407,12.438157 10.2820216,12.3898075 C10.8491845,12.2504694 11.704158,12.2593779 12.5556712,12.5443738 L12.5918879,12.5567086 L12.5792005,12.5273943 C12.2283377,11.7104771 12.1582881,10.8710222 12.2596331,10.3043045 C12.2947732,10.1044343 12.4870827,9.97065446 12.6889268,10.0055271 C12.8908479,10.0403235 13.025872,10.2307522 12.9907319,10.4306225 C12.9099174,10.8828241 12.9705091,11.5636011 13.2610109,12.2401142 C13.4483992,12.6765546 13.7312886,13.107589 14.1330546,13.4688782 C14.6987565,13.1468016 15.3285872,12.8520597 16.024469,12.5872412 C21.2896414,10.5826 24.0596354,16.4690635 26.6228641,22.3795876 Z M29,37 C29,37 23.1671144,31.8211139 20.998651,29.9447684 C18.8304834,28.0678745 16.4223204,24.461735 19.3688274,22.5734052 C22.3148166,20.6857805 23.8970849,23.9556582 24.7466463,25.2285654 C25.5966514,26.5014726 29,37 29,37 Z M14.65777,14.2975838 C14.6451798,14.3125192 14.6312924,14.326469 14.6161842,14.339509 C14.5256874,14.4171426 14.40795,14.4432985 14.2993691,14.4204785 C12.6061025,15.5028005 11.6026258,16.8820863 11.2037074,18.4719837 C10.7850262,20.1409552 11.0221797,22.0553369 11.8189482,24.1145235 C12.2232079,25.1591659 12.7736665,26.243914 13.4572759,27.3550454 C15.6196609,30.8696352 19.2390747,34.4913503 24.7782261,36.4717661 C26.0799759,36.9371888 27.488399,37.3120895 29.0089892,37.5741788 C29.1492364,37.5050364 29.3206156,37.5323294 29.4321724,37.6437003 C32.4934972,38.1224663 35.9999808,38.147485 40,37.5424127 C37.426488,36.5425764 31.8265984,33.8963613 29.0108968,28.9547986 C28.0828087,27.326236 27.2346875,25.357723 26.3727551,23.3569891 C23.8809649,17.5732076 21.2681562,11.5089898 16.5040266,13.3289071 C15.8638343,13.5734076 15.2815569,13.8464141 14.7555157,14.1455007 C14.7434596,14.1815883 14.7257571,14.2163111 14.7017212,14.2485321 C14.688368,14.2665 14.6734887,14.2828759 14.65777,14.2975838 L14.65777,14.2975838 Z" id="Fill-4" transform="translate(26.500000, 30.000000) scale(-1, 1) translate(-26.500000, -30.000000) "></path>
        </g>
    </g>
</svg>