<?xml version="1.0" encoding="UTF-8"?>
<svg width="20px" height="20px" viewBox="0 0 20 20" version="1.1" xmlns="http://www.w3.org/2000/svg" xmlns:xlink="http://www.w3.org/1999/xlink">
    <!-- Generator: Sketch 55.2 (78181) - https://sketchapp.com -->
    <title>Icon/20x20/notifications</title>
    <desc>Created with Sketch.</desc>
    <g id="Icon/20x20/notifications" stroke="none" stroke-width="1" fill="none" fill-rule="evenodd">
        <path d="M12.8551952,3.45343857 C12.9573527,3.22800571 13.0299729,3.05278612 13.0925299,2.86957462 C13.6711563,1.17494368 12.7415786,-0.0198567708 10.3846154,-0.0198567708 C8.02765219,-0.0198567708 7.09807447,1.17494368 7.6767009,2.86957462 C7.73925789,3.05278612 7.81187807,3.22800571 7.91403555,3.45343857 C7.96388815,3.56344925 8.00384741,3.6528214 8.03546022,3.72257085 C5.12564252,4.49937192 3.99242788,5.50246673 3.99242788,8.06347656 L3.99242788,12.1574961 C3.99242788,12.6461287 3.79889353,13.1148705 3.45416572,13.4611717 L2.9185747,13.9992071 C2.54375925,14.3757332 2.33333333,14.8853866 2.33333333,15.4166667 C2.33333333,16.1990701 2.9675966,16.8333333 3.75,16.8333333 L17.0192308,16.8333333 C17.8016342,16.8333333 18.4358974,16.1990701 18.4358974,15.4166667 C18.4358974,14.8853866 18.2254715,14.3757332 17.8506561,13.9992071 L17.315065,13.4611717 C16.9703372,13.1148705 16.7768029,12.6461287 16.7768029,12.1574961 L16.7768029,8.06347656 C16.7768029,5.50247276 15.6435867,4.49938369 12.7337693,3.7225736 C12.7653823,3.65282375 12.805342,3.5634507 12.8551952,3.45343857 Z M4.90970528,14.8333333 C5.60367601,14.1162205 5.99242788,13.1568355 5.99242788,12.1574961 L5.99242788,8.06347656 C5.99242788,6.51323403 6.61491729,6.08469205 9.36362064,5.45484005 C9.7975369,5.35541025 10.0756513,4.93125337 9.99384672,4.49367181 L9.68210836,2.82614967 C9.60957896,2.43816676 9.86530189,2.06484595 10.2532843,1.99231379 C10.2965926,1.98421743 10.3405568,1.98014323 10.3846154,1.98014323 C10.7793191,1.98014323 11.0992896,2.30011379 11.0992896,2.69481749 C11.0992896,2.73887609 11.0952154,2.78284031 11.0871224,2.82614923 L10.7753836,4.49367178 C10.6935792,4.9312521 10.9716919,5.35540811 11.4056065,5.45483923 C14.1543055,6.08470089 14.7768029,6.51324548 14.7768029,8.06347656 L14.7768029,12.1574961 C14.7768029,13.1568355 15.1655547,14.1162204 15.8595254,14.8333333 L4.90970528,14.8333333 Z M7.5,18.3333333 L12.5,18.3333333 C12.9602373,18.3333333 13.3333333,18.7064294 13.3333333,19.1666667 C13.3333333,19.626904 12.9602373,20 12.5,20 L7.5,20 C7.03976271,20 6.66666667,19.626904 6.66666667,19.1666667 C6.66666667,18.7064294 7.03976271,18.3333333 7.5,18.3333333 Z" id="notifications" fill="#FFFFFF" fill-rule="nonzero"></path>
    </g>
</svg>