<?xml version="1.0" encoding="UTF-8"?>
<svg width="16px" height="16px" viewBox="0 0 16 16" version="1.1" xmlns="http://www.w3.org/2000/svg" xmlns:xlink="http://www.w3.org/1999/xlink">
    <!-- Generator: Sketch 58 (84663) - https://sketch.com -->
    <title>Icon/16x16/other</title>
    <desc>Created with Sketch.</desc>
    <g id="Icon/16x16/other" stroke="none" stroke-width="1" fill="none" fill-rule="evenodd">
        <path d="M9.5,15 C9.77614237,15 10,15.2238576 10,15.5 C10,15.7761424 9.77614237,16 9.5,16 L6.5,16 C6.22385763,16 6,15.7761424 6,15.5 C6,15.2238576 6.22385763,15 6.5,15 L9.5,15 Z M7.96770253,3.99097254 C10.4527389,3.99097254 12.6279562,5.32857533 12.7575056,7.27592454 L12.7636047,7.46025268 L12.7636047,9.28489102 C12.7636047,9.62659454 12.8740279,9.95612709 13.073736,10.2185828 L13.16473,10.326797 L13.5638647,10.7567984 C13.8431858,11.0577206 14,11.4650388 14,11.8896414 C14,12.4732565 13.5882541,12.9537367 13.0593012,13.0152069 L12.9442675,13.0218506 L3.05573248,13.0218506 C2.47266753,13.0218506 2,12.5149432 2,11.8896414 C2,11.5181142 2.12006088,11.1598202 2.3371994,10.8744575 L2.43613528,10.7567984 L2.83526999,10.326797 C3.06005668,10.0846266 3.19857823,9.76753572 3.22969633,9.43043015 L3.2363953,9.28489102 L3.2363953,7.46025268 C3.2363953,5.41347693 5.40500875,3.99097254 7.96770253,3.99097254 Z M8,-1.42108547e-14 C8.55228475,-1.42108547e-14 9,0.44771525 9,1 C9,1.55228475 8.55228475,2 8,2 C7.44771525,2 7,1.55228475 7,1 C7,0.44771525 7.44771525,-1.42108547e-14 8,-1.42108547e-14 Z" id="other" fill="#FFFFFF" fill-rule="nonzero"></path>
    </g>
</svg>