<?xml version="1.0" encoding="UTF-8"?>
<svg width="16px" height="16px" viewBox="0 0 16 16" version="1.1" xmlns="http://www.w3.org/2000/svg" xmlns:xlink="http://www.w3.org/1999/xlink">
    <!-- Generator: Sketch 55.2 (78181) - https://sketchapp.com -->
    <title>Icons/16x16/phone</title>
    <desc>Created with Sketch.</desc>
    <g id="Icons/16x16/phone" stroke="none" stroke-width="1" fill="none" fill-rule="evenodd">
        <path d="M14.004095,11.7457578 C14.0003829,11.760521 13.9686205,11.7295937 13.8599484,11.6447604 C13.7706879,11.5750805 13.300688,11.2440111 13.1731574,11.1481544 C12.8820464,10.9295166 12.7369194,10.8220998 12.5547694,10.6926495 C12.4056351,10.5866629 12.2671901,10.4921635 12.1369824,10.4080068 C11.7540612,10.1605143 11.4581302,10.0199478 11.3807715,10.0129559 C11.2846223,10.0043574 11.1237776,10.1128185 10.7872859,10.5002055 C10.7266924,10.5703867 10.7266924,10.5703867 10.664069,10.6438076 C10.4611203,10.8821041 10.3805096,10.9724357 10.2634503,11.0797318 C9.46007678,11.8154 8.84709778,11.4666414 7.65794488,10.4391565 C7.54552575,10.342021 7.42977228,10.2383292 7.31037216,10.1281873 C6.98006622,9.82349294 6.24461229,9.09400663 6.31891725,9.16412448 C6.33346507,9.17786609 5.80673694,8.7155671 5.58388774,8.5035874 C5.45024115,8.37645943 5.32843222,8.2541504 5.21779084,8.13457699 C4.4516906,7.30662981 4.12063521,6.6582792 4.79001981,5.8905991 C4.89424576,5.77109987 4.9825798,5.68825817 5.21473597,5.48047211 C5.72548705,5.02296987 5.85213053,4.84588774 5.84011698,4.70476087 C5.82030352,4.47426836 5.43429673,3.83244997 4.72410206,2.83908676 C4.63048763,2.70819791 4.30742876,2.22613875 4.23915081,2.13419837 C4.14045285,2.00129564 4.12056443,1.98493654 4.17707932,1.99566563 C4.1947157,1.99901381 4.08314705,2.03462762 3.81542951,2.21160936 C3.15132777,2.65039638 2.30420395,3.65150668 2.09358308,4.26848772 C1.86550213,4.93625709 2.03899891,5.55475185 2.69946864,6.66269284 C3.59515948,8.16479402 4.53720528,9.35457341 5.65392929,10.4123273 C6.67882494,11.3830539 7.86853149,12.264112 9.50743551,13.2909683 C10.5752015,13.9598975 11.1621566,14.1328823 11.7892305,13.9078885 C12.3821851,13.6951634 13.3570763,12.828285 13.7853786,12.1466955 C13.9455371,11.89214 13.9938169,11.761943 14.0017809,11.7349681 L14.004095,11.7457578 Z M5.84481079,0.941782331 C5.94863192,1.08158373 6.2853451,1.58401748 6.35095744,1.67575468 C7.36505924,3.09419871 7.76641149,3.76153218 7.83283881,4.53429378 C7.91360737,5.48307967 7.5702728,6.02799094 6.7210094,6.81389649 C6.79207551,6.88895629 6.87271461,6.96924089 6.96231934,7.05447514 C7.14354596,7.2268624 7.64955146,7.67124196 7.69001449,7.70810964 C7.67320198,7.69356726 8.37517642,8.38944677 8.66644341,8.65812921 C8.77063749,8.75424418 8.87042222,8.84363117 8.96554121,8.92581853 C9.08004178,9.0247525 9.18603429,9.11161169 9.28092627,9.18456728 C10.0065222,8.35017998 10.6209548,7.93702475 11.5598547,8.02098997 C12.0611402,8.06629447 12.5787594,8.31216237 13.2226187,8.72830628 C13.3794607,8.82967751 13.5416805,8.94040498 13.7133492,9.06240637 C13.9142124,9.20515565 14.0694841,9.32008122 14.3745296,9.5491845 C14.4631449,9.61579101 14.9536195,9.96128278 15.0906344,10.0682414 C16.1262899,10.8767104 16.3093559,11.8907196 15.478494,13.2112895 C14.8277986,14.2467899 13.5160671,15.4131885 12.464631,15.7903959 C11.1009197,16.2796949 9.98682252,15.9513531 8.44559421,14.9858114 C6.70324331,13.8941403 5.41203417,12.9379127 4.2785917,11.8643764 C3.02589088,10.6778261 1.96956927,9.34371934 0.981615426,7.68689025 C0.0472195483,6.1194369 -0.268112984,4.9953151 0.200884222,3.62219753 C0.565682144,2.55357874 1.70156096,1.21120325 2.71259722,0.543148707 C4.02376399,-0.323587055 5.04977632,-0.128779444 5.84481079,0.941782331 Z" id="phone" fill="#CECED2" fill-rule="nonzero"></path>
    </g>
</svg>