<svg width="20" height="20" viewBox="0 0 20 20" fill="none" xmlns="http://www.w3.org/2000/svg">
<path fill-rule="evenodd" clip-rule="evenodd" d="M4.17838 5.82278C4.17838 2.60695 6.78533 0 10.0012 0C13.217 0 15.824 2.60695 15.824 5.82278H16.0771C17.1957 5.82278 18.1024 6.72955 18.1024 7.8481V17.9747C18.1024 19.0932 17.1957 20 16.0771 20H3.92522C2.80667 20 1.8999 19.0932 1.8999 17.9747V7.8481C1.8999 6.72955 2.80667 5.82278 3.92522 5.82278H4.17838ZM10.0012 1.51899C12.3781 1.51899 14.305 3.44586 14.305 5.82278H5.69737C5.69737 3.44586 7.62425 1.51899 10.0012 1.51899ZM3.92522 7.34177C3.64558 7.34177 3.41889 7.56846 3.41889 7.8481V17.9747C3.41889 18.2543 3.64558 18.481 3.92522 18.481H16.0771C16.3568 18.481 16.5834 18.2543 16.5834 17.9747V7.8481C16.5834 7.56846 16.3568 7.34177 16.0771 7.34177H3.92522ZM11.0138 11.8987C11.0138 11.9663 11.0072 12.0324 10.9946 12.0962C10.9372 12.3865 10.7557 12.6322 10.5078 12.7758L10.5072 12.7761V13.5752V14.4303C10.5072 14.71 10.2805 14.9367 10.0009 14.9367C9.72127 14.9367 9.49458 14.71 9.49458 14.4303V13.5752V12.7761V12.7758C9.24584 12.6318 9.06404 12.385 9.00723 12.0936C8.99495 12.0305 8.98851 11.9654 8.98851 11.8987C8.98851 11.3395 9.44189 10.8861 10.0012 10.8861C10.5604 10.8861 11.0138 11.3395 11.0138 11.8987ZM12.5138 11.8987C12.5138 12.4675 12.3246 12.9914 12.0072 13.4116V14.4303C12.0072 15.5384 11.109 16.4367 10.0009 16.4367C8.89284 16.4367 7.99458 15.5384 7.99458 14.4303V13.4109C7.67756 12.9908 7.48851 12.4672 7.48851 11.8987C7.48851 10.511 8.61347 9.38608 10.0012 9.38608C11.3889 9.38608 12.5138 10.511 12.5138 11.8987Z" fill="black"/>
</svg>
