<?xml version="1.0" encoding="UTF-8"?>
<svg width="16px" height="16px" viewBox="0 0 16 16" version="1.1" xmlns="http://www.w3.org/2000/svg" xmlns:xlink="http://www.w3.org/1999/xlink">
    <!-- Generator: Sketch 58 (84663) - https://sketch.com -->
    <title>Icon/16x16/poll</title>
    <desc>Created with Sketch.</desc>
    <g id="Icon/16x16/poll" stroke="none" stroke-width="1" fill="none" fill-rule="evenodd">
        <path d="M8,0 C12.418278,0 16,3.581722 16,8 C16,12.418278 12.418278,16 8,16 C3.581722,16 0,12.418278 0,8 C0,3.581722 3.581722,0 8,0 Z M10.2771444,5.30900083 L7.58357972,8.12674407 L5.64810939,6.47957576 C5.22751845,6.12163483 4.59639368,6.17242269 4.23845275,6.59301363 C3.88051181,7.01360456 3.93129968,7.64472934 4.35189061,8.00267027 L7.00613631,10.2615473 C7.40964694,10.6049521 8.01097098,10.5740087 8.37710126,10.1909992 L11.7228556,6.69099917 C12.1044839,6.29177707 12.0902213,5.65877275 11.6909992,5.27714444 C11.2917771,4.89551614 10.6587727,4.90977874 10.2771444,5.30900083 Z" id="poll" fill="#FFFFFF"></path>
    </g>
</svg>