<?xml version="1.0" encoding="UTF-8"?>
<svg width="20px" height="20px" viewBox="0 0 20 20" version="1.1" xmlns="http://www.w3.org/2000/svg" xmlns:xlink="http://www.w3.org/1999/xlink">
    <!-- Generator: Sketch 55.2 (78181) - https://sketchapp.com -->
    <title>Icon/20x20/profile</title>
    <desc>Created with Sketch.</desc>
    <g id="Icon/20x20/profile" stroke="none" stroke-width="1" fill="none" fill-rule="evenodd">
        <path d="M10,8.33333333 C7.69881354,8.33333333 5.83333333,6.46785312 5.83333333,4.16666667 C5.83333333,1.86548021 7.69881354,7.99360578e-15 10,7.99360578e-15 C12.3011865,7.99360578e-15 14.1666667,1.86548021 14.1666667,4.16666667 C14.1666667,6.46785312 12.3011865,8.33333333 10,8.33333333 Z M10,6.33333333 C11.196617,6.33333333 12.1666667,5.36328362 12.1666667,4.16666667 C12.1666667,2.97004971 11.196617,2 10,2 C8.80338304,2 7.83333333,2.97004971 7.83333333,4.16666667 C7.83333333,5.36328362 8.80338304,6.33333333 10,6.33333333 Z M4.27889787,19.3254346 C4.09916529,19.8476555 3.53011958,20.1252971 3.0078987,19.9455645 C2.48567783,19.765832 2.20803621,19.1967862 2.38776879,18.6745654 L4.01135236,14.123839 C4.89489771,11.5566594 7.31055098,9.83333333 10.0255213,9.83333333 C12.7400333,9.83333333 15.1523032,11.564251 16.0216033,14.1358057 L16.7214014,16.0392748 C17.2519953,17.6088722 16.4097165,19.3114137 14.8401191,19.8420076 C14.5306166,19.9466332 14.2061021,20 13.8793939,20 L11.7183431,20 C11.1660583,20 10.7183431,19.5522847 10.7183431,19 C10.7183431,18.4477153 11.1660583,18 11.7183431,18 L13.8793939,18 C13.9882966,18 14.0964681,17.9822111 14.1996356,17.9473359 C14.7228348,17.7704712 15.0035944,17.2029574 14.8267297,16.6797583 L14.1269316,14.7762891 C13.5323173,13.0173071 11.8822884,11.8333333 10.0255213,11.8333333 C8.1642615,11.8333333 6.50819982,13.0147671 5.90248144,14.7747083 L4.27889787,19.3254346 Z" id="profile" fill="#CECED2" fill-rule="nonzero"></path>
    </g>
</svg>