<?xml version="1.0" encoding="UTF-8"?>
<svg width="16px" height="16px" viewBox="0 0 16 16" version="1.1" xmlns="http://www.w3.org/2000/svg" xmlns:xlink="http://www.w3.org/1999/xlink">
    <!-- Generator: Sketch 58 (84663) - https://sketch.com -->
    <title>Icon/16x16/promotion</title>
    <desc>Created with Sketch.</desc>
    <g id="Icon/16x16/promotion" stroke="none" stroke-width="1" fill="none" fill-rule="evenodd">
        <path d="M15,10 L15,15 C15,15.5522847 14.5522847,16 14,16 L2,16 C1.44771525,16 1,15.5522847 1,15 L1,10 L15,10 Z M15.5,7 C15.7761424,7 16,7.22385763 16,7.5 C16,7.77614237 15.7761424,8 15.5,8 L0.5,8 C0.223857625,8 3.38176876e-17,7.77614237 0,7.5 C-3.38176876e-17,7.22385763 0.223857625,7 0.5,7 L15.5,7 Z M10.4221249,-0.00280761719 C11.7881533,-0.00280761719 12.5356763,0.678453468 12.4986901,1.74454288 C12.4722636,2.50625721 12.0159277,3.40449929 11.441865,3.95036842 C10.745655,4.61238592 9.60178443,4.9481438 8.01533258,4.99695588 L7.99995575,4.99519238 L7.98462324,4.99695588 C6.50393484,4.95139794 5.40878391,4.65587833 4.70330009,4.07843344 L4.55809079,3.95036842 C3.9840281,3.40449929 3.52769219,2.50625721 3.50126574,1.74454288 C3.46427949,0.678453468 4.21180252,-0.00280761719 5.57783091,-0.00280761719 C6.72369236,-0.00280761719 7.52928655,0.543673798 8.00037838,1.58065023 C8.47066926,0.543673798 9.27626346,-0.00280761719 10.4221249,-0.00280761719 Z M10.4221249,0.997192383 C9.29486303,0.997192383 8.65585512,1.84233839 8.52512828,3.72712671 L8.51143618,3.96815412 C9.5886616,3.87923593 10.3346782,3.62325576 10.7527775,3.22569027 C11.1477507,2.85011514 11.4825991,2.19100655 11.4992913,1.70987035 C11.5155899,1.24008241 11.2490755,0.997192383 10.4221249,0.997192383 Z M5.57783091,0.997192383 C4.75088033,0.997192383 4.48436593,1.24008241 4.50066447,1.70987035 C4.51735671,2.19100655 4.85220511,2.85011514 5.24717829,3.22569027 C5.63043601,3.5901253 6.28923532,3.83558933 7.22611156,3.94245886 L7.48851964,3.96815412 L7.47482753,3.72712671 C7.34410069,1.84233839 6.70509278,0.997192383 5.57783091,0.997192383 Z" id="promotion" fill="#FFFFFF"></path>
    </g>
</svg>