<?xml version="1.0" encoding="UTF-8"?>
<svg width="16px" height="16px" viewBox="0 0 16 16" version="1.1" xmlns="http://www.w3.org/2000/svg" xmlns:xlink="http://www.w3.org/1999/xlink">
    <!-- Generator: Sketch 57.1 (83088) - https://sketch.com -->
    <title>Icon/16x16/qr-code</title>
    <desc>Created with Sketch.</desc>
    <g id="Icon/16x16/qr-code" stroke="none" stroke-width="1" fill="none" fill-rule="evenodd">
        <path d="M4.44445016,10.6666697 C4.93536994,10.6666697 5.33333905,11.0646388 5.33333905,11.5555586 L5.33333905,15.1111141 C5.33333905,15.6020339 4.93536994,16.000003 4.44445016,16.000003 L0.888894629,16.000003 C0.397974854,16.000003 5.74528689e-06,15.6020339 5.74528689e-06,15.1111141 L5.74528689e-06,11.5555586 C5.74528689e-06,11.0646388 0.397974854,10.6666697 0.888894629,10.6666697 L4.44445016,10.6666697 Z M15.1111168,10.6666697 C15.6020365,10.6666697 16.0000056,11.0646388 16.0000056,11.5555586 L16.0000056,15.1111141 C16.0000056,15.6020339 15.6020365,16.000003 15.1111168,16.000003 L11.5555612,16.000003 C11.0646415,16.000003 10.6666723,15.6020339 10.6666723,15.1111141 L10.6666723,11.5555586 C10.6666723,11.0646388 11.0646415,10.6666697 11.5555612,10.6666697 L15.1111168,10.6666697 Z M8.0000057,10.6666697 C8.49092547,10.6666697 8.88889458,11.0646388 8.88889458,11.5555586 L8.88889458,11.5555586 L8.88889458,15.1111141 C8.88889458,15.6020339 8.49092547,16.000003 8.0000057,16.000003 C7.50908592,16.000003 7.11111681,15.6020339 7.11111681,15.1111141 L7.11111681,15.1111141 L7.11111681,11.5555586 C7.11111681,11.0646388 7.50908592,10.6666697 8.0000057,10.6666697 Z M3.55556128,12.4444475 L1.77778351,12.4444475 L1.77778351,14.2222252 L3.55556128,14.2222252 L3.55556128,12.4444475 Z M14.2222279,12.4444475 L12.4444501,12.4444475 L12.4444501,14.2222252 L14.2222279,14.2222252 L14.2222279,12.4444475 Z M8.01091228,1.03056542e-06 C8.46406847,0.000702989467 8.83750613,0.340372577 8.89169503,0.778746531 L8.89845262,0.890257319 L8.88889354,8.02936318 C8.88820199,8.48202991 8.54923829,8.85524357 8.11138947,8.90998255 L8.0000057,8.91689408 L4.44445016,8.91689408 C3.95353039,8.91689408 3.55556128,8.51892498 3.55556128,8.0280052 C3.55556128,7.57484849 3.89465922,7.20089234 4.33294983,7.14604202 L4.44445016,7.13911632 L7.11247375,7.13911632 L7.12066646,0.887541367 C7.12141645,0.396622165 7.51999308,-0.000738492769 8.01091228,1.03056542e-06 Z M15.1111168,7.13911632 C15.6020365,7.13911632 16.0000056,7.53708543 16.0000056,8.0280052 C16.0000056,8.48116192 15.6609077,8.85511806 15.2226171,8.90996838 L15.1111168,8.91689408 L11.5555612,8.91689408 C11.0646415,8.91689408 10.6666723,8.51892498 10.6666723,8.0280052 C10.6666723,7.57484849 11.0057703,7.20089234 11.4440609,7.14604202 L11.5555612,7.13911632 L15.1111168,7.13911632 Z M0.885717685,7.11113722 C1.3388715,7.1095146 1.71403946,7.44727134 1.77045881,7.88536274 L1.77778372,7.99683756 L1.78734394,7.99683756 C1.78909017,8.48775419 1.39254862,8.88714576 0.901631996,8.88890359 C0.448478186,8.89052622 0.0733102259,8.55276948 0.0168908733,8.11467808 L0.00956596143,8.00320326 C-0.00174048911,7.51228663 0.394801058,7.11289506 0.885717685,7.11113722 Z M4.44445016,3.10034827e-06 C4.93536994,3.10034827e-06 5.33333905,0.397972209 5.33333905,0.888891984 L5.33333905,4.44444752 C5.33333905,4.93536729 4.93536994,5.3333364 4.44445016,5.3333364 L0.888894629,5.3333364 C0.397974854,5.3333364 5.74528689e-06,4.93536729 5.74528689e-06,4.44444752 L5.74528689e-06,0.888891984 C5.74528689e-06,0.397972209 0.397974854,3.10034827e-06 0.888894629,3.10034827e-06 L4.44445016,3.10034827e-06 Z M15.1111168,3.10034827e-06 C15.6020365,3.10034827e-06 16.0000056,0.397972209 16.0000056,0.888891984 L16.0000056,4.44444752 C16.0000056,4.93536729 15.6020365,5.3333364 15.1111168,5.3333364 L11.5555612,5.3333364 C11.0646415,5.3333364 10.6666723,4.93536729 10.6666723,4.44444752 L10.6666723,0.888891984 C10.6666723,0.397972209 11.0646415,3.10034827e-06 11.5555612,3.10034827e-06 L15.1111168,3.10034827e-06 Z M3.55556128,1.77778087 L1.77778351,1.77778087 L1.77778351,3.55555863 L3.55556128,3.55555863 L3.55556128,1.77778087 Z M14.2222279,1.77778087 L12.4444501,1.77778087 L12.4444501,3.55555863 L14.2222279,3.55555863 L14.2222279,1.77778087 Z" id="qr-code" fill="#FFFFFF" fill-rule="nonzero"></path>
    </g>
</svg>