<?xml version="1.0" encoding="UTF-8"?>
<svg width="20px" height="20px" viewBox="0 0 20 20" version="1.1" xmlns="http://www.w3.org/2000/svg" xmlns:xlink="http://www.w3.org/1999/xlink">
    <!-- Generator: Sketch 55.2 (78181) - https://sketchapp.com -->
    <title>Icon/20x20/qr-code</title>
    <desc>Created with Sketch.</desc>
    <g id="Icon/20x20/qr-code" stroke="none" stroke-width="1" fill="none" fill-rule="evenodd">
        <path d="M6.44445016,9.13911632 L9.11247375,9.13911632 L9.12066646,2.88754137 C9.12141645,2.39662217 9.51999308,1.99926151 10.0109123,2.00000103 C10.5018315,2.00076149 10.8991921,2.39933812 10.8984526,2.89025732 L10.8888935,10.0293632 C10.8881444,10.5197521 10.4903952,10.9168941 10.0000057,10.9168941 L6.44445016,10.9168941 C5.95353039,10.9168941 5.55556128,10.518925 5.55556128,10.0280052 C5.55556128,9.53708543 5.95353039,9.13911632 6.44445016,9.13911632 Z M13.5555612,10.9168941 C13.0646415,10.9168941 12.6666723,10.518925 12.6666723,10.0280052 C12.6666723,9.53708543 13.0646415,9.13911632 13.5555612,9.13911632 L17.1111168,9.13911632 C17.6020365,9.13911632 18.0000056,9.53708543 18.0000056,10.0280052 C18.0000056,10.518925 17.6020365,10.9168941 17.1111168,10.9168941 L13.5555612,10.9168941 Z M2.00000575,10.0032033 C1.99825951,9.51228663 2.39480106,9.11289506 2.88571769,9.11113722 C3.37663431,9.10937939 3.77602588,9.50592093 3.77778372,9.99683756 L3.78734394,9.99683756 C3.78909017,10.4877542 3.39254862,10.8871458 2.901632,10.8889036 C2.41071537,10.8906614 2.0113238,10.4941199 2.00956596,10.0032033 L2.00000575,10.0032033 Z M2.00000575,2.88889198 C2.00000575,2.39797221 2.39797485,2.0000031 2.88889463,2.0000031 L6.44445016,2.0000031 C6.93536994,2.0000031 7.33333905,2.39797221 7.33333905,2.88889198 L7.33333905,6.44444752 C7.33333905,6.93536729 6.93536994,7.3333364 6.44445016,7.3333364 L2.88889463,7.3333364 C2.39797485,7.3333364 2.00000575,6.93536729 2.00000575,6.44444752 L2.00000575,2.88889198 Z M3.77778351,3.77778087 L3.77778351,5.55555863 L5.55556128,5.55555863 L5.55556128,3.77778087 L3.77778351,3.77778087 Z M2.00000575,13.5555586 C2.00000575,13.0646388 2.39797485,12.6666697 2.88889463,12.6666697 L6.44445016,12.6666697 C6.93536994,12.6666697 7.33333905,13.0646388 7.33333905,13.5555586 L7.33333905,17.1111141 C7.33333905,17.6020339 6.93536994,18.000003 6.44445016,18.000003 L2.88889463,18.000003 C2.39797485,18.000003 2.00000575,17.6020339 2.00000575,17.1111141 L2.00000575,13.5555586 Z M3.77778351,14.4444475 L3.77778351,16.2222252 L5.55556128,16.2222252 L5.55556128,14.4444475 L3.77778351,14.4444475 Z M12.6666723,13.5555586 C12.6666723,13.0646388 13.0646415,12.6666697 13.5555612,12.6666697 L17.1111168,12.6666697 C17.6020365,12.6666697 18.0000056,13.0646388 18.0000056,13.5555586 L18.0000056,17.1111141 C18.0000056,17.6020339 17.6020365,18.000003 17.1111168,18.000003 L13.5555612,18.000003 C13.0646415,18.000003 12.6666723,17.6020339 12.6666723,17.1111141 L12.6666723,13.5555586 Z M14.4444501,14.4444475 L14.4444501,16.2222252 L16.2222279,16.2222252 L16.2222279,14.4444475 L14.4444501,14.4444475 Z M12.6666723,2.88889198 C12.6666723,2.39797221 13.0646415,2.0000031 13.5555612,2.0000031 L17.1111168,2.0000031 C17.6020365,2.0000031 18.0000056,2.39797221 18.0000056,2.88889198 L18.0000056,6.44444752 C18.0000056,6.93536729 17.6020365,7.3333364 17.1111168,7.3333364 L13.5555612,7.3333364 C13.0646415,7.3333364 12.6666723,6.93536729 12.6666723,6.44444752 L12.6666723,2.88889198 Z M14.4444501,3.77778087 L14.4444501,5.55555863 L16.2222279,5.55555863 L16.2222279,3.77778087 L14.4444501,3.77778087 Z M9.11111681,13.5555586 C9.11111681,13.0646388 9.50908592,12.6666697 10.0000057,12.6666697 C10.4909255,12.6666697 10.8888946,13.0646388 10.8888946,13.5555586 L10.8888946,17.1111141 C10.8888946,17.6020339 10.4909255,18.000003 10.0000057,18.000003 C9.50908592,18.000003 9.11111681,17.6020339 9.11111681,17.1111141 L9.11111681,13.5555586 Z" id="qr-code" fill="#FFFFFF" fill-rule="nonzero"></path>
    </g>
</svg>