<svg width="20" height="20" viewBox="0 0 20 20" fill="none" xmlns="http://www.w3.org/2000/svg">
<path fill-rule="evenodd" clip-rule="evenodd" d="M2.1499 0C1.59762 0 1.1499 0.447715 1.1499 1C1.1499 1.55228 1.59762 2 2.1499 2H3.36913L3.67976 3.24254C3.69212 3.29198 3.70796 3.33963 3.72696 3.3853L5.32835 11.3922C5.51532 12.3271 6.33615 13 7.28951 13H15.6499C16.6028 13 17.4233 12.3278 17.6108 11.3935L18.8149 5.39354C19.0634 4.15558 18.1167 3 16.854 3H5.65014C5.65008 2.91996 5.64034 2.83863 5.62004 2.75746L5.30941 1.51493C5.08683 0.624595 4.28686 0 3.36913 0H2.1499ZM7.28951 11L6.08951 5H16.854L15.6499 11H7.28951ZM5.1499 17.5C5.1499 18.8807 6.26919 20 7.6499 20C8.31294 20 8.94883 19.7366 9.41767 19.2678C9.88651 18.7989 10.1499 18.163 10.1499 17.5C10.1499 16.1193 9.03061 15 7.6499 15C6.26919 15 5.1499 16.1193 5.1499 17.5ZM6.81657 17.5C6.81657 17.0398 7.18967 16.6667 7.6499 16.6667C8.11014 16.6667 8.48324 17.0398 8.48324 17.5C8.48324 17.9602 8.11014 18.3333 7.6499 18.3333C7.18967 18.3333 6.81657 17.9602 6.81657 17.5ZM14.6499 20C13.2692 20 12.1499 18.8807 12.1499 17.5C12.1499 16.1193 13.2692 15 14.6499 15C16.0306 15 17.1499 16.1193 17.1499 17.5C17.1499 18.163 16.8865 18.7989 16.4177 19.2678C15.9488 19.7366 15.3129 20 14.6499 20ZM14.6499 16.6667C14.1897 16.6667 13.8166 17.0398 13.8166 17.5C13.8166 17.9602 14.1897 18.3333 14.6499 18.3333C15.1101 18.3333 15.4832 17.9602 15.4832 17.5C15.4832 17.0398 15.1101 16.6667 14.6499 16.6667Z" fill="#CECED2"/>
</svg>
