<svg width="16" height="16" viewBox="0 0 16 16" fill="none" xmlns="http://www.w3.org/2000/svg">
<path d="M14.5001 5.98545C14.8335 5.79233 15.0767 5.47479 15.1762 5.10254C15.2757 4.7303 15.2235 4.33377 15.031 4C14.8378 3.66657 14.5203 3.4234 14.1481 3.32386C13.7758 3.22432 13.3793 3.27656 13.0455 3.46909L10.1037 5.16727C10.0483 5.19925 9.98547 5.21606 9.92151 5.21599C9.85756 5.21593 9.79475 5.199 9.73943 5.16691C9.68411 5.13483 9.63823 5.08872 9.60641 5.03323C9.5746 4.97775 9.55799 4.91486 9.55824 4.85091V1.45455C9.55824 1.06878 9.40499 0.698807 9.13221 0.426027C8.85943 0.153247 8.48946 0 8.10369 0C7.71792 0 7.34796 0.153247 7.07518 0.426027C6.8024 0.698807 6.64915 1.06878 6.64915 1.45455V4.85091C6.6494 4.91486 6.63279 4.97775 6.60097 5.03323C6.56916 5.08872 6.52328 5.13483 6.46796 5.16691C6.41263 5.199 6.34983 5.21593 6.28587 5.21599C6.22192 5.21606 6.15908 5.19925 6.10369 5.16727L3.16188 3.46909C2.82977 3.28227 2.43762 3.23322 2.06974 3.3325C1.70186 3.43179 1.38762 3.67146 1.1946 4C1.00207 4.33377 0.949835 4.7303 1.04937 5.10254C1.14891 5.47479 1.39208 5.79233 1.72551 5.98545L4.66733 7.68364C4.72329 7.71535 4.76984 7.76134 4.80223 7.81692C4.83461 7.8725 4.85168 7.93568 4.85168 8C4.85168 8.06433 4.83461 8.1275 4.80223 8.18308C4.76984 8.23866 4.72329 8.28465 4.66733 8.31636L1.72551 10.0145C1.39208 10.2077 1.14891 10.5252 1.04937 10.8975C0.949835 11.2697 1.00207 11.6662 1.1946 12C1.38773 12.3334 1.70527 12.5766 2.07751 12.6761C2.44976 12.7757 2.84629 12.7234 3.18006 12.5309L6.12188 10.8327C6.17726 10.8007 6.2401 10.7839 6.30406 10.784C6.36801 10.7841 6.43082 10.801 6.48614 10.8331C6.54146 10.8652 6.58734 10.9113 6.61916 10.9668C6.65097 11.0222 6.66758 11.0851 6.66733 11.1491V14.5455C6.66733 14.9312 6.82058 15.3012 7.09336 15.574C7.36614 15.8468 7.73611 16 8.12188 16C8.50765 16 8.87761 15.8468 9.15039 15.574C9.42317 15.3012 9.57642 14.9312 9.57642 14.5455V11.1491C9.57617 11.0851 9.59278 11.0222 9.6246 10.9668C9.65641 10.9113 9.70229 10.8652 9.75761 10.8331C9.81293 10.801 9.87574 10.7841 9.9397 10.784C10.0036 10.7839 10.0665 10.8007 10.1219 10.8327L13.0637 12.5309C13.3958 12.7177 13.7879 12.7668 14.1558 12.6675C14.5237 12.5682 14.8379 12.3285 15.031 12C15.2235 11.6662 15.2757 11.2697 15.1762 10.8975C15.0767 10.5252 14.8335 10.2077 14.5001 10.0145L11.5582 8.31636C11.5023 8.28465 11.4557 8.23866 11.4233 8.18308C11.391 8.1275 11.3739 8.06433 11.3739 8C11.3739 7.93568 11.391 7.8725 11.4233 7.81692C11.4557 7.76134 11.5023 7.71535 11.5582 7.68364L14.5001 5.98545Z" fill="#6D0978"/>
</svg>
