<?xml version="1.0" encoding="UTF-8"?>
<svg width="46px" height="46px" viewBox="0 0 46 46" version="1.1" xmlns="http://www.w3.org/2000/svg" xmlns:xlink="http://www.w3.org/1999/xlink">
    <!-- Generator: Sketch 55.2 (78181) - https://sketchapp.com -->
    <title>Icon/46x46/sucess</title>
    <desc>Created with Sketch.</desc>
    <g id="Icon/46x46/sucess" stroke="none" stroke-width="1" fill="none" fill-rule="evenodd">
        <path d="M23,46 C10.2974508,46 0,35.7025492 0,23 C0,10.2974508 10.2974508,0 23,0 C35.7025492,0 46,10.2974508 46,23 C46,35.7025492 35.7025492,46 23,46 Z M28.2474233,18.3414954 L21.8775168,25.6213886 L17.624695,22.2191312 C17.1934331,21.8741216 16.5641407,21.944043 16.2191312,22.375305 C15.8741216,22.8065669 15.944043,23.4358593 16.375305,23.7808688 L21.375305,27.7808688 C21.7931826,28.1151709 22.4001816,28.0612419 22.7525767,27.6585046 L29.7525767,19.6585046 C30.1162587,19.242868 30.0741412,18.6111054 29.6585046,18.2474233 C29.242868,17.8837413 28.6111054,17.9258588 28.2474233,18.3414954 Z" id="success" fill="#2DB055"></path>
    </g>
</svg>