<?xml version="1.0" encoding="UTF-8"?>
<svg width="16px" height="16px" viewBox="0 0 16 16" version="1.1" xmlns="http://www.w3.org/2000/svg" xmlns:xlink="http://www.w3.org/1999/xlink">
    <!-- Generator: Sketch 55.2 (78181) - https://sketchapp.com -->
    <title>Icons/16x16/time</title>
    <desc>Created with Sketch.</desc>
    <g id="Icons/16x16/time" stroke="none" stroke-width="1" fill="none" fill-rule="evenodd">
        <path d="M8,14 C11.3137085,14 14,11.3137085 14,8 C14,4.6862915 11.3137085,2 8,2 C4.6862915,2 2,4.6862915 2,8 C2,11.3137085 4.6862915,14 8,14 Z M8,16 C3.581722,16 0,12.418278 0,8 C0,3.581722 3.581722,0 8,0 C12.418278,0 16,3.581722 16,8 C16,12.418278 12.418278,16 8,16 Z M10.1373997,8.71893122 C10.5280904,9.10928905 10.5283602,9.74245397 10.1380024,10.1331447 C9.74764455,10.5238353 9.11447963,10.5241052 8.72378894,10.1337474 L7.29623341,8.70740806 C7.10851265,8.51984724 7.00303878,8.26536417 7.00303878,8 L7.00303878,5.06410435 C7.00303878,4.5118196 7.45075403,4.06410435 8.00303878,4.06410435 C8.55532353,4.06410435 9.00303878,4.5118196 9.00303878,5.06410435 L9.00303878,7.58553677 L10.1373997,8.71893122 Z" id="time" fill="#CECED2" fill-rule="nonzero"></path>
    </g>
</svg>