<svg width="16" height="16" viewBox="0 0 16 16" fill="none" xmlns="http://www.w3.org/2000/svg">
<path fill-rule="evenodd" clip-rule="evenodd" d="M8 16C3.58172 16 0 12.4183 0 8C0 3.58172 3.58172 0 8 0C12.4183 0 16 3.58172 16 8C16 12.4183 12.4183 16 8 16ZM8 14C11.3137 14 14 11.3137 14 8C14 4.68629 11.3137 2 8 2C4.68629 2 2 4.68629 2 8C2 11.3137 4.68629 14 8 14ZM10.1379 10.1331C10.5283 9.74244 10.528 9.10927 10.1373 8.71891L9.00293 7.58552V5.06409C9.00293 4.5118 8.55521 4.06409 8.00293 4.06409C7.45064 4.06409 7.00293 4.5118 7.00293 5.06409V7.99998C7.00293 8.26535 7.1084 8.51983 7.29612 8.70739L8.72368 10.1337C9.11437 10.5241 9.74754 10.5238 10.1379 10.1331Z" fill="#6D0978"/>
</svg>
