<svg width="20" height="20" viewBox="0 0 20 20" fill="none" xmlns="http://www.w3.org/2000/svg">
<path fill-rule="evenodd" clip-rule="evenodd" d="M4.3823 2.9079C4.04868 3.10097 3.62171 2.98703 3.42865 2.6534C3.23558 2.31978 3.34952 1.89282 3.68314 1.69975C5.59722 0.592072 7.77081 0 10.0213 0C12.2843 0 14.4497 0.598613 16.3435 1.72022C16.6752 1.91664 16.7848 2.34473 16.5884 2.67639C16.392 3.00805 15.9639 3.11768 15.6322 2.92126C13.9527 1.92661 12.0329 1.39587 10.0213 1.39587C8.01809 1.39587 6.08539 1.92232 4.3823 2.9079ZM2.48804 7.88855C2.28219 8.21443 1.85112 8.31173 1.52524 8.10588C1.19935 7.90002 1.10205 7.46896 1.30791 7.14307C3.22005 4.11602 6.42505 2.27265 10.0213 2.27265C13.6522 2.27265 16.8946 4.12677 18.7281 7.15404C18.9278 7.48374 18.8224 7.91289 18.4927 8.11258C18.163 8.31227 17.7339 8.20688 17.5342 7.87718C15.9518 5.26469 13.1606 3.66852 10.0213 3.66852C6.91388 3.66852 4.14938 5.25853 2.48804 7.88855ZM8.64806 19.5965C8.92463 19.328 8.93117 18.8861 8.66267 18.6096C6.88429 16.7777 5.85969 14.4989 5.85969 12.6852C5.85969 10.1313 7.61129 8.21383 10.0205 8.21383C12.3599 8.21383 14.056 9.97965 14.3211 12.5879C14.3601 12.9713 14.7026 13.2506 15.0861 13.2116C15.4696 13.1726 15.7488 12.8301 15.7098 12.4467C15.3761 9.16455 13.1223 6.81796 10.0205 6.81796C6.81077 6.81796 4.46382 9.38715 4.46382 12.6852C4.46382 14.8822 5.64155 17.5016 7.66115 19.5819C7.92964 19.8584 8.3715 19.865 8.64806 19.5965ZM9.19408 12.3568C9.13215 11.9764 9.39036 11.6178 9.77081 11.5558C10.1513 11.4939 10.5099 11.7521 10.5718 12.1326C10.7612 13.296 11.0705 14.1358 11.5632 14.8123C12.0127 15.4281 12.6764 15.9492 13.3681 16.2252C13.8172 16.4046 14.2972 16.4977 14.7907 16.4977C15.133 16.4977 15.4729 16.4516 15.8057 16.361C16.1777 16.2598 16.5612 16.4793 16.6624 16.8513C16.7636 17.2232 16.5441 17.6067 16.1722 17.7079C15.7208 17.8307 15.2577 17.8935 14.7907 17.8935C14.1192 17.8935 13.4634 17.7664 12.8505 17.5215C11.9127 17.1474 11.0385 16.461 10.4353 15.6347C9.7996 14.7617 9.41605 13.7205 9.19408 12.3568ZM4.05604 16.9637C4.39632 16.7826 4.52537 16.3599 4.34429 16.0197C3.8579 15.1057 3.60687 13.9428 3.60687 12.6854C3.60687 8.88189 6.36735 5.93465 10.0201 5.94118C13.7896 5.94791 16.7267 9.16904 16.5986 12.6598C16.563 13.628 15.9214 14.0742 14.9147 14.0901C14.0747 14.1033 13.3545 13.4951 13.2011 12.5669C12.8276 10.3067 11.6084 9.06154 9.76387 9.18695C7.92176 9.31221 6.85406 10.5834 6.82626 12.5072C6.79436 14.7153 8.16807 17.2174 9.89367 18.6177C10.7862 19.3404 11.6374 19.6522 13.2498 19.9855C13.6273 20.0635 13.9966 19.8207 14.0746 19.4432C14.1526 19.0657 13.9098 18.6965 13.5323 18.6185C12.1211 18.3268 11.4481 18.0803 10.7727 17.5334C9.35787 16.3852 8.1968 14.2705 8.22198 12.5273C8.23977 11.2961 8.78002 10.6529 9.85856 10.5796C10.899 10.5089 11.5573 11.1812 11.8239 12.7945C12.0894 14.4015 13.4021 15.51 14.9367 15.4857C16.6063 15.4594 17.9263 14.5415 17.9935 12.711C18.15 8.44725 14.5996 4.55349 10.0226 4.54532C5.57618 4.53737 2.211 8.13022 2.211 12.6854C2.211 14.1584 2.51022 15.5445 3.11204 16.6754C3.29313 17.0157 3.71577 17.1448 4.05604 16.9637Z" fill="black"/>
</svg>
