<?xml version="1.0" encoding="UTF-8"?>
<svg width="16px" height="16px" viewBox="0 0 16 16" version="1.1" xmlns="http://www.w3.org/2000/svg"
     xmlns:xlink="http://www.w3.org/1999/xlink">
    <!-- Generator: sketchtool 58 (101010) - https://sketch.com -->
    <title>D0A85D8C-003B-4FBF-8096-F415FCECAD31</title>
    <desc>Created with sketchtool.</desc>
    <g id="Design" stroke="none" stroke-width="1" fill="none" fill-rule="evenodd">
        <g id="Contacts" transform="translate(-334.000000, -454.000000)" fill="#FFFFFF" fill-rule="nonzero">
            <g id="2" transform="translate(16.000000, 246.000000)">
                <g id="email" transform="translate(0.000000, 194.000000)">
                    <g id="Button/circle" transform="translate(308.000000, 4.000000)">
                        <g id="Icon/30x30/notification">
                            <g id="Icon/16x16/cake-Icon/16x16/web" transform="translate(10.000000, 10.000000)">
                                <path
                                    d="M7.4672342,0 L8.52941147,0 C8.57402834,0.0126765975 8.61945748,0.022296887 8.66538296,0.0287939622 C9.75720422,0.105792897 10.8190478,0.420251457 11.7767305,0.950200752 C14.0162609,2.19793911 15.3887731,4.08234397 15.8718718,6.60661466 C15.9262604,6.89135495 15.9550544,7.18089424 15.9966457,7.4672342 L15.9966457,8.52941147 C15.9870477,8.57420208 15.9742504,8.61899268 15.966252,8.66538296 C15.9230611,8.95812157 15.8958668,9.2636575 15.8366792,9.55799578 C15.1238186,13.1440351 12.0700231,15.7901749 8.41903461,15.985448 C6.77025684,16.0865367 5.13222787,15.6589568 3.74321509,14.7649039 C1.82057762,13.576659 0.502296372,11.6184694 0.124773836,9.390031 C0.0719849055,9.10529071 0.0415912787,8.81575143 -3.33955086e-13,8.5278118 C-3.33955086e-13,8.17481916 -3.33955086e-13,7.82076007 -3.33955086e-13,7.46563453 C0.0131290641,7.4161646 0.0232785044,7.36595158 0.0303936268,7.31526606 C0.131526804,5.97204854 0.583875413,4.67899349 1.34211857,3.56565232 C2.54264993,1.73705724 4.44992537,0.490460626 6.60661466,0.124773836 C6.89135495,0.0719849055 7.17929457,0.0415912787 7.4672342,0 Z M7.98712518,13.2436229 C8.89413499,12.403799 9.91792031,10.1418734 9.91792031,9.00291218 L6.07872535,9.00291218 C6.2778912,10.5751186 6.94247157,12.051902 7.98712518,13.2436229 Z M9.93071763,6.99053416 C9.72604353,5.41384797 9.05287313,3.93487921 7.99832283,2.7450244 C6.99373348,3.810401 6.17310556,5.62442062 6.07872535,6.99053416 L9.93071763,6.99053416 Z M2.09236125,6.99053416 C2.73222708,6.99053416 3.34489861,6.99053416 3.9639688,6.99053416 C4.01228622,6.97106313 4.04809644,6.92928454 4.05994867,6.87855764 C4.18638653,5.74961951 4.51131474,4.65190372 5.01974741,3.63603756 C5.21010749,3.25211806 5.43246087,2.88259555 5.65001525,2.48587874 C4.91605006,2.79380725 4.25335751,3.24957854 3.70322347,3.82479798 C2.85582284,4.69435159 2.2933776,5.80138668 2.09076159,6.99853248 L2.09236125,6.99053416 Z M10.3370324,2.49867605 C11.2298867,3.84411042 11.7831821,5.38598233 11.9494943,6.99213382 L13.8962861,6.99213382 C13.5731538,4.85178263 11.9638913,3.10494892 10.3370324,2.49867605 Z M10.3482301,13.4899713 C11.8215211,13.1876347 13.8003062,10.6761613 13.8898874,8.99651352 C13.2708172,8.99651352 12.6517471,8.99651352 12.0326769,8.99651352 C11.9831506,9.0169147 11.9471218,9.06074969 11.936697,9.11328903 C11.7843243,10.4683521 11.3529532,11.7771711 10.6697627,12.957283 C10.5673841,13.1316464 10.4586069,13.3060099 10.3482301,13.4883716 L10.3482301,13.4899713 Z M2.09236125,9.0109105 C2.25757445,9.99813094 2.66973135,10.9275475 3.29051001,11.712744 C3.90502857,12.5000554 4.71450689,13.1132297 5.6388176,13.491571 C4.75746448,12.1438273 4.20916681,10.6058524 4.03915303,9.00451184 L2.09236125,9.00451184 L2.09236125,9.0109105 Z"
                                    id="Shape"></path>
                            </g>
                        </g>
                    </g>
                </g>
            </g>
        </g>
    </g>
</svg>
