<svg id="Layer_1" data-name="Layer 1" xmlns="http://www.w3.org/2000/svg" viewBox="0 0 743.19 768.01"><defs><style>.cls-1{opacity:0.3;}.cls-2{fill:#fff;}</style></defs><title>onboarding4</title><g class="cls-1"><path class="cls-2" d="M3761.82,5525l-0.08,11.21a5.25,5.25,0,1,1-10.51-.07l0.08-11.21A5.25,5.25,0,0,1,3761.82,5525Z" transform="translate(-3406.2 -4773.4)"/><path class="cls-2" d="M3762.12,5481.55l-0.09,12.61a5.25,5.25,0,0,1-10.51-.07l0.09-12.61A5.25,5.25,0,1,1,3762.12,5481.55Z" transform="translate(-3406.2 -4773.4)"/><path class="cls-2" d="M3789.6,5509.41a5.25,5.25,0,0,1-5.29,5.22l-11.21-.08a5.25,5.25,0,0,1,.07-10.51l11.21,0.08A5.25,5.25,0,0,1,3789.6,5509.41Z" transform="translate(-3406.2 -4773.4)"/><path class="cls-2" d="M3747.57,5509.12a5.25,5.25,0,0,1-5.29,5.22l-12.61-.09a5.25,5.25,0,0,1,.07-10.51l12.61,0.09A5.25,5.25,0,0,1,3747.57,5509.12Z" transform="translate(-3406.2 -4773.4)"/><path class="cls-2" d="M4082.41,5103l-0.33,11.2a5.25,5.25,0,1,1-10.5-.31l0.33-11.2A5.25,5.25,0,0,1,4082.41,5103Z" transform="translate(-3406.2 -4773.4)"/><path class="cls-2" d="M4083.68,5059.61l-0.37,12.6a5.25,5.25,0,1,1-10.5-.31l0.37-12.6A5.25,5.25,0,0,1,4083.68,5059.61Z" transform="translate(-3406.2 -4773.4)"/><path class="cls-2" d="M4110.53,5088.09a5.25,5.25,0,0,1-5.41,5.1l-11.2-.33a5.25,5.25,0,1,1,.31-10.5l11.2,0.33A5.25,5.25,0,0,1,4110.53,5088.09Z" transform="translate(-3406.2 -4773.4)"/><path class="cls-2" d="M4068.51,5086.85a5.25,5.25,0,0,1-5.41,5.1l-12.6-.37a5.25,5.25,0,1,1,.31-10.5l12.6,0.37A5.25,5.25,0,0,1,4068.51,5086.85Z" transform="translate(-3406.2 -4773.4)"/><path class="cls-2" d="M3515.21,4892.75L3515,4904a5.25,5.25,0,0,1-10.51-.15l0.17-11.21A5.25,5.25,0,1,1,3515.21,4892.75Z" transform="translate(-3406.2 -4773.4)"/><path class="cls-2" d="M3515.85,4849.32l-0.19,12.61a5.25,5.25,0,0,1-10.51-.15l0.19-12.61A5.25,5.25,0,1,1,3515.85,4849.32Z" transform="translate(-3406.2 -4773.4)"/><path class="cls-2" d="M3543.11,4877.4a5.25,5.25,0,0,1-5.33,5.18l-11.21-.17a5.25,5.25,0,1,1,.15-10.51l11.21,0.17A5.25,5.25,0,0,1,3543.11,4877.4Z" transform="translate(-3406.2 -4773.4)"/><path class="cls-2" d="M3501.08,4876.78a5.25,5.25,0,0,1-5.33,5.18l-12.61-.19a5.25,5.25,0,0,1,.15-10.51l12.61,0.19A5.25,5.25,0,0,1,3501.08,4876.78Z" transform="translate(-3406.2 -4773.4)"/><path class="cls-2" d="M3897.1,5517.92a17,17,0,1,1-6.32-23.24A17,17,0,0,1,3897.1,5517.92Zm-20.44-11.7a6.52,6.52,0,1,0,8.9-2.42A6.53,6.53,0,0,0,3876.66,5506.22Z" transform="translate(-3406.2 -4773.4)"/><path class="cls-2" d="M3642.44,4953.47a17,17,0,1,1-6.32-23.24A17,17,0,0,1,3642.44,4953.47Zm-20.44-11.7a6.52,6.52,0,1,0,8.9-2.42A6.53,6.53,0,0,0,3622,4941.77Z" transform="translate(-3406.2 -4773.4)"/></g><g class="cls-1"><path class="cls-2" d="M3687.75,4884.43a5.23,5.23,0,0,1-2.41,2.18,323.15,323.15,0,0,0-33.23,17.29,5.25,5.25,0,1,1-5.38-9A333.82,333.82,0,0,1,3681,4877,5.25,5.25,0,0,1,3687.75,4884.43Z" transform="translate(-3406.2 -4773.4)"/><path class="cls-2" d="M3502.52,5111.93a5.25,5.25,0,0,1-9.69-3.75A334.41,334.41,0,0,1,3575.6,4952a5.25,5.25,0,1,1,7.65,7.21,323.91,323.91,0,0,0-80.16,151.28A5.26,5.26,0,0,1,3502.52,5111.93Z" transform="translate(-3406.2 -4773.4)"/><path class="cls-2" d="M3504,5259.28a5.25,5.25,0,0,1-9.67-1.38c-1.68-7-3.15-14-4.38-21.08a5.25,5.25,0,1,1,10.35-1.8c1.19,6.81,2.61,13.68,4.24,20.41A5.24,5.24,0,0,1,3504,5259.28Z" transform="translate(-3406.2 -4773.4)"/><path class="cls-2" d="M3498.72,5193.39l-0.16-7,7-.16a3.82,3.82,0,0,0-.17-7.64l-7,.16-0.16-7a3.82,3.82,0,0,0-7.64.17l0.16,7-7,.16a3.82,3.82,0,1,0,.17,7.64l7-.16,0.16,7A3.82,3.82,0,1,0,3498.72,5193.39Z" transform="translate(-3406.2 -4773.4)"/><path class="cls-2" d="M3442.74,5213.72A19.57,19.57,0,1,0,3416,5221,19.59,19.59,0,0,0,3442.74,5213.72Zm-26.4-15.11a10.86,10.86,0,1,1,4,14.81A10.87,10.87,0,0,1,3416.33,5198.61Z" transform="translate(-3406.2 -4773.4)"/><path class="cls-2" d="M3696.79,5484.7a5.26,5.26,0,0,1-6.57,2.24,336.59,336.59,0,0,1-73.15-41.82,328.78,328.78,0,0,1-85.46-95.44,5.25,5.25,0,0,1,9-5.36,318.32,318.32,0,0,0,82.75,92.4,326.08,326.08,0,0,0,70.86,40.51,5.25,5.25,0,0,1,2.84,6.87A5.32,5.32,0,0,1,3696.79,5484.7Z" transform="translate(-3406.2 -4773.4)"/><path class="cls-2" d="M3986.52,5465a5.23,5.23,0,0,1-1.91,1.93,333.87,333.87,0,0,1-39.67,19.68,5.25,5.25,0,1,1-4-9.7,323.31,323.31,0,0,0,38.42-19.06A5.25,5.25,0,0,1,3986.52,5465Z" transform="translate(-3406.2 -4773.4)"/><path class="cls-2" d="M4105.47,5345a333,333,0,0,1-53.42,70,5.25,5.25,0,1,1-7.43-7.43,324.27,324.27,0,0,0,79.5-131.17,5.25,5.25,0,1,1,10,3.16A334.27,334.27,0,0,1,4105.47,5345Z" transform="translate(-3406.2 -4773.4)"/><path class="cls-2" d="M4148.69,5185.07a5.25,5.25,0,0,1-9.82-2.64c0.06-9-.27-18.15-1-27.15a5.25,5.25,0,1,1,10.48-.82c0.72,9.29,1.06,18.72,1,28A5.23,5.23,0,0,1,4148.69,5185.07Z" transform="translate(-3406.2 -4773.4)"/><path class="cls-2" d="M4132.43,5081a5.25,5.25,0,0,1-9.55-1,321.91,321.91,0,0,0-84.48-133.57,5.25,5.25,0,1,1,7.22-7.64,332.44,332.44,0,0,1,87.25,137.94A5.24,5.24,0,0,1,4132.43,5081Z" transform="translate(-3406.2 -4773.4)"/><path class="cls-2" d="M3984.1,4898.89a5.25,5.25,0,0,1-7.17,2c-8.4-4.81-17.09-9.28-25.83-13.29-7.16-3.29-14.52-6.35-21.87-9.09a5.25,5.25,0,1,1,3.67-9.85c7.59,2.83,15.19,6,22.58,9.38,9,4.14,18,8.76,26.66,13.72A5.25,5.25,0,0,1,3984.1,4898.89Z" transform="translate(-3406.2 -4773.4)"/></g><path class="cls-2" d="M3824.62,4964.25a13.43,13.43,0,0,1-9.37-3.82L3800.31,4946a2,2,0,0,0-1.63-.52l-22.25,3.37a13.47,13.47,0,0,1-15.49-13.31v-21a1.92,1.92,0,0,0-1.22-1.79l-18.13-7.17a13.47,13.47,0,0,1-7.13-18.46l8.85-18a1.92,1.92,0,0,0,0-1.67l-6-12.82a13.47,13.47,0,0,1,6.83-18.07l17.41-7.56a1.92,1.92,0,0,0,1.1-2.23l-4.67-18.8a13.47,13.47,0,0,1,14.63-16.62l25.66,3a1.93,1.93,0,0,0,1.65-.62h0l14.41-15.86a13.47,13.47,0,0,1,20.37.51l12.18,14.83a1.92,1.92,0,0,0,1.91.66l19.95-4.46a13.47,13.47,0,0,1,16.4,13.14v20a1.92,1.92,0,0,0,1.5,1.88l19.93,4.52a13.47,13.47,0,0,1,7.4,21.72l-12.31,14.88a1.94,1.94,0,0,0,0,2.42l13.62,17.33a13.47,13.47,0,0,1-6.4,21.12l-20.62,6.75a1.92,1.92,0,0,0-1.32,1.71l-1.27,20.88a13.47,13.47,0,0,1-15.34,12.51l-19.76-2.82a1.94,1.94,0,0,0-1.61.52l-15,14.5A13.43,13.43,0,0,1,3824.62,4964.25Zm-25.68-30.37a13.56,13.56,0,0,1,9.4,3.79l14.94,14.48a1.92,1.92,0,0,0,2.68,0l15-14.5a13.58,13.58,0,0,1,11.27-3.66l19.76,2.82a1.88,1.88,0,0,0,1.49-.42,1.91,1.91,0,0,0,.71-1.38l1.27-20.88a13.39,13.39,0,0,1,9.25-12l20.62-6.75a1.93,1.93,0,0,0,.92-3L3892.6,4875a13.54,13.54,0,0,1,.21-16.9l12.31-14.88a1.93,1.93,0,0,0-1.06-3.11l-19.93-4.52a13.4,13.4,0,0,1-10.49-13.13v-20a1.93,1.93,0,0,0-2.35-1.88l-19.95,4.46a13.4,13.4,0,0,1-13.34-4.6l-12.18-14.83a1.9,1.9,0,0,0-1.44-.7,1.84,1.84,0,0,0-1.47.63l-14.41,15.86a13.5,13.5,0,0,1-11.53,4.32l-25.67-3a1.9,1.9,0,0,0-1.67.64,1.88,1.88,0,0,0-.42,1.74l4.67,18.8a13.43,13.43,0,0,1-7.71,15.6l-17.41,7.56a1.93,1.93,0,0,0-1,2.59l6,12.82a13.41,13.41,0,0,1-.11,11.65l-8.85,18a1.93,1.93,0,0,0,1,2.64L3764,4902a13.39,13.39,0,0,1,8.51,12.52v21a1.93,1.93,0,0,0,2.22,1.91L3797,4934A13.37,13.37,0,0,1,3798.94,4933.87Z" transform="translate(-3406.2 -4773.4)"/><path class="cls-2" d="M3817.8,4911.13a5.77,5.77,0,0,1-4.75-2.5l-25.2-36.55a5.77,5.77,0,1,1,9.5-6.55l19.47,28.24,29.34-63.08a5.77,5.77,0,0,1,10.46,4.87L3823,4907.79a5.77,5.77,0,0,1-4.75,3.32Z" transform="translate(-3406.2 -4773.4)"/><path class="cls-2" d="M3767.88,5046.26a5.77,5.77,0,0,1-5.77-5.77v-33.28l-33.26,19.89a5.77,5.77,0,0,1-8.17-7.43l40.32-84.59a5.77,5.77,0,1,1,10.42,5l-32.11,67.36,25.61-15.32a5.77,5.77,0,0,1,8.73,5v19.8l33.62-64.83a5.77,5.77,0,1,1,10.24,5.31L3773,5043.15A5.77,5.77,0,0,1,3767.88,5046.26Z" transform="translate(-3406.2 -4773.4)"/><path class="cls-2" d="M3877.1,5033.62a5.77,5.77,0,0,1-5.06-3L3830.1,4954a5.77,5.77,0,0,1,10.12-5.54l32.77,59.85,2.57-29.73a5.77,5.77,0,0,1,9.12-4.18l16.05,11.58-25.79-51.11a5.77,5.77,0,1,1,10.3-5.2l36.45,72.23a5.77,5.77,0,0,1-8.53,7.28l-27-19.47-3.33,38.61A5.77,5.77,0,0,1,3877.1,5033.62Z" transform="translate(-3406.2 -4773.4)"/><path class="cls-2" d="M3611,5262.9a27.52,27.52,0,0,1-14.83-4.35l-57.66-36.7a4.74,4.74,0,0,1-1.59-6.32l89.54-159.18a4.74,4.74,0,0,1,6.6-1.72l62.24,37.92a27.87,27.87,0,0,1,9.49,37.73L3635,5249.19a27.51,27.51,0,0,1-17.42,12.93A28,28,0,0,1,3611,5262.9Zm-63.61-46.64,53.87,34.29a18.26,18.26,0,0,0,25.55-6.16l69.79-118.91a18.34,18.34,0,0,0-6.25-24.84l-58-35.37Z" transform="translate(-3406.2 -4773.4)"/><path class="cls-2" d="M4083.14,5205.31l-89.53-159.17a4.73,4.73,0,0,0-6.6-1.73l-62.24,37.93a27.81,27.81,0,0,0-13.21,22.17,27.43,27.43,0,0,0,1.27,10,27,27,0,0,0,2.47,5.51L3985.06,5239c0.15,0.25.3,0.49,0.46,0.74a27.22,27.22,0,0,0,6.54,7.22,27.73,27.73,0,0,0,31.82,1.41l57.67-36.7A4.75,4.75,0,0,0,4083.14,5205.31Zm-64.34,35a18.26,18.26,0,0,1-25.56-6.16l-69.79-118.91a18,18,0,0,1-2.07-5.29,18.36,18.36,0,0,1,8.32-19.54l58-35.37,84.92,151Z" transform="translate(-3406.2 -4773.4)"/><path class="cls-2" d="M3697.26,5308.79c-0.11.15-.21,0.3-0.33,0.44l0.34-.43h0Zm-7-6.52c-0.25.38-.53,0.76-0.81,1.13l0.85-1.09Zm7,6.52-7-6.48,0,0c-0.25.38-.53,0.76-0.81,1.13l-5,6.42,7,6.49h0l5.51-7.08,0.34-.43h0Zm-7-6.52c-0.25.38-.53,0.76-0.81,1.13l0.85-1.09Zm7,6.52c-0.11.15-.21,0.3-0.33,0.44l0.34-.43h0Zm65.42,61-5.85,7.51,7,6.49,5.85-7.51ZM3969,5259.71a29.91,29.91,0,0,0-6.64-7.17l-0.25.14-132-97.35a4.74,4.74,0,0,0-5.29-.23l-5.21,3.2,0.6,1a4.89,4.89,0,0,0,1.26,1.37l134.62,99a20.31,20.31,0,0,1,2.52,2.19l0,0a20,20,0,0,1,2.11,25.29l-4.3,6.27a18.81,18.81,0,0,1-12.52,8.09,20,20,0,0,1-14.68-3.53l-43.22-31.47a4.74,4.74,0,1,0-5.58,7.67l42.44,30.91,0.85,0.62,15.39,11.21a20.06,20.06,0,0,1,3.93,28.65l-5.93,7.5a20.17,20.17,0,0,1-27.87,3.53l-8-6c-0.76-.7-1.55-1.37-2.39-2L3855,5315.42a4.74,4.74,0,0,0-5.73,7.56l45.9,34.86a20,20,0,0,1,2.42,25.81l-4.49,6.43a20.05,20.05,0,0,1-28.5,4.56l-31.15-23.4a4.74,4.74,0,0,0-5.74,7.54l17.86,13.76a20.06,20.06,0,0,1-24.23,32L3805.84,5410l-7-6.5L3793,5411l7,6.49,15.08,14.06a4,4,0,0,0,.35.3,29.53,29.53,0,0,0,47.23-27.18s0-.07,0-0.11a29.56,29.56,0,0,0,38.26-9.11l4.48-6.43a29.46,29.46,0,0,0,5.06-21,29.74,29.74,0,0,0,34.16-9.09l5.93-7.5a29.53,29.53,0,0,0-4-40.77,28.22,28.22,0,0,0,17.73-11.88l4.3-6.26A29.44,29.44,0,0,0,3969,5259.71Zm-172.48-139.33,8.67-4.27a40.09,40.09,0,0,0-6.75-7.24,40.62,40.62,0,0,0-23.35-9.38,4.75,4.75,0,0,0-1.59.16l-65,18.22L3701,5120a4.74,4.74,0,0,0-2.81,2.15l-0.21.36-73.79,125.31v0l-0.28.47a4.73,4.73,0,0,0,.85,5.87l3.2,3,20.29,18.92,7,6.5,2.84-3.64a19.67,19.67,0,0,1,3.46-3.46l-7-6.53-20.14-18.78-0.36-.34,71.4-121.23,0.3-.08,69.52-19.49a31,31,0,0,1,13.58,4.57h0A31.5,31.5,0,0,1,3796.53,5120.38Zm-99.59,188.85,0.34-.43h0C3697.16,5308.94,3697,5309.09,3696.93,5309.23Zm-7.48-5.83,0.85-1.09,0,0C3690,5302.65,3689.74,5303,3689.46,5303.4Zm37,32.65-5.85,7.51,7,6.49,5.85-7.51Zm-29.23-27.26c-0.11.15-.21,0.3-0.33,0.44l0.34-.43h0Zm-7-6.52c-0.25.38-.53,0.76-0.81,1.13l0.85-1.09Z" transform="translate(-3406.2 -4773.4)"/><path class="cls-2" d="M3996.78,5238.77l-0.32-.55L3921.38,5110l-1.1-1.88a4.71,4.71,0,0,0-3-2.22l-5.74-1.36-55.65-13.23c-0.17,0-.35-0.07-0.52-0.09a56.66,56.66,0,0,0-31.93,5.41l-25,12.29-9.6,4.72h0l-81.65,40.14a36.2,36.2,0,1,0,34.92,63.34l85-52.21,131.55,97,0,0,0.28,0.21a4.72,4.72,0,0,0,5.11.33l5-2.74,23.06-12.78,2.93-1.62A4.75,4.75,0,0,0,3996.78,5238.77Zm-34.42,13.77-0.25.14-132-97.35a4.74,4.74,0,0,0-5.29-.23l-5.21,3.2L3737.14,5209a26.72,26.72,0,1,1-25.77-46.74l85.16-41.86,8.67-4.27,22.43-11a47.2,47.2,0,0,1,26.35-4.53l58.84,14,0.31,0.07,73,124.75-0.62.35Z" transform="translate(-3406.2 -4773.4)"/><path class="cls-2" d="M3702.78,5286.63a29.38,29.38,0,0,0-52.19-13.53l-2.32,3-18.33,23.52a29.39,29.39,0,0,0,23.12,47.46c0.9,0,1.82,0,2.72-.13l0.95-.1a29.17,29.17,0,0,0,19.47-11l15.23-19.53,5.52-7.08c0.12-.14.22-0.29,0.33-0.44A29.27,29.27,0,0,0,3702.78,5286.63Zm-18.33,23.19L3668.72,5330a19.9,19.9,0,0,1-31.31-24.58l17.82-22.85,2.84-3.64a19.67,19.67,0,0,1,3.46-3.46,19.9,19.9,0,0,1,28.75,26.81c-0.25.38-.53,0.76-0.81,1.13l-5,6.42h0Z" transform="translate(-3406.2 -4773.4)"/><path class="cls-2" d="M3753,5303.54a29.38,29.38,0,0,0-50.18-16.91,27.89,27.89,0,0,0-2.15,2.46l-10.31,13.22-0.85,1.09-5,6.42h0L3668.72,5330l-11.09,14.22a26.82,26.82,0,0,0-1.87,2.7,29.38,29.38,0,0,0,48.21,33.43l23.62-30.29,5.85-7.51,13.51-17.32a29.16,29.16,0,0,0,6.12-15.53A30.2,30.2,0,0,0,3753,5303.54Zm-26.46,32.51-5.85,7.51-24.14,31a19.9,19.9,0,0,1-31.39-24.48l11.07-14.2,15.23-19.53h0l5.51-7.08,0.34-.43,10.83-13.89a19.9,19.9,0,1,1,31.38,24.47Z" transform="translate(-3406.2 -4773.4)"/><path class="cls-2" d="M3808.44,5358.91a29.41,29.41,0,0,0-41.24,5.11l-4.51,5.78-5.85,7.51h0l-10.33,13.25a29.18,29.18,0,0,0-5.94,21.63c0,0.31.08,0.63,0.13,0.94a29.38,29.38,0,0,0,52.2,13.51l7.09-9.1,5.86-7.5,7.71-9.89A29.43,29.43,0,0,0,3808.44,5358.91Zm-2.37,35.41-7.19,9.22L3793,5411l-7.61,9.76a19.9,19.9,0,0,1-31.5-24.33l0.07-.08,9.82-12.6,5.85-7.51,5-6.44A19.9,19.9,0,0,1,3806.07,5394.32Z" transform="translate(-3406.2 -4773.4)"/><path class="cls-2" d="M3780.73,5314.28a29.43,29.43,0,0,0-41.25,5.1l-13,16.67-5.85,7.51-24.14,31a29.39,29.39,0,0,0,23.12,47.46,30.64,30.64,0,0,0,3.67-.23,29.14,29.14,0,0,0,17.4-8.62,28.51,28.51,0,0,0,2.17-2.47l11.05-14.18,0.07-.08,9.82-12.6,5.85-7.51,5-6.44,11.16-14.32a27.64,27.64,0,0,0,1.87-2.7A29.42,29.42,0,0,0,3780.73,5314.28Zm-23.9,63h0l-10.33,13.25-11.12,14.27a19.77,19.77,0,0,1-13.25,7.52,21,21,0,0,1-2.48.16,19.91,19.91,0,0,1-15.66-32.15l23.62-30.29,5.85-7.51,13.51-17.32a19.9,19.9,0,1,1,31.39,24.47l-15.67,20.1Z" transform="translate(-3406.2 -4773.4)"/></svg>