<svg id="Layer_1" data-name="Layer 1" xmlns="http://www.w3.org/2000/svg" viewBox="0 0 684.54 663.24"><defs><style>.cls-1{opacity:0.3;}.cls-2{fill:#fff;}</style></defs><title>onboarding5</title><g class="cls-1"><path class="cls-2" d="M5138.86,5446.75a5.73,5.73,0,0,1-4.05-9.78c3.31-3.31,6.59-6.73,9.74-10.16a5.73,5.73,0,0,1,8.44,7.75c-3.26,3.55-6.65,7.08-10.07,10.51A5.71,5.71,0,0,1,5138.86,5446.75Z" transform="translate(-4558.67 -4860.53)"/><path class="cls-2" d="M5164.73,5417.72a5.73,5.73,0,0,1-4.48-9.29,332.42,332.42,0,0,0,29.32-43.69,5.73,5.73,0,1,1,10,5.61,344,344,0,0,1-30.34,45.2A5.72,5.72,0,0,1,5164.73,5417.72Z" transform="translate(-4558.67 -4860.53)"/><path class="cls-2" d="M5222.39,5308.62a5.73,5.73,0,0,1-5.47-7.43c1.87-6,3.58-12.14,5.09-18.22a5.73,5.73,0,1,1,11.12,2.76c-1.56,6.29-3.33,12.64-5.26,18.86A5.73,5.73,0,0,1,5222.39,5308.62Z" transform="translate(-4558.67 -4860.53)"/><path class="cls-2" d="M5234.14,5256.29a5.74,5.74,0,0,1-5.68-6.53,335.29,335.29,0,0,0-.33-95.89,5.73,5.73,0,1,1,11.33-1.68,346.66,346.66,0,0,1,.34,99.18A5.73,5.73,0,0,1,5234.14,5256.29Z" transform="translate(-4558.67 -4860.53)"/><path class="cls-2" d="M5219.28,5099.2a5.73,5.73,0,0,1-5.42-3.87c-1.55-4.53-3.23-9.07-5-13.5a5.73,5.73,0,0,1,10.66-4.19c1.81,4.59,3.54,9.29,5.15,14A5.73,5.73,0,0,1,5219.28,5099.2Z" transform="translate(-4558.67 -4860.53)"/><path class="cls-2" d="M5202.23,5058.53a5.73,5.73,0,0,1-5.13-3.17,331.81,331.81,0,0,0-39.48-61.17,5.73,5.73,0,0,1,8.89-7.23,343.27,343.27,0,0,1,40.84,63.28A5.73,5.73,0,0,1,5202.23,5058.53Z" transform="translate(-4558.67 -4860.53)"/><path class="cls-2" d="M5115.54,4949.36a5.71,5.71,0,0,1-3.65-1.32c-7.2-6-14.75-11.71-22.43-17a5.73,5.73,0,0,1,6.54-9.41c7.95,5.52,15.75,11.46,23.21,17.64A5.73,5.73,0,0,1,5115.54,4949.36Z" transform="translate(-4558.67 -4860.53)"/><path class="cls-2" d="M5066.56,4915.56a5.71,5.71,0,0,1-2.82-.75,328.63,328.63,0,0,0-91-35,5.73,5.73,0,1,1,2.48-11.18,340.1,340.1,0,0,1,94.12,36.19A5.73,5.73,0,0,1,5066.56,4915.56Z" transform="translate(-4558.67 -4860.53)"/><path class="cls-2" d="M4663,5446.75a5.71,5.71,0,0,1-4.05-1.68c-3.41-3.41-6.8-6.95-10.07-10.51a5.73,5.73,0,1,1,8.43-7.75c3.16,3.44,6.44,6.86,9.74,10.16A5.73,5.73,0,0,1,4663,5446.75Z" transform="translate(-4558.67 -4860.53)"/><path class="cls-2" d="M4637.14,5417.72a5.72,5.72,0,0,1-4.49-2.17,344.08,344.08,0,0,1-30.34-45.2,5.73,5.73,0,0,1,10-5.61,332.39,332.39,0,0,0,29.32,43.69A5.73,5.73,0,0,1,4637.14,5417.72Z" transform="translate(-4558.67 -4860.53)"/><path class="cls-2" d="M4579.47,5308.62a5.73,5.73,0,0,1-5.47-4c-1.93-6.21-3.7-12.55-5.26-18.86a5.73,5.73,0,0,1,11.12-2.76c1.51,6.09,3.22,12.22,5.09,18.22A5.73,5.73,0,0,1,4579.47,5308.62Z" transform="translate(-4558.67 -4860.53)"/><path class="cls-2" d="M4567.73,5256.29a5.73,5.73,0,0,1-5.66-4.93,346.61,346.61,0,0,1,.34-99.18,5.73,5.73,0,1,1,11.33,1.68,335.14,335.14,0,0,0-.33,95.89A5.74,5.74,0,0,1,4567.73,5256.29Z" transform="translate(-4558.67 -4860.53)"/><path class="cls-2" d="M4582.59,5099.2a5.73,5.73,0,0,1-5.42-7.59c1.61-4.68,3.34-9.38,5.15-14a5.73,5.73,0,1,1,10.66,4.19c-1.75,4.44-3.42,9-5,13.5A5.73,5.73,0,0,1,4582.59,5099.2Z" transform="translate(-4558.67 -4860.53)"/><path class="cls-2" d="M4599.64,5058.53a5.73,5.73,0,0,1-5.12-8.29,343.22,343.22,0,0,1,40.84-63.28,5.73,5.73,0,1,1,8.89,7.23,331.81,331.81,0,0,0-39.48,61.17A5.73,5.73,0,0,1,4599.64,5058.53Z" transform="translate(-4558.67 -4860.53)"/><path class="cls-2" d="M4686.32,4949.36a5.73,5.73,0,0,1-3.66-10.14c7.45-6.18,15.26-12.11,23.21-17.64a5.73,5.73,0,0,1,6.54,9.41c-7.68,5.34-15.23,11.07-22.43,17A5.7,5.7,0,0,1,4686.32,4949.36Z" transform="translate(-4558.67 -4860.53)"/><path class="cls-2" d="M4735.31,4915.56a5.73,5.73,0,0,1-2.83-10.71,340.09,340.09,0,0,1,94.12-36.19,5.73,5.73,0,1,1,2.48,11.18,328.62,328.62,0,0,0-91,35A5.71,5.71,0,0,1,4735.31,4915.56Z" transform="translate(-4558.67 -4860.53)"/><path class="cls-2" d="M4882.32,4872.5a5.73,5.73,0,0,1-.31-11.45,349.71,349.71,0,0,1,36.69-.08,5.73,5.73,0,0,1-.58,11.44,338.53,338.53,0,0,0-35.48.07h-0.32Z" transform="translate(-4558.67 -4860.53)"/><path class="cls-2" d="M5078.78,5398.63a5.73,5.73,0,0,1-4-9.78c2.46-2.46,4.89-5,7.23-7.55a5.73,5.73,0,1,1,8.44,7.75c-2.45,2.67-5,5.33-7.57,7.9A5.71,5.71,0,0,1,5078.78,5398.63Z" transform="translate(-4558.67 -4860.53)"/><path class="cls-2" d="M5098.12,5376.93a5.73,5.73,0,0,1-4.48-9.29,247.09,247.09,0,0,0,21.79-32.47,5.73,5.73,0,0,1,10,5.61,258.58,258.58,0,0,1-22.81,34A5.72,5.72,0,0,1,5098.12,5376.93Z" transform="translate(-4558.67 -4860.53)"/><path class="cls-2" d="M5141.23,5295.38a5.73,5.73,0,0,1-5.47-7.43c1.38-4.46,2.66-9,3.78-13.54a5.73,5.73,0,1,1,11.12,2.76c-1.17,4.73-2.51,9.5-4,14.17A5.73,5.73,0,0,1,5141.23,5295.38Z" transform="translate(-4558.67 -4860.53)"/><path class="cls-2" d="M5150,5256.27a5.74,5.74,0,0,1-5.68-6.53,249.19,249.19,0,0,0-.24-71.26,5.73,5.73,0,1,1,11.33-1.68,260.53,260.53,0,0,1,.26,74.55A5.73,5.73,0,0,1,5150,5256.27Z" transform="translate(-4558.67 -4860.53)"/><path class="cls-2" d="M5138.9,5138.84a5.73,5.73,0,0,1-5.42-3.87c-1.15-3.35-2.39-6.72-3.7-10a5.73,5.73,0,0,1,10.66-4.19c1.36,3.47,2.67,7,3.87,10.51A5.73,5.73,0,0,1,5138.9,5138.84Z" transform="translate(-4558.67 -4860.53)"/><path class="cls-2" d="M5126.15,5108.44a5.73,5.73,0,0,1-5.13-3.17,246.7,246.7,0,0,0-29.34-45.46,5.73,5.73,0,1,1,8.89-7.23,258.08,258.08,0,0,1,30.7,47.57A5.73,5.73,0,0,1,5126.15,5108.44Z" transform="translate(-4558.67 -4860.53)"/><path class="cls-2" d="M5061.35,5026.84a5.7,5.7,0,0,1-3.65-1.32c-5.36-4.44-11-8.71-16.67-12.67a5.73,5.73,0,0,1,6.54-9.41c6,4.15,11.84,8.61,17.44,13.26A5.73,5.73,0,0,1,5061.35,5026.84Z" transform="translate(-4558.67 -4860.53)"/><path class="cls-2" d="M5024.73,5001.57a5.71,5.71,0,0,1-2.82-.75,244.23,244.23,0,0,0-67.59-26,5.73,5.73,0,1,1,2.48-11.18,255.68,255.68,0,0,1,70.76,27.21A5.73,5.73,0,0,1,5024.73,5001.57Z" transform="translate(-4558.67 -4860.53)"/><path class="cls-2" d="M4723.08,5398.63A5.71,5.71,0,0,1,4719,5397c-2.58-2.58-5.12-5.23-7.57-7.9a5.73,5.73,0,0,1,8.44-7.75c2.34,2.55,4.77,5.09,7.24,7.55A5.73,5.73,0,0,1,4723.08,5398.63Z" transform="translate(-4558.67 -4860.53)"/><path class="cls-2" d="M4703.75,5376.93a5.72,5.72,0,0,1-4.49-2.17,258.7,258.7,0,0,1-22.81-34,5.73,5.73,0,0,1,10-5.61,247.22,247.22,0,0,0,21.79,32.47A5.73,5.73,0,0,1,4703.75,5376.93Z" transform="translate(-4558.67 -4860.53)"/><path class="cls-2" d="M4660.64,5295.38a5.73,5.73,0,0,1-5.47-4c-1.45-4.66-2.78-9.43-4-14.18a5.73,5.73,0,0,1,11.12-2.76c1.13,4.53,2.4,9.09,3.78,13.54A5.73,5.73,0,0,1,4660.64,5295.38Z" transform="translate(-4558.67 -4860.53)"/><path class="cls-2" d="M4651.86,5256.27a5.73,5.73,0,0,1-5.66-4.93,260.57,260.57,0,0,1,.25-74.55,5.73,5.73,0,0,1,11.33,1.68,249.1,249.1,0,0,0-.24,71.26A5.74,5.74,0,0,1,4651.86,5256.27Z" transform="translate(-4558.67 -4860.53)"/><path class="cls-2" d="M4663,5138.84a5.73,5.73,0,0,1-5.42-7.59c1.21-3.51,2.51-7,3.87-10.51a5.73,5.73,0,0,1,10.66,4.19c-1.3,3.3-2.54,6.68-3.7,10A5.73,5.73,0,0,1,4663,5138.84Z" transform="translate(-4558.67 -4860.53)"/><path class="cls-2" d="M4675.72,5108.44a5.73,5.73,0,0,1-5.12-8.29,258,258,0,0,1,30.7-47.57,5.73,5.73,0,1,1,8.89,7.23,246.65,246.65,0,0,0-29.34,45.45A5.73,5.73,0,0,1,4675.72,5108.44Z" transform="translate(-4558.67 -4860.53)"/><path class="cls-2" d="M4740.51,5026.84a5.73,5.73,0,0,1-3.66-10.14c5.61-4.65,11.48-9.11,17.44-13.26a5.73,5.73,0,0,1,6.54,9.41c-5.7,4-11.31,8.23-16.67,12.67A5.7,5.7,0,0,1,4740.51,5026.84Z" transform="translate(-4558.67 -4860.53)"/><path class="cls-2" d="M4777.13,5001.57a5.73,5.73,0,0,1-2.83-10.71,255.68,255.68,0,0,1,70.76-27.21,5.73,5.73,0,1,1,2.48,11.18,244.22,244.22,0,0,0-67.59,26A5.71,5.71,0,0,1,4777.13,5001.57Z" transform="translate(-4558.67 -4860.53)"/><path class="cls-2" d="M4887,4969.38a5.73,5.73,0,0,1-.31-11.45,263.68,263.68,0,0,1,27.57-.06,5.73,5.73,0,0,1-.58,11.44,251.86,251.86,0,0,0-26.37.06H4887Z" transform="translate(-4558.67 -4860.53)"/><path class="cls-2" d="M4919.69,4872.5h-0.32a337.89,337.89,0,0,0-35.48-.07,5.73,5.73,0,1,1-.58-11.44,350.14,350.14,0,0,1,36.69.08A5.73,5.73,0,0,1,4919.69,4872.5Z" transform="translate(-4558.67 -4860.53)"/></g><path class="cls-2" d="M4978.63,5329.76H4821.93a5.73,5.73,0,0,1-5.73-5.73v-18.38a5.73,5.73,0,0,1,5.73-5.73h156.69a5.73,5.73,0,0,1,5.73,5.73V5324A5.73,5.73,0,0,1,4978.63,5329.76Zm-5.73-11.46v-6.92H4827.66v6.92" transform="translate(-4558.67 -4860.53)"/><path class="cls-2" d="M4901.12,5115.1a45,45,0,1,1,45-45A45,45,0,0,1,4901.12,5115.1Zm0-78.5a33.52,33.52,0,1,0,33.52,33.52A33.56,33.56,0,0,0,4901.12,5036.59Z" transform="translate(-4558.67 -4860.53)"/><path class="cls-2" d="M4901.12,5097.19a27.07,27.07,0,1,1,27.07-27.07A27.1,27.1,0,0,1,4901.12,5097.19Zm0-42.69a15.62,15.62,0,1,0,15.62,15.62A15.63,15.63,0,0,0,4901.12,5054.5Z" transform="translate(-4558.67 -4860.53)"/><path class="cls-2" d="M5095.62,5186.36l-0.05,0c-1.22-1-2.5-2-3.81-3a210,210,0,0,1-74.74-99,433.86,433.86,0,0,0-111.81-198.09,5.73,5.73,0,0,0-8.17,0,434.49,434.49,0,0,0-104.39,172.21,5.66,5.66,0,0,0-.66,1.61c-0.15.68-.33,1.35-0.49,2q-2.79,9-5.2,18.1a210,210,0,0,1-76.18,103.2c-1.31.95-2.59,1.94-3.81,3l0,0a134.46,134.46,0,0,0-48.5,103.54v15.78a5.73,5.73,0,0,0,5.73,5.73h474.88a5.73,5.73,0,0,0,5.73-5.73v-15.78A134.46,134.46,0,0,0,5095.62,5186.36Zm-426.4,103.52a123,123,0,0,1,44.42-94.77l0,0c1-.83,2.05-1.65,3.13-2.44a222,222,0,0,0,59.67-64.48,440.76,440.76,0,0,0,8.82,171.77H4669.22v-10.05Zm322,10.05H4797.14a428.34,428.34,0,0,1,.21-216.7q2.91-8.71,5.09-17.7a422.69,422.69,0,0,1,98.68-167.07,422.83,422.83,0,0,1,97.49,163.21,5.69,5.69,0,0,0,.11.91,220,220,0,0,0,7.25,24.87,428.23,428.23,0,0,1-.87,212.48h-13.84Zm141.38,0H5016.93a440.61,440.61,0,0,0,8.93-171,222.05,222.05,0,0,0,59.18,63.69c1.07,0.77,2.12,1.58,3.11,2.42l0.06,0.06a123,123,0,0,1,44.42,94.77v10.05Z" transform="translate(-4558.67 -4860.53)"/><path class="cls-2" d="M4912.58,5311.39h-22.91a5.73,5.73,0,0,1-5.73-5.73V5177.35a17.18,17.18,0,1,1,34.37,0v128.31A5.73,5.73,0,0,1,4912.58,5311.39Zm-17.18-11.46h11.46V5177.35a5.73,5.73,0,1,0-11.46,0v122.58Z" transform="translate(-4558.67 -4860.53)"/><path class="cls-2" d="M4900.78,4990.58a116.54,116.54,0,0,1-63-18.43,5.73,5.73,0,0,1,6.18-9.64,105.55,105.55,0,0,0,114.17-.3,5.73,5.73,0,0,1,6.23,9.61A116.49,116.49,0,0,1,4900.78,4990.58Z" transform="translate(-4558.67 -4860.53)"/><path class="cls-2" d="M4948.73,5342.73A5.73,5.73,0,0,1,4943,5337v-11.87a5.73,5.73,0,0,1,11.46,0V5337A5.73,5.73,0,0,1,4948.73,5342.73Z" transform="translate(-4558.67 -4860.53)"/><path class="cls-2" d="M4857.59,5324.13v0Z" transform="translate(-4558.67 -4860.53)"/><path class="cls-2" d="M4857.59,5360.06a5.73,5.73,0,0,1-5.73-5.73v-30.2a5.73,5.73,0,0,1,11.46,0v30.2A5.73,5.73,0,0,1,4857.59,5360.06Z" transform="translate(-4558.67 -4860.53)"/><path class="cls-2" d="M4857.59,5395.29a5.73,5.73,0,0,0-5.73,5.73,69.26,69.26,0,0,1-41.39,63.39,5.73,5.73,0,1,0,4.61,10.49,80.72,80.72,0,0,0,48.24-73.88A5.73,5.73,0,0,0,4857.59,5395.29Z" transform="translate(-4558.67 -4860.53)"/><path class="cls-2" d="M4948.73,5385.86a5.73,5.73,0,0,0,5.73-5.73v-18.75a5.73,5.73,0,0,0-11.46,0v18.75A5.73,5.73,0,0,0,4948.73,5385.86Z" transform="translate(-4558.67 -4860.53)"/><path class="cls-2" d="M4999.58,5469.08a61.13,61.13,0,0,1-45.13-59,5.73,5.73,0,1,0-11.46,0,72.61,72.61,0,0,0,53.6,70A5.73,5.73,0,1,0,4999.58,5469.08Z" transform="translate(-4558.67 -4860.53)"/><path class="cls-2" d="M4788.49,5460.95a65.48,65.48,0,0,0,39.13-59.93,5.6,5.6,0,0,1,0-2.39v-74.5a5.73,5.73,0,1,0-11.46,0v74.5a5.6,5.6,0,0,1,0,2.39,54,54,0,0,1-32.28,49.44,5.67,5.67,0,0,0-.66.37,40.23,40.23,0,0,0-64.25-6.73,55.66,55.66,0,0,0-80,7.91,51.55,51.55,0,0,0-65.7,68.27,5.73,5.73,0,1,0,10.55-4.46,40.11,40.11,0,1,1,76.23-23.69,5.73,5.73,0,1,0,11.22-2.3,51.49,51.49,0,0,0-21.9-32.45,44.24,44.24,0,0,1,63.08-3.77,40.3,40.3,0,0,0-2.35,29.67,5.73,5.73,0,1,0,10.95-3.38,28.83,28.83,0,1,1,55.1,0,5.73,5.73,0,0,0,10.95,3.37,40.44,40.44,0,0,0,.49-22A5.7,5.7,0,0,0,4788.49,5460.95Z" transform="translate(-4558.67 -4860.53)"/><path class="cls-2" d="M5181.11,5448.65a51.18,51.18,0,0,0-18.2,3.35,55.66,55.66,0,0,0-80-7.91,40.23,40.23,0,0,0-64.47,7.1,54.06,54.06,0,0,1-34.12-50.18,5.6,5.6,0,0,1,0-2.39v-74.5a5.73,5.73,0,1,0-11.46,0v74.5a5.6,5.6,0,0,1,0,2.39,65.53,65.53,0,0,0,41.3,60.81,40.32,40.32,0,0,0,.63,21.4,5.73,5.73,0,0,0,10.95-3.37,28.83,28.83,0,1,1,55.1,0,5.73,5.73,0,1,0,10.95,3.38,40.3,40.3,0,0,0-2.35-29.67,44.24,44.24,0,0,1,63.08,3.77,51.49,51.49,0,0,0-21.9,32.45,5.73,5.73,0,1,0,11.22,2.3,40.1,40.1,0,1,1,76.23,23.69,5.73,5.73,0,1,0,10.55,4.46A51.58,51.58,0,0,0,5181.11,5448.65Z" transform="translate(-4558.67 -4860.53)"/><path class="cls-2" d="M4900.23,5412a5.73,5.73,0,0,0-5.73,5.73v19.09a5.73,5.73,0,0,0,11.46,0v-19.09A5.73,5.73,0,0,0,4900.23,5412Z" transform="translate(-4558.67 -4860.53)"/><path class="cls-2" d="M4900.23,5318.4a5.73,5.73,0,0,0-5.73,5.73v60.75a5.73,5.73,0,0,0,11.46,0v-60.75A5.73,5.73,0,0,0,4900.23,5318.4Z" transform="translate(-4558.67 -4860.53)"/><g class="cls-1"><path class="cls-2" d="M4643.5,4948.83h7v7a3.82,3.82,0,1,0,7.64,0v-7h7a3.82,3.82,0,0,0,0-7.64h-7v-7a3.82,3.82,0,1,0-7.64,0v7h-7A3.82,3.82,0,1,0,4643.5,4948.83Z" transform="translate(-4558.67 -4860.53)"/><path class="cls-2" d="M5203.58,5418.19a4.81,4.81,0,0,0,6.81,0l6.28-6.28,6.28,6.28a4.81,4.81,0,0,0,6.81-6.81l-6.28-6.28,6.28-6.28a4.81,4.81,0,1,0-6.81-6.81l-6.28,6.28-6.28-6.28a4.81,4.81,0,1,0-6.81,6.81l6.28,6.28-6.28,6.28A4.81,4.81,0,0,0,5203.58,5418.19Z" transform="translate(-4558.67 -4860.53)"/><path class="cls-2" d="M5159,4964.58a19.56,19.56,0,1,0-19.56-19.56A19.59,19.59,0,0,0,5159,4964.58Zm0-30.42a10.86,10.86,0,1,1-10.86,10.86A10.87,10.87,0,0,1,5159,4934.16Z" transform="translate(-4558.67 -4860.53)"/><path class="cls-2" d="M4601.58,4915.41a19.57,19.57,0,1,0-19.56-19.57A19.59,19.59,0,0,0,4601.58,4915.41Zm0-30.42a10.86,10.86,0,1,1-10.86,10.86A10.87,10.87,0,0,1,4601.58,4885Z" transform="translate(-4558.67 -4860.53)"/><circle class="cls-2" cx="658.08" cy="23.97" r="6.87"/><circle class="cls-2" cx="23.35" cy="557.19" r="6.87"/></g></svg>